<svg xmlns="http://www.w3.org/2000/svg" width="52.473" height="57.746" viewBox="0 0 52.473 57.746">
  <g id="_11" data-name="11" transform="translate(-30.008 -6.5)">
    <path id="Trazado_726315" data-name="Trazado 726315" d="M219.107,135h-29.45a1.71,1.71,0,0,1-1.71-1.71V90.029a1.71,1.71,0,0,1,1.71-1.71h29.45a1.71,1.71,0,0,1,1.71,1.71v43.262A1.71,1.71,0,0,1,219.107,135Z" transform="translate(-139.336 -71.754)" fill="#dee9f0"/>
    <path id="Trazado_726316" data-name="Trazado 726316" d="M220.817,95.793V90.029a1.71,1.71,0,0,0-1.71-1.71h-29.45a1.71,1.71,0,0,0-1.71,1.71v43.262a1.71,1.71,0,0,0,1.71,1.71h29.45a1.71,1.71,0,0,0,1.71-1.71V99.046" transform="translate(-139.336 -71.754)" fill="none" stroke="#000" stroke-linecap="round" stroke-linejoin="round" stroke-miterlimit="10" stroke-width="2"/>
    <path id="Trazado_726317" data-name="Trazado 726317" d="M140.637,94.59h-29.45a1.71,1.71,0,0,1-1.71-1.71V49.619a1.71,1.71,0,0,1,1.71-1.71h29.45a1.71,1.71,0,0,1,1.71,1.71V92.881A1.71,1.71,0,0,1,140.637,94.59Z" transform="translate(-69.667 -35.876)" fill="#0ce6ea"/>
    <path id="Trazado_726318" data-name="Trazado 726318" d="M133.025,94.59h7.612a1.71,1.71,0,0,0,1.71-1.71V49.619a1.71,1.71,0,0,0-1.71-1.71h-29.45a1.71,1.71,0,0,0-1.71,1.71V92.881a1.71,1.71,0,0,0,1.71,1.71h18.586" transform="translate(-69.667 -35.876)" fill="none" stroke="#000" stroke-linecap="round" stroke-linejoin="round" stroke-miterlimit="10" stroke-width="2"/>
    <path id="Trazado_726319" data-name="Trazado 726319" d="M62.168,54.181H32.718a1.71,1.71,0,0,1-1.71-1.71V9.21a1.71,1.71,0,0,1,1.71-1.71h29.45a1.71,1.71,0,0,1,1.71,1.71V52.472A1.71,1.71,0,0,1,62.168,54.181Z" fill="#f9f7f8"/>
    <path id="Trazado_726320" data-name="Trazado 726320" d="M288.368,7.5h-2.582a1.71,1.71,0,0,1,1.71,1.71V52.472a1.71,1.71,0,0,1-1.71,1.71h2.582a1.71,1.71,0,0,0,1.71-1.71V9.21A1.71,1.71,0,0,0,288.368,7.5Z" transform="translate(-226.201)" fill="#efedef"/>
    <g id="Grupo_958175" data-name="Grupo 958175" transform="translate(35.541 11.265)">
      <path id="Trazado_726321" data-name="Trazado 726321" d="M79.03,49.033H72.618a.779.779,0,0,1-.779-.779V41.842a.779.779,0,0,1,.779-.779H79.03a.779.779,0,0,1,.779.779v6.412A.779.779,0,0,1,79.03,49.033Z" transform="translate(-71.792 -41.063)" fill="#ff6e33"/>
      <path id="Trazado_726322" data-name="Trazado 726322" d="M115.445,41.062h-2.591a.779.779,0,0,1,.779.779v6.412a.779.779,0,0,1-.779.779h2.591a.779.779,0,0,0,.779-.779V41.841A.779.779,0,0,0,115.445,41.062Z" transform="translate(-108.207 -41.062)" fill="#e53950"/>
      <path id="Trazado_726323" data-name="Trazado 726323" d="M72.663,240.174H93.988a1.239,1.239,0,0,1,1.239,1.239v2.806a1.239,1.239,0,0,1-1.239,1.239H72.663a1.239,1.239,0,0,1-1.239-1.239v-2.806A1.239,1.239,0,0,1,72.663,240.174Z" transform="translate(-71.424 -217.84)" fill="#ff6e33"/>
      <path id="Trazado_726324" data-name="Trazado 726324" d="M253.815,240.174h-2.372a1.239,1.239,0,0,1,1.239,1.239v2.806a1.239,1.239,0,0,1-1.239,1.239h2.372a1.239,1.239,0,0,0,1.239-1.239v-2.806A1.239,1.239,0,0,0,253.815,240.174Z" transform="translate(-231.251 -217.84)" fill="#e53950"/>
      <path id="Trazado_726325" data-name="Trazado 726325" d="M79.03,49.033H72.618a.779.779,0,0,1-.779-.779V41.842a.779.779,0,0,1,.779-.779H79.03a.779.779,0,0,1,.779.779v6.412A.779.779,0,0,1,79.03,49.033Z" transform="translate(-71.792 -41.063)" fill="none" stroke="#000" stroke-linecap="round" stroke-linejoin="round" stroke-miterlimit="10" stroke-width="2"/>
      <line id="Línea_139" data-name="Línea 139" x2="12.348" transform="translate(11.455 1.197)" fill="none" stroke="#000" stroke-linecap="round" stroke-linejoin="round" stroke-miterlimit="10" stroke-width="2"/>
      <line id="Línea_140" data-name="Línea 140" x2="12.348" transform="translate(11.455 6.481)" fill="none" stroke="#000" stroke-linecap="round" stroke-linejoin="round" stroke-miterlimit="10" stroke-width="2"/>
      <line id="Línea_141" data-name="Línea 141" x2="23.803" transform="translate(0 11.765)" fill="none" stroke="#000" stroke-linecap="round" stroke-linejoin="round" stroke-miterlimit="10" stroke-width="2"/>
      <line id="Línea_142" data-name="Línea 142" x2="23.803" transform="translate(0 17.049)" fill="none" stroke="#000" stroke-linecap="round" stroke-linejoin="round" stroke-miterlimit="10" stroke-width="2"/>
      <path id="Trazado_726326" data-name="Trazado 726326" d="M72.663,240.174H93.988a1.239,1.239,0,0,1,1.239,1.239v2.806a1.239,1.239,0,0,1-1.239,1.239H72.663a1.239,1.239,0,0,1-1.239-1.239v-2.806A1.239,1.239,0,0,1,72.663,240.174Z" transform="translate(-71.424 -217.84)" fill="none" stroke="#000" stroke-linecap="round" stroke-linejoin="round" stroke-miterlimit="10" stroke-width="2"/>
      <line id="Línea_143" data-name="Línea 143" x2="23.803" transform="translate(0 32.902)" fill="none" stroke="#000" stroke-linecap="round" stroke-linejoin="round" stroke-miterlimit="10" stroke-width="2"/>
      <line id="Línea_144" data-name="Línea 144" x2="23.803" transform="translate(0 38.186)" fill="none" stroke="#000" stroke-linecap="round" stroke-linejoin="round" stroke-miterlimit="10" stroke-width="2"/>
    </g>
    <path id="Trazado_726327" data-name="Trazado 726327" d="M36.557,7.5H32.718a1.71,1.71,0,0,0-1.71,1.71V52.472a1.71,1.71,0,0,0,1.71,1.71h29.45a1.71,1.71,0,0,0,1.71-1.71V9.21a1.71,1.71,0,0,0-1.71-1.71H39.81" fill="none" stroke="#000" stroke-linecap="round" stroke-linejoin="round" stroke-miterlimit="10" stroke-width="2"/>
  </g>
</svg>
