<svg xmlns="http://www.w3.org/2000/svg" width="160" height="136" viewBox="0 0 160 136">
  <g id="_5" data-name="5" transform="translate(-1125 -2718)">
    <rect id="Rectángulo_340442" data-name="Rectángulo 340442" width="160" height="136" rx="10" transform="translate(1125 2718)" fill="#fff"/>
    <g id="senal-de-advertencia" transform="translate(1160.999 2718.914)">
      <g id="Grupo_958341" data-name="Grupo 958341" transform="translate(1.303 28.28)">
        <path id="Trazado_726734" data-name="Trazado 726734" d="M44.169,39.7,9.723,99.366a8.592,8.592,0,0,0,7.441,12.889H86.056A8.592,8.592,0,0,0,93.5,99.366L59.052,39.7a8.593,8.593,0,0,0-14.883,0Z" transform="translate(-8.375 -35.157)" fill="#fef5e6"/>
        <path id="Trazado_726735" data-name="Trazado 726735" d="M52.976,34.262a8.324,8.324,0,0,0-9.464,3.869L8.63,98.549a8.341,8.341,0,0,0,7.223,12.511H40.737C34.1,99.774,40.608,43.58,52.976,34.262Z" transform="translate(-7.5 -33.962)" fill="#fbebcf"/>
        <path id="Trazado_726736" data-name="Trazado 726736" d="M106.479,114.147,79.4,161.043a3.759,3.759,0,0,0,3.256,5.639h54.151a3.759,3.759,0,0,0,3.256-5.639l-27.076-46.9a3.759,3.759,0,0,0-6.511,0Z" transform="translate(-66.499 -98.673)" fill="#e68a97"/>
        <path id="Trazado_726737" data-name="Trazado 726737" d="M100.758,176.343,78.924,214.159a3.649,3.649,0,0,0,3.16,5.474h15C95.954,208.51,97.428,190.961,100.758,176.343Z" transform="translate(-66.115 -151.624)" fill="#e26e7e"/>
        <g id="Grupo_958340" data-name="Grupo 958340" transform="translate(37.965 26.38)">
          <path id="Trazado_726738" data-name="Trazado 726738" d="M236.691,339.555a5.259,5.259,0,1,1-5.259-5.259A5.259,5.259,0,0,1,236.691,339.555Z" transform="translate(-226.172 -308.534)" fill="#fef5e6"/>
          <path id="Trazado_726739" data-name="Trazado 726739" d="M231.56,206.366a5.259,5.259,0,0,1-5.259-5.259v-9.937a5.259,5.259,0,1,1,10.519,0v9.937A5.259,5.259,0,0,1,231.56,206.366Z" transform="translate(-226.279 -185.91)" fill="#fef5e6"/>
        </g>
      </g>
      <g id="Grupo_958342" data-name="Grupo 958342" transform="translate(0.001 27.086)">
        <path id="Trazado_726740" data-name="Trazado 726740" d="M103.12,104.5a4.887,4.887,0,0,0-4.276,2.469L71.671,154.032a4.937,4.937,0,0,0,4.276,7.406h54.347a4.937,4.937,0,0,0,4.276-7.406L107.4,106.966a4.887,4.887,0,0,0-4.276-2.468Zm29.2,53.171a2.312,2.312,0,0,1-2.023,1.168H75.947a2.336,2.336,0,0,1-2.023-3.5L101.1,108.267a2.336,2.336,0,0,1,4.047,0l27.173,47.066A2.311,2.311,0,0,1,132.317,157.669Z" transform="translate(-58.675 -91.058)"/>
        <path id="Trazado_726741" data-name="Trazado 726741" d="M224.8,326.4a6.542,6.542,0,1,0,6.542,6.542A6.549,6.549,0,0,0,224.8,326.4Zm0,10.483a3.941,3.941,0,1,1,3.941-3.941A3.945,3.945,0,0,1,224.8,336.885Z" transform="translate(-180.364 -274.436)"/>
        <path id="Trazado_726742" data-name="Trazado 726742" d="M218.384,185.064v9.9a6.542,6.542,0,1,0,13.084,0v-9.9a6.542,6.542,0,0,0-13.084,0Zm10.483,0v9.9a3.941,3.941,0,1,1-7.882,0v-9.9a3.941,3.941,0,0,1,7.882,0Z" transform="translate(-180.469 -152.23)"/>
        <path id="Trazado_726743" data-name="Trazado 726743" d="M232.693,85.506a1.3,1.3,0,0,0,1.125-1.951L203.991,31.893a9.613,9.613,0,0,0-16.65,0l-4.176,7.233a1.3,1.3,0,1,0,2.252,1.3l4.176-7.233a7.012,7.012,0,0,1,12.145,0l29.827,51.662a1.3,1.3,0,0,0,1.127.651Z" transform="translate(-151.22 -27.086)"/>
        <path id="Trazado_726744" data-name="Trazado 726744" d="M9.639,185.655H79.253a9.623,9.623,0,0,0,8.334-14.435l-1.906-3.3a1.3,1.3,0,1,0-2.252,1.3l1.906,3.3a7.022,7.022,0,0,1-6.081,10.534H9.639A7.022,7.022,0,0,1,3.558,172.52l27.589-47.786a1.3,1.3,0,0,0-2.252-1.3L1.305,171.22a9.623,9.623,0,0,0,8.334,14.435Z" transform="translate(-0.001 -106.169)"/>
      </g>
    </g>
  </g>
</svg>
