<svg xmlns="http://www.w3.org/2000/svg" width="105" height="105" viewBox="0 0 105 105">
  <g id="_10" data-name="10" transform="translate(-1021 -1843)">
    <circle id="Elipse_4628" data-name="Elipse 4628" cx="52.5" cy="52.5" r="52.5" transform="translate(1021 1843)" fill="#ff6e33"/>
    <g id="maquina-de-coser" transform="translate(1039 1861)">
      <g id="Grupo_958311" data-name="Grupo 958311" transform="translate(4.604 50.336)">
        <path id="Trazado_726652" data-name="Trazado 726652" d="M94.372,383.189H33.764v-8.54a5.51,5.51,0,0,1,5.51-5.51h55.1Z" transform="translate(-33.764 -369.139)" fill="#365e7d"/>
      </g>
      <g id="Grupo_958312" data-name="Grupo 958312" transform="translate(4.604 50.336)">
        <path id="Trazado_726653" data-name="Trazado 726653" d="M91.066,369.138v7.989a2.755,2.755,0,0,1-2.755,2.755H33.764v3.306H94.372v-14.05Z" transform="translate(-33.764 -369.138)" fill="#2b4d66"/>
      </g>
      <g id="Grupo_958313" data-name="Grupo 958313" transform="translate(8.736 12.042)">
        <path id="Trazado_726654" data-name="Trazado 726654" d="M64.069,96.578V107.6A1.928,1.928,0,0,0,66,109.526H78.67A1.928,1.928,0,0,0,80.6,107.6v-2.755H101.26v21.764h19.284V96.578a8.265,8.265,0,0,0-8.265-8.265H72.334A8.265,8.265,0,0,0,64.069,96.578Z" transform="translate(-64.069 -88.313)" fill="#90d8f9"/>
      </g>
      <g id="Grupo_958314" data-name="Grupo 958314" transform="translate(53.642 12.042)">
        <path id="Trazado_726655" data-name="Trazado 726655" d="M396.688,88.313h-3.306a8.265,8.265,0,0,1,8.265,8.265v30.029h3.306V96.578A8.265,8.265,0,0,0,396.688,88.313Z" transform="translate(-393.382 -88.313)" fill="#75cef9"/>
      </g>
      <g id="Grupo_958315" data-name="Grupo 958315" transform="translate(1.023 64.386)">
        <path id="Trazado_726656" data-name="Trazado 726656" d="M74.169,476.583H8.6a1.1,1.1,0,0,1-1.1-1.1v-2.2a1.1,1.1,0,0,1,1.1-1.1H74.169a1.1,1.1,0,0,1,1.1,1.1v2.2A1.1,1.1,0,0,1,74.169,476.583Z" transform="translate(-7.5 -472.175)" fill="#ffe07d"/>
      </g>
      <g id="Grupo_958316" data-name="Grupo 958316" transform="translate(64.11 64.386)">
        <path id="Trazado_726657" data-name="Trazado 726657" d="M473.736,472.175h-3.581a1.1,1.1,0,0,1,1.1,1.1v2.2a1.1,1.1,0,0,1-1.1,1.1h3.581a1.1,1.1,0,0,0,1.1-1.1v-2.2A1.1,1.1,0,0,0,473.736,472.175Z" transform="translate(-470.155 -472.175)" fill="#ffd064"/>
      </g>
      <g id="Grupo_958317" data-name="Grupo 958317" transform="translate(11.492 33.255)">
        <path id="Trazado_726658" data-name="Trazado 726658" d="M93.364,248.286H86.2a1.928,1.928,0,0,1-1.928-1.928v-2.479h11.02v2.479A1.929,1.929,0,0,1,93.364,248.286Z" transform="translate(-84.273 -243.878)" fill="#ffe07d"/>
      </g>
      <g id="Grupo_958318" data-name="Grupo 958318" transform="translate(48.545 1.023)">
        <path id="Trazado_726659" data-name="Trazado 726659" d="M356.006,7.5h7.714V18.52h-7.714Z" transform="translate(-356.006 -7.5)" fill="#df75a5"/>
      </g>
      <g id="Grupo_958319" data-name="Grupo 958319" transform="translate(53.228 1.023)">
        <path id="Trazado_726660" data-name="Trazado 726660" d="M390.352,7.5h3.03V18.52h-3.03Z" transform="translate(-390.352 -7.5)" fill="#dd5790"/>
      </g>
      <g id="Grupo_958320" data-name="Grupo 958320" transform="translate(52.815 28.779)">
        <circle id="Elipse_4636" data-name="Elipse 4636" cx="2.755" cy="2.755" r="2.755" fill="#86a0af"/>
      </g>
      <g id="Grupo_958321" data-name="Grupo 958321" transform="translate(52.815 39.867)">
        <circle id="Elipse_4637" data-name="Elipse 4637" cx="2.755" cy="2.755" r="2.755" fill="#86a0af"/>
      </g>
      <g id="Grupo_958322" data-name="Grupo 958322" transform="translate(0 0)">
        <path id="Trazado_726661" data-name="Trazado 726661" d="M67.692,63.362H66.236V31.655a1.023,1.023,0,1,0-2.045,0V49.313H46.95V28.572a1.023,1.023,0,0,0-1.023-1.023H25.266a1.023,1.023,0,0,0-1.023,1.023v2.756a.907.907,0,0,1-.905.905H10.665a.906.906,0,0,1-.905-.905V20.307A7.25,7.25,0,0,1,17,13.065H56.948a7.25,7.25,0,0,1,7.242,7.242v6.575a1.023,1.023,0,1,0,2.045,0V20.307a9.3,9.3,0,0,0-8.954-9.279V2.045h.63a1.023,1.023,0,1,0,0-2.045H46.892a1.023,1.023,0,1,0,0,2.045h.63V6.612h-29.5V4.249h1.181a1.023,1.023,0,0,0,0-2.045H14.8a1.023,1.023,0,0,0,0,2.045h1.181v6.828a9.3,9.3,0,0,0-8.265,9.23V31.327a2.954,2.954,0,0,0,2.755,2.944v1.464a2.954,2.954,0,0,0,2.951,2.951h2.559v6.691a1.023,1.023,0,0,0,2.045,0V38.686h2.559a2.954,2.954,0,0,0,2.951-2.951V34.271a2.954,2.954,0,0,0,2.755-2.944V29.594H44.9V49.313H27.284a1.023,1.023,0,0,0,0,2.045H64.19v12H5.626V55.845a4.492,4.492,0,0,1,4.488-4.486h12.4a1.023,1.023,0,0,0,0-2.045h-12.4a6.54,6.54,0,0,0-6.533,6.532v7.518H2.125A2.128,2.128,0,0,0,0,65.488v2.2a2.127,2.127,0,0,0,2.124,2.124H54.06a1.023,1.023,0,1,0,0-2.045H2.125a.079.079,0,0,1-.079-.079v-2.2a.08.08,0,0,1,.079-.08H67.692a.08.08,0,0,1,.079.08v2.2a.079.079,0,0,1-.079.079H58.833a1.023,1.023,0,1,0,0,2.045h8.859a2.127,2.127,0,0,0,2.124-2.124v-2.2a2.128,2.128,0,0,0-2.124-2.126ZM55.236,2.045v8.974H49.568V2.045ZM47.522,8.657v2.362h-29.5V8.657ZM20.583,36.64H13.42a.907.907,0,0,1-.906-.906V34.278h8.974v1.456A.907.907,0,0,1,20.583,36.64Z" transform="translate(0 0)"/>
        <path id="Trazado_726662" data-name="Trazado 726662" d="M383.6,203.548a3.778,3.778,0,1,0,3.778,3.778A3.782,3.782,0,0,0,383.6,203.548Zm0,5.51a1.732,1.732,0,1,1,1.732-1.732A1.734,1.734,0,0,1,383.6,209.058Z" transform="translate(-328.029 -175.792)"/>
        <path id="Trazado_726663" data-name="Trazado 726663" d="M383.6,284.866a3.778,3.778,0,1,0,3.778,3.778A3.782,3.782,0,0,0,383.6,284.866Zm0,5.51a1.732,1.732,0,1,1,1.732-1.732A1.734,1.734,0,0,1,383.6,290.376Z" transform="translate(-328.029 -246.022)"/>
        <path id="Trazado_726664" data-name="Trazado 726664" d="M188.9,134.364v2.2a1.023,1.023,0,1,0,2.045,0v-2.2a1.023,1.023,0,0,0-2.045,0Z" transform="translate(-163.142 -115.159)"/>
        <path id="Trazado_726665" data-name="Trazado 726665" d="M221.226,134.364v2.2a1.023,1.023,0,1,0,2.045,0v-2.2a1.023,1.023,0,1,0-2.045,0Z" transform="translate(-191.06 -115.159)"/>
        <path id="Trazado_726666" data-name="Trazado 726666" d="M253.551,134.364v2.2a1.023,1.023,0,1,0,2.045,0v-2.2a1.023,1.023,0,0,0-2.045,0Z" transform="translate(-218.977 -115.159)"/>
        <path id="Trazado_726667" data-name="Trazado 726667" d="M285.876,134.364v2.2a1.023,1.023,0,0,0,2.045,0v-2.2a1.023,1.023,0,0,0-2.045,0Z" transform="translate(-246.894 -115.159)"/>
        <path id="Trazado_726668" data-name="Trazado 726668" d="M318.2,134.364v2.2a1.023,1.023,0,0,0,2.045,0v-2.2a1.023,1.023,0,0,0-2.045,0Z" transform="translate(-274.811 -115.159)"/>
      </g>
    </g>
  </g>
</svg>
