<svg xmlns="http://www.w3.org/2000/svg" width="105" height="105" viewBox="0 0 105 105">
  <g id="_9" data-name="9" transform="translate(-748 -1843)">
    <circle id="Elipse_4627" data-name="Elipse 4627" cx="52.5" cy="52.5" r="52.5" transform="translate(748 1843)" fill="#0ce6ea"/>
    <g id="dinero" transform="translate(762.254 1854.501)">
      <g id="Grupo_958304" data-name="Grupo 958304" transform="translate(7.496 7.498)">
        <path id="Trazado_726622" data-name="Trazado 726622" d="M182.844,129.271l-1.907-.468-3.977-2.738-1.7-3.287-1-1.779h-24.9l-1.605.886-2.557,4.626-5.625,3.4v9.181h33.664v9.663l.626.687,2.052-1.626,2.6-3.571,2.441-1.948h2.388l.655-.755V129.9Z" transform="translate(-123.487 -107.183)" fill="#d8fa9d"/>
        <g id="Grupo_958302" data-name="Grupo 958302" transform="translate(9.222 22.397)">
          <path id="Trazado_726623" data-name="Trazado 726623" d="M90.657,191.486l-.546.33-5.371.822-1.484,1.8v5.71L84.5,201h6.16Z" transform="translate(-83.257 -191.486)" fill="#a7c772"/>
        </g>
        <path id="Trazado_726624" data-name="Trazado 726624" d="M432.6,121H424.54a9.6,9.6,0,0,0,9.318,8.91c.139,0,.277,0,.414-.011v-7.229A1.671,1.671,0,0,0,432.6,121Z" transform="translate(-373.773 -107.183)" fill="#a7c772"/>
        <path id="Trazado_726625" data-name="Trazado 726625" d="M434.506,289.655a9.421,9.421,0,0,0-8.808,6.557l-.421.519V298.1l.421.462h7.552a1.671,1.671,0,0,0,1.671-1.671v-7.229C434.783,289.66,434.645,289.655,434.506,289.655Z" transform="translate(-374.421 -255.308)" fill="#a7c772"/>
        <path id="Trazado_726626" data-name="Trazado 726626" d="M264.375,163.872H263.36l-3.287,1.984-2.313,3.869-.649,3.15.766,3.87h12.056l.718-.849a10.545,10.545,0,0,0,.3-2.522A9.9,9.9,0,0,0,264.375,163.872Z" transform="translate(-226.725 -144.837)" fill="#a2e82d"/>
        <path id="Trazado_726627" data-name="Trazado 726627" d="M222.486,170.138a9.9,9.9,0,0,1,6.58-9.5,8.863,8.863,0,0,0-2.789-.448c-5.174,0-9.369,4.455-9.369,9.95a10.544,10.544,0,0,0,.3,2.522l1.506.849H224.3l-1.506-.849A10.544,10.544,0,0,1,222.486,170.138Z" transform="translate(-191.416 -141.601)" fill="#98d829"/>
        <path id="Trazado_726628" data-name="Trazado 726628" d="M91.993,15.76H90.422l-3.038,2.011v1.267l-1.628.559-2.5,5.316v6.452l2.7,4.409,1.425.591v1.117l3.4,1.958,1.206.2a12.952,12.952,0,0,0,0-23.882Z" transform="translate(-74.035 -14.754)" fill="#ffeb7e"/>
        <path id="Trazado_726629" data-name="Trazado 726629" d="M17.518,20.445A12.95,12.95,0,0,1,25.454,8.5a12.947,12.947,0,1,0,0,23.882A12.95,12.95,0,0,1,17.518,20.445Z" transform="translate(-7.497 -7.498)" fill="#ffe02f"/>
        <path id="Trazado_726630" data-name="Trazado 726630" d="M87.383,42.687l-1.628.559-2.5,5.316v6.452l2.7,4.409,1.425.591a8.672,8.672,0,0,0,0-17.326Z" transform="translate(-74.035 -38.403)" fill="#ffd500"/>
        <path id="Trazado_726631" data-name="Trazado 726631" d="M48.35,51.277a12.9,12.9,0,0,1,3.327-8.663c-.133-.006-.267-.01-.4-.01a8.673,8.673,0,1,0,0,17.346c.135,0,.269,0,.4-.01A12.9,12.9,0,0,1,48.35,51.277Z" transform="translate(-38.329 -38.331)" fill="#fbc700"/>
        <path id="Trazado_726632" data-name="Trazado 726632" d="M107.838,269.844l-2.5-.916-3.015-2.435-1.022-3-1.663-.849H67.83l-1.35.849-1.369,3.043v21.11l1.7,3.527,1.015.913H99.642l1.014-1.426,1.671-3.029,2.893-2.747,3.165-.431.989-1.265V271.54Z" transform="translate(-58.098 -231.582)" fill="#cee3aa"/>
        <g id="Grupo_958303" data-name="Grupo 958303" transform="translate(0 34.09)">
          <path id="Trazado_726633" data-name="Trazado 726633" d="M14.9,287.545l-.783,1.739-3.652,2.973H8.423L7.5,293.413v11.642l1.6.961,2.069.736,2.922,1.881.813,1.683Z" transform="translate(-7.496 -287.545)" fill="#8cc825"/>
        </g>
        <path id="Trazado_726634" data-name="Trazado 726634" d="M192.5,305.513h-1.248l-3.55,2.525-1.929,3.456v6.286L187.7,321.8l3.179,2.6,1.618.117a10.15,10.15,0,0,0,0-19Z" transform="translate(-164.073 -269.236)" fill="#bced6b"/>
        <path id="Trazado_726635" data-name="Trazado 726635" d="M146.726,311.779a9.9,9.9,0,0,1,6.58-9.5,8.863,8.863,0,0,0-2.789-.448c-5.174,0-9.369,4.455-9.369,9.95s4.195,9.95,9.369,9.95a8.863,8.863,0,0,0,2.789-.448A9.9,9.9,0,0,1,146.726,311.779Z" transform="translate(-124.878 -266)" fill="#a2e82d"/>
        <path id="Trazado_726636" data-name="Trazado 726636" d="M356.842,262.641H348.78a9.6,9.6,0,0,0,9.318,8.91c.139,0,.277,0,.414-.011v-7.229A1.671,1.671,0,0,0,356.842,262.641Z" transform="translate(-307.236 -231.582)" fill="#b9d190"/>
        <path id="Trazado_726637" data-name="Trazado 726637" d="M9.168,262.641H17.23a9.6,9.6,0,0,1-9.318,8.91c-.139,0-.277,0-.414-.011v-7.229A1.671,1.671,0,0,1,9.168,262.641Z" transform="translate(-7.497 -231.582)" fill="#c5de9b"/>
        <path id="Trazado_726638" data-name="Trazado 726638" d="M356.842,440.207H348.78a9.6,9.6,0,0,1,9.318-8.91c.139,0,.277,0,.414.011v7.229A1.671,1.671,0,0,1,356.842,440.207Z" transform="translate(-307.236 -379.708)" fill="#b9d190"/>
        <path id="Trazado_726639" data-name="Trazado 726639" d="M9.168,440.207H17.23a9.6,9.6,0,0,0-9.318-8.91c-.139,0-.277,0-.414.011v7.229A1.671,1.671,0,0,0,9.168,440.207Z" transform="translate(-7.497 -379.708)" fill="#b9d190"/>
      </g>
      <g id="Grupo_958310" data-name="Grupo 958310" transform="translate(7.496 7.498)">
        <ellipse id="Elipse_4633" data-name="Elipse 4633" cx="9.369" cy="9.95" rx="9.369" ry="9.95" transform="translate(16.269 35.829)" fill="none" stroke="#000" stroke-linecap="round" stroke-linejoin="round" stroke-miterlimit="10" stroke-width="2"/>
        <path id="Trazado_726640" data-name="Trazado 726640" d="M356.845,262.643h-8.062a9.6,9.6,0,0,0,9.318,8.91c.139,0,.277,0,.414-.011v-7.229A1.671,1.671,0,0,0,356.845,262.643Z" transform="translate(-307.239 -231.584)" fill="none" stroke="#000" stroke-linecap="round" stroke-linejoin="round" stroke-miterlimit="10" stroke-width="2"/>
        <path id="Trazado_726641" data-name="Trazado 726641" d="M9.171,262.643h8.062a9.6,9.6,0,0,1-9.318,8.91c-.139,0-.277,0-.414-.011v-7.229A1.671,1.671,0,0,1,9.171,262.643Z" transform="translate(-7.5 -231.584)" fill="none" stroke="#000" stroke-linecap="round" stroke-linejoin="round" stroke-miterlimit="10" stroke-width="2"/>
        <path id="Trazado_726642" data-name="Trazado 726642" d="M356.845,440.208h-8.062a9.6,9.6,0,0,1,9.318-8.91c.139,0,.277,0,.414.011v7.229A1.671,1.671,0,0,1,356.845,440.208Z" transform="translate(-307.239 -379.709)" fill="none" stroke="#000" stroke-linecap="round" stroke-linejoin="round" stroke-miterlimit="10" stroke-width="2"/>
        <path id="Trazado_726643" data-name="Trazado 726643" d="M9.171,440.208h8.062a9.6,9.6,0,0,0-9.318-8.91c-.139,0-.277,0-.414.011v7.229A1.671,1.671,0,0,0,9.171,440.208Z" transform="translate(-7.5 -379.709)" fill="none" stroke="#000" stroke-linecap="round" stroke-linejoin="round" stroke-miterlimit="10" stroke-width="2"/>
        <g id="Grupo_958306" data-name="Grupo 958306" transform="translate(22.615 39.174)">
          <path id="Trazado_726644" data-name="Trazado 726644" d="M199.156,345.19A4.174,4.174,0,0,0,196.464,344a2.525,2.525,0,0,0-2.671,2.284c0,1.159,1.457,2.086,3.3,2.571s2.233,1.438,2.233,2.454-.9,2.325-3,2.325a3.644,3.644,0,0,1-3.046-1.53" transform="translate(-193.278 -342.21)" fill="none" stroke="#000" stroke-linecap="round" stroke-linejoin="round" stroke-miterlimit="10" stroke-width="2"/>
          <g id="Grupo_958305" data-name="Grupo 958305" transform="translate(3.024)">
            <line id="Línea_170" data-name="Línea 170" y2="1.295" fill="none" stroke="#000" stroke-linecap="round" stroke-linejoin="round" stroke-miterlimit="10" stroke-width="2"/>
            <line id="Línea_171" data-name="Línea 171" y2="1.295" transform="translate(0 11.915)" fill="none" stroke="#000" stroke-linecap="round" stroke-linejoin="round" stroke-miterlimit="10" stroke-width="2"/>
          </g>
        </g>
        <path id="Trazado_726645" data-name="Trazado 726645" d="M101.43,85.718a3.061,3.061,0,0,0-1.974-.874A1.851,1.851,0,0,0,97.5,86.519c0,.85,1.068,1.529,2.419,1.885s1.637,1.054,1.637,1.8-.658,1.7-2.2,1.7a2.715,2.715,0,0,1-2.028-.865" transform="translate(-86.391 -75.429)" fill="none" stroke="#000" stroke-linecap="round" stroke-linejoin="round" stroke-miterlimit="10" stroke-width="2"/>
        <g id="Grupo_958307" data-name="Grupo 958307" transform="translate(12.947 8.104)">
          <line id="Línea_172" data-name="Línea 172" y2="0.949" fill="none" stroke="#000" stroke-linecap="round" stroke-linejoin="round" stroke-miterlimit="10" stroke-width="2"/>
          <line id="Línea_173" data-name="Línea 173" y2="0.949" transform="translate(0 8.735)" fill="none" stroke="#000" stroke-linecap="round" stroke-linejoin="round" stroke-miterlimit="10" stroke-width="2"/>
        </g>
        <path id="Trazado_726646" data-name="Trazado 726646" d="M432.6,121h-8.062a9.6,9.6,0,0,0,9.318,8.91c.139,0,.277,0,.414-.011v-7.229A1.671,1.671,0,0,0,432.6,121Z" transform="translate(-373.776 -107.185)" fill="none" stroke="#000" stroke-linecap="round" stroke-linejoin="round" stroke-miterlimit="10" stroke-width="2"/>
        <g id="Grupo_958309" data-name="Grupo 958309" transform="translate(32.352 21.932)">
          <path id="Trazado_726647" data-name="Trazado 726647" d="M278.632,203.548a4.175,4.175,0,0,0-2.693-1.192,2.525,2.525,0,0,0-2.671,2.284c0,1.159,1.457,2.086,3.3,2.571s2.233,1.438,2.233,2.454" transform="translate(-273.269 -200.568)" fill="none" stroke="#000" stroke-linecap="round" stroke-linejoin="round" stroke-miterlimit="10" stroke-width="2"/>
          <g id="Grupo_958308" data-name="Grupo 958308" transform="translate(2.509)">
            <line id="Línea_174" data-name="Línea 174" y2="1.295" fill="none" stroke="#000" stroke-linecap="round" stroke-linejoin="round" stroke-miterlimit="10" stroke-width="2"/>
          </g>
        </g>
        <path id="Trazado_726648" data-name="Trazado 726648" d="M437.543,289.656a9.421,9.421,0,0,0-8.808,6.557v2.354h7.552a1.671,1.671,0,0,0,1.671-1.671v-7.229C437.82,289.661,437.682,289.656,437.543,289.656Z" transform="translate(-377.458 -255.309)" fill="none" stroke="#000" stroke-linecap="round" stroke-linejoin="round" stroke-miterlimit="10" stroke-width="2"/>
        <path id="Trazado_726649" data-name="Trazado 726649" d="M235.345,172.662a10.545,10.545,0,0,0,.3-2.522c0-5.5-4.195-9.95-9.369-9.95s-9.369,4.455-9.369,9.95a10.544,10.544,0,0,0,.3,2.522Z" transform="translate(-191.419 -141.603)" fill="none" stroke="#000" stroke-linecap="round" stroke-linejoin="round" stroke-miterlimit="10" stroke-width="2"/>
        <circle id="Elipse_4634" data-name="Elipse 4634" cx="12.947" cy="12.947" r="12.947" transform="translate(0 0)" fill="none" stroke="#000" stroke-linecap="round" stroke-linejoin="round" stroke-miterlimit="10" stroke-width="2"/>
        <circle id="Elipse_4635" data-name="Elipse 4635" cx="8.673" cy="8.673" r="8.673" transform="translate(4.273 4.273)" fill="none" stroke="#000" stroke-linecap="round" stroke-linejoin="round" stroke-miterlimit="10" stroke-width="2"/>
        <path id="Trazado_726650" data-name="Trazado 726650" d="M35.122,292.083H57.106a1.671,1.671,0,0,0,1.671-1.671v-26.1a1.671,1.671,0,0,0-1.671-1.671H9.171A1.671,1.671,0,0,0,7.5,264.313v26.1a1.671,1.671,0,0,0,1.671,1.671H30.861" transform="translate(-7.5 -231.584)" fill="none" stroke="#000" stroke-linecap="round" stroke-linejoin="round" stroke-miterlimit="10" stroke-width="2"/>
        <path id="Trazado_726651" data-name="Trazado 726651" d="M134.537,133.59v-10.92A1.671,1.671,0,0,0,132.866,121H99.9A12.954,12.954,0,0,1,83.26,132.532v5.71h40.384a1.671,1.671,0,0,1,1.671,1.671v10.528h7.552a1.671,1.671,0,0,0,1.671-1.671V137.851" transform="translate(-74.038 -107.184)" fill="none" stroke="#000" stroke-linecap="round" stroke-linejoin="round" stroke-miterlimit="10" stroke-width="2"/>
      </g>
    </g>
  </g>
</svg>
