<svg xmlns="http://www.w3.org/2000/svg" width="190" height="162" viewBox="0 0 190 162">
  <g id="_9" data-name="9" transform="translate(-1020 -3134)">
    <g id="Grupo_958336" data-name="Grupo 958336" transform="translate(0 -5)">
      <rect id="Rectángulo_340442" data-name="Rectángulo 340442" width="190" height="162" rx="10" transform="translate(1020 3139)" fill="#fff"/>
    </g>
    <g id="plan-de-evacuacion" transform="translate(1037.214 3140.241)">
      <path id="Trazado_726746" data-name="Trazado 726746" d="M88.077,18.76a1.591,1.591,0,0,0-1.591,1.591V38.474a1.591,1.591,0,0,0,1.591,1.591h25.2a1.285,1.285,0,0,1,1.284,1.284V63.936c-.312.312.625,1.591,1.591,1.591h16.245V126.79a2.685,2.685,0,0,1-2.683,2.684H54.768c-1.689-4.005-4.159-8.488-6.11-12.461a6.3,6.3,0,0,0-2.571-2.48h67.185a4.47,4.47,0,0,0,4.465-4.465V81.087a1.591,1.591,0,0,0-1.591-1.591h-15.56V57.429a3.124,3.124,0,0,0-3.12-3.12H72.516V20.351a1.591,1.591,0,0,0-1.591-1.591H29.293a5.871,5.871,0,0,0-5.863,5.863v76.091l-1.951,2.165a4.407,4.407,0,0,0,1.951,7.161v12.89l-4.865,3.056c-6.066,3.811-.232,12.89,5.741,9.138l.028-.018c1.331-.876,2.76-1.677,4.124-2.513a5.875,5.875,0,0,0,.837.061H44.318l.639,1.3a5.4,5.4,0,0,0,10.127-1.3h74.626a5.87,5.87,0,0,0,5.864-5.864V24.623a5.871,5.871,0,0,0-5.864-5.864Zm26.479,63.917v27.39a1.285,1.285,0,0,1-1.284,1.284H81.091V97.1H97.465a3.124,3.124,0,0,0,3.12-3.121V82.677ZM61.537,54.31a3.123,3.123,0,0,0-3.12,3.12V70.786a1.591,1.591,0,1,0,3.182,0v-13.3H97.4V93.924H61.6v-13.3a1.591,1.591,0,0,0-3.182-.02q0,6.689,0,13.377a3.123,3.123,0,0,0,3.121,3.12H77.912v14.246H43.887l1.323-8.27,7.579,3.78a4.415,4.415,0,1,0,4.223-7.755l-11.183-6.09c-.463-.31-.925-.586-1.384-.833V90.47a7.59,7.59,0,0,0,0-14.739V41.348a1.286,1.286,0,0,1,1.284-1.284h23.6V54.31ZM42.627,78.688c-.087-.044,4.413.2,4.413,4.412a4.412,4.412,0,1,1-4.412-4.412ZM69.335,21.942v14.94H45.73a4.47,4.47,0,0,0-4.465,4.466V52.86H26.611V24.623a2.686,2.686,0,0,1,2.682-2.683ZM26.61,56.042H41.264V75.631A7.593,7.593,0,0,0,41,90.517c.088.019.177.035.266.05v.359c-6.494-1.648-10.674,1.837-14.653,6.258V56.042Zm0,53.8a4.384,4.384,0,0,0,1.36-.978l2.123-1.732-2.234,13.015-1.249.784V109.844Zm6.651,19.63c2.908-2.058,4.551-3.714,4.847-5.243l.091-.386,2.018.462,2.538,5.168Zm14.55,3.079-5.074-10.33a1.591,1.591,0,0,0-1.071-.849l-4.3-.982a1.59,1.59,0,0,0-1.9,1.185c-.152.643-.375,1.408-.48,2.045-.025.094-.344.984-3.561,3.265-2.874,2.04-5.916,3.64-8.824,5.552a2.215,2.215,0,0,1-2.343-3.758l9.9-6.216a1.592,1.592,0,0,0,.722-1.078l3.073-17.9a1.593,1.593,0,0,0-2.573-1.5l-5.505,4.49c-1.951,1.594-2.836-.566-2.028-1.464l6.733-7.473c7.356-8.164,17.47.308,24.914,4.363a1.234,1.234,0,0,1-1.174,2.171c-3.129-1.651-6.418-3.2-9.593-4.788a1.594,1.594,0,0,0-2.318,1.193l-2.285,14.283c-.191,1.178.664,1.71,1.7,1.885,2.321.393,3.192.6,4.016,1.848l5.944,12.1a2.214,2.214,0,1,1-3.969,1.962ZM105.823,21.942v14.94H89.668V21.942Zm11.914,40.4v-21a4.47,4.47,0,0,0-4.465-4.465H109V21.942h20.705a2.686,2.686,0,0,1,2.682,2.682V62.344ZM67.382,124.876l1.08-1.079H61.516a1.591,1.591,0,0,1-.02-3.182h6.967l-1.08-1.08a1.591,1.591,0,0,1,2.249-2.249l3.792,3.793a1.6,1.6,0,0,1,0,2.257l-3.792,3.792a1.591,1.591,0,0,1-2.71-1.13,1.918,1.918,0,0,1,.461-1.121Zm34.814,0,1.079-1.079H96.33a1.591,1.591,0,0,1,0-3.182h6.946l-1.079-1.08a1.591,1.591,0,0,1,2.249-2.249l3.792,3.793a1.6,1.6,0,0,1,0,2.258l-3.792,3.792a1.591,1.591,0,0,1-2.249-2.249v0Zm18.036-18.839,3.794-3.794a1.594,1.594,0,0,1,2.251,0l3.794,3.794a1.591,1.591,0,0,1-2.249,2.249l-1.08-1.08v6.947a1.591,1.591,0,0,1-3.182.02v-6.966l-1.079,1.079a1.591,1.591,0,0,1-2.25-2.25Zm3.329-24.752-1.079,1.079a1.591,1.591,0,0,1-2.25-2.249l3.794-3.795a1.594,1.594,0,0,1,2.254,0l3.792,3.791a1.591,1.591,0,0,1-2.249,2.249l-1.08-1.08v6.947a1.591,1.591,0,1,1-3.182,0V81.286Zm-17.578-9.236V65.1l-1.08,1.08a1.591,1.591,0,0,1-2.249-2.249l3.792-3.792a1.594,1.594,0,0,1,2.255,0l3.792,3.791a1.591,1.591,0,0,1-2.249,2.249l-1.08-1.08V72.05a1.591,1.591,0,1,1-3.182,0Zm-31.4-32.76L78.374,35.5a1.594,1.594,0,0,1,2.255,0l3.792,3.792a1.591,1.591,0,0,1-2.249,2.249l-1.08-1.08V47.4a1.591,1.591,0,0,1-3.181,0V40.459l-1.08,1.08a1.591,1.591,0,0,1-2.249-2.25Z" fill-rule="evenodd"/>
      <path id="Trazado_726747" data-name="Trazado 726747" d="M398.077,71.913v-21a4.471,4.471,0,0,0-4.466-4.466h-4.267V31.51h20.705a2.686,2.686,0,0,1,2.682,2.683v37.72Z" transform="translate(-280.34 -9.575)" fill="#f5ca81" fill-rule="evenodd"/>
      <path id="Trazado_726748" data-name="Trazado 726748" d="M311.724,31.51h16.155V46.45H311.724Z" transform="translate(-222.056 -9.575)" fill="#ffb229"/>
      <g id="Grupo_958345" data-name="Grupo 958345" transform="translate(19.238 21.935)">
        <path id="Trazado_726749" data-name="Trazado 726749" d="M57.571,359.659,52.5,349.329a1.591,1.591,0,0,0-1.071-.849l-4.3-.982a1.591,1.591,0,0,0-1.9,1.185c-.152.643-.375,1.408-.48,2.044-.025.094-.344.984-3.561,3.265-2.874,2.039-5.916,3.64-8.824,5.552a2.215,2.215,0,0,1-2.343-3.758l9.9-6.216a1.592,1.592,0,0,0,.722-1.078l3.073-17.9a1.593,1.593,0,0,0-2.573-1.5l-5.505,4.49c-1.951,1.594-2.836-.566-2.028-1.464l6.733-7.473c7.356-8.164,17.47.308,24.914,4.363a1.234,1.234,0,0,1-1.174,2.171c-3.129-1.651-6.418-3.2-9.593-4.788a1.594,1.594,0,0,0-2.318,1.193L49.88,341.864c-.191,1.178.664,1.71,1.7,1.885,2.321.393,3.192.6,4.016,1.848l5.944,12.1a2.214,2.214,0,1,1-3.971,1.962Z" transform="translate(-28.997 -249.047)" fill="#6298c6" fill-rule="evenodd"/>
        <path id="Trazado_726750" data-name="Trazado 726750" d="M85.286,446.205c2.908-2.058,4.551-3.714,4.847-5.243l.091-.386,2.018.462,2.538,5.168Z" transform="translate(-71.264 -338.673)" fill="#ffb229" fill-rule="evenodd"/>
        <path id="Trazado_726751" data-name="Trazado 726751" d="M58.591,376.207a4.385,4.385,0,0,0,1.36-.978l2.123-1.732L59.84,386.512l-1.249.784Z" transform="translate(-51.219 -288.304)" fill="#ffb229" fill-rule="evenodd"/>
        <path id="Trazado_726752" data-name="Trazado 726752" d="M58.591,168.4H73.245v19.589a7.593,7.593,0,0,0-.266,14.886c.088.019.177.035.266.05v.359c-6.494-1.648-10.674,1.837-14.653,6.258Z" transform="translate(-51.219 -134.299)" fill="#ffb229" fill-rule="evenodd"/>
        <path id="Trazado_726753" data-name="Trazado 726753" d="M101.318,31.509V46.45h-23.6a4.47,4.47,0,0,0-4.465,4.466V62.428H58.594V34.192a2.686,2.686,0,0,1,2.682-2.683Z" transform="translate(-51.221 -31.509)" fill="#f5ca81" fill-rule="evenodd"/>
        <path id="Trazado_726754" data-name="Trazado 726754" d="M109.589,259.3c-.087-.044,4.413.2,4.413,4.412a4.412,4.412,0,1,1-4.412-4.412Z" transform="translate(-86.2 -202.548)" fill="#6298c6" fill-rule="evenodd"/>
        <path id="Trazado_726755" data-name="Trazado 726755" d="M145.6,118.5a3.123,3.123,0,0,0-3.12,3.12v13.357a1.591,1.591,0,1,0,3.182,0v-13.3h35.8v36.433H145.657v-13.3a1.591,1.591,0,0,0-3.182-.02v13.377a3.123,3.123,0,0,0,3.121,3.12H161.97v14.246H127.945l1.323-8.27,7.579,3.78a4.415,4.415,0,1,0,4.223-7.755l-11.183-6.09c-.463-.31-.925-.586-1.384-.833v-1.713a7.59,7.59,0,0,0,0-14.739V105.542a1.286,1.286,0,0,1,1.284-1.284h23.6V118.5Z" transform="translate(-103.296 -86.135)" fill="#fac05c" fill-rule="evenodd"/>
        <path id="Trazado_726756" data-name="Trazado 726756" d="M310.759,275.318v27.39a1.285,1.285,0,0,1-1.284,1.284H277.294V289.746h16.374a3.124,3.124,0,0,0,3.12-3.121V275.318Z" transform="translate(-215.44 -214.583)" fill="#f5ca81" fill-rule="evenodd"/>
      </g>
    </g>
  </g>
</svg>
