<svg xmlns="http://www.w3.org/2000/svg" xmlns:xlink="http://www.w3.org/1999/xlink" width="294.75" height="85.558" viewBox="0 0 294.75 85.558">
  <defs>
    <linearGradient id="linear-gradient" x1="0.257" y1="0.38" x2="1.282" y2="0.38" gradientUnits="objectBoundingBox">
      <stop offset="0" stop-color="#fffcfc"/>
      <stop offset="1" stop-color="#e1e0e0"/>
    </linearGradient>
  </defs>
  <g id="_3" data-name="3" transform="translate(-285.25 -1585.11)">
    <g id="_3-2" data-name="3">
      <path id="Trazado_103020" data-name="Trazado 103020" d="M2335.524-2020.733H2124.608l11-82.706h199.921c21.917,0,39.686,18.514,39.686,41.357h0C2375.21-2039.247,2357.439-2020.733,2335.524-2020.733Z" transform="translate(-1797.823 3690.021)" fill="url(#linear-gradient)"/>
      <g id="Grupo_54976" data-name="Grupo 54976" transform="translate(285.25 1585.11)">
        <path id="Trazado_103017" data-name="Trazado 103017" d="M2104.1-2086.282h-.259l-16.03,7.5-3.231-14.482,22.237-10.162H2123.1v82.572h-19Z" transform="translate(-2083.073 2104.91)" fill="#0ce6ea" opacity="0.2" style="isolation: isolate"/>
        <path id="Trazado_103018" data-name="Trazado 103018" d="M2123.1-2019.373a1.5,1.5,0,0,1-1.508-1.482v-81.095h-14.447l-20.837,9.524,2.567,11.5,14.319-6.694a1.541,1.541,0,0,1,.648-.143h.258a1.494,1.494,0,0,1,1.508,1.48h0v65.423a1.508,1.508,0,0,1-1.508,1.508,1.508,1.508,0,0,1-1.508-1.508h0v-63.2l-14.131,6.608a1.536,1.536,0,0,1-1.311-.007,1.491,1.491,0,0,1-.811-1.01l-3.231-14.484a1.477,1.477,0,0,1,.837-1.66l22.236-10.159a1.5,1.5,0,0,1,.636-.138H2123.1a1.493,1.493,0,0,1,1.5,1.475v82.572a1.5,1.5,0,0,1-1.5,1.49Z" transform="translate(-2083.073 2104.91)" fill="#0ce6ea"/>
        <path id="Trazado_103019" data-name="Trazado 103019" d="M2338.338-2019.373H2122.959a1.409,1.409,0,0,1-1.378-1.443,1.427,1.427,0,0,1,1.309-1.52h215.448c20.263,0,36.749-17.857,36.749-39.805s-16.485-39.8-36.749-39.8H2134.39a1.419,1.419,0,0,1-1.341-1.486,1.419,1.419,0,0,1,1.341-1.478h203.948c21.774,0,39.485,19.186,39.485,42.768S2360.106-2019.373,2338.338-2019.373Z" transform="translate(-2083.073 2104.91)" fill="#0ce6ea"/>
      </g>
    </g>
    <path id="Trazado_727173" data-name="Trazado 727173" d="M36,12.491V17H33.362V4.2h4.992a5.776,5.776,0,0,1,2.536.527,3.886,3.886,0,0,1,1.683,1.5,4.178,4.178,0,0,1,.589,2.21,3.674,3.674,0,0,1-1.288,2.966,5.363,5.363,0,0,1-3.564,1.085Zm0-2.136h2.355a2.316,2.316,0,0,0,1.6-.492A1.79,1.79,0,0,0,40.5,8.457a2.111,2.111,0,0,0-.554-1.521,2.068,2.068,0,0,0-1.529-.6H36Zm14.15-.483a6.9,6.9,0,0,0-.914-.07,1.86,1.86,0,0,0-1.89.976V17h-2.54V7.49h2.4l.07,1.134a2.354,2.354,0,0,1,2.118-1.31,2.662,2.662,0,0,1,.791.114Zm5.432,7.3a4.668,4.668,0,0,1-3.406-1.283,4.561,4.561,0,0,1-1.314-3.419v-.246a5.745,5.745,0,0,1,.554-2.562,4.064,4.064,0,0,1,1.569-1.74A4.4,4.4,0,0,1,55.3,7.314a3.947,3.947,0,0,1,3.072,1.23,5,5,0,0,1,1.121,3.489v1.037H53.436a2.36,2.36,0,0,0,.743,1.494,2.245,2.245,0,0,0,1.569.563,2.742,2.742,0,0,0,2.294-1.063l1.248,1.4a3.813,3.813,0,0,1-1.547,1.261A5.075,5.075,0,0,1,55.58,17.176Zm-.29-7.813a1.587,1.587,0,0,0-1.226.512,2.651,2.651,0,0,0-.6,1.466H57v-.2a1.891,1.891,0,0,0-.457-1.311A1.638,1.638,0,0,0,55.29,9.362Zm14.2,2.971a5.7,5.7,0,0,1-1,3.52A3.2,3.2,0,0,1,65.8,17.176a2.963,2.963,0,0,1-2.329-1v4.482h-2.54V7.49h2.355l.088.932a2.985,2.985,0,0,1,2.408-1.107,3.22,3.22,0,0,1,2.733,1.3,5.858,5.858,0,0,1,.976,3.586Zm-2.54-.185a3.743,3.743,0,0,0-.47-2.048,1.532,1.532,0,0,0-1.367-.721,1.663,1.663,0,0,0-1.644.914v3.894a1.692,1.692,0,0,0,1.661.94Q66.953,15.128,66.953,12.148ZM76.577,17a2.821,2.821,0,0,1-.255-.853,3.073,3.073,0,0,1-2.4,1.028,3.376,3.376,0,0,1-2.316-.809,2.6,2.6,0,0,1-.918-2.039,2.687,2.687,0,0,1,1.121-2.32,5.529,5.529,0,0,1,3.239-.817h1.169v-.545a1.567,1.567,0,0,0-.338-1.055,1.331,1.331,0,0,0-1.068-.4A1.513,1.513,0,0,0,73.8,9.5a1.045,1.045,0,0,0-.365.844H70.9a2.551,2.551,0,0,1,.51-1.529,3.37,3.37,0,0,1,1.441-1.1,5.253,5.253,0,0,1,2.092-.4,4.15,4.15,0,0,1,2.791.883,3.09,3.09,0,0,1,1.033,2.483V14.8a4.546,4.546,0,0,0,.378,2.048V17Zm-2.1-1.767a2.188,2.188,0,0,0,1.037-.25,1.645,1.645,0,0,0,.7-.672V12.676h-.949q-1.907,0-2.03,1.318l-.009.149a1.017,1.017,0,0,0,.334.782A1.3,1.3,0,0,0,74.477,15.233ZM86.061,9.872a6.9,6.9,0,0,0-.914-.07,1.86,1.86,0,0,0-1.89.976V17h-2.54V7.49h2.4l.07,1.134a2.354,2.354,0,0,1,2.118-1.31,2.662,2.662,0,0,1,.791.114ZM92.53,17a2.821,2.821,0,0,1-.255-.853,3.073,3.073,0,0,1-2.4,1.028,3.376,3.376,0,0,1-2.316-.809,2.6,2.6,0,0,1-.918-2.039,2.687,2.687,0,0,1,1.121-2.32A5.529,5.529,0,0,1,91,11.19h1.169v-.545a1.567,1.567,0,0,0-.338-1.055,1.331,1.331,0,0,0-1.068-.4,1.513,1.513,0,0,0-1.006.308,1.045,1.045,0,0,0-.365.844h-2.54a2.551,2.551,0,0,1,.51-1.529,3.37,3.37,0,0,1,1.441-1.1,5.253,5.253,0,0,1,2.092-.4,4.15,4.15,0,0,1,2.791.883,3.09,3.09,0,0,1,1.033,2.483V14.8a4.546,4.546,0,0,0,.378,2.048V17Zm-2.1-1.767a2.188,2.188,0,0,0,1.037-.25,1.645,1.645,0,0,0,.7-.672V12.676H91.22q-1.907,0-2.03,1.318l-.009.149a1.017,1.017,0,0,0,.334.782A1.3,1.3,0,0,0,90.429,15.233Zm10.2-.105a1.666,1.666,0,0,0,1.143-.387,1.355,1.355,0,0,0,.457-1.028h2.382a3.258,3.258,0,0,1-.527,1.771,3.48,3.48,0,0,1-1.419,1.248,4.442,4.442,0,0,1-1.991.444,4.129,4.129,0,0,1-3.217-1.3A5.13,5.13,0,0,1,96.274,12.3v-.167a5.071,5.071,0,0,1,1.169-3.507,4.08,4.08,0,0,1,3.208-1.31,4,4,0,0,1,2.861,1.015,3.594,3.594,0,0,1,1.094,2.7h-2.382a1.745,1.745,0,0,0-.457-1.206,1.7,1.7,0,0,0-2.5.183,3.749,3.749,0,0,0-.453,2.1v.264a3.8,3.8,0,0,0,.448,2.113A1.549,1.549,0,0,0,100.624,15.128ZM108.737,17h-2.549V7.49h2.549Zm-2.7-11.971a1.251,1.251,0,0,1,.382-.94,1.648,1.648,0,0,1,2.079,0,1.244,1.244,0,0,1,.387.94,1.247,1.247,0,0,1-.391.949,1.629,1.629,0,0,1-2.065,0A1.247,1.247,0,0,1,106.038,5.029Zm4.395,7.128a5.64,5.64,0,0,1,.545-2.522,3.989,3.989,0,0,1,1.569-1.714,4.577,4.577,0,0,1,2.377-.606,4.33,4.33,0,0,1,3.142,1.178,4.727,4.727,0,0,1,1.358,3.2l.018.65a4.97,4.97,0,0,1-1.222,3.511,4.735,4.735,0,0,1-6.561,0,5.058,5.058,0,0,1-1.226-3.586Zm2.54.18a3.555,3.555,0,0,0,.51,2.073,1.831,1.831,0,0,0,2.9.009,3.89,3.89,0,0,0,.519-2.267,3.519,3.519,0,0,0-.519-2.06,1.686,1.686,0,0,0-1.459-.731,1.658,1.658,0,0,0-1.441.726A3.955,3.955,0,0,0,112.973,12.338ZM115.425,3.5h2.769l-2.435,2.725h-2.065Zm7.919,3.99.079,1.1a3.32,3.32,0,0,1,2.733-1.274,2.759,2.759,0,0,1,2.25.888,4.142,4.142,0,0,1,.756,2.654V17h-2.54V10.918a1.648,1.648,0,0,0-.352-1.173A1.574,1.574,0,0,0,125.1,9.38a1.747,1.747,0,0,0-1.608.914V17h-2.54V7.49Z" transform="translate(354.029 1620.176)" fill="#12263f"/>
  </g>
</svg>
