<svg xmlns="http://www.w3.org/2000/svg" xmlns:xlink="http://www.w3.org/1999/xlink" width="295" height="86.492" viewBox="0 0 295 86.492">
  <defs>
    <linearGradient id="linear-gradient" x1="0.349" y1="0.614" x2="1.156" y2="0.589" gradientUnits="objectBoundingBox">
      <stop offset="0" stop-color="#fff"/>
      <stop offset="1" stop-color="#e1e0e0"/>
    </linearGradient>
  </defs>
  <g id="_4" data-name="4" transform="translate(-652.5 -1585.964)">
    <g id="Grupo_55788" data-name="Grupo 55788" transform="translate(-1785.883 3690.021)">
      <path id="Trazado_103020-3" data-name="Trazado 103020-3" d="M2712.039-2018.93H2502.073l12.145-82.707h197.821c24.209,0,43.835,18.514,43.835,41.357h0C2755.874-2037.444,2736.245-2018.93,2712.039-2018.93Z" transform="translate(-24.38)" fill="url(#linear-gradient)"/>
      <g id="Grupo_53884" data-name="Grupo 53884" transform="translate(2438.383 -2104.057)">
        <g id="Grupo_54978" data-name="Grupo 54978">
          <path id="Trazado_103021" data-name="Trazado 103021" d="M2439.867-2019.054v-11.63l10.692-9.6c18.071-16.052,26.856-25.277,27.113-34.882,0-6.7-4.074-12.007-13.62-12.007-7.128,0-13.365,3.539-17.693,6.824l-5.473-13.774c6.237-4.676,15.91-8.468,27.112-8.468,18.71,0,29.021,10.87,29.021,25.783,0,13.776-10.055,24.772-22.02,35.389l-7.637,6.32v.251h31.185v15.8Z" transform="translate(-2438.383 2104.057)" fill="#ff6e33" opacity="0.2" style="isolation: isolate"/>
          <path id="Trazado_103023" data-name="Trazado 103023" d="M2498.548-2017.576h-58.68a1.48,1.48,0,0,1-1.485-1.474v-11.629a1.473,1.473,0,0,1,.488-1.094l10.692-9.6c18.222-16.183,26.388-24.905,26.625-33.828,0-6.754-4.311-10.5-12.136-10.5-5.442,0-11.092,2.2-16.791,6.526a1.49,1.49,0,0,1-1.3.251,1.475,1.475,0,0,1-.982-.879l-5.474-13.777a1.467,1.467,0,0,1,.487-1.717c7.429-5.57,17.637-8.765,28.006-8.765,18.531,0,30.506,10.7,30.506,27.256,0,14.51-10.822,26.112-22.517,36.487l-4.833,4h27.393a1.474,1.474,0,0,1,1.478,1.47,1.475,1.475,0,0,1-1.471,1.478h-31.192a1.479,1.479,0,0,1-1.485-1.473h0v-.251a1.466,1.466,0,0,1,.535-1.133l7.636-6.32c12.884-11.43,21.487-21.648,21.487-34.255,0-14.994-10.553-24.309-27.537-24.309-9.319,0-18.471,2.727-25.309,7.513l4.345,10.94c5.707-3.97,11.424-5.982,17.018-5.982,9.454,0,15.1,5.04,15.1,13.482-.267,10.05-8.732,19.218-27.609,35.98l-10.2,9.16v9.5h57.2a1.475,1.475,0,0,1,1.44,1.509,1.475,1.475,0,0,1-1.432,1.44h-.008Z" transform="translate(-2438.383 2104.057)" fill="#ff6e33"/>
          <path id="Trazado_103024" data-name="Trazado 103024" d="M2714.945-2017.576h-224.74a1.473,1.473,0,0,1-1.484-1.463,1.475,1.475,0,0,1,1.464-1.485h224.76a39.6,39.6,0,0,0,39.915-39.285,39.6,39.6,0,0,0-39.286-39.915H2498.42a1.474,1.474,0,0,1-1.524-1.422,1.474,1.474,0,0,1,1.423-1.524h216.626a42.551,42.551,0,0,1,42.817,42.283,42.55,42.55,0,0,1-42.283,42.817C2715.3-2017.575,2715.122-2017.575,2714.945-2017.576Z" transform="translate(-2462.763 2104.057)" fill="#ff6e33"/>
        </g>
      </g>
    </g>
    <path id="Trazado_727174" data-name="Trazado 727174" d="M59.169,11.454H54.106v3.428h5.941V17H51.47V4.2H60.03V6.339H54.106v3.05h5.063Zm4.6-3.964.079,1.1a3.32,3.32,0,0,1,2.733-1.274,2.759,2.759,0,0,1,2.25.888,4.142,4.142,0,0,1,.756,2.654V17h-2.54V10.918a1.648,1.648,0,0,0-.352-1.173,1.574,1.574,0,0,0-1.169-.365,1.747,1.747,0,0,0-1.608.914V17h-2.54V7.49Zm12.894,6.882a.818.818,0,0,0-.461-.734,5.241,5.241,0,0,0-1.481-.479q-3.393-.712-3.393-2.883a2.613,2.613,0,0,1,1.05-2.114,4.237,4.237,0,0,1,2.747-.848,4.56,4.56,0,0,1,2.9.853A2.687,2.687,0,0,1,79.1,10.382h-2.54a1.229,1.229,0,0,0-.352-.9,1.488,1.488,0,0,0-1.1-.356,1.52,1.52,0,0,0-.993.29.916.916,0,0,0-.352.738.783.783,0,0,0,.4.681,4.114,4.114,0,0,0,1.349.448,11.019,11.019,0,0,1,1.6.426,2.628,2.628,0,0,1,2.013,2.558,2.481,2.481,0,0,1-1.116,2.1,4.815,4.815,0,0,1-2.883.8,5.029,5.029,0,0,1-2.123-.426,3.561,3.561,0,0,1-1.455-1.169,2.716,2.716,0,0,1-.527-1.6h2.408a1.326,1.326,0,0,0,.5,1.037,1.987,1.987,0,0,0,1.248.36,1.839,1.839,0,0,0,1.1-.277A.861.861,0,0,0,76.659,14.372ZM86.274,17a2.821,2.821,0,0,1-.255-.853,3.073,3.073,0,0,1-2.4,1.028,3.376,3.376,0,0,1-2.316-.809,2.6,2.6,0,0,1-.918-2.039,2.687,2.687,0,0,1,1.121-2.32,5.529,5.529,0,0,1,3.239-.817h1.169v-.545a1.567,1.567,0,0,0-.338-1.055,1.331,1.331,0,0,0-1.068-.4A1.513,1.513,0,0,0,83.5,9.5a1.045,1.045,0,0,0-.365.844H80.6a2.551,2.551,0,0,1,.51-1.529,3.37,3.37,0,0,1,1.441-1.1,5.253,5.253,0,0,1,2.092-.4A4.15,4.15,0,0,1,87.43,8.2a3.09,3.09,0,0,1,1.033,2.483V14.8a4.546,4.546,0,0,0,.378,2.048V17Zm-2.1-1.767a2.188,2.188,0,0,0,1.037-.25,1.645,1.645,0,0,0,.7-.672V12.676h-.949q-1.907,0-2.03,1.318l-.009.149a1.017,1.017,0,0,0,.334.782A1.3,1.3,0,0,0,84.174,15.233ZM92.8,7.49l.079,1.063a3.342,3.342,0,0,1,2.733-1.239,2.536,2.536,0,0,1,2.522,1.45,3.265,3.265,0,0,1,2.856-1.45,2.836,2.836,0,0,1,2.3.9,4.141,4.141,0,0,1,.756,2.711V17H101.5V10.936a1.811,1.811,0,0,0-.316-1.182,1.4,1.4,0,0,0-1.116-.374,1.585,1.585,0,0,0-1.582,1.09L98.491,17h-2.54V10.944a1.789,1.789,0,0,0-.325-1.2,1.416,1.416,0,0,0-1.107-.369,1.646,1.646,0,0,0-1.564.9V17h-2.54V7.49Zm21.771,4.843a5.758,5.758,0,0,1-.976,3.564,3.231,3.231,0,0,1-2.725,1.279,2.969,2.969,0,0,1-2.47-1.187L108.282,17H106V3.5h2.54V8.343a2.893,2.893,0,0,1,2.312-1.028,3.258,3.258,0,0,1,2.729,1.279,5.767,5.767,0,0,1,.989,3.6Zm-2.54-.185a3.783,3.783,0,0,0-.457-2.1,1.545,1.545,0,0,0-1.362-.664,1.676,1.676,0,0,0-1.67.993v3.753a1.7,1.7,0,0,0,1.688,1,1.568,1.568,0,0,0,1.617-1.213A6.257,6.257,0,0,0,112.026,12.148ZM118.811,17h-2.549V3.5h2.549Zm6.469.176a4.668,4.668,0,0,1-3.406-1.283,4.561,4.561,0,0,1-1.314-3.419v-.246a5.745,5.745,0,0,1,.554-2.562,4.064,4.064,0,0,1,1.569-1.74A4.4,4.4,0,0,1,125,7.314a3.947,3.947,0,0,1,3.072,1.23,5,5,0,0,1,1.121,3.489v1.037h-6.056a2.36,2.36,0,0,0,.743,1.494,2.245,2.245,0,0,0,1.569.563,2.742,2.742,0,0,0,2.294-1.063l1.248,1.4a3.813,3.813,0,0,1-1.547,1.261A5.075,5.075,0,0,1,125.28,17.176Zm-.29-7.813a1.587,1.587,0,0,0-1.226.512,2.651,2.651,0,0,0-.6,1.466H126.7v-.2a1.891,1.891,0,0,0-.457-1.311A1.638,1.638,0,0,0,124.99,9.362Z" transform="translate(727.5 1620.176)" fill="#12263f"/>
  </g>
</svg>
