<svg xmlns="http://www.w3.org/2000/svg" xmlns:xlink="http://www.w3.org/1999/xlink" width="295" height="88.026" viewBox="0 0 295 88.026">
  <defs>
    <linearGradient id="linear-gradient" x1="0.32" y1="0.559" x2="1.368" y2="0.5" gradientUnits="objectBoundingBox">
      <stop offset="0" stop-color="#fff"/>
      <stop offset="1" stop-color="#e1e0e0"/>
    </linearGradient>
  </defs>
  <g id="_5" data-name="5" transform="translate(-1020 -1585.887)">
    <path id="Trazado_103020-2" data-name="Trazado 103020-2" d="M3045.732-2017.492H2834.281l11.057-82.707h200.394c22.04,0,39.907,18.514,39.907,41.357h0C3085.639-2036.006,3067.769-2017.492,3045.732-2017.492Z" transform="translate(-1772.837 3690.021)" fill="url(#linear-gradient)"/>
    <g id="Grupo_53886" data-name="Grupo 53886" transform="translate(1020 1585.887)">
      <g id="Grupo_54975" data-name="Grupo 54975" transform="translate(0 0)">
        <path id="Trazado_103013" data-name="Trazado 103013" d="M2798.237-2037.84c3.419,1.772,11.267,5.064,19.116,5.064,10,0,15.064-4.811,15.064-11.014,0-8.1-8.1-11.773-16.584-11.773h-7.844v-13.8h7.469c6.457-.127,14.686-2.533,14.686-9.5,0-4.938-4.051-8.609-12.153-8.609-6.71,0-13.8,2.912-17.217,4.938l-3.923-13.925c4.936-3.164,14.811-6.2,25.445-6.2,17.6,0,27.343,9.241,27.343,20.508,0,8.735-4.937,15.571-15.063,19.115v.254c9.874,1.771,17.85,9.241,17.85,20,0,14.558-12.786,25.191-33.674,25.191-10.633,0-19.621-2.785-24.432-5.824Z" transform="translate(-2792.837 2104.134)" fill="#ea526f" opacity="0.2" style="isolation: isolate"/>
        <path id="Trazado_103015" data-name="Trazado 103015" d="M2818.746-2016.108c-11.529,0-20.588-3.126-25.221-6.052a1.478,1.478,0,0,1-.636-1.636l3.923-14.432a1.475,1.475,0,0,1,1.81-1.038,1.455,1.455,0,0,1,.3.117c1.578.818,9.879,4.9,18.436,4.9,8.381,0,13.589-3.655,13.589-9.537,0-7.6-8.139-10.3-15.108-10.3h-7.845a1.477,1.477,0,0,1-1.477-1.477h0v-13.8a1.475,1.475,0,0,1,1.475-1.477h7.472c1.325-.026,13.208-.476,13.208-8.018,0-4.465-3.992-7.132-10.677-7.132-6.708,0-13.7,3.1-16.464,4.731a1.478,1.478,0,0,1-2.022-.517,1.511,1.511,0,0,1-.151-.354l-3.922-13.925a1.476,1.476,0,0,1,.624-1.643c5-3.2,15.049-6.436,26.242-6.436,19.908,0,28.821,11.042,28.821,21.985,0,8.373-4.335,14.982-12.3,18.94,9.176,3.137,15.094,10.95,15.094,20.43a25.1,25.1,0,0,1-.554,5.268,1.477,1.477,0,0,1-1.8,1.063,1.477,1.477,0,0,1-1.087-1.689,22.011,22.011,0,0,0,.487-4.642c0-10.751-8.354-17.062-16.634-18.547a1.479,1.479,0,0,1-1.215-1.453v-.254a1.476,1.476,0,0,1,.991-1.393c9.209-3.221,14.076-9.351,14.076-17.721,0-11.384-10.4-19.031-25.867-19.031-9.857,0-18.918,2.708-23.717,5.411l3.117,11.06c3.721-1.878,10.037-4.234,16.3-4.234,10.049,0,13.629,5.21,13.629,10.085,0,7.865-8.69,10.825-16.132,10.972h-6.022v10.845h6.372c8.99,0,18.06,4.1,18.06,13.248,0,7.588-6.493,12.49-16.541,12.49-7.527,0-14.806-2.89-18.158-4.434l-3.162,11.627c4.386,2.439,12.568,5.044,22.709,5.044a1.477,1.477,0,0,1,1.438,1.515,1.479,1.479,0,0,1-1.438,1.438Z" transform="translate(-2792.837 2104.134)" fill="#ea526f"/>
        <path id="Trazado_103016" data-name="Trazado 103016" d="M3048.046-2016.108H2818.657a1.411,1.411,0,0,1-1.387-1.438,1.426,1.426,0,0,1,1.317-1.515h229.459c20.543-.1,37.123-17.94,37.03-39.847-.093-21.765-16.619-39.385-37.03-39.484H2850.352a1.412,1.412,0,0,1-1.392-1.435,1.428,1.428,0,0,1,1.314-1.518h197.772c22.073.1,39.889,19.27,39.791,42.808C3087.739-2035.148,3069.981-2016.212,3048.046-2016.108Z" transform="translate(-2792.837 2104.134)" fill="#ea526f"/>
      </g>
    </g>
    <path id="Trazado_727175" data-name="Trazado 727175" d="M50.191,6.339h-3.92V17H43.634V6.339H39.767V4.2H50.191Zm4.931,10.837a4.668,4.668,0,0,1-3.406-1.283A4.561,4.561,0,0,1,50.4,12.474v-.246a5.745,5.745,0,0,1,.554-2.562,4.064,4.064,0,0,1,1.569-1.74,4.4,4.4,0,0,1,2.316-.611,3.947,3.947,0,0,1,3.072,1.23,5,5,0,0,1,1.121,3.489v1.037H52.977a2.36,2.36,0,0,0,.743,1.494,2.245,2.245,0,0,0,1.569.563,2.742,2.742,0,0,0,2.294-1.063l1.248,1.4a3.813,3.813,0,0,1-1.547,1.261A5.075,5.075,0,0,1,55.121,17.176Zm-.29-7.813a1.587,1.587,0,0,0-1.226.512A2.651,2.651,0,0,0,53,11.34h3.533v-.2a1.891,1.891,0,0,0-.457-1.311A1.638,1.638,0,0,0,54.831,9.362Zm10.986.51A6.9,6.9,0,0,0,64.9,9.8a1.86,1.86,0,0,0-1.89.976V17h-2.54V7.49h2.4l.07,1.134a2.354,2.354,0,0,1,2.118-1.31,2.662,2.662,0,0,1,.791.114Zm3.6-2.382L69.5,8.554a3.342,3.342,0,0,1,2.733-1.239,2.536,2.536,0,0,1,2.522,1.45,3.265,3.265,0,0,1,2.856-1.45,2.836,2.836,0,0,1,2.3.9,4.141,4.141,0,0,1,.756,2.711V17H78.122V10.936a1.811,1.811,0,0,0-.316-1.182A1.4,1.4,0,0,0,76.69,9.38a1.585,1.585,0,0,0-1.582,1.09L75.117,17h-2.54V10.944a1.789,1.789,0,0,0-.325-1.2,1.416,1.416,0,0,0-1.107-.369,1.646,1.646,0,0,0-1.564.9V17h-2.54V7.49ZM85.3,17H82.754V7.49H85.3ZM82.6,5.029a1.251,1.251,0,0,1,.382-.94,1.648,1.648,0,0,1,2.079,0,1.244,1.244,0,0,1,.387.94,1.247,1.247,0,0,1-.391.949,1.629,1.629,0,0,1-2.065,0A1.247,1.247,0,0,1,82.6,5.029ZM89.733,7.49l.079,1.1a3.32,3.32,0,0,1,2.733-1.274A2.759,2.759,0,0,1,94.8,8.2a4.142,4.142,0,0,1,.756,2.654V17h-2.54V10.918a1.648,1.648,0,0,0-.352-1.173,1.574,1.574,0,0,0-1.169-.365,1.747,1.747,0,0,0-1.608.914V17h-2.54V7.49ZM102.987,17a2.821,2.821,0,0,1-.255-.853,3.073,3.073,0,0,1-2.4,1.028,3.376,3.376,0,0,1-2.316-.809,2.6,2.6,0,0,1-.918-2.039,2.687,2.687,0,0,1,1.121-2.32,5.529,5.529,0,0,1,3.239-.817h1.169v-.545a1.567,1.567,0,0,0-.338-1.055,1.331,1.331,0,0,0-1.068-.4,1.513,1.513,0,0,0-1.006.308,1.045,1.045,0,0,0-.365.844h-2.54a2.551,2.551,0,0,1,.51-1.529,3.37,3.37,0,0,1,1.441-1.1,5.253,5.253,0,0,1,2.092-.4,4.15,4.15,0,0,1,2.791.883,3.09,3.09,0,0,1,1.033,2.483V14.8a4.546,4.546,0,0,0,.378,2.048V17Zm-2.1-1.767a2.188,2.188,0,0,0,1.037-.25,1.645,1.645,0,0,0,.7-.672V12.676h-.949q-1.907,0-2.03,1.318l-.009.149a1.017,1.017,0,0,0,.334.782A1.3,1.3,0,0,0,100.886,15.233Zm10.2-.105a1.666,1.666,0,0,0,1.143-.387,1.355,1.355,0,0,0,.457-1.028h2.382a3.258,3.258,0,0,1-.527,1.771,3.48,3.48,0,0,1-1.419,1.248,4.442,4.442,0,0,1-1.991.444,4.129,4.129,0,0,1-3.217-1.3,5.13,5.13,0,0,1-1.178-3.582v-.167A5.071,5.071,0,0,1,107.9,8.624a4.08,4.08,0,0,1,3.208-1.31,4,4,0,0,1,2.861,1.015,3.594,3.594,0,0,1,1.094,2.7h-2.382a1.745,1.745,0,0,0-.457-1.206,1.7,1.7,0,0,0-2.5.183,3.749,3.749,0,0,0-.453,2.1v.264a3.8,3.8,0,0,0,.448,2.113A1.549,1.549,0,0,0,111.081,15.128ZM119.194,17h-2.549V7.49h2.549ZM116.5,5.029a1.251,1.251,0,0,1,.382-.94,1.648,1.648,0,0,1,2.079,0,1.244,1.244,0,0,1,.387.94,1.247,1.247,0,0,1-.391.949,1.629,1.629,0,0,1-2.065,0A1.247,1.247,0,0,1,116.5,5.029Zm4.395,7.128a5.64,5.64,0,0,1,.545-2.522A3.989,3.989,0,0,1,123,7.921a4.577,4.577,0,0,1,2.377-.606,4.33,4.33,0,0,1,3.142,1.178,4.727,4.727,0,0,1,1.358,3.2l.018.65a4.97,4.97,0,0,1-1.222,3.511,4.735,4.735,0,0,1-6.561,0,5.058,5.058,0,0,1-1.226-3.586Zm2.54.18a3.555,3.555,0,0,0,.51,2.073,1.831,1.831,0,0,0,2.9.009,3.89,3.89,0,0,0,.519-2.267,3.519,3.519,0,0,0-.519-2.06,1.686,1.686,0,0,0-1.459-.731,1.658,1.658,0,0,0-1.441.726A3.955,3.955,0,0,0,123.43,12.338ZM125.882,3.5h2.769l-2.435,2.725h-2.065ZM133.8,7.49l.079,1.1a3.32,3.32,0,0,1,2.733-1.274,2.759,2.759,0,0,1,2.25.888,4.142,4.142,0,0,1,.756,2.654V17h-2.54V10.918a1.648,1.648,0,0,0-.352-1.173,1.574,1.574,0,0,0-1.169-.365,1.747,1.747,0,0,0-1.608.914V17h-2.54V7.49Z" transform="translate(1105 1620.176)" fill="#12263f"/>
  </g>
</svg>
