<svg xmlns="http://www.w3.org/2000/svg" width="41.532" height="85.558" viewBox="0 0 41.532 85.558">
  <g id="num1" transform="translate(0 0)">
    <path id="Trazado_103017" data-name="Trazado 103017" d="M2104.1-2086.282h-.259l-16.03,7.5-3.231-14.482,22.237-10.162H2123.1v82.572h-19Z" transform="translate(-2083.073 2104.91)" fill="#0ce6ea" opacity="0.2" style="isolation: isolate"/>
    <path id="Trazado_103018" data-name="Trazado 103018" d="M2123.1-2019.373a1.5,1.5,0,0,1-1.508-1.482v-81.095h-14.447l-20.837,9.524,2.567,11.5,14.319-6.694a1.541,1.541,0,0,1,.648-.143h.258a1.494,1.494,0,0,1,1.508,1.48h0v65.423a1.508,1.508,0,0,1-1.508,1.508,1.508,1.508,0,0,1-1.508-1.508h0v-63.2l-14.131,6.608a1.536,1.536,0,0,1-1.311-.007,1.491,1.491,0,0,1-.811-1.01l-3.231-14.484a1.477,1.477,0,0,1,.837-1.66l22.236-10.159a1.5,1.5,0,0,1,.636-.138H2123.1a1.493,1.493,0,0,1,1.5,1.475v82.572a1.5,1.5,0,0,1-1.5,1.49Z" transform="translate(-2083.073 2104.91)" fill="#0ce6ea"/>
  </g>
</svg>
