<svg xmlns="http://www.w3.org/2000/svg" width="160" height="136" viewBox="0 0 160 136">
  <g id="_2" data-name="2" transform="translate(-1020 -721)">
    <g id="Grupo_960465" data-name="Grupo 960465">
      <rect id="Rectángulo_340442" data-name="Rectángulo 340442" width="160" height="136" rx="10" transform="translate(1020 721)" fill="#fff"/>
    </g>
    <g id="_x32_0_Planning" transform="translate(990.068 735.583)">
      <g id="Grupo_958349" data-name="Grupo 958349" transform="translate(78.932 1.738)">
        <path id="Trazado_726757" data-name="Trazado 726757" d="M228.485,185.048v9.4h-30.7l-5.486-4.7,5.486-4.7Z" transform="translate(-170.407 -149.65)" fill="#ff6e33"/>
        <path id="Trazado_726758" data-name="Trazado 726758" d="M228.485,273.855v9.4h-30.7l-5.486-4.7,5.486-4.7Z" transform="translate(-170.407 -221.308)" fill="#0ce6ea"/>
        <g id="Grupo_958348" data-name="Grupo 958348" transform="translate(0 0)">
          <path id="Trazado_726759" data-name="Trazado 726759" d="M228.485,362.661v9.4h-30.7l-5.486-4.7,5.486-4.7Z" transform="translate(-170.407 -292.965)" fill="#ff6e33"/>
          <g id="Grupo_958347" data-name="Grupo 958347">
            <path id="Trazado_726760" data-name="Trazado 726760" d="M141.749,1.738H84.5a5.574,5.574,0,0,0-5.568,5.568V94.368A5.574,5.574,0,0,0,84.5,99.936h57.249a5.574,5.574,0,0,0,5.568-5.568V7.306a5.574,5.574,0,0,0-5.568-5.568Zm2.531,92.63a2.533,2.533,0,0,1-2.531,2.531H84.5a2.533,2.533,0,0,1-2.531-2.531V7.306A2.533,2.533,0,0,1,84.5,4.775h57.249a2.533,2.533,0,0,1,2.531,2.531Z" transform="translate(-78.932 -1.738)" fill="#3f3f3f"/>
            <path id="Trazado_726761" data-name="Trazado 726761" d="M145.5,54.312h-3.78a1.519,1.519,0,0,0-1.519,1.519V68.168a1.519,1.519,0,1,0,3.037,0v-4.65H145.5a4.6,4.6,0,1,0,0-9.206Zm0,6.169h-2.262V57.349H145.5a1.566,1.566,0,1,1,0,3.132Z" transform="translate(-128.372 -44.16)" fill="#3f3f3f"/>
            <path id="Trazado_726762" data-name="Trazado 726762" d="M249.67,69.686a1.519,1.519,0,0,0,1.519-1.519v-3.7h3.828v3.7a1.519,1.519,0,0,0,3.037,0v-8.9a4.951,4.951,0,1,0-9.9,0v8.9A1.519,1.519,0,0,0,249.67,69.686ZM253.1,57.348a1.916,1.916,0,0,1,1.914,1.914v2.17h-3.828v-2.17A1.916,1.916,0,0,1,253.1,57.348Z" transform="translate(-215.475 -44.159)" fill="#3f3f3f"/>
            <path id="Trazado_726763" data-name="Trazado 726763" d="M321.857,54.312a1.519,1.519,0,0,0-1.519,1.519v7.48l-5.784-8.345a1.518,1.518,0,0,0-2.766.865V68.168a1.519,1.519,0,1,0,3.037,0V60.688l5.784,8.345a1.518,1.518,0,0,0,2.766-.865V55.83a1.518,1.518,0,0,0-1.519-1.518Z" transform="translate(-266.822 -44.16)" fill="#3f3f3f"/>
            <path id="Trazado_726764" data-name="Trazado 726764" d="M205.367,68.167a1.519,1.519,0,0,0-1.519-1.519h-4.537V55.83a1.519,1.519,0,0,0-3.037,0V68.167a1.519,1.519,0,0,0,1.519,1.519h6.055A1.519,1.519,0,0,0,205.367,68.167Z" transform="translate(-173.615 -44.159)" fill="#3f3f3f"/>
            <path id="Trazado_726765" data-name="Trazado 726765" d="M131.5,189.216l-3.849,3.848-.611-.611a1.518,1.518,0,1,0-2.147,2.147l1.685,1.685a1.518,1.518,0,0,0,2.147,0l4.922-4.922a1.518,1.518,0,1,0-2.147-2.147Z" transform="translate(-115.66 -152.654)" fill="#3f3f3f"/>
            <path id="Trazado_726766" data-name="Trazado 726766" d="M238.265,201.517h-14.4a1.519,1.519,0,0,0,0,3.037h14.4a1.519,1.519,0,0,0,0-3.037Z" transform="translate(-194.654 -162.939)" fill="#3f3f3f"/>
            <path id="Trazado_726767" data-name="Trazado 726767" d="M131.5,278.022l-3.849,3.848-.611-.611a1.518,1.518,0,1,0-2.147,2.147l1.685,1.685a1.518,1.518,0,0,0,2.147,0l4.922-4.922a1.518,1.518,0,1,0-2.147-2.147Z" transform="translate(-115.66 -224.311)" fill="#3f3f3f"/>
            <path id="Trazado_726768" data-name="Trazado 726768" d="M238.265,290.322h-14.4a1.519,1.519,0,1,0,0,3.037h14.4a1.519,1.519,0,1,0,0-3.037Z" transform="translate(-194.654 -234.595)" fill="#3f3f3f"/>
            <path id="Trazado_726769" data-name="Trazado 726769" d="M131.5,366.827l-3.849,3.848-.611-.611a1.518,1.518,0,1,0-2.147,2.147l1.685,1.685a1.518,1.518,0,0,0,2.147,0l4.922-4.922a1.518,1.518,0,1,0-2.147-2.147Z" transform="translate(-115.66 -295.967)" fill="#3f3f3f"/>
            <path id="Trazado_726770" data-name="Trazado 726770" d="M238.265,379.127h-14.4a1.519,1.519,0,0,0,0,3.037h14.4a1.519,1.519,0,0,0,0-3.037Z" transform="translate(-194.654 -306.251)" fill="#3f3f3f"/>
          </g>
        </g>
      </g>
    </g>
  </g>
</svg>
