<svg xmlns="http://www.w3.org/2000/svg" xmlns:xlink="http://www.w3.org/1999/xlink" width="105" height="105" viewBox="0 0 105 105">
  <defs>
    <clipPath id="clip-path">
      <path id="path8438" d="M0-682.665H72.117v72.117H0Z" transform="translate(0 682.665)"/>
    </clipPath>
  </defs>
  <g id="_8" data-name="8" transform="translate(-1021 -1431)">
    <circle id="Elipse_4626" data-name="Elipse 4626" cx="52.5" cy="52.5" r="52.5" transform="translate(1021 1431)" fill="#ff6e33"/>
    <g id="g8424" transform="translate(1037 2129.665)">
      <g id="g8426" transform="translate(35.347 -645.844)">
        <path id="path8428" d="M-104.653,0V5.521l-6.181,4.654-6.181-4.654V0Z" transform="translate(117.014)" fill="#fed2a4"/>
      </g>
      <g id="g8430" transform="translate(35.347 -645.844)">
        <path id="path8432" d="M-23.85-46.744v-5.521h-2.817v5.521l6.181,4.654,1.409-1.06Z" transform="translate(26.667 52.265)" fill="#ffbd86"/>
      </g>
      <g id="g8434" transform="translate(0 -682.665)">
        <g id="g8436" transform="translate(0 0)" clip-path="url(#clip-path)">
          <g id="g8442" transform="translate(6.526 18.458)">
            <path id="path8444" d="M-93.237-149.009h-8.9a2.113,2.113,0,0,1-2.113-2.113V-164.5a2.113,2.113,0,0,1,2.113-2.113h8.9a2.113,2.113,0,0,1,2.113,2.113v6.688l4.375,4.425h-4.375v2.262a2.113,2.113,0,0,1-2.113,2.113" transform="translate(104.25 166.61)" fill="#0ce6ea"/>
          </g>
          <g id="g8446" transform="translate(9.807 42.342)">
            <path id="path8448" d="M0-57.925H4.375v-4.654a2.188,2.188,0,0,0-2.188-2.188A2.188,2.188,0,0,0,0-62.579Z" transform="translate(0 64.767)" fill="#fed2a4"/>
          </g>
          <g id="g8450" transform="translate(9.807 42.342)">
            <path id="path8452" d="M-27.464-2.306a2.178,2.178,0,0,0-1.056-.272A2.188,2.188,0,0,0-30.708-.391V4.263H-28.6V-.391a2.186,2.186,0,0,1,1.131-1.915" transform="translate(30.708 2.579)" fill="#ffbd86"/>
          </g>
          <g id="g8454" transform="translate(8.713 42.342)">
            <path id="path8456" d="M-37.675-169.048a2.113,2.113,0,0,0,2.113-2.113v-2.262l8.014-10.4a4.226,4.226,0,0,1,1.868-1.379l10.193-3.811,6.176,4.654,6.177-4.654,13.806,4.35a5.913,5.913,0,0,1,4.081,5.623V-160.3H-26.812v-10.933l-7.5,9.056a4.226,4.226,0,0,1-3.516,1.882H-37.9a4.226,4.226,0,0,1-4.226-4.226v-4.525Z" transform="translate(42.125 189.016)" fill="#42a5f5"/>
          </g>
          <g id="g8458" transform="translate(42.936 42.342)">
            <path id="path8460" d="M-11.925-39.4l5.346-4.028-1.986-.626-4.768,3.593Z" transform="translate(13.333 44.053)" fill="#0593fc"/>
          </g>
          <path id="path8462" d="M227.438-121.481h2.817v-13.162h-2.817Z" transform="translate(-203.411 192.536)" fill="#0593fc"/>
          <g id="g8464" transform="translate(8.713 42.342)">
            <path id="path8466" d="M-23.85-207.356v-4.525h4.45a2.113,2.113,0,0,0,2.113-2.113v-2.262l8.013-10.4a4.227,4.227,0,0,1,1.868-1.379l8.311-3.107-.934-.7-10.193,3.811a4.227,4.227,0,0,0-1.868,1.379l-8.013,10.4v2.262a2.113,2.113,0,0,1-2.113,2.113h-4.45v4.525a4.226,4.226,0,0,0,4.226,4.226h.076A4.22,4.22,0,0,0-21-203.36a4.227,4.227,0,0,1-2.852-4" transform="translate(26.667 231.849)" fill="#0593fc"/>
          </g>
          <path id="path8468" d="M260.253-125.851H227.438v-8.792h32.814Z" transform="translate(-203.411 192.536)" fill="#ffca28"/>
          <path id="path8470" d="M227.438-125.851h2.817v-8.792h-2.817Z" transform="translate(-203.411 192.536)" fill="#f9b916"/>
          <g id="g8472" transform="translate(25.864 18.558)">
            <path id="path8474" d="M-42.879,0H-45a2.943,2.943,0,0,0-2.943,2.943V5.149A2.943,2.943,0,0,0-45,8.092h2.121Z" transform="translate(47.944)" fill="#fed2a4"/>
          </g>
          <g id="g8476" transform="translate(52.127 18.558)">
            <path id="path8478" d="M0,0H2.122A2.943,2.943,0,0,1,5.065,2.943V5.149A2.943,2.943,0,0,1,2.122,8.092H0Z" fill="#fed2a4"/>
          </g>
          <g id="g8480" transform="translate(30.928 14.096)">
            <path id="path8482" d="M0-36.925v10.178a9.791,9.791,0,0,0,9.791,9.791h1.617A9.791,9.791,0,0,0,21.2-26.747V-36.825L10.6-41.287Z" transform="translate(0 41.287)" fill="#fff3de"/>
          </g>
          <g id="g8484" transform="translate(30.928 14.096)">
            <path id="path8486" d="M-23.85-123.095v-10.178l9.175-3.775-1.393-.586-10.6,4.362v10.178a9.791,9.791,0,0,0,9.791,9.791h1.617c.2,0,.4-.008.6-.02a9.79,9.79,0,0,1-9.191-9.771" transform="translate(26.667 137.634)" fill="#ffe5c2"/>
          </g>
          <g id="g8488" transform="translate(26.972 5.432)">
            <path id="path8490" d="M0-111.127H4.861a4.226,4.226,0,0,0,4.226-4.226v-8.9H6.338A6.338,6.338,0,0,0,0-117.915Z" transform="translate(0 124.253)" fill="#546e7a"/>
          </g>
          <g id="g8492" transform="translate(26.972 5.431)">
            <path id="path8494" d="M-76.928-.016v0h-2.748a6.339,6.339,0,0,0-6.338,6.338v6.788H-83.2V6.321a6.338,6.338,0,0,1,6.27-6.337" transform="translate(86.014 0.017)" fill="#435860"/>
          </g>
          <g id="g8496" transform="translate(36.059 1.057)">
            <path id="path8498" d="M-96.481,0a8.674,8.674,0,0,1,8.674,8.674V17.5h-15.844a4.226,4.226,0,0,1-4.226-4.226V4.226A4.225,4.225,0,0,1-103.651,0Z" transform="translate(107.877)" fill="#546e7a"/>
          </g>
          <g id="g8500" transform="translate(36.058 1.057)">
            <path id="path8502" d="M-23.85-112.391v-9.05a4.226,4.226,0,0,1,4.226-4.226h-2.817a4.226,4.226,0,0,0-4.226,4.226v9.05a4.226,4.226,0,0,0,4.226,4.226h2.817a4.226,4.226,0,0,1-4.226-4.226" transform="translate(26.667 125.666)" fill="#435860"/>
          </g>
          <g id="g8504" transform="translate(35.347 36.821)">
            <path id="path8506" d="M0,0V5.521l6.181,4.654,6.181-4.654V0" fill="none" stroke="#000" stroke-linecap="round" stroke-linejoin="round" stroke-miterlimit="10" stroke-width="1.8"/>
          </g>
          <g id="g8508" transform="translate(25.864 18.558)">
            <path id="path8510" d="M-42.879,0H-45a2.943,2.943,0,0,0-2.943,2.943V5.149A2.943,2.943,0,0,0-45,8.092h2.121Z" transform="translate(47.944)" fill="none" stroke="#000" stroke-linecap="round" stroke-linejoin="round" stroke-miterlimit="10" stroke-width="1.8"/>
          </g>
          <g id="g8512" transform="translate(52.127 18.558)">
            <path id="path8514" d="M0,0H2.122A2.943,2.943,0,0,1,5.065,2.943V5.149A2.943,2.943,0,0,1,2.122,8.092H0Z" fill="none" stroke="#000" stroke-linecap="round" stroke-linejoin="round" stroke-miterlimit="10" stroke-width="1.8"/>
          </g>
          <g id="g8516" transform="translate(46.089 22.41)">
            <path id="path8518" d="M0,0V1.387" fill="none" stroke="#000" stroke-linecap="round" stroke-linejoin="round" stroke-miterlimit="10" stroke-width="1.8"/>
          </g>
          <g id="g8520" transform="translate(36.987 22.41)">
            <path id="path8522" d="M0,0V1.387" fill="none" stroke="#000" stroke-linecap="round" stroke-linejoin="round" stroke-miterlimit="10" stroke-width="1.8"/>
          </g>
          <g id="g8524" transform="translate(38.878 29.54)">
            <path id="path8526" d="M-44.859,0a2.649,2.649,0,0,1-2.649,2.649A2.649,2.649,0,0,1-50.157,0" transform="translate(50.157)" fill="none" stroke="#000" stroke-linecap="round" stroke-linejoin="round" stroke-miterlimit="10" stroke-width="1.8"/>
          </g>
          <g id="g8528" transform="translate(36.058 1.056)">
            <path id="path8530" d="M-169.916-124.435v2.8h-15.845a4.225,4.225,0,0,1-4.226-4.226v-9.05a4.225,4.225,0,0,1,4.226-4.226h7.171a8.674,8.674,0,0,1,8.674,8.674v1.42" transform="translate(189.986 139.133)" fill="none" stroke="#000" stroke-linecap="round" stroke-linejoin="round" stroke-miterlimit="10" stroke-width="1.8"/>
          </g>
          <g id="g8532" transform="translate(26.972 5.432)">
            <path id="path8534" d="M0-111.127H4.861a4.226,4.226,0,0,0,4.226-4.226v-8.9H6.338A6.338,6.338,0,0,0,0-117.915Z" transform="translate(0 124.253)" fill="none" stroke="#000" stroke-linecap="round" stroke-linejoin="round" stroke-miterlimit="10" stroke-width="1.8"/>
          </g>
          <g id="g8536" transform="translate(6.526 49.184)">
            <path id="path8538" d="M-17.887-111.124h4.525a2.113,2.113,0,0,0,2.113-2.113v-8.9a2.113,2.113,0,0,0-2.113-2.113h-4.525A2.113,2.113,0,0,0-20-122.138v8.9a2.113,2.113,0,0,0,2.113,2.113" transform="translate(20 124.25)" fill="#fff3de"/>
          </g>
          <g id="g8540" transform="translate(6.526 49.184)">
            <path id="path8542" d="M-23.85-93.237v-8.9a2.113,2.113,0,0,1,2.113-2.113h-2.817a2.113,2.113,0,0,0-2.113,2.113v8.9a2.113,2.113,0,0,0,2.113,2.113h2.817a2.113,2.113,0,0,1-2.113-2.113" transform="translate(26.667 104.25)" fill="#ffe5c2"/>
          </g>
          <g id="g8544" transform="translate(8.713 42.342)">
            <path id="path8546" d="M-481.535-151.146v10.86H-523.1V-151.22l-7.5,9.057a4.226,4.226,0,0,1-3.516,1.882h-.076a4.225,4.225,0,0,1-4.226-4.226v-4.526h4.451a2.113,2.113,0,0,0,2.113-2.113v-2.262l8.013-10.4a4.231,4.231,0,0,1,1.868-1.38l10.194-3.81,6.176,4.654,6.177-4.654,13.806,4.35a5.913,5.913,0,0,1,4.081,5.623v3.276" transform="translate(538.413 169)" fill="none" stroke="#000" stroke-linecap="round" stroke-linejoin="round" stroke-miterlimit="10" stroke-width="1.8"/>
          </g>
          <g id="g8548" transform="translate(56.841 55.982)">
            <path id="path8550" d="M0,0V15.078" fill="none" stroke="#000" stroke-linecap="round" stroke-linejoin="round" stroke-miterlimit="10" stroke-width="1.8"/>
          </g>
          <g id="g8552" transform="translate(6.526 49.184)">
            <path id="path8554" d="M-17.887-111.124h4.525a2.113,2.113,0,0,0,2.113-2.113v-8.9a2.113,2.113,0,0,0-2.113-2.113h-4.525A2.113,2.113,0,0,0-20-122.138v8.9A2.113,2.113,0,0,0-17.887-111.124Z" transform="translate(20 124.25)" fill="none" stroke="#000" stroke-linecap="round" stroke-linejoin="round" stroke-miterlimit="10" stroke-width="1.8"/>
          </g>
          <g id="g8556" transform="translate(10.901 53.56)">
            <path id="path8558" d="M-37.041,0h-4.375" transform="translate(41.416)" fill="none" stroke="#000" stroke-linecap="round" stroke-linejoin="round" stroke-miterlimit="10" stroke-width="1.8"/>
          </g>
          <g id="g8560" transform="translate(10.901 57.935)">
            <path id="path8562" d="M-37.041,0h-4.375" transform="translate(41.416)" fill="none" stroke="#000" stroke-linecap="round" stroke-linejoin="round" stroke-miterlimit="10" stroke-width="1.8"/>
          </g>
          <g id="g8564" transform="translate(14.182 62.048)">
            <path id="path8566" d="M0,0V2.449" fill="none" stroke="#000" stroke-linecap="round" stroke-linejoin="round" stroke-miterlimit="10" stroke-width="1.8"/>
          </g>
          <g id="g8568" transform="translate(24.027 55.747)">
            <path id="path8570" d="M0-37.041v-4.375" transform="translate(0 41.416)" fill="none" stroke="#000" stroke-linecap="round" stroke-linejoin="round" stroke-miterlimit="10" stroke-width="1.8"/>
          </g>
          <g id="g8572" transform="translate(9.807 42.342)">
            <path id="path8574" d="M0-57.925H4.375v-4.654a2.188,2.188,0,0,0-2.188-2.188A2.188,2.188,0,0,0,0-62.579Z" transform="translate(0 64.767)" fill="none" stroke="#000" stroke-linecap="round" stroke-linejoin="round" stroke-miterlimit="10" stroke-width="1.8"/>
          </g>
          <g id="g8576" transform="translate(24.027 57.894)">
            <path id="path8578" d="M-115.324-74.436h19.193v-8.792h-32.815v8.792h9.019" transform="translate(128.946 83.228)" fill="none" stroke="#000" stroke-linecap="round" stroke-linejoin="round" stroke-miterlimit="10" stroke-width="1.8"/>
          </g>
          <g id="g8580" transform="translate(9.807 25.071)">
            <path id="path8582" d="M0-18.52l2.188,2.188,4.375-4.375" transform="translate(0 20.708)" fill="none" stroke="#000" stroke-linecap="round" stroke-linejoin="round" stroke-miterlimit="10" stroke-width="1.8"/>
          </g>
          <g id="g8584" transform="translate(6.526 18.458)">
            <path id="path8586" d="M-93.237-149.009h-8.9a2.113,2.113,0,0,1-2.113-2.113V-164.5a2.113,2.113,0,0,1,2.113-2.113h8.9a2.113,2.113,0,0,1,2.113,2.113v6.688l4.375,4.425h-4.375v2.262A2.113,2.113,0,0,1-93.237-149.009Z" transform="translate(104.25 166.61)" fill="none" stroke="#000" stroke-linecap="round" stroke-linejoin="round" stroke-miterlimit="10" stroke-width="1.8"/>
          </g>
          <g id="g8588" transform="translate(30.928 18.558)">
            <path id="path8590" d="M0,0V10.078a9.791,9.791,0,0,0,9.791,9.791h1.617A9.791,9.791,0,0,0,21.2,10.078V0" fill="none" stroke="#000" stroke-linecap="round" stroke-linejoin="round" stroke-miterlimit="10" stroke-width="1.8"/>
          </g>
        </g>
      </g>
    </g>
  </g>
</svg>
