<svg xmlns="http://www.w3.org/2000/svg" width="161.453" height="136" viewBox="0 0 161.453 136">
  <g id="_4" data-name="4" transform="translate(-3436.547 10118)">
    <g id="Grupo_958256" data-name="Grupo 958256" transform="translate(0 324)">
      <rect id="Rectángulo_340365" data-name="Rectángulo 340365" width="137" height="136" rx="12" transform="translate(3461 -10442)" fill="#e8e8e8"/>
      <g id="_x32_2_x2C__memories_x2C__time_x2C__emotion_x2C__memory_x2C__efficiency_x2C__clock" transform="translate(3435.454 -10413.093)">
        <g id="Grupo_958246" data-name="Grupo 958246" transform="translate(1.093 1.093)">
          <path id="Trazado_726503" data-name="Trazado 726503" d="M25.046,1.093A23.769,23.769,0,0,0,10.514,6V5.32a1.409,1.409,0,0,0-2.818,0V9.107a1.41,1.41,0,0,0,2.4,1,21.071,21.071,0,1,1-4.064,5.7A1.409,1.409,0,0,0,3.5,14.566,23.957,23.957,0,1,0,25.046,1.093Z" transform="translate(-1.093 -1.093)" fill="#ea526f"/>
          <path id="Trazado_726504" data-name="Trazado 726504" d="M92.974,109.883A16.908,16.908,0,1,0,76.066,92.974,16.928,16.928,0,0,0,92.974,109.883ZM85.049,97.51,91.565,92.3V84.52a1.409,1.409,0,0,1,2.818,0v8.454a1.409,1.409,0,0,1-.529,1.1l-7.045,5.636a1.409,1.409,0,0,1-1.76-2.2Z" transform="translate(-69.021 -69.021)" fill="#ea526f"/>
        </g>
      </g>
    </g>
    <g id="gestion-de-archivos" transform="translate(3482.493 -10125.23)">
      <g id="Grupo_958257" data-name="Grupo 958257" transform="translate(49.369 33.513)">
        <path id="Trazado_726509" data-name="Trazado 726509" d="M211.266,114.418l13.285.05V84.37a1.5,1.5,0,0,1,1.5-1.5h15.357v3H227.551v28.609l13.856.052v2.988l-13.856-.053v28.715h13.856v3H226.051a1.5,1.5,0,0,1-1.5-1.5V117.457l-13.285-.05Z" transform="translate(-211.266 -73.615)" fill="#12263f" fill-rule="evenodd"/>
        <path id="Trazado_726510" data-name="Trazado 726510" d="M356.13,40.911h11.287a3.735,3.735,0,0,1,3.724,3.724V55.922a3.735,3.735,0,0,1-3.724,3.724H356.13a3.735,3.735,0,0,1-3.724-3.724V44.635a3.735,3.735,0,0,1,3.724-3.724Z" transform="translate(-325.941 -39.524)" fill="#ea526f" fill-rule="evenodd"/>
        <path id="Trazado_726511" data-name="Trazado 726511" d="M384.239,42.67a1.5,1.5,0,1,1,2.121-2.121l4.471,4.471L403.082,33.9a1.5,1.5,0,1,1,2.016,2.215L391.849,48.142l-.008.008a1.5,1.5,0,0,1-2.121,0Z" transform="translate(-351.449 -33.513)" fill="#12263f" fill-rule="evenodd"/>
        <path id="Trazado_726512" data-name="Trazado 726512" d="M356.13,209.739h11.287a3.735,3.735,0,0,1,3.724,3.724V224.75a3.735,3.735,0,0,1-3.724,3.724H356.13a3.735,3.735,0,0,1-3.724-3.724V213.463A3.735,3.735,0,0,1,356.13,209.739Z" transform="translate(-325.941 -176.696)" fill="#ff6e33" fill-rule="evenodd"/>
        <path id="Trazado_726513" data-name="Trazado 726513" d="M384.239,211.5a1.5,1.5,0,0,1,2.121-2.121l4.471,4.471,12.25-11.117a1.5,1.5,0,1,1,2.016,2.215l-13.249,12.023-.008.008a1.5,1.5,0,0,1-2.121,0Z" transform="translate(-351.449 -170.686)" fill="#12263f" fill-rule="evenodd"/>
        <path id="Trazado_726514" data-name="Trazado 726514" d="M356.13,378.567h11.287a3.735,3.735,0,0,1,3.724,3.724v11.287a3.735,3.735,0,0,1-3.724,3.724H356.13a3.735,3.735,0,0,1-3.724-3.724V382.291A3.735,3.735,0,0,1,356.13,378.567Z" transform="translate(-325.941 -313.868)" fill="#0ce6ea" fill-rule="evenodd"/>
        <path id="Trazado_726515" data-name="Trazado 726515" d="M384.239,380.327a1.5,1.5,0,0,1,2.121-2.121l4.471,4.471,12.25-11.117a1.5,1.5,0,0,1,2.016,2.215L391.849,385.8l-.008.008a1.5,1.5,0,0,1-2.121,0Z" transform="translate(-351.449 -307.858)" fill="#12263f" fill-rule="evenodd"/>
      </g>
      <g id="Grupo_958259" data-name="Grupo 958259" transform="translate(12.007 44.712)">
        <path id="Trazado_726516" data-name="Trazado 726516" d="M52.321,153.544H13.882a1.879,1.879,0,0,1-1.875-1.875V95.111a1.879,1.879,0,0,1,1.875-1.875H41.438a1.813,1.813,0,0,1,1.354.578l10.883,11.359a1.81,1.81,0,0,1,.521,1.3v45.2a1.878,1.878,0,0,1-1.875,1.875Z" transform="translate(-12.007 -93.236)" fill="#eceff1" fill-rule="evenodd"/>
        <path id="Trazado_726517" data-name="Trazado 726517" d="M14.783,153.544h-.9a1.879,1.879,0,0,1-1.875-1.875V95.111a1.879,1.879,0,0,1,1.875-1.875h.9Z" transform="translate(-12.007 -93.236)" fill="#4d4d4d" fill-rule="evenodd"/>
        <g id="Grupo_958258" data-name="Grupo 958258" transform="translate(6.176 0.019)">
          <path id="Trazado_726518" data-name="Trazado 726518" d="M170.446,93.335a1.8,1.8,0,0,1,1.077.559l10.883,11.359a1.876,1.876,0,0,1,.369.544H171.384a.939.939,0,0,1-.938-.938Z" transform="translate(-146.914 -93.335)" fill="#0ce6ea" fill-rule="evenodd"/>
          <path id="Trazado_726519" data-name="Trazado 726519" d="M46.446,196.431a1.5,1.5,0,0,1,0-3H73.282a1.5,1.5,0,0,1,0,3Zm0-31.574a1.5,1.5,0,1,1,0-3H62.058a1.5,1.5,0,0,1,0,3Zm0,10.525a1.5,1.5,0,1,1,0-3H73.282a1.5,1.5,0,0,1,0,3Zm0,10.525a1.5,1.5,0,0,1,0-3H73.282a1.5,1.5,0,0,1,0,3Z" transform="translate(-44.946 -149.009)" fill="#3c3c3c" fill-rule="evenodd"/>
        </g>
      </g>
    </g>
  </g>
</svg>
