<svg xmlns="http://www.w3.org/2000/svg" width="161.453" height="136" viewBox="0 0 161.453 136">
  <g id="_5" data-name="5" transform="translate(-3436.547 9789)">
    <g id="Grupo_958263" data-name="Grupo 958263" transform="translate(0 329)">
      <g id="Grupo_958256" data-name="Grupo 958256" transform="translate(0 324)">
        <rect id="Rectángulo_340365" data-name="Rectángulo 340365" width="137" height="136" rx="12" transform="translate(3461 -10442)" fill="#e8e8e8"/>
        <g id="_x32_2_x2C__memories_x2C__time_x2C__emotion_x2C__memory_x2C__efficiency_x2C__clock" transform="translate(3435.454 -10413.093)">
          <g id="Grupo_958246" data-name="Grupo 958246" transform="translate(1.093 1.093)">
            <path id="Trazado_726503" data-name="Trazado 726503" d="M25.046,1.093A23.769,23.769,0,0,0,10.514,6V5.32a1.409,1.409,0,0,0-2.818,0V9.107a1.41,1.41,0,0,0,2.4,1,21.071,21.071,0,1,1-4.064,5.7A1.409,1.409,0,0,0,3.5,14.566,23.957,23.957,0,1,0,25.046,1.093Z" transform="translate(-1.093 -1.093)" fill="#ea526f"/>
            <path id="Trazado_726504" data-name="Trazado 726504" d="M92.974,109.883A16.908,16.908,0,1,0,76.066,92.974,16.928,16.928,0,0,0,92.974,109.883ZM85.049,97.51,91.565,92.3V84.52a1.409,1.409,0,0,1,2.818,0v8.454a1.409,1.409,0,0,1-.529,1.1l-7.045,5.636a1.409,1.409,0,0,1-1.76-2.2Z" transform="translate(-69.021 -69.021)" fill="#ea526f"/>
          </g>
        </g>
      </g>
    </g>
    <g id="patron-de-tela" transform="translate(3480.982 -9847.278)">
      <path id="Trazado_726520" data-name="Trazado 726520" d="M202.689,272.013H143.066a3.162,3.162,0,0,1-3.162-3.162V246.074h65.947v22.777a3.162,3.162,0,0,1-3.162,3.162Z" transform="translate(-110.414 -122.768)" fill="#0a81f9"/>
      <path id="Trazado_726521" data-name="Trazado 726521" d="M117.8,97.208c-6.481,0-11.734,6.989-11.734,15.612s5.254,15.612,11.734,15.612h60.144V97.208Z" transform="translate(-82.511)" fill="#62b4fd"/>
      <path id="Trazado_726522" data-name="Trazado 726522" d="M163.786,97.208a35.942,35.942,0,0,0-3.446,15.612v.062a5.9,5.9,0,0,1-5.88,5.931H112.285a8.963,8.963,0,0,1-1.245-.088c1.75,5.694,5.954,9.706,10.863,9.706h60.144V97.208Z" transform="translate(-86.61 0)" fill="#27a2fb"/>
      <ellipse id="Elipse_4615" data-name="Elipse 4615" cx="11.734" cy="15.611" rx="11.734" ry="15.611" transform="translate(83.703 97.208)" fill="#89c6fc"/>
      <path id="Trazado_726523" data-name="Trazado 726523" d="M102.637,409.092H43.014a3.162,3.162,0,0,1-3.162-3.162V383.153H105.8V405.93A3.162,3.162,0,0,1,102.637,409.092Z" transform="translate(-27.902 -235.815)" fill="#fa4954"/>
      <path id="Trazado_726524" data-name="Trazado 726524" d="M96.865,383.153V396.9a3.256,3.256,0,0,1-3.256,3.256H39.85v5.676a3.256,3.256,0,0,0,3.256,3.256h59.435a3.256,3.256,0,0,0,3.256-3.256V383.153Z" transform="translate(-27.901 -235.815)" fill="#fa2a3b"/>
      <path id="Trazado_726525" data-name="Trazado 726525" d="M17.752,234.289c-6.481,0-11.734,6.989-11.734,15.612s5.254,15.612,11.734,15.612H77.9V234.289Z" transform="translate(0 -113.049)" fill="#fa989e"/>
      <path id="Trazado_726526" data-name="Trazado 726526" d="M63.733,234.289A35.942,35.942,0,0,0,60.287,249.9v.062a5.9,5.9,0,0,1-5.88,5.931H12.232a8.966,8.966,0,0,1-1.245-.088c1.75,5.694,5.954,9.706,10.863,9.706H81.994V234.289Z" transform="translate(-4.098 -113.049)" fill="#fb636f"/>
      <ellipse id="Elipse_4616" data-name="Elipse 4616" cx="11.734" cy="15.611" rx="11.734" ry="15.611" transform="translate(66.162 121.24)" fill="#ffc3c6"/>
      <path id="Trazado_726527" data-name="Trazado 726527" d="M473.36,101.116a19.391,19.391,0,0,1,1.923,8.56c0,8.622-5.254,15.612-11.734,15.612a9.072,9.072,0,0,1-3.445-.685c2.1,4.246,5.707,7.052,9.811,7.052,6.481,0,11.734-6.989,11.734-15.611C481.65,109.016,478.16,103.074,473.36,101.116Z" transform="translate(-374.478 -3.223)" fill="#62b4fd"/>
      <ellipse id="Elipse_4617" data-name="Elipse 4617" cx="6.607" cy="8.79" rx="6.607" ry="8.79" transform="translate(88.831 104.03)" fill="#62b4fd"/>
      <ellipse id="Elipse_4618" data-name="Elipse 4618" cx="1.79" cy="2.382" rx="1.79" ry="2.382" transform="translate(93.647 110.438)" fill="#89c6fc"/>
      <path id="Trazado_726528" data-name="Trazado 726528" d="M510.759,156.651c-.347,6.187-3.4,11.368-7.593,13.452a5.157,5.157,0,0,0,2.262.529c3.649,0,6.607-3.936,6.607-8.79a10.8,10.8,0,0,0-1.276-5.19Z" transform="translate(-409.991 -49.022)" fill="#0a81f9"/>
      <path id="Trazado_726529" data-name="Trazado 726529" d="M373.307,238.2a19.391,19.391,0,0,1,1.923,8.56c0,8.622-5.253,15.612-11.734,15.612a9.079,9.079,0,0,1-3.445-.685c2.1,4.246,5.707,7.052,9.811,7.052,6.481,0,11.734-6.989,11.734-15.612C381.6,246.1,378.107,240.155,373.307,238.2Z" transform="translate(-291.966 -116.272)" fill="#fa989e"/>
      <ellipse id="Elipse_4619" data-name="Elipse 4619" cx="6.607" cy="8.79" rx="6.607" ry="8.79" transform="translate(71.29 128.062)" fill="#fa989e"/>
      <ellipse id="Elipse_4620" data-name="Elipse 4620" cx="1.79" cy="2.382" rx="1.79" ry="2.382" transform="translate(76.106 134.47)" fill="#ffc3c6"/>
      <path id="Trazado_726530" data-name="Trazado 726530" d="M410.705,293.73c-.347,6.187-3.4,11.368-7.593,13.452a5.157,5.157,0,0,0,2.262.529c3.649,0,6.607-3.935,6.607-8.79A10.8,10.8,0,0,0,410.705,293.73Z" transform="translate(-327.477 -162.069)" fill="#fb636f"/>
    </g>
  </g>
</svg>
