<svg xmlns="http://www.w3.org/2000/svg" width="161.453" height="136" viewBox="0 0 161.453 136">
  <g id="_6" data-name="6" transform="translate(-943.547 -1258)">
    <g id="Grupo_958245" data-name="Grupo 958245">
      <rect id="Rectángulo_340365" data-name="Rectángulo 340365" width="137" height="136" rx="12" transform="translate(968 1258)" fill="#e8e8e8"/>
      <g id="nuevo" transform="translate(984.223 1268.121)">
        <path id="Trazado_726492" data-name="Trazado 726492" d="M108.469,310.207l-1.422,0-5.259,2.96c-2.147,1.114-4.524,2.28-6.943,2.324h-.077a21.522,21.522,0,0,1-9.138-2.2l-3.978-3.024-1.557,0a25.489,25.489,0,0,0-20.407,24.929V345.82h69.564V335.209A25.49,25.49,0,0,0,108.469,310.207Zm0,0" transform="translate(-45.758 -237.81)" fill="#ff9c7a"/>
        <path id="Trazado_726493" data-name="Trazado 726493" d="M172.417,278.055l-4.011,1.472a15.308,15.308,0,0,1-12.257-.7l-2.264-1.225-4.092,7.863,4.913,2.84a21.522,21.522,0,0,0,9.138,2.2h.077c2.42-.044,4.8-1.21,6.943-2.324l6.681-2.74Zm0,0" transform="translate(-114.834 -212.814)" fill="#d94635"/>
        <path id="Trazado_726494" data-name="Trazado 726494" d="M84.6,140.207a7.915,7.915,0,0,0,3.877,15.073l-3.509-14.706" transform="translate(-61.356 -107.485)" fill="#ff9c7a"/>
        <path id="Trazado_726495" data-name="Trazado 726495" d="M304.26,141.98c2.908.751,4.4,4.705,3.32,8.832s-5.331,6.864-8.24,6.113Zm0,0" transform="translate(-229.48 -108.844)" fill="#ff9c7a"/>
        <path id="Trazado_726496" data-name="Trazado 726496" d="M146.693,18.1a25.189,25.189,0,0,0-8.079-12.514A24.845,24.845,0,0,0,122.7.169c-14.118-1.435-21.761,6.772-21.761,6.772-5.169,3.629-1.877,9.1-1.877,9.1-1.034.893-2.069,1.76-3.1,2.654-.121.287-.294.716-.476,1.243a23.292,23.292,0,0,0-.827,11.128h-.045c.1.587.21,1.159.319,1.728.017.1.034.2.051.294.172,1,.421,2.176.783,3.5a68.486,68.486,0,0,0,8.382,20.03c5.433,8.678,9.527,10.637,11.942,11.457a17.154,17.154,0,0,0,10.746,0c3-1.033,6.413-3.271,11.045-11a70.693,70.693,0,0,0,6.237-13.5c-.008.118-.016.251-.025.364a41.081,41.081,0,0,0,3.445-12.617A30.247,30.247,0,0,0,146.693,18.1Zm0,0" transform="translate(-72.326 0)" fill="#ffd5ae"/>
        <path id="Trazado_726497" data-name="Trazado 726497" d="M98.122,34.379a33.494,33.494,0,0,1,1.847-7.537,15.655,15.655,0,0,1,3.144-5.268,14.817,14.817,0,0,1,8.218-4.039,21.158,21.158,0,0,1,11.616,1.3c4.351,1.571,4.679,2.952,8.024,3.926A18.206,18.206,0,0,0,142.233,22c.637,2.68,1.041,5.014,1.306,6.861a72.758,72.758,0,0,1,.738,8.641c.052,2.585-.056,4.78-.185,6.433a41.081,41.081,0,0,0,3.445-12.617,30.244,30.244,0,0,0-.843-13.218A25.189,25.189,0,0,0,138.615,5.59,24.845,24.845,0,0,0,122.7.173C108.583-1.263,100.94,6.943,100.94,6.943c-5.169,3.629-1.877,9.1-1.877,9.1-1.034.893-2.069,1.76-3.1,2.654-.121.287-.294.716-.476,1.243-1.818,5.251-1.051,9.983-.5,13.15a34.074,34.074,0,0,0,1.945,7.67C97.222,38.125,97.838,35.985,98.122,34.379Zm0,0" transform="translate(-72.326 -0.002)" fill="#ff9c7a"/>
        <path id="Trazado_726498" data-name="Trazado 726498" d="M264.333,333.377a19.3,19.3,0,0,1,4.366-.5,19.081,19.081,0,1,1-4.366.5" transform="translate(-191.334 -255.19)" fill="#239198"/>
        <path id="Trazado_726499" data-name="Trazado 726499" d="M328.43,388.555a.933.933,0,0,1-.934-.934V368.855a.934.934,0,1,1,1.867,0v18.766A.933.933,0,0,1,328.43,388.555Zm0,0" transform="translate(-251.065 -282.055)" fill="#fff"/>
        <path id="Trazado_726500" data-name="Trazado 726500" d="M306.9,409.992H288.051a.934.934,0,0,1,0-1.867H306.9a.934.934,0,0,1,0,1.867Zm0,0" transform="translate(-220.109 -312.875)" fill="#fff"/>
        <path id="Trazado_726501" data-name="Trazado 726501" d="M3.825,365.174,0,367.306l3.825,2.131,2.09,3.9,2.092-3.9,3.823-2.131-3.823-2.132-2.092-3.9Zm0,0" transform="translate(0 -276.961)" fill="#1a7bbf"/>
        <path id="Trazado_726502" data-name="Trazado 726502" d="M401.128,107.628l-3.823,2.131,3.823,2.131,2.092,3.9,2.091-3.9,3.824-2.131-3.824-2.131-2.091-3.9Zm0,0" transform="translate(-304.581 -79.521)" fill="#d94635"/>
      </g>
    </g>
    <g id="_x32_2_x2C__memories_x2C__time_x2C__emotion_x2C__memory_x2C__efficiency_x2C__clock" transform="translate(942.454 1286.907)">
      <g id="Grupo_958246" data-name="Grupo 958246" transform="translate(1.093 1.093)">
        <path id="Trazado_726503" data-name="Trazado 726503" d="M25.046,1.093A23.769,23.769,0,0,0,10.514,6V5.32a1.409,1.409,0,0,0-2.818,0V9.107a1.41,1.41,0,0,0,2.4,1,21.071,21.071,0,1,1-4.064,5.7A1.409,1.409,0,0,0,3.5,14.566,23.957,23.957,0,1,0,25.046,1.093Z" transform="translate(-1.093 -1.093)" fill="#ea526f"/>
        <path id="Trazado_726504" data-name="Trazado 726504" d="M92.974,109.883A16.908,16.908,0,1,0,76.066,92.974,16.928,16.928,0,0,0,92.974,109.883ZM85.049,97.51,91.565,92.3V84.52a1.409,1.409,0,0,1,2.818,0v8.454a1.409,1.409,0,0,1-.529,1.1l-7.045,5.636a1.409,1.409,0,0,1-1.76-2.2Z" transform="translate(-69.021 -69.021)" fill="#ea526f"/>
      </g>
    </g>
  </g>
</svg>
