<svg xmlns="http://www.w3.org/2000/svg" width="666" height="80" viewBox="0 0 666 80">
  <g id="_20" data-name="20" transform="translate(3800 6893)">
    <path id="Trazado_727159" data-name="Trazado 727159" d="M6,0H660a6,6,0,0,1,6,6V74a6,6,0,0,1-6,6H6a6,6,0,0,1-6-6V6A6,6,0,0,1,6,0Z" transform="translate(-3800 -6893)" fill="#ea526f"/>
    <path id="Trazado_727158" data-name="Trazado 727158" d="M12.683-12l-.1.431a1.635,1.635,0,0,0-.479.158.826.826,0,0,0-.259.264,2.493,2.493,0,0,0-.237.549q-.123.374-.308,1.217L9.237,0h-1.2L5.476-7.541q-.466-1.354-.817-2.7H4.544q-.053.448-.29,1.709t-.5,2.465L2.979-2.558a6.618,6.618,0,0,0-.185,1.371.686.686,0,0,0,.2.558,1.2,1.2,0,0,0,.664.2L3.56,0H.483l.1-.431a1.2,1.2,0,0,0,.5-.171.949.949,0,0,0,.281-.33,3,3,0,0,0,.211-.514q.1-.3.29-1.173L3.357-9.387q.088-.378.141-.721a4.56,4.56,0,0,0,.053-.694.694.694,0,0,0-.207-.576,1.175,1.175,0,0,0-.655-.189l.1-.431h2.8L7.91-5.15q.5,1.477.773,2.5h.1q.07-.536.321-1.784t.461-2.18l.615-2.769a6.828,6.828,0,0,0,.193-1.415.694.694,0,0,0-.207-.576,1.175,1.175,0,0,0-.655-.189l.1-.431ZM17.016.149A2.829,2.829,0,0,1,14.9-.615a3.005,3.005,0,0,1-.751-2.2,7.411,7.411,0,0,1,.211-1.626,6.088,6.088,0,0,1,.914-2.18,4.406,4.406,0,0,1,1.582-1.428,4.355,4.355,0,0,1,2.065-.5,2.836,2.836,0,0,1,2.145.769,3.054,3.054,0,0,1,.738,2.2,7.448,7.448,0,0,1-.356,2.18,5.971,5.971,0,0,1-.976,1.951A4.014,4.014,0,0,1,18.993-.25,4.647,4.647,0,0,1,17.016.149ZM15.688-2.435a2.142,2.142,0,0,0,.4,1.428A1.513,1.513,0,0,0,17.3-.545a1.981,1.981,0,0,0,1.529-.773,5.561,5.561,0,0,0,1.055-2.167,9.31,9.31,0,0,0,.387-2.448A2.317,2.317,0,0,0,19.9-7.361a1.362,1.362,0,0,0-1.151-.479,2.077,2.077,0,0,0-1.6.765A5.416,5.416,0,0,0,16.08-4.887,9.48,9.48,0,0,0,15.688-2.435Zm9.51.185a1.22,1.22,0,0,1,.923.338,1.175,1.175,0,0,1,.325.848,1.134,1.134,0,0,1-.325.831A1.238,1.238,0,0,1,25.2.1a1.242,1.242,0,0,1-.905-.325,1.115,1.115,0,0,1-.334-.835,1.175,1.175,0,0,1,.325-.848A1.208,1.208,0,0,1,25.2-2.25Zm13.236.009a7.75,7.75,0,0,1-1.6,1.8,2.61,2.61,0,0,1-1.6.571,1.746,1.746,0,0,1-1.5-.729,3.426,3.426,0,0,1-.532-2.048,7.34,7.34,0,0,1,.593-2.9,5.373,5.373,0,0,1,1.63-2.2,3.68,3.68,0,0,1,2.312-.8,4.189,4.189,0,0,1,.989.11,3.555,3.555,0,0,1,.927.382l.457-2.03q.07-.29.123-.642a4.215,4.215,0,0,0,.053-.615.689.689,0,0,0-.1-.4.542.542,0,0,0-.277-.2,2.776,2.776,0,0,0-.646-.088l.105-.457,2.206-.079H42.1L39.911-2.839a6.516,6.516,0,0,0-.193,1.3.886.886,0,0,0,.114.51.414.414,0,0,0,.36.158.978.978,0,0,0,.563-.215,6.176,6.176,0,0,0,.844-.822l.5.492a7.863,7.863,0,0,1-1.362,1.2,2.189,2.189,0,0,1-1.2.352,1.114,1.114,0,0,1-.87-.36,1.376,1.376,0,0,1-.325-.958,2.962,2.962,0,0,1,.2-1.028Zm.589-3.111a5.871,5.871,0,0,0,.132-1.2,1.434,1.434,0,0,0-.29-1,1.273,1.273,0,0,0-.967-.312,2.2,2.2,0,0,0-1.608.725,4.983,4.983,0,0,0-1.121,1.956,7.741,7.741,0,0,0-.409,2.452,2.909,2.909,0,0,0,.25,1.367.882.882,0,0,0,.839.453,1.417,1.417,0,0,0,.554-.119,2.234,2.234,0,0,0,.584-.382,4.561,4.561,0,0,0,.6-.642q.294-.378.541-.76a5.422,5.422,0,0,0,.457-.905,7.248,7.248,0,0,0,.36-1.261Zm11.048,3.6A6.681,6.681,0,0,1,48.344-.334,4.2,4.2,0,0,1,46.31.141a2.515,2.515,0,0,1-1.973-.778,3.127,3.127,0,0,1-.7-2.167,6.746,6.746,0,0,1,.338-2.017A5.894,5.894,0,0,1,45-6.754a4.786,4.786,0,0,1,1.644-1.327,4.567,4.567,0,0,1,2.039-.47,2.5,2.5,0,0,1,1.6.431,1.629,1.629,0,0,1,.532,1.345,2.4,2.4,0,0,1-1.4,2.241,9.106,9.106,0,0,1-4.162.747,5.828,5.828,0,0,0-.105,1.143,2.032,2.032,0,0,0,.36,1.34,1.48,1.48,0,0,0,1.178.417,3.044,3.044,0,0,0,1.463-.352A6.114,6.114,0,0,0,49.526-2.32ZM45.4-4.535a9.416,9.416,0,0,0,2.127-.224,2.846,2.846,0,0,0,1.362-.686,1.707,1.707,0,0,0,.475-1.27,1.281,1.281,0,0,0-.25-.839.908.908,0,0,0-.743-.3,2.345,2.345,0,0,0-1.709.9A5.972,5.972,0,0,0,45.4-4.535Zm18.659,1.7a6.3,6.3,0,0,0-.193,1.3.886.886,0,0,0,.114.51.414.414,0,0,0,.36.158.978.978,0,0,0,.563-.215,6.176,6.176,0,0,0,.844-.822l.5.492a7.454,7.454,0,0,1-1.362,1.2,2.218,2.218,0,0,1-1.2.352,1.114,1.114,0,0,1-.87-.36,1.376,1.376,0,0,1-.325-.958A2.973,2.973,0,0,1,62.7-2.215L62.6-2.25a8.117,8.117,0,0,1-1.648,1.8,2.643,2.643,0,0,1-1.6.58A1.636,1.636,0,0,1,58.1-.338a1.837,1.837,0,0,1-.439-1.305,7.017,7.017,0,0,1,.255-1.573l.571-2.3a6.607,6.607,0,0,0,.237-1.354.886.886,0,0,0-.114-.51.414.414,0,0,0-.36-.158.983.983,0,0,0-.576.224,6.308,6.308,0,0,0-.831.813L56.338-7a11.423,11.423,0,0,1,1.125-1.037,2.694,2.694,0,0,1,.725-.4,2.4,2.4,0,0,1,.778-.119,1.11,1.11,0,0,1,.888.378,1.51,1.51,0,0,1,.325,1.02,7.059,7.059,0,0,1-.272,1.731L59.52-3.9q-.149.58-.215.905t-.1.563a3.177,3.177,0,0,0-.031.4,1.474,1.474,0,0,0,.2.875.772.772,0,0,0,.659.268,1.424,1.424,0,0,0,.8-.294,4.535,4.535,0,0,0,.905-.888,6.967,6.967,0,0,0,.769-1.151,5.738,5.738,0,0,0,.475-1.375l.835-3.806h1.521Zm4.8-2.733a6.3,6.3,0,0,0,.193-1.3.886.886,0,0,0-.114-.51.414.414,0,0,0-.36-.158A.983.983,0,0,0,68-7.317a6.308,6.308,0,0,0-.831.813L66.665-7A8.725,8.725,0,0,1,68.01-8.2a2.143,2.143,0,0,1,1.213-.356,1.1,1.1,0,0,1,.875.365,1.391,1.391,0,0,1,.321.954A3.025,3.025,0,0,1,70.207-6.2l.105.035a8.131,8.131,0,0,1,1.639-1.8,2.642,2.642,0,0,1,1.6-.584,1.636,1.636,0,0,1,1.257.47,1.837,1.837,0,0,1,.439,1.305A7.017,7.017,0,0,1,75-5.194l-.571,2.3a6.607,6.607,0,0,0-.237,1.354.886.886,0,0,0,.114.51.414.414,0,0,0,.36.158.978.978,0,0,0,.563-.215,6.176,6.176,0,0,0,.844-.822l.5.492A7.951,7.951,0,0,1,75.252-.233a2.266,2.266,0,0,1-1.283.374,1.133,1.133,0,0,1-.914-.409,1.565,1.565,0,0,1-.343-1.042A7.271,7.271,0,0,1,73-2.988l.387-1.521q.211-.826.277-1.222a4.081,4.081,0,0,0,.066-.642,1.474,1.474,0,0,0-.2-.875.772.772,0,0,0-.659-.268,1.424,1.424,0,0,0-.8.294,4.535,4.535,0,0,0-.905.888A6.967,6.967,0,0,0,70.4-5.181a5.738,5.738,0,0,0-.475,1.375L69.091,0H67.57Zm12.894-6.275-.4,1.705H79.787l.4-1.705Zm-2.83,5.924a6.492,6.492,0,0,0,.2-1.318.634.634,0,0,0-.189-.536,1.426,1.426,0,0,0-.743-.158l.1-.466,2.145-.079h.519L79.682-2.839a6.516,6.516,0,0,0-.193,1.3.886.886,0,0,0,.114.51.414.414,0,0,0,.36.158.978.978,0,0,0,.563-.215,6.176,6.176,0,0,0,.844-.822l.5.492a7.669,7.669,0,0,1-1.4,1.23,2.276,2.276,0,0,1-1.2.325,1.123,1.123,0,0,1-.914-.417,1.628,1.628,0,0,1-.343-1.068,7.7,7.7,0,0,1,.246-1.705Zm9.721,3.683a7.75,7.75,0,0,1-1.6,1.8,2.61,2.61,0,0,1-1.6.571A1.746,1.746,0,0,1,83.94-.6a3.426,3.426,0,0,1-.532-2.048A7.34,7.34,0,0,1,84-5.55a5.373,5.373,0,0,1,1.63-2.2,3.68,3.68,0,0,1,2.312-.8,4.189,4.189,0,0,1,.989.11,3.555,3.555,0,0,1,.927.382l.457-2.03q.07-.29.123-.642a4.215,4.215,0,0,0,.053-.615.689.689,0,0,0-.1-.4.542.542,0,0,0-.277-.2,2.776,2.776,0,0,0-.646-.088l.105-.457,2.206-.079H92.3L90.114-2.839a6.516,6.516,0,0,0-.193,1.3.886.886,0,0,0,.114.51.414.414,0,0,0,.36.158.978.978,0,0,0,.563-.215,6.176,6.176,0,0,0,.844-.822l.5.492a7.863,7.863,0,0,1-1.362,1.2,2.189,2.189,0,0,1-1.2.352,1.114,1.114,0,0,1-.87-.36,1.376,1.376,0,0,1-.325-.958,2.962,2.962,0,0,1,.2-1.028Zm.589-3.111a5.871,5.871,0,0,0,.132-1.2,1.434,1.434,0,0,0-.29-1,1.273,1.273,0,0,0-.967-.312,2.2,2.2,0,0,0-1.608.725,4.983,4.983,0,0,0-1.121,1.956,7.741,7.741,0,0,0-.409,2.452,2.909,2.909,0,0,0,.25,1.367.882.882,0,0,0,.839.453,1.417,1.417,0,0,0,.554-.119,2.234,2.234,0,0,0,.584-.382,4.561,4.561,0,0,0,.6-.642q.294-.378.541-.76a5.422,5.422,0,0,0,.457-.905,7.248,7.248,0,0,0,.36-1.261Zm11.241-2.619.809-.58.563.141-1.292,5.572a6.189,6.189,0,0,0-.193,1.3.886.886,0,0,0,.114.51.414.414,0,0,0,.36.158.978.978,0,0,0,.563-.215,6.176,6.176,0,0,0,.844-.822l.5.492a7.649,7.649,0,0,1-1.349,1.2,2.205,2.205,0,0,1-1.208.356,1.114,1.114,0,0,1-.87-.36,1.376,1.376,0,0,1-.325-.958,2.962,2.962,0,0,1,.2-1.028l-.114-.035a7.75,7.75,0,0,1-1.6,1.8,2.61,2.61,0,0,1-1.6.571,1.746,1.746,0,0,1-1.5-.729,3.426,3.426,0,0,1-.532-2.048,7.34,7.34,0,0,1,.593-2.9,5.373,5.373,0,0,1,1.63-2.2,3.68,3.68,0,0,1,2.312-.8,4.285,4.285,0,0,1,1.068.127A3.733,3.733,0,0,1,100.468-7.972Zm-.773,2.619a5.547,5.547,0,0,0,.105-.624q.026-.264.026-.571a1.437,1.437,0,0,0-.29-.993,1.289,1.289,0,0,0-.984-.316,2.233,2.233,0,0,0-1.626.729A4.924,4.924,0,0,0,95.8-5.172a7.777,7.777,0,0,0-.4,2.448,2.909,2.909,0,0,0,.25,1.367.882.882,0,0,0,.839.453,1.7,1.7,0,0,0,1.138-.5,6.972,6.972,0,0,0,1.151-1.428,6.229,6.229,0,0,0,.839-2.14Zm9.4,3.111a7.75,7.75,0,0,1-1.6,1.8,2.61,2.61,0,0,1-1.6.571A1.746,1.746,0,0,1,104.4-.6a3.426,3.426,0,0,1-.532-2.048,7.34,7.34,0,0,1,.593-2.9,5.373,5.373,0,0,1,1.63-2.2,3.68,3.68,0,0,1,2.312-.8,4.189,4.189,0,0,1,.989.11,3.555,3.555,0,0,1,.927.382l.457-2.03q.07-.29.123-.642a4.215,4.215,0,0,0,.053-.615.689.689,0,0,0-.1-.4.542.542,0,0,0-.277-.2,2.776,2.776,0,0,0-.646-.088l.105-.457,2.206-.079h.519l-2.188,9.729a6.516,6.516,0,0,0-.193,1.3.886.886,0,0,0,.114.51.414.414,0,0,0,.36.158.978.978,0,0,0,.563-.215,6.176,6.176,0,0,0,.844-.822l.5.492a7.863,7.863,0,0,1-1.362,1.2,2.189,2.189,0,0,1-1.2.352,1.114,1.114,0,0,1-.87-.36,1.376,1.376,0,0,1-.325-.958,2.962,2.962,0,0,1,.2-1.028Zm.589-3.111a5.871,5.871,0,0,0,.132-1.2,1.434,1.434,0,0,0-.29-1,1.273,1.273,0,0,0-.967-.312,2.2,2.2,0,0,0-1.608.725,4.983,4.983,0,0,0-1.121,1.956,7.741,7.741,0,0,0-.409,2.452,2.909,2.909,0,0,0,.25,1.367.882.882,0,0,0,.839.453,1.417,1.417,0,0,0,.554-.119,2.234,2.234,0,0,0,.584-.382,4.561,4.561,0,0,0,.6-.642q.294-.378.541-.76a5.422,5.422,0,0,0,.457-.905,7.248,7.248,0,0,0,.36-1.261Zm11.048,3.6a6.681,6.681,0,0,1-1.727,1.415,4.2,4.2,0,0,1-2.035.475A2.515,2.515,0,0,1,115-.637a3.127,3.127,0,0,1-.7-2.167,6.746,6.746,0,0,1,.338-2.017,5.894,5.894,0,0,1,1.024-1.934,4.786,4.786,0,0,1,1.644-1.327,4.567,4.567,0,0,1,2.039-.47,2.5,2.5,0,0,1,1.6.431,1.629,1.629,0,0,1,.532,1.345,2.4,2.4,0,0,1-1.4,2.241,9.106,9.106,0,0,1-4.162.747,5.828,5.828,0,0,0-.105,1.143,2.032,2.032,0,0,0,.36,1.34,1.48,1.48,0,0,0,1.178.417,3.044,3.044,0,0,0,1.463-.352A6.114,6.114,0,0,0,120.19-2.32ZM116.06-4.535a9.416,9.416,0,0,0,2.127-.224,2.846,2.846,0,0,0,1.362-.686,1.707,1.707,0,0,0,.475-1.27,1.281,1.281,0,0,0-.25-.839.908.908,0,0,0-.743-.3,2.345,2.345,0,0,0-1.709.9A5.972,5.972,0,0,0,116.06-4.535Zm12.876-1.731a1.923,1.923,0,0,0-.514-1.187,1.833,1.833,0,0,0-1.314-.4,1.708,1.708,0,0,0-1.125.356,1.155,1.155,0,0,0-.431.936,1.336,1.336,0,0,0,.11.558,1.69,1.69,0,0,0,.444.532,7.729,7.729,0,0,0,1.037.712,7.428,7.428,0,0,1,.888.611,2.946,2.946,0,0,1,.527.549,1.909,1.909,0,0,1,.281.576,2.664,2.664,0,0,1,.088.734,2.174,2.174,0,0,1-.417,1.34,2.476,2.476,0,0,1-1.134.831,4.562,4.562,0,0,1-1.63.272,9.266,9.266,0,0,1-1.433-.11,11.435,11.435,0,0,1-1.564-.374l.422-1.916h.686a1.82,1.82,0,0,0,.475,1.274,1.937,1.937,0,0,0,1.4.431,2.047,2.047,0,0,0,1.305-.374,1.274,1.274,0,0,0,.47-1.059,1.614,1.614,0,0,0-.132-.681,1.692,1.692,0,0,0-.431-.549,7.072,7.072,0,0,0-.949-.659,7.706,7.706,0,0,1-1.068-.747,2.355,2.355,0,0,1-.576-.725,2.008,2.008,0,0,1-.193-.9,2.04,2.04,0,0,1,.374-1.217,2.359,2.359,0,0,1,1.068-.8,4.287,4.287,0,0,1,1.617-.281,10.517,10.517,0,0,1,1.49.1,6.954,6.954,0,0,1,1.34.334l-.4,1.846ZM136.23-5.2a13.393,13.393,0,0,1,.545-3.854,10.578,10.578,0,0,1,1.6-3.261,6.351,6.351,0,0,1,2.232-2.017l.422,1.248a6.524,6.524,0,0,0-2.008,2.87,12.852,12.852,0,0,0-.839,4.417l-.009.756a13.972,13.972,0,0,0,.751,4.75,7,7,0,0,0,2.1,3.177l-.422,1.187a6.362,6.362,0,0,1-2.237-2.026,10.577,10.577,0,0,1-1.6-3.261A13.921,13.921,0,0,1,136.23-5.2Zm8.218-4.843a7.144,7.144,0,0,0,.211-1.3.577.577,0,0,0-.224-.519,1.637,1.637,0,0,0-.8-.167l.105-.457,2.224-.079h.51l-1.512,6.091.105.035a6.941,6.941,0,0,1,1.578-1.6,2.675,2.675,0,0,1,1.5-.5,1.636,1.636,0,0,1,1.257.47,1.837,1.837,0,0,1,.439,1.305,7.017,7.017,0,0,1-.255,1.573l-.571,2.3a6.607,6.607,0,0,0-.237,1.354.886.886,0,0,0,.114.51.414.414,0,0,0,.36.158.978.978,0,0,0,.563-.215,6.176,6.176,0,0,0,.844-.822l.5.492A7.768,7.768,0,0,1,149.77-.193a2.269,2.269,0,0,1-1.217.334,1.125,1.125,0,0,1-.91-.4A1.575,1.575,0,0,1,147.3-1.31a7.271,7.271,0,0,1,.29-1.679l.378-1.521q.2-.817.272-1.226a4.019,4.019,0,0,0,.07-.637,1.468,1.468,0,0,0-.2-.883.785.785,0,0,0-.659-.259,1.461,1.461,0,0,0-.8.3,4.371,4.371,0,0,0-.923.91,7.182,7.182,0,0,0-.769,1.169,5.448,5.448,0,0,0-.453,1.332L143.71,0h-1.521ZM155.2.149a2.829,2.829,0,0,1-2.114-.765,3.005,3.005,0,0,1-.751-2.2,7.411,7.411,0,0,1,.211-1.626,6.088,6.088,0,0,1,.914-2.18,4.406,4.406,0,0,1,1.582-1.428,4.355,4.355,0,0,1,2.065-.5,2.836,2.836,0,0,1,2.145.769,3.054,3.054,0,0,1,.738,2.2,7.448,7.448,0,0,1-.356,2.18,5.971,5.971,0,0,1-.976,1.951A4.014,4.014,0,0,1,157.175-.25,4.647,4.647,0,0,1,155.2.149ZM153.87-2.435a2.142,2.142,0,0,0,.4,1.428,1.513,1.513,0,0,0,1.208.461,1.981,1.981,0,0,0,1.529-.773,5.561,5.561,0,0,0,1.055-2.167,9.31,9.31,0,0,0,.387-2.448,2.317,2.317,0,0,0-.369-1.428,1.362,1.362,0,0,0-1.151-.479,2.077,2.077,0,0,0-1.6.765,5.416,5.416,0,0,0-1.072,2.188A9.48,9.48,0,0,0,153.87-2.435Zm10.986-3.85A7.324,7.324,0,0,1,166.513-8a2.829,2.829,0,0,1,1.613-.545,5,5,0,0,1,1.072.1l-.422,1.969h-.905a2.034,2.034,0,0,0-.149-.571.633.633,0,0,0-.229-.281.641.641,0,0,0-.334-.079,1.2,1.2,0,0,0-.69.272,4.722,4.722,0,0,0-.839.853,6.756,6.756,0,0,0-.743,1.116,5.713,5.713,0,0,0-.461,1.362L163.591,0H162.07l1.274-5.572a8.229,8.229,0,0,0,.158-.817,4.147,4.147,0,0,0,.035-.483.886.886,0,0,0-.114-.51.414.414,0,0,0-.36-.158.983.983,0,0,0-.576.224,6.308,6.308,0,0,0-.831.813l-.5-.492a8.449,8.449,0,0,1,1.354-1.2,2.156,2.156,0,0,1,1.2-.356,1.1,1.1,0,0,1,.875.365,1.391,1.391,0,0,1,.321.954,2.675,2.675,0,0,1-.167.905Zm12.208-1.687.809-.58.563.141-1.292,5.572a6.189,6.189,0,0,0-.193,1.3.886.886,0,0,0,.114.51.414.414,0,0,0,.36.158.978.978,0,0,0,.563-.215,6.176,6.176,0,0,0,.844-.822l.5.492a7.649,7.649,0,0,1-1.349,1.2,2.205,2.205,0,0,1-1.208.356,1.114,1.114,0,0,1-.87-.36,1.376,1.376,0,0,1-.325-.958,2.962,2.962,0,0,1,.2-1.028l-.114-.035a7.75,7.75,0,0,1-1.6,1.8,2.61,2.61,0,0,1-1.6.571,1.746,1.746,0,0,1-1.5-.729,3.426,3.426,0,0,1-.532-2.048,7.34,7.34,0,0,1,.593-2.9,5.373,5.373,0,0,1,1.63-2.2,3.68,3.68,0,0,1,2.312-.8,4.285,4.285,0,0,1,1.068.127A3.733,3.733,0,0,1,177.064-7.972Zm-.773,2.619a5.547,5.547,0,0,0,.105-.624q.026-.264.026-.571a1.437,1.437,0,0,0-.29-.993,1.289,1.289,0,0,0-.984-.316,2.233,2.233,0,0,0-1.626.729A4.924,4.924,0,0,0,172.4-5.172a7.777,7.777,0,0,0-.4,2.448,2.909,2.909,0,0,0,.25,1.367.882.882,0,0,0,.839.453,1.7,1.7,0,0,0,1.138-.5,6.972,6.972,0,0,0,1.151-1.428,6.229,6.229,0,0,0,.839-2.14Zm8.464.29a13.224,13.224,0,0,1-.536,3.766,10.671,10.671,0,0,1-1.626,3.3,6.367,6.367,0,0,1-2.276,2.061l-.422-1.187a6.754,6.754,0,0,0,2.087-3.116,13.84,13.84,0,0,0,.769-4.786v-.2a14.044,14.044,0,0,0-.668-4.452,7.852,7.852,0,0,0-1.916-3.221l-.272-.246.422-1.2A6.3,6.3,0,0,1,182.5-12.4a10.491,10.491,0,0,1,1.617,3.107,12.941,12.941,0,0,1,.633,3.546Zm9.984-1.793h-7.576V-8.631h7.576Zm0,3.727h-7.576V-4.9h7.576Z" transform="translate(-3781 -6847)" fill="#fff"/>
    <path id="Trazado_726395" data-name="Trazado 726395" d="M-5166-7052h397.469" transform="translate(1597 199)" fill="none" stroke="#fff" stroke-width="1"/>
    <path id="Trazado_727156" data-name="Trazado 727156" d="M12.683-12l-.1.431a1.635,1.635,0,0,0-.479.158.826.826,0,0,0-.259.264,2.493,2.493,0,0,0-.237.549q-.123.374-.308,1.217L9.237,0h-1.2L5.476-7.541q-.466-1.354-.817-2.7H4.544q-.053.448-.29,1.709t-.5,2.465L2.979-2.558a6.618,6.618,0,0,0-.185,1.371.686.686,0,0,0,.2.558,1.2,1.2,0,0,0,.664.2L3.56,0H.483l.1-.431a1.2,1.2,0,0,0,.5-.171.949.949,0,0,0,.281-.33,3,3,0,0,0,.211-.514q.1-.3.29-1.173L3.357-9.387q.088-.378.141-.721a4.56,4.56,0,0,0,.053-.694.694.694,0,0,0-.207-.576,1.175,1.175,0,0,0-.655-.189l.1-.431h2.8L7.91-5.15q.5,1.477.773,2.5h.1q.07-.536.321-1.784t.461-2.18l.615-2.769a6.828,6.828,0,0,0,.193-1.415.694.694,0,0,0-.207-.576,1.175,1.175,0,0,0-.655-.189l.1-.431ZM17.016.149A2.829,2.829,0,0,1,14.9-.615a3.005,3.005,0,0,1-.751-2.2,7.411,7.411,0,0,1,.211-1.626,6.088,6.088,0,0,1,.914-2.18,4.406,4.406,0,0,1,1.582-1.428,4.355,4.355,0,0,1,2.065-.5,2.836,2.836,0,0,1,2.145.769,3.054,3.054,0,0,1,.738,2.2,7.448,7.448,0,0,1-.356,2.18,5.971,5.971,0,0,1-.976,1.951A4.014,4.014,0,0,1,18.993-.25,4.647,4.647,0,0,1,17.016.149ZM15.688-2.435a2.142,2.142,0,0,0,.4,1.428A1.513,1.513,0,0,0,17.3-.545a1.981,1.981,0,0,0,1.529-.773,5.561,5.561,0,0,0,1.055-2.167,9.31,9.31,0,0,0,.387-2.448A2.317,2.317,0,0,0,19.9-7.361a1.362,1.362,0,0,0-1.151-.479,2.077,2.077,0,0,0-1.6.765A5.416,5.416,0,0,0,16.08-4.887,9.48,9.48,0,0,0,15.688-2.435Zm9.51.185a1.22,1.22,0,0,1,.923.338,1.175,1.175,0,0,1,.325.848,1.134,1.134,0,0,1-.325.831A1.238,1.238,0,0,1,25.2.1a1.242,1.242,0,0,1-.905-.325,1.115,1.115,0,0,1-.334-.835,1.175,1.175,0,0,1,.325-.848A1.208,1.208,0,0,1,25.2-2.25Zm13.236.009a7.75,7.75,0,0,1-1.6,1.8,2.61,2.61,0,0,1-1.6.571,1.746,1.746,0,0,1-1.5-.729,3.426,3.426,0,0,1-.532-2.048,7.34,7.34,0,0,1,.593-2.9,5.373,5.373,0,0,1,1.63-2.2,3.68,3.68,0,0,1,2.312-.8,4.189,4.189,0,0,1,.989.11,3.555,3.555,0,0,1,.927.382l.457-2.03q.07-.29.123-.642a4.215,4.215,0,0,0,.053-.615.689.689,0,0,0-.1-.4.542.542,0,0,0-.277-.2,2.776,2.776,0,0,0-.646-.088l.105-.457,2.206-.079H42.1L39.911-2.839a6.516,6.516,0,0,0-.193,1.3.886.886,0,0,0,.114.51.414.414,0,0,0,.36.158.978.978,0,0,0,.563-.215,6.176,6.176,0,0,0,.844-.822l.5.492a7.863,7.863,0,0,1-1.362,1.2,2.189,2.189,0,0,1-1.2.352,1.114,1.114,0,0,1-.87-.36,1.376,1.376,0,0,1-.325-.958,2.962,2.962,0,0,1,.2-1.028Zm.589-3.111a5.871,5.871,0,0,0,.132-1.2,1.434,1.434,0,0,0-.29-1,1.273,1.273,0,0,0-.967-.312,2.2,2.2,0,0,0-1.608.725,4.983,4.983,0,0,0-1.121,1.956,7.741,7.741,0,0,0-.409,2.452,2.909,2.909,0,0,0,.25,1.367.882.882,0,0,0,.839.453,1.417,1.417,0,0,0,.554-.119,2.234,2.234,0,0,0,.584-.382,4.561,4.561,0,0,0,.6-.642q.294-.378.541-.76a5.422,5.422,0,0,0,.457-.905,7.248,7.248,0,0,0,.36-1.261Zm11.048,3.6A6.681,6.681,0,0,1,48.344-.334,4.2,4.2,0,0,1,46.31.141a2.515,2.515,0,0,1-1.973-.778,3.127,3.127,0,0,1-.7-2.167,6.746,6.746,0,0,1,.338-2.017A5.894,5.894,0,0,1,45-6.754a4.786,4.786,0,0,1,1.644-1.327,4.567,4.567,0,0,1,2.039-.47,2.5,2.5,0,0,1,1.6.431,1.629,1.629,0,0,1,.532,1.345,2.4,2.4,0,0,1-1.4,2.241,9.106,9.106,0,0,1-4.162.747,5.828,5.828,0,0,0-.105,1.143,2.032,2.032,0,0,0,.36,1.34,1.48,1.48,0,0,0,1.178.417,3.044,3.044,0,0,0,1.463-.352A6.114,6.114,0,0,0,49.526-2.32ZM45.4-4.535a9.416,9.416,0,0,0,2.127-.224,2.846,2.846,0,0,0,1.362-.686,1.707,1.707,0,0,0,.475-1.27,1.281,1.281,0,0,0-.25-.839.908.908,0,0,0-.743-.3,2.345,2.345,0,0,0-1.709.9A5.972,5.972,0,0,0,45.4-4.535Zm13.14-1.011a6.217,6.217,0,0,0,.185-1.327.886.886,0,0,0-.114-.51.414.414,0,0,0-.36-.158.983.983,0,0,0-.576.224,6.308,6.308,0,0,0-.831.813L56.338-7a8.58,8.58,0,0,1,1.34-1.191A2.154,2.154,0,0,1,58.9-8.552a1.1,1.1,0,0,1,.866.36,1.387,1.387,0,0,1,.321.958,2.982,2.982,0,0,1-.2,1.037l.105.035q1.626-2.382,3.234-2.382a1.738,1.738,0,0,1,1.49.729,3.443,3.443,0,0,1,.532,2.057A7.35,7.35,0,0,1,64.657-2.9,5.434,5.434,0,0,1,63.035-.681a3.643,3.643,0,0,1-2.32.822,3.459,3.459,0,0,1-1.942-.51l-.4,1.925a5.173,5.173,0,0,0-.132,1.028.674.674,0,0,0,.2.549,1.506,1.506,0,0,0,.769.215l-.07.431H56.417Zm.888,2.487q-.088.466-.11.712t-.022.483a1.419,1.419,0,0,0,.294,1A1.357,1.357,0,0,0,60.6-.554a1.935,1.935,0,0,0,.826-.176,2.562,2.562,0,0,0,.716-.51,3.751,3.751,0,0,0,.611-.809,6.354,6.354,0,0,0,.488-1.1,8.019,8.019,0,0,0,.325-1.292,7.636,7.636,0,0,0,.11-1.244,2.847,2.847,0,0,0-.259-1.375.878.878,0,0,0-.822-.453,1.532,1.532,0,0,0-.883.3,4.687,4.687,0,0,0-.954.971,6.455,6.455,0,0,0-.809,1.318,7.012,7.012,0,0,0-.457,1.494Zm14.1,1.31A6.681,6.681,0,0,1,71.793-.334a4.2,4.2,0,0,1-2.035.475,2.515,2.515,0,0,1-1.973-.778,3.127,3.127,0,0,1-.7-2.167,6.746,6.746,0,0,1,.338-2.017,5.894,5.894,0,0,1,1.024-1.934,4.786,4.786,0,0,1,1.644-1.327,4.567,4.567,0,0,1,2.039-.47,2.5,2.5,0,0,1,1.6.431,1.629,1.629,0,0,1,.532,1.345,2.4,2.4,0,0,1-1.4,2.241,9.106,9.106,0,0,1-4.162.747,5.828,5.828,0,0,0-.105,1.143,2.032,2.032,0,0,0,.36,1.34,1.48,1.48,0,0,0,1.178.417,3.044,3.044,0,0,0,1.463-.352A6.114,6.114,0,0,0,72.976-2.32ZM68.845-4.535a9.416,9.416,0,0,0,2.127-.224,2.846,2.846,0,0,0,1.362-.686,1.707,1.707,0,0,0,.475-1.27,1.281,1.281,0,0,0-.25-.839.908.908,0,0,0-.743-.3,2.345,2.345,0,0,0-1.709.9A5.972,5.972,0,0,0,68.845-4.535ZM79-6.284A7.324,7.324,0,0,1,80.653-8a2.829,2.829,0,0,1,1.613-.545,5,5,0,0,1,1.072.1l-.422,1.969h-.905a2.034,2.034,0,0,0-.149-.571.633.633,0,0,0-.229-.281.641.641,0,0,0-.334-.079,1.2,1.2,0,0,0-.69.272,4.722,4.722,0,0,0-.839.853,6.756,6.756,0,0,0-.743,1.116,5.713,5.713,0,0,0-.461,1.362L77.73,0H76.21l1.274-5.572a8.229,8.229,0,0,0,.158-.817,4.147,4.147,0,0,0,.035-.483.886.886,0,0,0-.114-.51.414.414,0,0,0-.36-.158.983.983,0,0,0-.576.224A6.308,6.308,0,0,0,75.8-6.5L75.3-7a8.449,8.449,0,0,1,1.354-1.2,2.156,2.156,0,0,1,1.2-.356,1.1,1.1,0,0,1,.875.365,1.391,1.391,0,0,1,.321.954,2.675,2.675,0,0,1-.167.905Zm11.285.018a1.923,1.923,0,0,0-.514-1.187,1.833,1.833,0,0,0-1.314-.4,1.708,1.708,0,0,0-1.125.356,1.155,1.155,0,0,0-.431.936,1.336,1.336,0,0,0,.11.558,1.69,1.69,0,0,0,.444.532,7.729,7.729,0,0,0,1.037.712,7.428,7.428,0,0,1,.888.611A2.946,2.946,0,0,1,89.9-3.6a1.909,1.909,0,0,1,.281.576,2.664,2.664,0,0,1,.088.734,2.174,2.174,0,0,1-.417,1.34,2.476,2.476,0,0,1-1.134.831,4.562,4.562,0,0,1-1.63.272A9.266,9.266,0,0,1,85.658.04a11.435,11.435,0,0,1-1.564-.374l.422-1.916H85.2a1.82,1.82,0,0,0,.475,1.274,1.937,1.937,0,0,0,1.4.431,2.047,2.047,0,0,0,1.305-.374,1.274,1.274,0,0,0,.47-1.059,1.614,1.614,0,0,0-.132-.681,1.692,1.692,0,0,0-.431-.549,7.072,7.072,0,0,0-.949-.659,7.706,7.706,0,0,1-1.068-.747,2.355,2.355,0,0,1-.576-.725,2.008,2.008,0,0,1-.193-.9,2.04,2.04,0,0,1,.374-1.217,2.359,2.359,0,0,1,1.068-.8,4.287,4.287,0,0,1,1.617-.281,10.517,10.517,0,0,1,1.49.1,6.954,6.954,0,0,1,1.34.334l-.4,1.846ZM95.8.149a2.829,2.829,0,0,1-2.114-.765,3.005,3.005,0,0,1-.751-2.2,7.411,7.411,0,0,1,.211-1.626,6.088,6.088,0,0,1,.914-2.18,4.406,4.406,0,0,1,1.582-1.428,4.355,4.355,0,0,1,2.065-.5,2.836,2.836,0,0,1,2.145.769,3.054,3.054,0,0,1,.738,2.2,7.448,7.448,0,0,1-.356,2.18,5.971,5.971,0,0,1-.976,1.951A4.014,4.014,0,0,1,97.778-.25,4.647,4.647,0,0,1,95.8.149ZM94.474-2.435a2.142,2.142,0,0,0,.4,1.428,1.513,1.513,0,0,0,1.208.461,1.981,1.981,0,0,0,1.529-.773,5.561,5.561,0,0,0,1.055-2.167,9.31,9.31,0,0,0,.387-2.448,2.317,2.317,0,0,0-.369-1.428,1.362,1.362,0,0,0-1.151-.479,2.077,2.077,0,0,0-1.6.765,5.416,5.416,0,0,0-1.072,2.188A9.48,9.48,0,0,0,94.474-2.435Zm9.483-3.138a6.3,6.3,0,0,0,.193-1.3.886.886,0,0,0-.114-.51.414.414,0,0,0-.36-.158.983.983,0,0,0-.576.224,6.308,6.308,0,0,0-.831.813l-.5-.492a8.725,8.725,0,0,1,1.345-1.2,2.143,2.143,0,0,1,1.213-.356,1.1,1.1,0,0,1,.875.365,1.391,1.391,0,0,1,.321.954,3.025,3.025,0,0,1-.211,1.037l.105.035a8.131,8.131,0,0,1,1.639-1.8,2.642,2.642,0,0,1,1.6-.584,1.636,1.636,0,0,1,1.257.47,1.837,1.837,0,0,1,.439,1.305,7.017,7.017,0,0,1-.255,1.573l-.571,2.3a6.607,6.607,0,0,0-.237,1.354.886.886,0,0,0,.114.51.414.414,0,0,0,.36.158.978.978,0,0,0,.563-.215,6.176,6.176,0,0,0,.844-.822l.5.492a7.951,7.951,0,0,1-1.318,1.182,2.266,2.266,0,0,1-1.283.374,1.133,1.133,0,0,1-.914-.409,1.565,1.565,0,0,1-.343-1.042,7.271,7.271,0,0,1,.29-1.679l.387-1.521q.211-.826.277-1.222a4.081,4.081,0,0,0,.066-.642,1.474,1.474,0,0,0-.2-.875.772.772,0,0,0-.659-.268,1.424,1.424,0,0,0-.8.294,4.535,4.535,0,0,0-.905.888,6.967,6.967,0,0,0-.769,1.151,5.738,5.738,0,0,0-.475,1.375L104.194,0h-1.521Zm15.478-2.4.809-.58.563.141-1.292,5.572a6.189,6.189,0,0,0-.193,1.3.886.886,0,0,0,.114.51.414.414,0,0,0,.36.158.978.978,0,0,0,.563-.215,6.176,6.176,0,0,0,.844-.822l.5.492a7.649,7.649,0,0,1-1.349,1.2,2.205,2.205,0,0,1-1.208.356,1.114,1.114,0,0,1-.87-.36,1.376,1.376,0,0,1-.325-.958,2.962,2.962,0,0,1,.2-1.028l-.114-.035a7.75,7.75,0,0,1-1.6,1.8,2.61,2.61,0,0,1-1.6.571,1.746,1.746,0,0,1-1.5-.729,3.426,3.426,0,0,1-.532-2.048,7.34,7.34,0,0,1,.593-2.9,5.373,5.373,0,0,1,1.63-2.2,3.68,3.68,0,0,1,2.312-.8,4.285,4.285,0,0,1,1.068.127A3.733,3.733,0,0,1,119.435-7.972Zm-.773,2.619a5.547,5.547,0,0,0,.105-.624q.026-.264.026-.571a1.437,1.437,0,0,0-.29-.993,1.289,1.289,0,0,0-.984-.316,2.233,2.233,0,0,0-1.626.729,4.924,4.924,0,0,0-1.125,1.956,7.777,7.777,0,0,0-.4,2.448,2.909,2.909,0,0,0,.25,1.367.882.882,0,0,0,.839.453,1.7,1.7,0,0,0,1.138-.5,6.972,6.972,0,0,0,1.151-1.428,6.229,6.229,0,0,0,.839-2.14Zm9.879-.914a1.923,1.923,0,0,0-.514-1.187,1.833,1.833,0,0,0-1.314-.4,1.708,1.708,0,0,0-1.125.356,1.155,1.155,0,0,0-.431.936,1.336,1.336,0,0,0,.11.558,1.69,1.69,0,0,0,.444.532,7.729,7.729,0,0,0,1.037.712,7.428,7.428,0,0,1,.888.611,2.946,2.946,0,0,1,.527.549,1.909,1.909,0,0,1,.281.576,2.664,2.664,0,0,1,.088.734,2.174,2.174,0,0,1-.417,1.34,2.476,2.476,0,0,1-1.134.831,4.562,4.562,0,0,1-1.63.272,9.266,9.266,0,0,1-1.433-.11,11.435,11.435,0,0,1-1.564-.374l.422-1.916h.686a1.82,1.82,0,0,0,.475,1.274,1.937,1.937,0,0,0,1.4.431,2.047,2.047,0,0,0,1.305-.374,1.274,1.274,0,0,0,.47-1.059,1.614,1.614,0,0,0-.132-.681,1.692,1.692,0,0,0-.431-.549,7.072,7.072,0,0,0-.949-.659,7.706,7.706,0,0,1-1.068-.747,2.355,2.355,0,0,1-.576-.725,2.008,2.008,0,0,1-.193-.9,2.04,2.04,0,0,1,.374-1.217,2.359,2.359,0,0,1,1.068-.8,4.287,4.287,0,0,1,1.617-.281,10.517,10.517,0,0,1,1.49.1,6.954,6.954,0,0,1,1.34.334l-.4,1.846ZM146.76-12h2.769l-.1.431a1.635,1.635,0,0,0-.479.158.868.868,0,0,0-.264.264,2.241,2.241,0,0,0-.237.549q-.119.374-.3,1.217l-1.5,6.82q-.114.519-.149.822a4.809,4.809,0,0,0-.035.549.686.686,0,0,0,.2.558,1.2,1.2,0,0,0,.664.2l-.1.431H143.71l.1-.431a1.2,1.2,0,0,0,.5-.171.949.949,0,0,0,.281-.33,3,3,0,0,0,.211-.514q.1-.3.29-1.173l1.169-5.3q.246-1.1.563-2.188H146.7q-.272.519-1.23,2.109l-4,6.6h-.958l-.729-5.651q-.158-1.2-.352-3.217h-.176q-.3,1.969-.668,3.647l-.9,4.061a6.618,6.618,0,0,0-.185,1.371.686.686,0,0,0,.2.558,1.2,1.2,0,0,0,.664.2l-.1.431h-3.076l.1-.431a1.2,1.2,0,0,0,.5-.171.949.949,0,0,0,.281-.33,3,3,0,0,0,.211-.514q.1-.3.29-1.173l1.494-6.768q.088-.378.141-.721a4.56,4.56,0,0,0,.053-.694.694.694,0,0,0-.207-.576,1.175,1.175,0,0,0-.655-.189l.1-.431h3.138l1,8.525Zm5.7,9.747a1.22,1.22,0,0,1,.923.338,1.175,1.175,0,0,1,.325.848,1.134,1.134,0,0,1-.325.831,1.238,1.238,0,0,1-.923.33,1.242,1.242,0,0,1-.905-.325,1.115,1.115,0,0,1-.334-.835,1.175,1.175,0,0,1,.325-.848A1.208,1.208,0,0,1,152.455-2.25Zm14.537-9.888a3.4,3.4,0,0,1,2.615.984,4.025,4.025,0,0,1,.918,2.848,11.718,11.718,0,0,1-.466,3.063A9.261,9.261,0,0,1,168.71-2.3a5.886,5.886,0,0,1-2.017,1.846,4.993,4.993,0,0,1-2.373.6,3.48,3.48,0,0,1-2.681-.984,3.983,3.983,0,0,1-.914-2.812,11.675,11.675,0,0,1,.444-2.979,9.916,9.916,0,0,1,1.283-2.931,5.847,5.847,0,0,1,2-1.925A5.087,5.087,0,0,1,166.992-12.138Zm1.863,3.463q0-2.689-1.96-2.689a2.734,2.734,0,0,0-1.771.677,5.751,5.751,0,0,0-1.441,1.934,12.508,12.508,0,0,0-.962,2.76,12.115,12.115,0,0,0-.343,2.654q0,2.716,1.978,2.716a2.957,2.957,0,0,0,2.21-1.107,8.384,8.384,0,0,0,1.648-3.107A12.545,12.545,0,0,0,168.855-8.675Zm5.282,6.425a1.22,1.22,0,0,1,.923.338,1.175,1.175,0,0,1,.325.848,1.134,1.134,0,0,1-.325.831,1.238,1.238,0,0,1-.923.33,1.242,1.242,0,0,1-.905-.325,1.115,1.115,0,0,1-.334-.835,1.175,1.175,0,0,1,.325-.848A1.208,1.208,0,0,1,174.138-2.25ZM187.356-12a9.343,9.343,0,0,1,2.153.2,4.312,4.312,0,0,1,1.542.729,3.225,3.225,0,0,1,1.077,1.4,5.414,5.414,0,0,1,.36,2.07,9.246,9.246,0,0,1-.272,2.268,8.1,8.1,0,0,1-.782,1.991,6.585,6.585,0,0,1-1.222,1.582,6.647,6.647,0,0,1-1.38,1.033,5.678,5.678,0,0,1-1.494.541,9.111,9.111,0,0,1-1.925.18h-3.691l.1-.431a1.2,1.2,0,0,0,.5-.171.949.949,0,0,0,.281-.33,3,3,0,0,0,.211-.514q.1-.3.29-1.173L184.6-9.387a6.929,6.929,0,0,0,.193-1.415.694.694,0,0,0-.207-.576,1.175,1.175,0,0,0-.655-.189l.1-.431ZM184.271-.809q.255.026.976.026a5.362,5.362,0,0,0,2.417-.5,4.536,4.536,0,0,0,1.714-1.556,7.88,7.88,0,0,0,1.063-2.232,8.78,8.78,0,0,0,.343-2.474,3.945,3.945,0,0,0-.857-2.764,3.3,3.3,0,0,0-2.544-.927q-.387,0-.835.026Zm17.622-4.816-2.408.492L201.155-3l-.967.668-1.371-2.329-1.389,2.329L196.462-3l1.67-2.136-2.426-.492.4-1.1,2.3.87-.2-2.672h1.213l-.2,2.672,2.312-.87ZM206.93-.378a7.79,7.79,0,0,1-.765,2.184,3,3,0,0,1-1.208,1.2,3.877,3.877,0,0,1-1.824.391,3.28,3.28,0,0,1-.835-.088l.229-.844a2.139,2.139,0,0,0,.668.07,1.535,1.535,0,0,0,1.31-.646,5.542,5.542,0,0,0,.782-2.017l2.057-9.264a6.828,6.828,0,0,0,.193-1.415.694.694,0,0,0-.207-.576,1.175,1.175,0,0,0-.655-.189l.1-.431h3.516l-.1.431a1.635,1.635,0,0,0-.479.158.868.868,0,0,0-.264.264,2.241,2.241,0,0,0-.237.549q-.119.374-.3,1.217Zm7.69.527a2.829,2.829,0,0,1-2.114-.765,3.005,3.005,0,0,1-.751-2.2,7.411,7.411,0,0,1,.211-1.626,6.088,6.088,0,0,1,.914-2.18,4.406,4.406,0,0,1,1.582-1.428,4.355,4.355,0,0,1,2.065-.5,2.836,2.836,0,0,1,2.145.769,3.054,3.054,0,0,1,.738,2.2,7.448,7.448,0,0,1-.356,2.18,5.971,5.971,0,0,1-.976,1.951A4.014,4.014,0,0,1,216.6-.25,4.647,4.647,0,0,1,214.62.149Zm-1.327-2.584a2.142,2.142,0,0,0,.4,1.428,1.513,1.513,0,0,0,1.208.461,1.981,1.981,0,0,0,1.529-.773,5.561,5.561,0,0,0,1.055-2.167,9.31,9.31,0,0,0,.387-2.448,2.317,2.317,0,0,0-.369-1.428,1.362,1.362,0,0,0-1.151-.479,2.077,2.077,0,0,0-1.6.765,5.416,5.416,0,0,0-1.072,2.188A9.48,9.48,0,0,0,213.293-2.435Zm10.986-3.85A7.324,7.324,0,0,1,225.936-8a2.829,2.829,0,0,1,1.613-.545,5,5,0,0,1,1.072.1L228.2-6.478h-.905a2.034,2.034,0,0,0-.149-.571.633.633,0,0,0-.229-.281.641.641,0,0,0-.334-.079,1.2,1.2,0,0,0-.69.272,4.722,4.722,0,0,0-.839.853,6.756,6.756,0,0,0-.743,1.116,5.713,5.713,0,0,0-.461,1.362L223.014,0h-1.521l1.274-5.572a8.229,8.229,0,0,0,.158-.817,4.147,4.147,0,0,0,.035-.483.886.886,0,0,0-.114-.51.414.414,0,0,0-.36-.158.983.983,0,0,0-.576.224,6.308,6.308,0,0,0-.831.813l-.5-.492a8.449,8.449,0,0,1,1.354-1.2,2.156,2.156,0,0,1,1.2-.356,1.1,1.1,0,0,1,.875.365,1.391,1.391,0,0,1,.321.954,2.675,2.675,0,0,1-.167.905Zm7.058.712a6.3,6.3,0,0,0,.193-1.3.886.886,0,0,0-.114-.51.414.414,0,0,0-.36-.158.983.983,0,0,0-.576.224,6.308,6.308,0,0,0-.831.813l-.5-.492a8.725,8.725,0,0,1,1.345-1.2,2.143,2.143,0,0,1,1.213-.356,1.1,1.1,0,0,1,.875.365,1.391,1.391,0,0,1,.321.954A3.025,3.025,0,0,1,232.69-6.2l.105.035a8.131,8.131,0,0,1,1.639-1.8,2.642,2.642,0,0,1,1.6-.584,1.636,1.636,0,0,1,1.257.47,1.837,1.837,0,0,1,.439,1.305,7.017,7.017,0,0,1-.255,1.573l-.571,2.3a6.607,6.607,0,0,0-.237,1.354.886.886,0,0,0,.114.51.414.414,0,0,0,.36.158.978.978,0,0,0,.563-.215,6.176,6.176,0,0,0,.844-.822l.5.492a7.951,7.951,0,0,1-1.318,1.182,2.266,2.266,0,0,1-1.283.374,1.133,1.133,0,0,1-.914-.409A1.565,1.565,0,0,1,235.2-1.31a7.271,7.271,0,0,1,.29-1.679l.387-1.521q.211-.826.277-1.222a4.081,4.081,0,0,0,.066-.642,1.474,1.474,0,0,0-.2-.875.772.772,0,0,0-.659-.268,1.424,1.424,0,0,0-.8.294,4.535,4.535,0,0,0-.905.888,6.967,6.967,0,0,0-.769,1.151,5.738,5.738,0,0,0-.475,1.375L231.574,0h-1.521Zm15.478-2.4.809-.58.563.141-1.292,5.572a6.189,6.189,0,0,0-.193,1.3.886.886,0,0,0,.114.51.414.414,0,0,0,.36.158.978.978,0,0,0,.563-.215,6.176,6.176,0,0,0,.844-.822l.5.492a7.649,7.649,0,0,1-1.349,1.2,2.205,2.205,0,0,1-1.208.356,1.114,1.114,0,0,1-.87-.36,1.376,1.376,0,0,1-.325-.958,2.962,2.962,0,0,1,.2-1.028l-.114-.035a7.75,7.75,0,0,1-1.6,1.8,2.61,2.61,0,0,1-1.6.571,1.746,1.746,0,0,1-1.5-.729,3.426,3.426,0,0,1-.532-2.048,7.34,7.34,0,0,1,.593-2.9,5.373,5.373,0,0,1,1.63-2.2,3.68,3.68,0,0,1,2.312-.8,4.285,4.285,0,0,1,1.068.127A3.733,3.733,0,0,1,246.814-7.972Zm-.773,2.619a5.547,5.547,0,0,0,.105-.624q.026-.264.026-.571a1.437,1.437,0,0,0-.29-.993,1.289,1.289,0,0,0-.984-.316,2.233,2.233,0,0,0-1.626.729,4.924,4.924,0,0,0-1.125,1.956,7.777,7.777,0,0,0-.4,2.448,2.909,2.909,0,0,0,.25,1.367.882.882,0,0,0,.839.453,1.7,1.7,0,0,0,1.138-.5,6.972,6.972,0,0,0,1.151-1.428,6.229,6.229,0,0,0,.839-2.14Zm9.4,3.111a7.75,7.75,0,0,1-1.6,1.8,2.61,2.61,0,0,1-1.6.571,1.746,1.746,0,0,1-1.5-.729,3.426,3.426,0,0,1-.532-2.048,7.34,7.34,0,0,1,.593-2.9,5.373,5.373,0,0,1,1.63-2.2,3.68,3.68,0,0,1,2.312-.8,4.189,4.189,0,0,1,.989.11,3.555,3.555,0,0,1,.927.382l.457-2.03q.07-.29.123-.642a4.215,4.215,0,0,0,.053-.615.689.689,0,0,0-.1-.4.542.542,0,0,0-.277-.2,2.776,2.776,0,0,0-.646-.088l.105-.457,2.206-.079h.519l-2.188,9.729a6.516,6.516,0,0,0-.193,1.3.886.886,0,0,0,.114.51.414.414,0,0,0,.36.158.978.978,0,0,0,.563-.215,6.176,6.176,0,0,0,.844-.822l.5.492a7.863,7.863,0,0,1-1.362,1.2,2.189,2.189,0,0,1-1.2.352,1.114,1.114,0,0,1-.87-.36,1.376,1.376,0,0,1-.325-.958,2.962,2.962,0,0,1,.2-1.028Zm.589-3.111a5.871,5.871,0,0,0,.132-1.2,1.434,1.434,0,0,0-.29-1,1.273,1.273,0,0,0-.967-.312,2.2,2.2,0,0,0-1.608.725,4.983,4.983,0,0,0-1.121,1.956,7.741,7.741,0,0,0-.409,2.452,2.909,2.909,0,0,0,.25,1.367.882.882,0,0,0,.839.453,1.417,1.417,0,0,0,.554-.119A2.234,2.234,0,0,0,254-1.406a4.561,4.561,0,0,0,.6-.642q.294-.378.541-.76a5.422,5.422,0,0,0,.457-.905,7.248,7.248,0,0,0,.36-1.261Zm11.241-2.619.809-.58.563.141-1.292,5.572a6.189,6.189,0,0,0-.193,1.3.886.886,0,0,0,.114.51.414.414,0,0,0,.36.158.978.978,0,0,0,.563-.215,6.176,6.176,0,0,0,.844-.822l.5.492a7.649,7.649,0,0,1-1.349,1.2,2.205,2.205,0,0,1-1.208.356,1.114,1.114,0,0,1-.87-.36,1.376,1.376,0,0,1-.325-.958,2.962,2.962,0,0,1,.2-1.028l-.114-.035a7.75,7.75,0,0,1-1.6,1.8,2.61,2.61,0,0,1-1.6.571,1.746,1.746,0,0,1-1.5-.729,3.426,3.426,0,0,1-.532-2.048,7.34,7.34,0,0,1,.593-2.9,5.373,5.373,0,0,1,1.63-2.2,3.68,3.68,0,0,1,2.312-.8,4.285,4.285,0,0,1,1.068.127A3.733,3.733,0,0,1,267.275-7.972ZM266.5-5.353a5.547,5.547,0,0,0,.105-.624q.026-.264.026-.571a1.437,1.437,0,0,0-.29-.993,1.289,1.289,0,0,0-.984-.316,2.233,2.233,0,0,0-1.626.729,4.924,4.924,0,0,0-1.125,1.956,7.777,7.777,0,0,0-.4,2.448,2.909,2.909,0,0,0,.25,1.367.882.882,0,0,0,.839.453,1.7,1.7,0,0,0,1.138-.5,6.972,6.972,0,0,0,1.151-1.428,6.229,6.229,0,0,0,.839-2.14Zm10.767-4.737q.105-.466.149-.743a3.294,3.294,0,0,0,.044-.514.689.689,0,0,0-.1-.4.542.542,0,0,0-.277-.2,2.776,2.776,0,0,0-.646-.088l.105-.457,2.215-.079h.519l-2.162,9.729a6.633,6.633,0,0,0-.193,1.3.886.886,0,0,0,.114.51.414.414,0,0,0,.36.158.978.978,0,0,0,.563-.215,6.176,6.176,0,0,0,.844-.822l.5.492a7.666,7.666,0,0,1-1.393,1.226,2.275,2.275,0,0,1-1.208.33,1.123,1.123,0,0,1-.914-.417,1.628,1.628,0,0,1-.343-1.068A8.612,8.612,0,0,1,275.7-3.05Zm10.2,2.118.809-.58.563.141-1.292,5.572a6.189,6.189,0,0,0-.193,1.3.886.886,0,0,0,.114.51.414.414,0,0,0,.36.158.978.978,0,0,0,.563-.215,6.176,6.176,0,0,0,.844-.822l.5.492a7.649,7.649,0,0,1-1.349,1.2,2.205,2.205,0,0,1-1.208.356,1.114,1.114,0,0,1-.87-.36,1.376,1.376,0,0,1-.325-.958,2.962,2.962,0,0,1,.2-1.028l-.114-.035a7.75,7.75,0,0,1-1.6,1.8,2.61,2.61,0,0,1-1.6.571,1.746,1.746,0,0,1-1.5-.729,3.426,3.426,0,0,1-.532-2.048,7.34,7.34,0,0,1,.593-2.9,5.373,5.373,0,0,1,1.63-2.2,3.68,3.68,0,0,1,2.312-.8,4.285,4.285,0,0,1,1.068.127A3.733,3.733,0,0,1,287.473-7.972ZM286.7-5.353a5.547,5.547,0,0,0,.105-.624q.026-.264.026-.571a1.437,1.437,0,0,0-.29-.993,1.289,1.289,0,0,0-.984-.316,2.233,2.233,0,0,0-1.626.729,4.924,4.924,0,0,0-1.125,1.956,7.777,7.777,0,0,0-.4,2.448,2.909,2.909,0,0,0,.25,1.367.882.882,0,0,0,.839.453,1.7,1.7,0,0,0,1.138-.5,6.972,6.972,0,0,0,1.151-1.428,6.229,6.229,0,0,0,.839-2.14Zm5.432,4.922-.809.571L290.76,0l2.276-10.046a6.725,6.725,0,0,0,.2-1.3.577.577,0,0,0-.224-.519,1.637,1.637,0,0,0-.8-.167l.105-.457,2.224-.079h.51L293.5-6.416l.114.035a7.209,7.209,0,0,1,1.6-1.652,2.637,2.637,0,0,1,1.494-.51,1.738,1.738,0,0,1,1.49.729,3.443,3.443,0,0,1,.532,2.057,7.35,7.35,0,0,1-.584,2.852,5.434,5.434,0,0,1-1.622,2.224,3.643,3.643,0,0,1-2.32.822A3.8,3.8,0,0,1,292.131-.431Zm.773-2.628a5.7,5.7,0,0,0-.132,1.2,1.389,1.389,0,0,0,.3,1,1.374,1.374,0,0,0,1.006.308,1.984,1.984,0,0,0,.686-.119,2.366,2.366,0,0,0,.664-.391,3.3,3.3,0,0,0,.642-.716,5.5,5.5,0,0,0,.558-1.094,7.774,7.774,0,0,0,.4-1.393,7.634,7.634,0,0,0,.141-1.419,2.851,2.851,0,0,0-.259-1.371.884.884,0,0,0-.831-.457,1.5,1.5,0,0,0-.831.268,4.275,4.275,0,0,0-.91.888,6.654,6.654,0,0,0-.817,1.27,7.481,7.481,0,0,0-.536,1.661ZM303.486.149a2.829,2.829,0,0,1-2.114-.765,3.005,3.005,0,0,1-.751-2.2,7.411,7.411,0,0,1,.211-1.626,6.088,6.088,0,0,1,.914-2.18,4.406,4.406,0,0,1,1.582-1.428,4.355,4.355,0,0,1,2.065-.5,2.836,2.836,0,0,1,2.145.769,3.054,3.054,0,0,1,.738,2.2,7.448,7.448,0,0,1-.356,2.18,5.971,5.971,0,0,1-.976,1.951A4.014,4.014,0,0,1,305.464-.25,4.647,4.647,0,0,1,303.486.149Zm-1.327-2.584a2.142,2.142,0,0,0,.4,1.428,1.513,1.513,0,0,0,1.208.461,1.981,1.981,0,0,0,1.529-.773,5.561,5.561,0,0,0,1.055-2.167,9.31,9.31,0,0,0,.387-2.448,2.317,2.317,0,0,0-.369-1.428,1.362,1.362,0,0,0-1.151-.479,2.077,2.077,0,0,0-1.6.765,5.416,5.416,0,0,0-1.072,2.188A9.48,9.48,0,0,0,302.159-2.435Zm10.986-3.85A7.324,7.324,0,0,1,314.8-8a2.829,2.829,0,0,1,1.613-.545,5,5,0,0,1,1.072.1l-.422,1.969h-.905a2.034,2.034,0,0,0-.149-.571.633.633,0,0,0-.229-.281.641.641,0,0,0-.334-.079,1.2,1.2,0,0,0-.69.272,4.722,4.722,0,0,0-.839.853,6.756,6.756,0,0,0-.743,1.116,5.713,5.713,0,0,0-.461,1.362L311.88,0h-1.521l1.274-5.572a8.229,8.229,0,0,0,.158-.817,4.147,4.147,0,0,0,.035-.483.886.886,0,0,0-.114-.51.414.414,0,0,0-.36-.158.983.983,0,0,0-.576.224,6.308,6.308,0,0,0-.831.813l-.5-.492A8.449,8.449,0,0,1,310.8-8.2a2.156,2.156,0,0,1,1.2-.356,1.1,1.1,0,0,1,.875.365,1.391,1.391,0,0,1,.321.954,2.675,2.675,0,0,1-.167.905Zm12.208-1.687.809-.58.563.141-1.292,5.572a6.189,6.189,0,0,0-.193,1.3.886.886,0,0,0,.114.51.414.414,0,0,0,.36.158.978.978,0,0,0,.563-.215,6.176,6.176,0,0,0,.844-.822l.5.492a7.649,7.649,0,0,1-1.349,1.2,2.205,2.205,0,0,1-1.208.356,1.114,1.114,0,0,1-.87-.36,1.376,1.376,0,0,1-.325-.958,2.962,2.962,0,0,1,.2-1.028l-.114-.035a7.75,7.75,0,0,1-1.6,1.8,2.61,2.61,0,0,1-1.6.571,1.746,1.746,0,0,1-1.5-.729,3.426,3.426,0,0,1-.532-2.048,7.34,7.34,0,0,1,.593-2.9,5.373,5.373,0,0,1,1.63-2.2,3.68,3.68,0,0,1,2.312-.8,4.285,4.285,0,0,1,1.068.127A3.733,3.733,0,0,1,325.354-7.972Zm-.773,2.619a5.547,5.547,0,0,0,.105-.624q.026-.264.026-.571a1.437,1.437,0,0,0-.29-.993,1.289,1.289,0,0,0-.984-.316,2.233,2.233,0,0,0-1.626.729,4.924,4.924,0,0,0-1.125,1.956,7.777,7.777,0,0,0-.4,2.448,2.909,2.909,0,0,0,.25,1.367.882.882,0,0,0,.839.453,1.7,1.7,0,0,0,1.138-.5,6.972,6.972,0,0,0,1.151-1.428,6.229,6.229,0,0,0,.839-2.14Zm6.284-4.737q.105-.466.149-.743a3.294,3.294,0,0,0,.044-.514.689.689,0,0,0-.1-.4.542.542,0,0,0-.277-.2,2.776,2.776,0,0,0-.646-.088l.105-.457,2.215-.079h.519l-2.162,9.729a6.633,6.633,0,0,0-.193,1.3.886.886,0,0,0,.114.51A.414.414,0,0,0,331-.87a.978.978,0,0,0,.563-.215,6.176,6.176,0,0,0,.844-.822l.5.492A7.666,7.666,0,0,1,331.51-.189a2.275,2.275,0,0,1-1.208.33,1.123,1.123,0,0,1-.914-.417,1.628,1.628,0,0,1-.343-1.068,8.612,8.612,0,0,1,.246-1.705Zm10.2.044a7.144,7.144,0,0,0,.211-1.3.577.577,0,0,0-.224-.519,1.637,1.637,0,0,0-.8-.167l.105-.457,2.224-.079h.51l-1.512,6.091.105.035a6.941,6.941,0,0,1,1.578-1.6,2.675,2.675,0,0,1,1.5-.5,1.636,1.636,0,0,1,1.257.47,1.837,1.837,0,0,1,.439,1.305,7.017,7.017,0,0,1-.255,1.573l-.571,2.3a6.607,6.607,0,0,0-.237,1.354.886.886,0,0,0,.114.51.414.414,0,0,0,.36.158.978.978,0,0,0,.563-.215,6.176,6.176,0,0,0,.844-.822l.5.492A7.768,7.768,0,0,1,346.39-.193a2.269,2.269,0,0,1-1.217.334,1.125,1.125,0,0,1-.91-.4,1.575,1.575,0,0,1-.338-1.046,7.271,7.271,0,0,1,.29-1.679l.378-1.521q.2-.817.272-1.226a4.019,4.019,0,0,0,.07-.637,1.468,1.468,0,0,0-.2-.883.785.785,0,0,0-.659-.259,1.461,1.461,0,0,0-.8.3,4.371,4.371,0,0,0-.923.91,7.182,7.182,0,0,0-.769,1.169,5.448,5.448,0,0,0-.453,1.332L340.33,0H338.81ZM351.817.149A2.829,2.829,0,0,1,349.7-.615a3.005,3.005,0,0,1-.751-2.2,7.411,7.411,0,0,1,.211-1.626,6.088,6.088,0,0,1,.914-2.18,4.406,4.406,0,0,1,1.582-1.428,4.355,4.355,0,0,1,2.065-.5,2.836,2.836,0,0,1,2.145.769,3.054,3.054,0,0,1,.738,2.2,7.448,7.448,0,0,1-.356,2.18,5.971,5.971,0,0,1-.976,1.951A4.014,4.014,0,0,1,353.795-.25,4.647,4.647,0,0,1,351.817.149ZM350.49-2.435a2.142,2.142,0,0,0,.4,1.428,1.513,1.513,0,0,0,1.208.461,1.981,1.981,0,0,0,1.529-.773,5.561,5.561,0,0,0,1.055-2.167,9.31,9.31,0,0,0,.387-2.448,2.317,2.317,0,0,0-.369-1.428,1.362,1.362,0,0,0-1.151-.479,2.077,2.077,0,0,0-1.6.765,5.416,5.416,0,0,0-1.072,2.188A9.48,9.48,0,0,0,350.49-2.435Zm10.986-3.85A7.324,7.324,0,0,1,363.133-8a2.829,2.829,0,0,1,1.613-.545,5,5,0,0,1,1.072.1L365.4-6.478h-.905a2.034,2.034,0,0,0-.149-.571.633.633,0,0,0-.229-.281.641.641,0,0,0-.334-.079,1.2,1.2,0,0,0-.69.272,4.722,4.722,0,0,0-.839.853,6.756,6.756,0,0,0-.743,1.116,5.713,5.713,0,0,0-.461,1.362L360.211,0H358.69l1.274-5.572a8.229,8.229,0,0,0,.158-.817,4.147,4.147,0,0,0,.035-.483.886.886,0,0,0-.114-.51.414.414,0,0,0-.36-.158.983.983,0,0,0-.576.224,6.308,6.308,0,0,0-.831.813l-.5-.492a8.449,8.449,0,0,1,1.354-1.2,2.156,2.156,0,0,1,1.2-.356,1.1,1.1,0,0,1,.875.365,1.391,1.391,0,0,1,.321.954,2.675,2.675,0,0,1-.167.905Zm12.208-1.687.809-.58.563.141-1.292,5.572a6.189,6.189,0,0,0-.193,1.3.886.886,0,0,0,.114.51.414.414,0,0,0,.36.158.978.978,0,0,0,.563-.215,6.176,6.176,0,0,0,.844-.822l.5.492a7.649,7.649,0,0,1-1.349,1.2,2.205,2.205,0,0,1-1.208.356,1.114,1.114,0,0,1-.87-.36,1.376,1.376,0,0,1-.325-.958,2.962,2.962,0,0,1,.2-1.028l-.114-.035a7.75,7.75,0,0,1-1.6,1.8,2.61,2.61,0,0,1-1.6.571,1.746,1.746,0,0,1-1.5-.729,3.426,3.426,0,0,1-.532-2.048,7.34,7.34,0,0,1,.593-2.9,5.373,5.373,0,0,1,1.63-2.2,3.68,3.68,0,0,1,2.312-.8,4.285,4.285,0,0,1,1.068.127A3.733,3.733,0,0,1,373.685-7.972Zm-.773,2.619a5.547,5.547,0,0,0,.105-.624q.026-.264.026-.571a1.437,1.437,0,0,0-.29-.993,1.289,1.289,0,0,0-.984-.316,2.233,2.233,0,0,0-1.626.729,4.924,4.924,0,0,0-1.125,1.956,7.777,7.777,0,0,0-.4,2.448,2.909,2.909,0,0,0,.25,1.367.882.882,0,0,0,.839.453,1.7,1.7,0,0,0,1.138-.5,6.972,6.972,0,0,0,1.151-1.428,6.229,6.229,0,0,0,.839-2.14Z" transform="translate(-3556 -6864)" fill="#fff"/>
    <path id="Trazado_727157" data-name="Trazado 727157" d="M5.238,0h-3.7l.1-.431a1.723,1.723,0,0,0,.519-.141.833.833,0,0,0,.294-.272,2.322,2.322,0,0,0,.255-.58q.127-.4.3-1.2l1.881-8.6H3.771a2.008,2.008,0,0,0-.87.158,1.911,1.911,0,0,0-.65.589,8.431,8.431,0,0,0-.791,1.441H.615L1.274-12H10.45L9.765-8.9H8.921q0-.853-.044-1.279a1.763,1.763,0,0,0-.167-.65.684.684,0,0,0-.3-.308,1.682,1.682,0,0,0-.637-.083h-1.3L4.562-2.558q-.079.343-.11.545T4.4-1.586q-.022.224-.022.4a.864.864,0,0,0,.088.426.512.512,0,0,0,.264.224,2.334,2.334,0,0,0,.606.105ZM15.68-11.848l-.4,1.705H13.72l.4-1.705ZM12.85-5.924a6.492,6.492,0,0,0,.2-1.318.634.634,0,0,0-.189-.536,1.426,1.426,0,0,0-.743-.158l.1-.466,2.145-.079h.519L13.614-2.839a6.516,6.516,0,0,0-.193,1.3.886.886,0,0,0,.114.51.414.414,0,0,0,.36.158.978.978,0,0,0,.563-.215,6.176,6.176,0,0,0,.844-.822l.5.492a7.669,7.669,0,0,1-1.4,1.23,2.276,2.276,0,0,1-1.2.325,1.123,1.123,0,0,1-.914-.417,1.628,1.628,0,0,1-.343-1.068A7.7,7.7,0,0,1,12.19-3.05ZM23.774-1.749A6.681,6.681,0,0,1,22.047-.334a4.2,4.2,0,0,1-2.035.475A2.515,2.515,0,0,1,18.04-.637a3.127,3.127,0,0,1-.7-2.167,6.746,6.746,0,0,1,.338-2.017A5.894,5.894,0,0,1,18.7-6.754a4.786,4.786,0,0,1,1.644-1.327,4.567,4.567,0,0,1,2.039-.47,2.5,2.5,0,0,1,1.6.431,1.629,1.629,0,0,1,.532,1.345,2.4,2.4,0,0,1-1.4,2.241,9.106,9.106,0,0,1-4.162.747,5.828,5.828,0,0,0-.105,1.143,2.032,2.032,0,0,0,.36,1.34,1.48,1.48,0,0,0,1.178.417,3.044,3.044,0,0,0,1.463-.352A6.114,6.114,0,0,0,23.229-2.32ZM19.1-4.535a9.416,9.416,0,0,0,2.127-.224,2.846,2.846,0,0,0,1.362-.686,1.707,1.707,0,0,0,.475-1.27,1.281,1.281,0,0,0-.25-.839.908.908,0,0,0-.743-.3,2.345,2.345,0,0,0-1.709.9A5.972,5.972,0,0,0,19.1-4.535ZM29.215-6.17a7.08,7.08,0,0,1,1.608-1.789,2.723,2.723,0,0,1,1.617-.584,1.655,1.655,0,0,1,1.283.479,1.978,1.978,0,0,1,.439,1.384v.123a1.066,1.066,0,0,1-.009.132,6.432,6.432,0,0,1,1.507-1.6,2.7,2.7,0,0,1,1.56-.523,1.633,1.633,0,0,1,1.248.466,1.834,1.834,0,0,1,.439,1.31,7.017,7.017,0,0,1-.255,1.573l-.571,2.3a6.607,6.607,0,0,0-.237,1.354.886.886,0,0,0,.114.51.414.414,0,0,0,.36.158.978.978,0,0,0,.563-.215,6.176,6.176,0,0,0,.844-.822l.5.492A8.312,8.312,0,0,1,38.909-.237a2.247,2.247,0,0,1-1.283.378,1.133,1.133,0,0,1-.914-.409,1.565,1.565,0,0,1-.343-1.042,7.271,7.271,0,0,1,.29-1.679l.387-1.521q.211-.826.277-1.222a4.081,4.081,0,0,0,.066-.642,1.474,1.474,0,0,0-.2-.875.772.772,0,0,0-.659-.268,1.461,1.461,0,0,0-.791.277,4.007,4.007,0,0,0-.888.861,7.144,7.144,0,0,0-.76,1.151,5.538,5.538,0,0,0-.47,1.384L32.818,0H31.3l1.011-4.465q.185-.817.25-1.208a4.134,4.134,0,0,0,.066-.672,1.414,1.414,0,0,0-.224-.9.86.86,0,0,0-.7-.268,1.443,1.443,0,0,0-.76.277,4.035,4.035,0,0,0-.91.888,6.443,6.443,0,0,0-.756,1.173,6.466,6.466,0,0,0-.457,1.371L27.984,0H26.464l1.283-5.572a6.3,6.3,0,0,0,.193-1.3.886.886,0,0,0-.114-.51.414.414,0,0,0-.36-.158.983.983,0,0,0-.576.224,6.308,6.308,0,0,0-.831.813L25.559-7A8.576,8.576,0,0,1,26.89-8.178a2.158,2.158,0,0,1,1.226-.374,1.1,1.1,0,0,1,.875.365,1.391,1.391,0,0,1,.321.954,2.962,2.962,0,0,1-.2,1.028Zm13.632.624a6.217,6.217,0,0,0,.185-1.327.886.886,0,0,0-.114-.51.414.414,0,0,0-.36-.158.983.983,0,0,0-.576.224,6.308,6.308,0,0,0-.831.813L40.649-7a8.58,8.58,0,0,1,1.34-1.191,2.154,2.154,0,0,1,1.217-.365,1.1,1.1,0,0,1,.866.36,1.387,1.387,0,0,1,.321.958,2.982,2.982,0,0,1-.2,1.037l.105.035q1.626-2.382,3.234-2.382a1.738,1.738,0,0,1,1.49.729,3.443,3.443,0,0,1,.532,2.057A7.35,7.35,0,0,1,48.968-2.9,5.434,5.434,0,0,1,47.347-.681a3.643,3.643,0,0,1-2.32.822,3.459,3.459,0,0,1-1.942-.51l-.4,1.925a5.173,5.173,0,0,0-.132,1.028.674.674,0,0,0,.2.549,1.506,1.506,0,0,0,.769.215l-.07.431H40.729Zm.888,2.487q-.088.466-.11.712t-.022.483a1.419,1.419,0,0,0,.294,1,1.357,1.357,0,0,0,1.015.312,1.935,1.935,0,0,0,.826-.176,2.562,2.562,0,0,0,.716-.51,3.751,3.751,0,0,0,.611-.809,6.354,6.354,0,0,0,.488-1.1,8.019,8.019,0,0,0,.325-1.292,7.636,7.636,0,0,0,.11-1.244,2.847,2.847,0,0,0-.259-1.375.878.878,0,0,0-.822-.453,1.532,1.532,0,0,0-.883.3,4.687,4.687,0,0,0-.954.971,6.455,6.455,0,0,0-.809,1.318A7.012,7.012,0,0,0,43.8-3.428ZM54.308.149a2.829,2.829,0,0,1-2.114-.765,3.005,3.005,0,0,1-.751-2.2,7.411,7.411,0,0,1,.211-1.626,6.088,6.088,0,0,1,.914-2.18,4.406,4.406,0,0,1,1.582-1.428,4.355,4.355,0,0,1,2.065-.5,2.836,2.836,0,0,1,2.145.769,3.054,3.054,0,0,1,.738,2.2,7.448,7.448,0,0,1-.356,2.18,5.971,5.971,0,0,1-.976,1.951A4.014,4.014,0,0,1,56.285-.25,4.647,4.647,0,0,1,54.308.149ZM52.98-2.435a2.142,2.142,0,0,0,.4,1.428,1.513,1.513,0,0,0,1.208.461,1.981,1.981,0,0,0,1.529-.773,5.561,5.561,0,0,0,1.055-2.167,9.31,9.31,0,0,0,.387-2.448,2.317,2.317,0,0,0-.369-1.428,1.362,1.362,0,0,0-1.151-.479,2.077,2.077,0,0,0-1.6.765,5.416,5.416,0,0,0-1.072,2.188A9.48,9.48,0,0,0,52.98-2.435ZM71.9-1.749A6.681,6.681,0,0,1,70.176-.334a4.2,4.2,0,0,1-2.035.475,2.515,2.515,0,0,1-1.973-.778,3.127,3.127,0,0,1-.7-2.167,6.746,6.746,0,0,1,.338-2.017,5.894,5.894,0,0,1,1.024-1.934,4.786,4.786,0,0,1,1.644-1.327,4.567,4.567,0,0,1,2.039-.47,2.5,2.5,0,0,1,1.6.431,1.629,1.629,0,0,1,.532,1.345,2.4,2.4,0,0,1-1.4,2.241,9.106,9.106,0,0,1-4.162.747,5.828,5.828,0,0,0-.105,1.143,2.032,2.032,0,0,0,.36,1.34,1.48,1.48,0,0,0,1.178.417,3.044,3.044,0,0,0,1.463-.352A6.114,6.114,0,0,0,71.358-2.32ZM67.228-4.535a9.416,9.416,0,0,0,2.127-.224,2.846,2.846,0,0,0,1.362-.686,1.707,1.707,0,0,0,.475-1.27,1.281,1.281,0,0,0-.25-.839.908.908,0,0,0-.743-.3,2.345,2.345,0,0,0-1.709.9A5.972,5.972,0,0,0,67.228-4.535ZM80.1-6.267a1.923,1.923,0,0,0-.514-1.187,1.833,1.833,0,0,0-1.314-.4A1.708,1.708,0,0,0,77.15-7.5a1.155,1.155,0,0,0-.431.936,1.336,1.336,0,0,0,.11.558,1.69,1.69,0,0,0,.444.532,7.729,7.729,0,0,0,1.037.712,7.428,7.428,0,0,1,.888.611,2.946,2.946,0,0,1,.527.549,1.909,1.909,0,0,1,.281.576,2.664,2.664,0,0,1,.088.734,2.174,2.174,0,0,1-.417,1.34,2.476,2.476,0,0,1-1.134.831,4.562,4.562,0,0,1-1.63.272A9.266,9.266,0,0,1,75.48.04a11.435,11.435,0,0,1-1.564-.374l.422-1.916h.686A1.82,1.82,0,0,0,75.5-.976a1.937,1.937,0,0,0,1.4.431A2.047,2.047,0,0,0,78.2-.918a1.274,1.274,0,0,0,.47-1.059,1.614,1.614,0,0,0-.132-.681,1.692,1.692,0,0,0-.431-.549,7.072,7.072,0,0,0-.949-.659,7.706,7.706,0,0,1-1.068-.747,2.355,2.355,0,0,1-.576-.725,2.008,2.008,0,0,1-.193-.9A2.04,2.04,0,0,1,75.7-7.458a2.359,2.359,0,0,1,1.068-.8,4.287,4.287,0,0,1,1.617-.281,10.517,10.517,0,0,1,1.49.1,6.954,6.954,0,0,1,1.34.334l-.4,1.846Zm7.8,4.605A6.352,6.352,0,0,1,86.427-.3a2.765,2.765,0,0,1-1.481.439,1.631,1.631,0,0,1-1.837-1.854,5.538,5.538,0,0,1,.149-1.239L84.3-7.515H82.819l.132-.606a3.548,3.548,0,0,0,.787-.079,1.437,1.437,0,0,0,.448-.193,1.235,1.235,0,0,0,.33-.352,3.284,3.284,0,0,0,.29-.584q.141-.356.422-1.244H86.44L85.957-8.4h2.672l-.193.888H85.764L84.981-4.1q-.229.993-.29,1.428a5.241,5.241,0,0,0-.062.7q0,1.09.905,1.09a1.483,1.483,0,0,0,.822-.294A5.516,5.516,0,0,0,87.39-2.188ZM95.669,0a3.3,3.3,0,0,1-.246-.888,3.325,3.325,0,0,1-2.5,1.063,3.355,3.355,0,0,1-2.338-.817,2.615,2.615,0,0,1-.905-2.021A2.7,2.7,0,0,1,90.813-5a5.473,5.473,0,0,1,3.23-.813h1.31v-.624a1.666,1.666,0,0,0-.413-1.182,1.638,1.638,0,0,0-1.257-.444,1.881,1.881,0,0,0-1.2.365,1.129,1.129,0,0,0-.466.927H89.886A2.37,2.37,0,0,1,90.4-8.231,3.455,3.455,0,0,1,91.815-9.3a4.955,4.955,0,0,1,1.991-.387,3.99,3.99,0,0,1,2.663.839,2.993,2.993,0,0,1,1.02,2.36V-2.2a4.861,4.861,0,0,0,.36,2.048V0ZM93.322-1.538a2.429,2.429,0,0,0,1.191-.308,2.055,2.055,0,0,0,.839-.826V-4.465H94.2a3.148,3.148,0,0,0-1.784.413,1.338,1.338,0,0,0-.6,1.169,1.248,1.248,0,0,0,.409.98A1.583,1.583,0,0,0,93.322-1.538ZM94.509-13.5h2.435l-2.435,2.663-1.714,0Zm6.521,7.928a6.3,6.3,0,0,0,.193-1.3.886.886,0,0,0-.114-.51.414.414,0,0,0-.36-.158.983.983,0,0,0-.576.224,6.308,6.308,0,0,0-.831.813L98.842-7a8.725,8.725,0,0,1,1.345-1.2,2.143,2.143,0,0,1,1.213-.356,1.1,1.1,0,0,1,.875.365,1.391,1.391,0,0,1,.321.954,3.025,3.025,0,0,1-.211,1.037l.105.035a8.131,8.131,0,0,1,1.639-1.8,2.642,2.642,0,0,1,1.6-.584,1.636,1.636,0,0,1,1.257.47,1.837,1.837,0,0,1,.439,1.305,7.017,7.017,0,0,1-.255,1.573l-.571,2.3a6.607,6.607,0,0,0-.237,1.354.886.886,0,0,0,.114.51.414.414,0,0,0,.36.158.978.978,0,0,0,.563-.215,6.176,6.176,0,0,0,.844-.822l.5.492a7.951,7.951,0,0,1-1.318,1.182,2.266,2.266,0,0,1-1.283.374,1.133,1.133,0,0,1-.914-.409,1.565,1.565,0,0,1-.343-1.042,7.271,7.271,0,0,1,.29-1.679l.387-1.521q.211-.826.277-1.222a4.081,4.081,0,0,0,.066-.642,1.474,1.474,0,0,0-.2-.875.772.772,0,0,0-.659-.268,1.424,1.424,0,0,0-.8.294,4.535,4.535,0,0,0-.905.888,6.967,6.967,0,0,0-.769,1.151,5.738,5.738,0,0,0-.475,1.375L101.268,0H99.747Zm14.08,3.331a7.75,7.75,0,0,1-1.6,1.8,2.61,2.61,0,0,1-1.6.571,1.746,1.746,0,0,1-1.5-.729,3.426,3.426,0,0,1-.532-2.048,7.34,7.34,0,0,1,.593-2.9,5.373,5.373,0,0,1,1.63-2.2,3.68,3.68,0,0,1,2.312-.8,4.189,4.189,0,0,1,.989.11,3.555,3.555,0,0,1,.927.382l.457-2.03q.07-.29.123-.642a4.215,4.215,0,0,0,.053-.615.689.689,0,0,0-.1-.4.542.542,0,0,0-.277-.2,2.776,2.776,0,0,0-.646-.088l.105-.457,2.206-.079h.519l-2.188,9.729a6.516,6.516,0,0,0-.193,1.3.886.886,0,0,0,.114.51.414.414,0,0,0,.36.158.978.978,0,0,0,.563-.215,6.176,6.176,0,0,0,.844-.822l.5.492a7.863,7.863,0,0,1-1.362,1.2,2.189,2.189,0,0,1-1.2.352,1.114,1.114,0,0,1-.87-.36,1.376,1.376,0,0,1-.325-.958,2.962,2.962,0,0,1,.2-1.028Zm.589-3.111a5.871,5.871,0,0,0,.132-1.2,1.434,1.434,0,0,0-.29-1,1.273,1.273,0,0,0-.967-.312,2.2,2.2,0,0,0-1.608.725,4.983,4.983,0,0,0-1.121,1.956,7.741,7.741,0,0,0-.409,2.452,2.909,2.909,0,0,0,.25,1.367.882.882,0,0,0,.839.453,1.417,1.417,0,0,0,.554-.119,2.234,2.234,0,0,0,.584-.382,4.561,4.561,0,0,0,.6-.642q.294-.378.541-.76a5.422,5.422,0,0,0,.457-.905,7.248,7.248,0,0,0,.36-1.261ZM126.94-7.972l.809-.58.563.141L127.02-2.839a6.189,6.189,0,0,0-.193,1.3.886.886,0,0,0,.114.51.414.414,0,0,0,.36.158.978.978,0,0,0,.563-.215,6.176,6.176,0,0,0,.844-.822l.5.492a7.649,7.649,0,0,1-1.349,1.2,2.205,2.205,0,0,1-1.208.356,1.114,1.114,0,0,1-.87-.36,1.376,1.376,0,0,1-.325-.958,2.962,2.962,0,0,1,.2-1.028l-.114-.035a7.75,7.75,0,0,1-1.6,1.8,2.61,2.61,0,0,1-1.6.571,1.746,1.746,0,0,1-1.5-.729,3.426,3.426,0,0,1-.532-2.048,7.34,7.34,0,0,1,.593-2.9,5.373,5.373,0,0,1,1.63-2.2,3.68,3.68,0,0,1,2.312-.8,4.285,4.285,0,0,1,1.068.127A3.733,3.733,0,0,1,126.94-7.972Zm-.773,2.619a5.547,5.547,0,0,0,.105-.624q.026-.264.026-.571a1.437,1.437,0,0,0-.29-.993,1.289,1.289,0,0,0-.984-.316,2.233,2.233,0,0,0-1.626.729,4.924,4.924,0,0,0-1.125,1.956,7.777,7.777,0,0,0-.4,2.448,2.909,2.909,0,0,0,.25,1.367.882.882,0,0,0,.839.453,1.7,1.7,0,0,0,1.138-.5,6.972,6.972,0,0,0,1.151-1.428,6.229,6.229,0,0,0,.839-2.14Zm7.154-.932A7.324,7.324,0,0,1,134.978-8a2.829,2.829,0,0,1,1.613-.545,5,5,0,0,1,1.072.1l-.422,1.969h-.905a2.034,2.034,0,0,0-.149-.571.633.633,0,0,0-.229-.281.641.641,0,0,0-.334-.079,1.2,1.2,0,0,0-.69.272,4.722,4.722,0,0,0-.839.853,6.756,6.756,0,0,0-.743,1.116,5.713,5.713,0,0,0-.461,1.362L132.056,0h-1.521l1.274-5.572a8.229,8.229,0,0,0,.158-.817A4.147,4.147,0,0,0,132-6.873a.886.886,0,0,0-.114-.51.414.414,0,0,0-.36-.158.983.983,0,0,0-.576.224,6.308,6.308,0,0,0-.831.813l-.5-.492a8.449,8.449,0,0,1,1.354-1.2,2.156,2.156,0,0,1,1.2-.356,1.1,1.1,0,0,1,.875.365,1.391,1.391,0,0,1,.321.954,2.675,2.675,0,0,1-.167.905Zm15.293,4.043a7.75,7.75,0,0,1-1.6,1.8,2.61,2.61,0,0,1-1.6.571,1.746,1.746,0,0,1-1.5-.729,3.426,3.426,0,0,1-.532-2.048,7.34,7.34,0,0,1,.593-2.9,5.373,5.373,0,0,1,1.63-2.2,3.68,3.68,0,0,1,2.312-.8,4.189,4.189,0,0,1,.989.11,3.555,3.555,0,0,1,.927.382l.457-2.03q.07-.29.123-.642a4.215,4.215,0,0,0,.053-.615.689.689,0,0,0-.1-.4.542.542,0,0,0-.277-.2,2.776,2.776,0,0,0-.646-.088l.105-.457,2.206-.079h.519l-2.188,9.729a6.516,6.516,0,0,0-.193,1.3.886.886,0,0,0,.114.51.414.414,0,0,0,.36.158.978.978,0,0,0,.563-.215,6.176,6.176,0,0,0,.844-.822l.5.492a7.863,7.863,0,0,1-1.362,1.2,2.189,2.189,0,0,1-1.2.352,1.114,1.114,0,0,1-.87-.36,1.376,1.376,0,0,1-.325-.958,2.962,2.962,0,0,1,.2-1.028Zm.589-3.111a5.871,5.871,0,0,0,.132-1.2,1.434,1.434,0,0,0-.29-1,1.273,1.273,0,0,0-.967-.312,2.2,2.2,0,0,0-1.608.725,4.983,4.983,0,0,0-1.121,1.956,7.741,7.741,0,0,0-.409,2.452,2.909,2.909,0,0,0,.25,1.367.882.882,0,0,0,.839.453,1.417,1.417,0,0,0,.554-.119,2.234,2.234,0,0,0,.584-.382,4.561,4.561,0,0,0,.6-.642q.294-.378.541-.76a5.422,5.422,0,0,0,.457-.905,7.248,7.248,0,0,0,.36-1.261Zm11.048,3.6a6.681,6.681,0,0,1-1.727,1.415,4.2,4.2,0,0,1-2.035.475,2.515,2.515,0,0,1-1.973-.778,3.127,3.127,0,0,1-.7-2.167,6.746,6.746,0,0,1,.338-2.017,5.894,5.894,0,0,1,1.024-1.934,4.786,4.786,0,0,1,1.644-1.327,4.567,4.567,0,0,1,2.039-.47,2.5,2.5,0,0,1,1.6.431,1.629,1.629,0,0,1,.532,1.345,2.4,2.4,0,0,1-1.4,2.241,9.106,9.106,0,0,1-4.162.747,5.828,5.828,0,0,0-.105,1.143,2.032,2.032,0,0,0,.36,1.34,1.48,1.48,0,0,0,1.178.417,3.044,3.044,0,0,0,1.463-.352,6.114,6.114,0,0,0,1.384-1.081Zm-4.676-2.786a9.416,9.416,0,0,0,2.127-.224,2.846,2.846,0,0,0,1.362-.686,1.707,1.707,0,0,0,.475-1.27,1.281,1.281,0,0,0-.25-.839.908.908,0,0,0-.743-.3,2.345,2.345,0,0,0-1.709.9A5.972,5.972,0,0,0,155.575-4.535Zm13.764-5.555q.105-.466.149-.743a3.294,3.294,0,0,0,.044-.514.689.689,0,0,0-.1-.4.542.542,0,0,0-.277-.2,2.776,2.776,0,0,0-.646-.088l.105-.457,2.215-.079h.519l-2.162,9.729a6.633,6.633,0,0,0-.193,1.3.886.886,0,0,0,.114.51.414.414,0,0,0,.36.158.978.978,0,0,0,.563-.215,6.176,6.176,0,0,0,.844-.822l.5.492a7.666,7.666,0,0,1-1.393,1.226,2.275,2.275,0,0,1-1.208.33,1.123,1.123,0,0,1-.914-.417,1.628,1.628,0,0,1-.343-1.068,8.612,8.612,0,0,1,.246-1.705Zm10.2,2.118.809-.58.563.141-1.292,5.572a6.189,6.189,0,0,0-.193,1.3.886.886,0,0,0,.114.51.414.414,0,0,0,.36.158.978.978,0,0,0,.563-.215,6.176,6.176,0,0,0,.844-.822l.5.492a7.649,7.649,0,0,1-1.349,1.2,2.205,2.205,0,0,1-1.208.356,1.114,1.114,0,0,1-.87-.36,1.376,1.376,0,0,1-.325-.958,2.962,2.962,0,0,1,.2-1.028l-.114-.035a7.75,7.75,0,0,1-1.6,1.8,2.61,2.61,0,0,1-1.6.571,1.746,1.746,0,0,1-1.5-.729,3.426,3.426,0,0,1-.532-2.048,7.34,7.34,0,0,1,.593-2.9,5.373,5.373,0,0,1,1.63-2.2,3.68,3.68,0,0,1,2.312-.8,4.285,4.285,0,0,1,1.068.127A3.733,3.733,0,0,1,179.543-7.972Zm-.773,2.619a5.547,5.547,0,0,0,.105-.624q.026-.264.026-.571a1.437,1.437,0,0,0-.29-.993,1.289,1.289,0,0,0-.984-.316A2.233,2.233,0,0,0,176-7.128a4.924,4.924,0,0,0-1.125,1.956,7.777,7.777,0,0,0-.4,2.448,2.909,2.909,0,0,0,.25,1.367.882.882,0,0,0,.839.453,1.7,1.7,0,0,0,1.138-.5,6.972,6.972,0,0,0,1.151-1.428,6.229,6.229,0,0,0,.839-2.14Zm10.143-.193a6.217,6.217,0,0,0,.185-1.327.886.886,0,0,0-.114-.51.414.414,0,0,0-.36-.158.983.983,0,0,0-.576.224,6.308,6.308,0,0,0-.831.813l-.5-.492a8.58,8.58,0,0,1,1.34-1.191,2.154,2.154,0,0,1,1.217-.365,1.1,1.1,0,0,1,.866.36,1.387,1.387,0,0,1,.321.958,2.982,2.982,0,0,1-.2,1.037l.105.035q1.626-2.382,3.234-2.382a1.738,1.738,0,0,1,1.49.729,3.443,3.443,0,0,1,.532,2.057,7.35,7.35,0,0,1-.584,2.852,5.434,5.434,0,0,1-1.622,2.224,3.643,3.643,0,0,1-2.32.822,3.459,3.459,0,0,1-1.942-.51l-.4,1.925a5.173,5.173,0,0,0-.132,1.028.674.674,0,0,0,.2.549,1.506,1.506,0,0,0,.769.215l-.07.431h-2.716Zm.888,2.487q-.088.466-.11.712t-.022.483a1.419,1.419,0,0,0,.294,1,1.357,1.357,0,0,0,1.015.312,1.935,1.935,0,0,0,.826-.176,2.562,2.562,0,0,0,.716-.51,3.751,3.751,0,0,0,.611-.809,6.354,6.354,0,0,0,.488-1.1,8.019,8.019,0,0,0,.325-1.292,7.636,7.636,0,0,0,.11-1.244,2.847,2.847,0,0,0-.259-1.375.878.878,0,0,0-.822-.453,1.532,1.532,0,0,0-.883.3,4.687,4.687,0,0,0-.954.971,6.455,6.455,0,0,0-.809,1.318,7.012,7.012,0,0,0-.457,1.494Zm10.644-3.226A7.324,7.324,0,0,1,202.1-8a2.829,2.829,0,0,1,1.613-.545,5,5,0,0,1,1.072.1l-.422,1.969h-.905a2.034,2.034,0,0,0-.149-.571.633.633,0,0,0-.229-.281.641.641,0,0,0-.334-.079,1.2,1.2,0,0,0-.69.272,4.722,4.722,0,0,0-.839.853,6.756,6.756,0,0,0-.743,1.116,5.713,5.713,0,0,0-.461,1.362L199.178,0h-1.521l1.274-5.572a8.229,8.229,0,0,0,.158-.817,4.147,4.147,0,0,0,.035-.483.886.886,0,0,0-.114-.51.414.414,0,0,0-.36-.158.983.983,0,0,0-.576.224,6.308,6.308,0,0,0-.831.813l-.5-.492A8.449,8.449,0,0,1,198.1-8.2a2.156,2.156,0,0,1,1.2-.356,1.1,1.1,0,0,1,.875.365,1.391,1.391,0,0,1,.321.954,2.675,2.675,0,0,1-.167.905Zm12.015,4.535a6.681,6.681,0,0,1-1.727,1.415A4.2,4.2,0,0,1,208.7.141a2.515,2.515,0,0,1-1.973-.778,3.127,3.127,0,0,1-.7-2.167,6.746,6.746,0,0,1,.338-2.017,5.894,5.894,0,0,1,1.024-1.934,4.786,4.786,0,0,1,1.644-1.327,4.567,4.567,0,0,1,2.039-.47,2.5,2.5,0,0,1,1.6.431,1.629,1.629,0,0,1,.532,1.345,2.4,2.4,0,0,1-1.4,2.241,9.106,9.106,0,0,1-4.162.747,5.828,5.828,0,0,0-.105,1.143,2.032,2.032,0,0,0,.36,1.34,1.48,1.48,0,0,0,1.178.417,3.044,3.044,0,0,0,1.463-.352,6.114,6.114,0,0,0,1.384-1.081Zm-4.676-2.786a9.416,9.416,0,0,0,2.127-.224,2.846,2.846,0,0,0,1.362-.686,1.707,1.707,0,0,0,.475-1.27,1.281,1.281,0,0,0-.25-.839.908.908,0,0,0-.743-.3,2.345,2.345,0,0,0-1.709.9A5.972,5.972,0,0,0,207.782-4.535Zm8.648-1.037a6.3,6.3,0,0,0,.193-1.3.886.886,0,0,0-.114-.51.414.414,0,0,0-.36-.158.983.983,0,0,0-.576.224,6.308,6.308,0,0,0-.831.813l-.5-.492a8.725,8.725,0,0,1,1.345-1.2,2.143,2.143,0,0,1,1.213-.356,1.1,1.1,0,0,1,.875.365,1.391,1.391,0,0,1,.321.954,3.025,3.025,0,0,1-.211,1.037l.105.035a8.131,8.131,0,0,1,1.639-1.8,2.642,2.642,0,0,1,1.6-.584,1.636,1.636,0,0,1,1.257.47,1.837,1.837,0,0,1,.439,1.305,7.017,7.017,0,0,1-.255,1.573L222-2.892a6.607,6.607,0,0,0-.237,1.354.886.886,0,0,0,.114.51.414.414,0,0,0,.36.158.978.978,0,0,0,.563-.215,6.176,6.176,0,0,0,.844-.822l.5.492a7.951,7.951,0,0,1-1.318,1.182,2.266,2.266,0,0,1-1.283.374,1.133,1.133,0,0,1-.914-.409,1.565,1.565,0,0,1-.343-1.042,7.271,7.271,0,0,1,.29-1.679l.387-1.521q.211-.826.277-1.222a4.081,4.081,0,0,0,.066-.642,1.474,1.474,0,0,0-.2-.875.772.772,0,0,0-.659-.268,1.424,1.424,0,0,0-.8.294,4.535,4.535,0,0,0-.905.888,6.967,6.967,0,0,0-.769,1.151,5.738,5.738,0,0,0-.475,1.375L216.668,0h-1.521Zm14.08,3.331a7.75,7.75,0,0,1-1.6,1.8,2.61,2.61,0,0,1-1.6.571,1.746,1.746,0,0,1-1.5-.729,3.426,3.426,0,0,1-.532-2.048,7.34,7.34,0,0,1,.593-2.9,5.373,5.373,0,0,1,1.63-2.2,3.68,3.68,0,0,1,2.312-.8,4.189,4.189,0,0,1,.989.11,3.555,3.555,0,0,1,.927.382l.457-2.03q.07-.29.123-.642a4.215,4.215,0,0,0,.053-.615.689.689,0,0,0-.1-.4.542.542,0,0,0-.277-.2,2.776,2.776,0,0,0-.646-.088l.105-.457,2.206-.079h.519l-2.188,9.729a6.516,6.516,0,0,0-.193,1.3.886.886,0,0,0,.114.51.414.414,0,0,0,.36.158.978.978,0,0,0,.563-.215,6.176,6.176,0,0,0,.844-.822l.5.492a7.863,7.863,0,0,1-1.362,1.2,2.189,2.189,0,0,1-1.2.352,1.114,1.114,0,0,1-.87-.36,1.376,1.376,0,0,1-.325-.958,2.962,2.962,0,0,1,.2-1.028Zm.589-3.111a5.871,5.871,0,0,0,.132-1.2,1.434,1.434,0,0,0-.29-1,1.273,1.273,0,0,0-.967-.312,2.2,2.2,0,0,0-1.608.725,4.983,4.983,0,0,0-1.121,1.956,7.741,7.741,0,0,0-.409,2.452,2.909,2.909,0,0,0,.25,1.367.882.882,0,0,0,.839.453,1.417,1.417,0,0,0,.554-.119,2.234,2.234,0,0,0,.584-.382,4.561,4.561,0,0,0,.6-.642q.294-.378.541-.76a5.422,5.422,0,0,0,.457-.905,7.248,7.248,0,0,0,.36-1.261Zm11.241-2.619.809-.58.563.141L242.42-2.839a6.189,6.189,0,0,0-.193,1.3.886.886,0,0,0,.114.51.414.414,0,0,0,.36.158.978.978,0,0,0,.563-.215,6.176,6.176,0,0,0,.844-.822l.5.492a7.649,7.649,0,0,1-1.349,1.2,2.205,2.205,0,0,1-1.208.356,1.114,1.114,0,0,1-.87-.36,1.376,1.376,0,0,1-.325-.958,2.962,2.962,0,0,1,.2-1.028l-.114-.035a7.75,7.75,0,0,1-1.6,1.8,2.61,2.61,0,0,1-1.6.571,1.746,1.746,0,0,1-1.5-.729,3.426,3.426,0,0,1-.532-2.048,7.34,7.34,0,0,1,.593-2.9,5.373,5.373,0,0,1,1.63-2.2,3.68,3.68,0,0,1,2.312-.8,4.285,4.285,0,0,1,1.068.127A3.733,3.733,0,0,1,242.341-7.972Zm-.773,2.619a5.547,5.547,0,0,0,.105-.624q.026-.264.026-.571a1.437,1.437,0,0,0-.29-.993,1.289,1.289,0,0,0-.984-.316,2.233,2.233,0,0,0-1.626.729,4.924,4.924,0,0,0-1.125,1.956,7.777,7.777,0,0,0-.4,2.448,2.909,2.909,0,0,0,.25,1.367.882.882,0,0,0,.839.453,1.7,1.7,0,0,0,1.138-.5,6.972,6.972,0,0,0,1.151-1.428,6.229,6.229,0,0,0,.839-2.14Z" transform="translate(-3496 -6830)" fill="#fff"/>
  </g>
</svg>
