<svg xmlns="http://www.w3.org/2000/svg" width="59" height="59" viewBox="0 0 59 59">
  <g id="i1" transform="translate(-290 -3871)">
    <circle id="Elipse_4589" data-name="Elipse 4589" cx="29.5" cy="29.5" r="29.5" transform="translate(290 3871)" fill="#1448d3"/>
    <g id="la-maquina-de-coser" transform="translate(306.809 3886.714)">
      <path id="Trazado_726399" data-name="Trazado 726399" d="M6.5,102.234H3.117a2.082,2.082,0,0,1-2.079-2.079v-3.28H3.877V98.2a.519.519,0,0,0,.519.519h6.532a.519.519,0,0,0,.519-.519V96.875h7.3a.519.519,0,1,0,0-1.038H8.058V93.25h.582a1.3,1.3,0,0,0,1.3-1.3v-.948h.118a2.726,2.726,0,0,0,2.629-2.017l.612-2.283a1.21,1.21,0,0,1,1.167-.9h8.065a1.03,1.03,0,0,1,1.029,1.029v7.968a1.03,1.03,0,0,1-1.029,1.029h-1.7a.519.519,0,1,0,0,1.038h1.7a2.07,2.07,0,0,0,2.067-2.067V86.839a2.07,2.07,0,0,0-2.067-2.067H14.461a2.25,2.25,0,0,0-2.17,1.664l-.612,2.283a1.686,1.686,0,0,1-1.626,1.247H4.89a1.555,1.555,0,0,1-1.548-1.7l.745-7.816a3.068,3.068,0,0,1,3.066-2.788h3.538a.519.519,0,1,0,0-1.038H8.182V75.354a.519.519,0,1,0-1.038,0v1.269a4.1,4.1,0,0,0-4.09,3.727l-.745,7.816A2.593,2.593,0,0,0,4.89,91.005h.251v.948a1.3,1.3,0,0,0,1.3,1.3h.582v2.587H.519A.519.519,0,0,0,0,96.356v3.8a3.121,3.121,0,0,0,3.117,3.117H6.5a.519.519,0,0,0,0-1.038ZM6.179,91.953v-.948H8.9v.948a.259.259,0,0,1-.258.258h-2.2A.259.259,0,0,1,6.179,91.953Zm4.23,5.727H4.916v-.805H10.41Z" transform="translate(0 -71.23)" fill="#fff"/>
      <path id="Trazado_726400" data-name="Trazado 726400" d="M139.441,28.143H138.9V24.471a.519.519,0,0,0-.519-.519h-.962V23.27a.519.519,0,0,0-1.038,0v.681h-.959a.519.519,0,0,0-.519.519v3.673H121.136a.519.519,0,0,0,0,1.038h18.305a3.083,3.083,0,0,1,3.08,3.08V51.675a2.082,2.082,0,0,1-2.079,2.079h-23.5a.519.519,0,1,0,0,1.038h23.5a3.121,3.121,0,0,0,3.117-3.117V32.261A4.123,4.123,0,0,0,139.441,28.143Zm-3.506-3.154h1.922v3.154h-1.922Z" transform="translate(-108.368 -22.751)" fill="#fff"/>
      <path id="Trazado_726401" data-name="Trazado 726401" d="M392.079,216.845a2.55,2.55,0,1,0,2.55,2.55A2.553,2.553,0,0,0,392.079,216.845Zm0,4.062a1.512,1.512,0,1,1,1.512-1.512A1.514,1.514,0,0,1,392.079,220.907Z" transform="translate(-362.571 -203.412)" fill="#fff"/>
      <path id="Trazado_726402" data-name="Trazado 726402" d="M269.144,159.032a.519.519,0,0,0,0-1.038h-1.567a.519.519,0,0,0,0,1.038Z" transform="translate(-248.576 -148.634)" fill="#fff"/>
      <path id="Trazado_726403" data-name="Trazado 726403" d="M333.286,157.994h-8.123a.519.519,0,0,0,0,1.038h8.123a.519.519,0,1,0,0-1.038Z" transform="translate(-302.176 -148.634)" fill="#fff"/>
    </g>
    <g id="Layer_37" data-name="Layer 37" transform="translate(295.103 3881.736)">
      <path id="Trazado_726404" data-name="Trazado 726404" d="M39.964,9.968A3.484,3.484,0,1,0,36.48,6.484a3.484,3.484,0,0,0,3.484,3.484Zm0-5.945A2.461,2.461,0,1,1,37.5,6.484a2.461,2.461,0,0,1,2.461-2.461Z" transform="translate(-34.085 -3)" fill="#fff"/>
      <path id="Trazado_726405" data-name="Trazado 726405" d="M36.046,32.93H29.9a2.784,2.784,0,0,0-2.781,2.781V41.4a1.573,1.573,0,0,0,1.571,1.571h.8v4.375a1.974,1.974,0,0,0,1.972,1.972h3.024a1.974,1.974,0,0,0,1.972-1.972V42.974h.8A1.573,1.573,0,0,0,38.827,41.4V35.711a2.784,2.784,0,0,0-2.781-2.781ZM37.8,41.4a.548.548,0,0,1-.547.547h-1.31a.512.512,0,0,0-.512.512v4.886a.95.95,0,0,1-.949.949H31.461a.95.95,0,0,1-.949-.949V42.462A.512.512,0,0,0,30,41.95h-1.31a.548.548,0,0,1-.547-.547V35.711A1.76,1.76,0,0,1,29.9,33.953h6.145A1.76,1.76,0,0,1,37.8,35.711Z" transform="translate(-27.12 -25.273)" fill="#fff"/>
    </g>
  </g>
</svg>
