<svg xmlns="http://www.w3.org/2000/svg" xmlns:xlink="http://www.w3.org/1999/xlink" width="59" height="59" viewBox="0 0 59 59">
  <defs>
    <clipPath id="clip-path">
      <path id="path4059" d="M0-682.665H39.209v39.209H0Z" transform="translate(0 682.665)"/>
    </clipPath>
  </defs>
  <g id="i3" transform="translate(-921 -3871)">
    <circle id="Elipse_4591" data-name="Elipse 4591" cx="29.5" cy="29.5" r="29.5" transform="translate(921 3871)" fill="#1448d3"/>
    <g id="g4053" transform="translate(933 4562.665)">
      <g id="g4055" transform="translate(0 -682.665)">
        <g id="g4057" clip-path="url(#clip-path)">
          <g id="g4063" transform="translate(9.747 11.097)">
            <path id="path4065" d="M0-27.227l1.259,1.119a.484.484,0,0,0,.718-.084l1.884-2.694" transform="translate(0 28.887)" fill="none" stroke="#fff" stroke-linecap="round" stroke-linejoin="round" stroke-miterlimit="10" stroke-width="1.2"/>
          </g>
          <g id="g4067" transform="translate(9.747 19.487)">
            <path id="path4069" d="M0-27.227l1.259,1.119a.484.484,0,0,0,.718-.084l1.884-2.694" transform="translate(0 28.887)" fill="none" stroke="#fff" stroke-linecap="round" stroke-linejoin="round" stroke-miterlimit="10" stroke-width="1.2"/>
          </g>
          <g id="g4071" transform="translate(9.747 27.765)">
            <path id="path4073" d="M0-27.227l1.259,1.119a.484.484,0,0,0,.718-.084l1.884-2.694" transform="translate(0 28.887)" fill="none" stroke="#fff" stroke-linecap="round" stroke-linejoin="round" stroke-miterlimit="10" stroke-width="1.2"/>
          </g>
          <g id="g4075" transform="translate(16.939 11.399)">
            <path id="path4077" d="M0,0H8.117" fill="none" stroke="#fff" stroke-linecap="round" stroke-linejoin="round" stroke-miterlimit="10" stroke-width="1.2"/>
          </g>
          <g id="g4079" transform="translate(16.939 13.951)">
            <path id="path4081" d="M0,0H8.117" fill="none" stroke="#fff" stroke-linecap="round" stroke-linejoin="round" stroke-miterlimit="10" stroke-width="1.2"/>
          </g>
          <g id="g4083" transform="translate(16.939 19.605)">
            <path id="path4085" d="M0,0H8.117" fill="none" stroke="#fff" stroke-linecap="round" stroke-linejoin="round" stroke-miterlimit="10" stroke-width="1.2"/>
          </g>
          <g id="g4087" transform="translate(16.939 22.157)">
            <path id="path4089" d="M0,0H4.058" fill="none" stroke="#fff" stroke-linecap="round" stroke-linejoin="round" stroke-miterlimit="10" stroke-width="1.2"/>
          </g>
          <g id="g4091" transform="translate(23.758 5.135)">
            <path id="path4093" d="M-125.949-97.324v-4.667a1.263,1.263,0,0,0-1.263-1.263h-6.412" transform="translate(133.624 103.254)" fill="none" stroke="#fff" stroke-linecap="round" stroke-linejoin="round" stroke-miterlimit="10" stroke-width="1.2"/>
          </g>
          <g id="g4095" transform="translate(3.369 5.135)">
            <path id="path4097" d="M-125.949,0h-6.412a1.263,1.263,0,0,0-1.263,1.263V32.236a1.263,1.263,0,0,0,1.263,1.263h25.537a1.263,1.263,0,0,0,1.263-1.263V17.6" transform="translate(133.624)" fill="none" stroke="#fff" stroke-linecap="round" stroke-linejoin="round" stroke-miterlimit="10" stroke-width="1.2"/>
          </g>
          <g id="g4099" transform="translate(11.044 0.574)">
            <path id="path4101" d="M-145.383-29.727h0a1.811,1.811,0,0,0-1.811-1.811h-1.381a1.811,1.811,0,0,0-1.811,1.811.919.919,0,0,1-.919.919h-1.105a1.831,1.831,0,0,0-1.831,1.831v.962a.869.869,0,0,0,.869.869H-142.4a.869.869,0,0,0,.869-.869v-.962a1.831,1.831,0,0,0-1.831-1.831h-1.105A.919.919,0,0,1-145.383-29.727Z" transform="translate(154.242 31.539)" fill="none" stroke="#fff" stroke-linecap="round" stroke-linejoin="round" stroke-miterlimit="10" stroke-width="1.2"/>
          </g>
          <g id="g4103" transform="translate(6.104 5.135)">
            <path id="path4105" d="M0,0V29.57a.833.833,0,0,0,.833.833H9.384" fill="none" stroke="#fff" stroke-linecap="round" stroke-linejoin="round" stroke-miterlimit="10" stroke-width="1.2"/>
          </g>
          <g id="g4107" transform="translate(28.699 5.135)">
            <path id="path4109" d="M0-153.447v-9.35" transform="translate(0 162.797)" fill="none" stroke="#fff" stroke-linecap="round" stroke-linejoin="round" stroke-miterlimit="10" stroke-width="1.2"/>
          </g>
          <g id="g4111" transform="translate(17.935 26.143)">
            <path id="path4113" d="M-39.129-153.909l-2.384.017h9.93a.833.833,0,0,0,.833-.833v-8.563" transform="translate(41.513 163.288)" fill="none" stroke="#fff" stroke-linecap="round" stroke-linejoin="round" stroke-miterlimit="10" stroke-width="1.2"/>
          </g>
          <g id="g4115" transform="translate(15.404 15.135)">
            <path id="path4117" d="M-249.217,0l-13.031,16.258-2.071,4.159a.8.8,0,0,0,.216.984.8.8,0,0,0,1.007,0l3.609-2.927,13.031-16.258" transform="translate(264.403)" fill="none" stroke="#fff" stroke-linecap="round" stroke-linejoin="round" stroke-miterlimit="10" stroke-width="1.2"/>
          </g>
          <g id="g4119" transform="translate(17.577 31.371)">
            <path id="path4121" d="M-45.553-36.511l-2.776-2.225" transform="translate(48.329 38.736)" fill="none" stroke="#fff" stroke-linecap="round" stroke-linejoin="round" stroke-miterlimit="10" stroke-width="1.2"/>
          </g>
          <g id="g4123" transform="translate(30.59 11.851)">
            <path id="path4125" d="M-75.283-6.379h0a1.769,1.769,0,0,0-2.487.274l-2.1,2.621,2.761,2.212,2.1-2.621A1.769,1.769,0,0,0-75.283-6.379Z" transform="translate(79.87 6.768)" fill="none" stroke="#fff" stroke-linecap="round" stroke-linejoin="round" stroke-miterlimit="10" stroke-width="1.2"/>
          </g>
        </g>
      </g>
    </g>
  </g>
</svg>
