<svg xmlns="http://www.w3.org/2000/svg" width="610" height="341" viewBox="0 0 610 341">
  <g id="Grupo_957601" data-name="Grupo 957601" transform="translate(-810 -392)">
    <g id="Grupo_957600" data-name="Grupo 957600" transform="translate(318.703 -527.231)">
      <path id="Trazado_116519" data-name="Trazado 116519" d="M2054.192,1060.394h0a1.241,1.241,0,0,1-1.24-1.241v-53.826a1.241,1.241,0,0,1,1.24-1.241h0a1.241,1.241,0,0,1,1.241,1.241v53.826A1.241,1.241,0,0,1,2054.192,1060.394Z" transform="translate(-1086.991 -47.953)" fill="#33353a"/>
      <g id="Grupo_78265" data-name="Grupo 78265" transform="translate(683.607 937.613)">
        <g id="Grupo_78254" data-name="Grupo 78254" transform="translate(0 25.316)">
          <g id="Grupo_78244" data-name="Grupo 78244" transform="translate(59.186 186.135)">
            <path id="Trazado_116520" data-name="Trazado 116520" d="M1254.617,1703.339a3.071,3.071,0,0,1-1.726-.528,1.849,1.849,0,0,1-.6-2.615,10.19,10.19,0,0,0,1.184-3.656l.363.024a10.263,10.263,0,0,1-1.219,3.759,1.576,1.576,0,0,0,.511,2.262,2.531,2.531,0,0,0,2.59.185l.209.242A2.657,2.657,0,0,1,1254.617,1703.339Z" transform="translate(-1251.977 -1696.54)" fill="#e7728c"/>
          </g>
          <path id="Trazado_116521" data-name="Trazado 116521" d="M1367.513,1239.734V1429.68a13.457,13.457,0,0,1-13.459,13.457H1053.274a13.63,13.63,0,0,1-13.655-12.082c-.035-.339-.057-.681-.065-1.028,0-.117-.006-.231-.006-.348v-46.406c0-.361.016-.719.044-1.074a13.8,13.8,0,0,1,10.448-4.737H1234.5a16.892,16.892,0,0,0,16.823-14.311,16.382,16.382,0,0,0,.168-2.355v-43.319a15.481,15.481,0,0,0-.917-5.263,16.086,16.086,0,0,0-15.179-10.526h-65.648c-14.173,0-26.566,9.838-33.289,22.578a46.713,46.713,0,0,0-4.313,11.6,6.9,6.9,0,0,1-4.192,1.405h-58.761a11.293,11.293,0,0,1-11.4-11.178v-85.827a17.759,17.759,0,0,1,.258-3.031,18.833,18.833,0,0,1,15.258-7.7h279.227a18.282,18.282,0,0,1,14.764,7.412A17.77,17.77,0,0,1,1367.513,1239.734Z" transform="translate(-1039.549 -1173.517)" fill="#eeb27a"/>
          <path id="Trazado_116522" data-name="Trazado 116522" d="M1367.513,1219.925v189.945a13.458,13.458,0,0,1-13.459,13.457H1053.011a13.46,13.46,0,0,1-13.392-12.082c-.035-.339-.057-.681-.065-1.028,0-.117-.006-.231-.006-.348v-46.406c0-.361.016-.719.044-1.074a13.455,13.455,0,0,1,13.418-12.385h180.9a16.668,16.668,0,0,0,16.667-16.666v-43.322a15.787,15.787,0,0,0-15.787-15.79H1170.4c-16.579,0-30.677,14-35.815,30.229a45.351,45.351,0,0,0-1.652,7.157,6.864,6.864,0,0,1-2.58,4.447,6.679,6.679,0,0,1-4.108,1.405h-57.63a11.179,11.179,0,0,1-11.178-11.178V1220.46a18.372,18.372,0,0,1,18.384-18.384h273.841a17.837,17.837,0,0,1,17.849,17.849Z" transform="translate(-1039.549 -1153.708)" fill="#fcf1e3"/>
          <rect id="Rectángulo_8838" data-name="Rectángulo 8838" width="6.377" height="22.523" transform="translate(59.662 163.627)" fill="#33353a"/>
          <rect id="Rectángulo_8839" data-name="Rectángulo 8839" width="7.47" height="4.008" transform="translate(66.039 169.039)" fill="#33353a"/>
          <path id="Trazado_116523" data-name="Trazado 116523" d="M1300.654,1632.617a3.767,3.767,0,1,1,3.767,3.767A3.767,3.767,0,0,1,1300.654,1632.617Z" transform="translate(-1227.905 -1461.575)" fill="#33353a"/>
          <rect id="Rectángulo_8840" data-name="Rectángulo 8840" width="4.191" height="3.302" transform="translate(56.383 178.764)" fill="#33353a"/>
          <rect id="Rectángulo_8841" data-name="Rectángulo 8841" width="9.717" height="6.316" transform="translate(71.657 41.922)" fill="#33353a"/>
          <path id="Trazado_116524" data-name="Trazado 116524" d="M2032.812,1072.7h-21.493a3.68,3.68,0,0,1-3.676-3.89l.35-6.029,0-.057.236-4.064.654-11.327.209-3.568.5-8.657.185-3.163a3.678,3.678,0,0,1,3.671-3.467h16.856a3.638,3.638,0,0,1,1.66.4,3.691,3.691,0,0,1,2.013,3.033l.174,2.539.5,7.309.079,1.153.817,12.032.654,9.626.288,4.205A3.681,3.681,0,0,1,2032.812,1072.7Z" transform="translate(-1737.909 -1028.476)" fill="#e7728c"/>
          <g id="Grupo_78245" data-name="Grupo 78245" transform="translate(62.547 48.125)" opacity="0.3">
            <path id="Trazado_116525" data-name="Trazado 116525" d="M1278.312,1301.1H1264.04v-99.786h.607V1300.5h13.058V1201.2h.607Z" transform="translate(-1264.04 -1201.202)" fill="#33353a"/>
          </g>
          <path id="Rectángulo_8842" data-name="Rectángulo 8842" d="M0,0H0A13.725,13.725,0,0,1,13.725,13.725V40.011A13.725,13.725,0,0,1,0,53.736H0a0,0,0,0,1,0,0V0A0,0,0,0,1,0,0Z" transform="translate(327.965 76.346)" fill="#e24770"/>
          <rect id="Rectángulo_8843" data-name="Rectángulo 8843" width="45.429" height="1.073" transform="translate(39.316 195.094)" fill="#33353a"/>
          <path id="Trazado_116526" data-name="Trazado 116526" d="M1253.807,1238.537l-4.373-5.1v-31.824h4.373Z" transform="translate(-1190.956 -1153.372)" fill="#33353a"/>
          <g id="Grupo_78246" data-name="Grupo 78246" transform="translate(62.547 147.721)" opacity="0.3">
            <rect id="Rectángulo_8844" data-name="Rectángulo 8844" width="0.607" height="15.906" fill="#33353a"/>
          </g>
          <g id="Grupo_78247" data-name="Grupo 78247" transform="translate(0.001 255.727)" opacity="0.3">
            <rect id="Rectángulo_8845" data-name="Rectángulo 8845" width="327.964" height="0.607" fill="#33353a"/>
          </g>
          <g id="Grupo_78248" data-name="Grupo 78248" transform="translate(93.491 61.843)">
            <path id="Trazado_116527" data-name="Trazado 116527" d="M1375.1,1252.868a2.429,2.429,0,1,1,2.429,2.429A2.429,2.429,0,0,1,1375.1,1252.868Z" transform="translate(-1375.102 -1250.439)" fill="#33353a"/>
            <path id="Trazado_116528" data-name="Trazado 116528" d="M1409.325,1252.868a2.429,2.429,0,1,1,2.429,2.429A2.429,2.429,0,0,1,1409.325,1252.868Z" transform="translate(-1399.79 -1250.439)" fill="#33353a"/>
            <path id="Trazado_116529" data-name="Trazado 116529" d="M1443.548,1252.868a2.429,2.429,0,1,1,2.429,2.429A2.429,2.429,0,0,1,1443.548,1252.868Z" transform="translate(-1424.478 -1250.439)" fill="#33353a"/>
          </g>
          <rect id="Rectángulo_8846" data-name="Rectángulo 8846" width="1.579" height="8.503" transform="translate(75.757 35.667)" fill="#33353a"/>
          <path id="Trazado_116530" data-name="Trazado 116530" d="M1264.33,1705.537h-.149l-.5-8.944h1.167Z" transform="translate(-1201.235 -1510.443)" fill="#33353a"/>
          <path id="Trazado_116531" data-name="Trazado 116531" d="M1270.913,1705.537h-.149l-.5-8.944h1.167Z" transform="translate(-1205.985 -1510.443)" fill="#33353a"/>
          <g id="Grupo_78249" data-name="Grupo 78249" transform="translate(61.057 193.468)">
            <path id="Trazado_116532" data-name="Trazado 116532" d="M1263.185,1724.484h-3.346a1.2,1.2,0,0,1-1.149-1.251.346.346,0,1,1,.689,0,.482.482,0,0,0,.459.5h3.346a.482.482,0,0,0,.459-.5.346.346,0,1,1,.689,0A1.2,1.2,0,0,1,1263.185,1724.484Z" transform="translate(-1258.69 -1722.858)" fill="#33353a"/>
          </g>
          <g id="Grupo_78253" data-name="Grupo 78253" transform="translate(266.22 180.418)">
            <g id="Grupo_78251" data-name="Grupo 78251" transform="translate(0 12.91)">
              <path id="Trazado_116533" data-name="Trazado 116533" d="M2011.316,1732.786h-10.51a4.683,4.683,0,0,1-4.669-4.669h0a4.683,4.683,0,0,1,4.669-4.669h10.51a4.683,4.683,0,0,1,4.669,4.669h0A4.683,4.683,0,0,1,2011.316,1732.786Z" transform="translate(-1995.833 -1723.145)" fill="#e7728c"/>
              <g id="Grupo_78250" data-name="Grupo 78250">
                <path id="Trazado_116534" data-name="Trazado 116534" d="M2031.725,1732.3h-31.819a4.864,4.864,0,0,1-4.859-4.859v-.228a4.864,4.864,0,0,1,4.859-4.859h31.819a4.864,4.864,0,0,1,4.859,4.859v.228A4.864,4.864,0,0,1,2031.725,1732.3Zm-31.819-9.339a4.257,4.257,0,0,0-4.252,4.252v.228a4.257,4.257,0,0,0,4.252,4.252h31.819a4.257,4.257,0,0,0,4.252-4.252v-.228a4.257,4.257,0,0,0-4.252-4.252Z" transform="translate(-1995.047 -1722.358)" fill="#e24770"/>
              </g>
            </g>
            <g id="Grupo_78252" data-name="Grupo 78252" transform="translate(3.145)">
              <path id="Trazado_116535" data-name="Trazado 116535" d="M2007.625,1682.85h0a1.294,1.294,0,0,1-1.29-1.29v-4.249a1.293,1.293,0,0,1,1.29-1.29h0a1.293,1.293,0,0,1,1.289,1.29v4.249A1.293,1.293,0,0,1,2007.625,1682.85Z" transform="translate(-2006.335 -1676.022)" fill="#33353a"/>
              <path id="Trazado_116536" data-name="Trazado 116536" d="M2069.159,1682.85h0a1.294,1.294,0,0,1-1.29-1.29v-4.249a1.294,1.294,0,0,1,1.29-1.29h0a1.294,1.294,0,0,1,1.29,1.29v4.249A1.294,1.294,0,0,1,2069.159,1682.85Z" transform="translate(-2050.725 -1676.022)" fill="#33353a"/>
              <path id="Trazado_116537" data-name="Trazado 116537" d="M2130.692,1682.85h0a1.293,1.293,0,0,1-1.29-1.29v-4.249a1.293,1.293,0,0,1,1.29-1.29h0a1.293,1.293,0,0,1,1.29,1.29v4.249A1.293,1.293,0,0,1,2130.692,1682.85Z" transform="translate(-2095.114 -1676.022)" fill="#33353a"/>
            </g>
          </g>
          <path id="Trazado_116538" data-name="Trazado 116538" d="M2010.426,1081.713s11.41,1.321,25.761-5.577l.444,6.536s-6.855,8.485-26.861,10.367Z" transform="translate(-1739.449 -1062.857)" fill="#e24770"/>
          <path id="Trazado_116539" data-name="Trazado 116539" d="M2036.2,1133.081s-3.657,4.417-11.427,8.134h-13.451a3.68,3.68,0,0,1-3.676-3.89l.35-6.028,0-.057a83.644,83.644,0,0,0,27.548-7.784Z" transform="translate(-1737.909 -1096.992)" fill="#e24770"/>
          <path id="Trazado_116540" data-name="Trazado 116540" d="M2037.927,1035.47c-2.42,2.23-9.783,7.708-25.058,9.32l.5-8.658a36.911,36.911,0,0,0,22.372-6.234,3.69,3.69,0,0,1,2.013,3.033Z" transform="translate(-1741.684 -1029.502)" fill="#e24770"/>
        </g>
        <g id="Grupo_78260" data-name="Grupo 78260" transform="translate(62.756 0)">
          <g id="Grupo_78255" data-name="Grupo 78255" transform="translate(0 46.963)">
            <path id="Trazado_116541" data-name="Trazado 116541" d="M1264.978,1132.858l-.189-.195,12.943-12.608.051,0c45.116-2.219,87.771-13.768,88.2-13.884l.072.262c-.426.116-43.076,11.664-88.2,13.891Z" transform="translate(-1264.789 -1106.169)" fill="#44474e"/>
          </g>
          <g id="Grupo_78257" data-name="Grupo 78257" transform="translate(75.892)">
            <g id="Grupo_78256" data-name="Grupo 78256">
              <path id="Trazado_116542" data-name="Trazado 116542" d="M1693.958,1278.135a1.3,1.3,0,0,1,.232,1.391.011.011,0,0,1,0,.007,8.641,8.641,0,0,1-2.731,3c-.165.133-.311.253-.439.365-.033.029-.066.058-.1.088l-.076.068c-1.2,1.107-.748,1.36-2.905,3.605-2.459,2.558-4.152,2.6-4.634,2.372-.407-.2.42-1.555,1.337-3.08.045-.074.088-.148.134-.223.123-.2.243-.409.365-.613,1.075-1.835.8-2.7.544-5.428-.207-2.22-3.454-12.4-3.454-12.4l4.713-.812s1.419,8.108,2.983,9.357c.836.666,1.772.674,2.576,1.167.057.034.112.069.167.106A6.18,6.18,0,0,1,1693.958,1278.135Z" transform="translate(-1641.816 -1174.844)" fill="#be806c"/>
              <path id="Trazado_116543" data-name="Trazado 116543" d="M1696.461,1305.383a1.3,1.3,0,0,1,.232,1.391.01.01,0,0,1,0,.007,10.01,10.01,0,0,1-2.735,2.986c-.162.135-.306.259-.434.375-.033.029-.067.058-.1.088l-.076.068c-1.2,1.107-.749,1.36-2.905,3.605-2.459,2.558-4.152,2.6-4.634,2.372-.407-.2.42-1.556,1.338-3.081a10.483,10.483,0,0,0,4.383-3.23c1.481-1.89,2.468-4.317,3.477-5.724.057.034.112.07.167.106A6.178,6.178,0,0,1,1696.461,1305.383Z" transform="translate(-1644.319 -1202.091)" fill="#33353a"/>
              <path id="Trazado_116544" data-name="Trazado 116544" d="M1551.321,1271.479c-.291,1.455-2.365,1.212-4.681.646s-1.766.107-5.063-.258-4.3-1.594-4.4-2.084c-.09-.435,1.539-.588,3.286-.79.22-.024.441-.052.661-.079,1.973-.248,3.418-1.521,5.209-2.566,1.7-.99,4.231-5.025,4.231-5.025l4.521.358s-2.373,3.6-3.29,5.17a5.459,5.459,0,0,0-.444,3.081A5.822,5.822,0,0,1,1551.321,1271.479Z" transform="translate(-1537.177 -1171.131)" fill="#be806c"/>
              <path id="Trazado_116545" data-name="Trazado 116545" d="M1650.131,1175.244l4.227,11.374,5.518,14.85a8.935,8.935,0,0,0,2.931-.268,12.713,12.713,0,0,0,2.835-1.38s-1.532-15.945-4.39-25.1a16.3,16.3,0,0,0-2.459-5.32C1654.362,1164.165,1650.131,1175.244,1650.131,1175.244Z" transform="translate(-1618.66 -1103.807)" fill="#33353a"/>
              <path id="Trazado_116546" data-name="Trazado 116546" d="M1600.842,1123.3c2.769-.894,10.667.254,18.6,1.807l1.661-2.74,17.136-1.338s5.655,12.54,2.559,20.53a2.9,2.9,0,0,1-2.9,1.952h-.25s-10.2-.006-13.511-.006c-8.522,0-18.036-5.858-19.267-6.1-2.014-.4-2.82,3.626-4.834,7.856s-18.936,18.733-18.936,18.733a14.89,14.89,0,0,1-3.675-.377,3.617,3.617,0,0,1-1.578-1S1594.6,1125.313,1600.842,1123.3Z" transform="translate(-1565.073 -1069.924)" fill="#44474e"/>
              <path id="Trazado_116547" data-name="Trazado 116547" d="M1719.143,964.685c5.167,4.672,17.772,12.958,17.845,12.93,0,0,4.035,2.714,6.941,1.638,4.843-1.793,8.855-8.747,2.717-16.995-3.061-4.113-5.7-5.554-4.792-10.762.987-5.642-1.2-12.917-7.724-13.558a18.055,18.055,0,0,0-6.233-.051C1721.778,939.46,1710.538,961.319,1719.143,964.685Z" transform="translate(-1666.189 -937.613)" fill="#33353a"/>
              <path id="Trazado_116548" data-name="Trazado 116548" d="M1754.548,1003.35c-.03.01,2.862,1.844,5.039,1.437,2.048-.382,4.031-3.043,4-3.051-.835-.238-1.445-1.253-1.016-6.261l-.39.044-6.553.748s-.019,2.042-.172,3.954C1755.333,1001.826,1754.929,1003.209,1754.548,1003.35Z" transform="translate(-1693.984 -979.353)" fill="#be806c"/>
              <path id="Trazado_116549" data-name="Trazado 116549" d="M1757.994,996.381s-.02,2.042-.172,3.954c3.617.194,5.794-2.941,6.725-4.7Z" transform="translate(-1696.346 -979.468)" fill="#a76452"/>
              <path id="Trazado_116550" data-name="Trazado 116550" d="M1748.088,967.7s8.526.841,8.968-4.477,1.84-8.791-3.585-9.552-6.652,1.179-7.232,2.918S1745.882,967.341,1748.088,967.7Z" transform="translate(-1687.793 -949.072)" fill="#be806c"/>
              <path id="Trazado_116551" data-name="Trazado 116551" d="M1756.86,948.916s1.074,6.5,5.93,8.038c3.542,1.125,5.147.383,5.147.383a14.442,14.442,0,0,1-2.312-5.405,2.6,2.6,0,0,0-1.733-1.984C1761.374,949.12,1758.324,946.856,1756.86,948.916Z" transform="translate(-1695.652 -945.159)" fill="#33353a"/>
              <path id="Trazado_116552" data-name="Trazado 116552" d="M1749.538,952.214a5.64,5.64,0,0,0-3.03,2.431,10.872,10.872,0,0,0-1.526,5.254s-1.492-6.013.684-8.249C1747.972,949.278,1749.538,952.214,1749.538,952.214Z" transform="translate(-1686.724 -947.071)" fill="#33353a"/>
              <path id="Trazado_116553" data-name="Trazado 116553" d="M1753.329,1036.058c-.152.646-.282,1.24-.388,1.788-.174.884-.293,1.646-.377,2.32-.261,2.1-.182,3.34-.358,4.7a11.689,11.689,0,0,1-.638,2.558c-.353.974-9.618,1.842-14.889,1.492a7.229,7.229,0,0,1-3.4-.735c-1.88-1.633-1.693,1.959-1.951-15.229-.125-8.383,7.114-15.849,7.114-15.849s.578,3.581,7.757-.681c.255-.149,3.082,4.037,5.8,9.192C1755,1031.307,1754.175,1032.512,1753.329,1036.058Z" transform="translate(-1677.232 -994.461)" fill="#e7728c"/>
              <path id="Trazado_116554" data-name="Trazado 116554" d="M1665.3,1204.031l5.519,14.85a8.937,8.937,0,0,0,2.931-.268,12.725,12.725,0,0,0,2.835-1.38s-1.532-15.946-4.391-25.1Z" transform="translate(-1629.603 -1121.221)" fill="#44474e"/>
              <path id="Trazado_116555" data-name="Trazado 116555" d="M1717.73,1018.87s-7.386,1.252-8.254,4.433-6.86,20.966-6.86,20.966,4.644,1.584,6.378-.15,6.036-16.094,6.036-16.094Z" transform="translate(-1656.522 -996.23)" fill="#e7728c"/>
              <path id="Trazado_116556" data-name="Trazado 116556" d="M1629.182,1093.247l-1.75-.694a4.18,4.18,0,0,0-1.621-.055c-.569.179-1.991.16-2,.393s1.622.959,1.622.959l.051-.02c-.619,1.4-3.712,2.2-3.861,2.715-.181.623,1.258.945,2.042,1.139a4.326,4.326,0,0,0,3.651-.824c.693-.73,1.863-1.734,1.863-1.734Z" transform="translate(-1598.086 -1049.296)" fill="#be806c"/>
              <path id="Trazado_116557" data-name="Trazado 116557" d="M1752.786,992.753a1.466,1.466,0,0,1-1.3.874c-.944,0-1.2-.141-1.378-.341a2.958,2.958,0,0,1-.356-.585A8.015,8.015,0,0,1,1752.786,992.753Z" transform="translate(-1690.524 -977.264)" fill="#fff"/>
              <path id="Trazado_116558" data-name="Trazado 116558" d="M1663.557,1081.242l-17.882,1.365a5.577,5.577,0,0,0,.779,3.7s16.133,3.154,20.343,1.543,3.735-9.207,3.735-9.207Z" transform="translate(-1615.403 -1039.35)" fill="#e7728c"/>
              <path id="Trazado_116559" data-name="Trazado 116559" d="M1728.49,1081.4l-1.188-1.46a4.177,4.177,0,0,0-1.387-.839c-.584-.122-1.816-.832-1.935-.632s.947,1.629.947,1.629l.054.008c-1.224.921-4.313.108-4.7.483-.462.455.637,1.439,1.226,1.992a4.326,4.326,0,0,0,3.589,1.065c.961-.3,2.472-.6,2.472-.6Z" transform="translate(-1669.188 -1039.2)" fill="#be806c"/>
              <path id="Trazado_116560" data-name="Trazado 116560" d="M1766.049,1100.41c-.261,2.1-.182,3.34-.358,4.7-6.707.022-15.673-5.179-15.673-5.179Z" transform="translate(-1690.716 -1054.705)" fill="#e24770"/>
              <path id="Trazado_116561" data-name="Trazado 116561" d="M1750.017,1061.91s10.448-.311,12.209-6.25c1.935-6.524,4.1,2.683,4.1,2.683l-1.153,5.876h-11.463Z" transform="translate(-1690.716 -1021.085)" fill="#e24770"/>
              <path id="Trazado_116562" data-name="Trazado 116562" d="M1755.689,1016.435s6.782.444,8.477,3.089,3.8,16.075,2.917,20.687-22.6-.882-22.6-.882l.693-4s12.535.072,13.249-1.56C1759.373,1031.6,1755.689,1016.435,1755.689,1016.435Z" transform="translate(-1686.723 -994.474)" fill="#e7728c"/>
            </g>
          </g>
          <g id="Grupo_78258" data-name="Grupo 78258" transform="translate(130.807 37.552)">
            <path id="Trazado_116563" data-name="Trazado 116563" d="M1757.4,1078.534c-8.334,0-16.477-.616-23.021-2.328a.136.136,0,0,1,.069-.263c7.455,1.951,21.937,3.672,48.6.792,15.949-1.723,28.867-4.316,29-4.342a.136.136,0,0,1,.053.266c-.128.026-13.058,2.621-29.02,4.346A245.209,245.209,0,0,1,1757.4,1078.534Z" transform="translate(-1734.274 -1072.391)" fill="#44474e"/>
          </g>
          <g id="Grupo_78259" data-name="Grupo 78259" transform="translate(101.987 43.247)">
            <path id="Trazado_116564" data-name="Trazado 116564" d="M1639.2,1095.857a80.375,80.375,0,0,1-8.246-.436.136.136,0,1,1,.028-.27c16.8,1.733,25.933-2.268,26.024-2.308a.136.136,0,0,1,.111.248C1657.043,1093.125,1650.8,1095.857,1639.2,1095.857Z" transform="translate(-1630.833 -1092.832)" fill="#44474e"/>
          </g>
        </g>
        <g id="Grupo_78261" data-name="Grupo 78261" transform="translate(257.794 129.733)">
          <circle id="Elipse_4542" data-name="Elipse 4542" cx="24.684" cy="24.684" r="24.684" transform="matrix(0.973, -0.23, 0.23, 0.973, 0, 11.342)" fill="#33353a"/>
          <path id="Trazado_116565" data-name="Trazado 116565" d="M2004.647,1463.069a18.594,18.594,0,1,1,18.594,18.594A18.594,18.594,0,0,1,2004.647,1463.069Z" transform="translate(-1993.547 -1432.986)" fill="#eeb27a"/>
        </g>
        <g id="Grupo_78262" data-name="Grupo 78262" transform="translate(266.033 90.742)">
          <circle id="Elipse_4543" data-name="Elipse 4543" cx="15.081" cy="15.081" r="15.081" transform="translate(0 29.705) rotate(-80.008)" fill="#33353a"/>
          <path id="Trazado_116566" data-name="Trazado 116566" d="M2016.3,1297.434a11.361,11.361,0,1,1,11.361,11.361A11.361,11.361,0,0,1,2016.3,1297.434Z" transform="translate(-2010.194 -1279.728)" fill="#eeb27a"/>
        </g>
        <g id="Grupo_78264" data-name="Grupo 78264" transform="translate(206.203 124.789)">
          <path id="Trazado_116567" data-name="Trazado 116567" d="M1884.092,1479.462s8.859,2.423,13.448,1.285,13.417-5.991,13.417-5.991l1.391,2.43s-7.222,10.759-13.9,11.981S1884.092,1479.462,1884.092,1479.462Z" transform="translate(-1854.99 -1449.887)" fill="#e24770"/>
          <path id="Trazado_116568" data-name="Trazado 116568" d="M2031.911,1592.589s4.59,1.828,6.137,1.341,4.216-1.981,4.7-3.208-3.149.32-4.376,0a8.044,8.044,0,0,0-4.963,0C2031,1591.414,2031.911,1592.589,2031.911,1592.589Z" transform="translate(-1961.502 -1533.194)" fill="#be806c"/>
          <path id="Trazado_116569" data-name="Trazado 116569" d="M1882.621,1971.581s.346,5.582,1.383,6.895h15.951a2.837,2.837,0,0,0-2.547-2.279c-2.521-.439-6.739-2.209-8.265-5.541C1887.537,1967.151,1882.621,1971.581,1882.621,1971.581Z" transform="translate(-1853.928 -1806.646)" fill="#33353a"/>
          <path id="Trazado_116570" data-name="Trazado 116570" d="M1780.025,1969s-1.052,6.949.313,7.075c.182.016,6.571.005,8.308.265a43.59,43.59,0,0,0,7.569.054.75.75,0,0,0,.679-1.128,3.025,3.025,0,0,0-2.167-1.391c-2.512-.483-6.7-2.328-8.166-5.685C1785.018,1964.654,1780.025,1969,1780.025,1969Z" transform="translate(-1779.638 -1804.839)" fill="#33353a"/>
          <path id="Trazado_116571" data-name="Trazado 116571" d="M1816.832,1675.231s-4.01,14.034-15.505,38.406-12.383,35.478-12.383,35.478l-7.918-.373s.744-29.009,6.174-41.308,6.536-45.954,6.536-45.954Z" transform="translate(-1780.639 -1584.586)" fill="#e69567"/>
          <path id="Trazado_116572" data-name="Trazado 116572" d="M1864.972,1667.493a350.045,350.045,0,0,1-3.44,48.414c-3.76,26.683-2.486,38.009-2.486,38.009l-9.006.3s-5.382-26.693-3.839-40.048-7.37-45.828-7.37-45.828Z" transform="translate(-1822.34 -1588.924)" fill="#eeb27a"/>
          <path id="Trazado_116573" data-name="Trazado 116573" d="M1868.874,1457.15l4.248,3.146,6.138-1.292c-.084-.56-.49-2.88-.859-4.982-.022-.124-.045-.248-.065-.369-.316-1.788-.589-3.324-.589-3.324l-5.733-2.858-2.138-1.065c.006.037.166,1.984.188,2.268A18.356,18.356,0,0,1,1868.874,1457.15Z" transform="translate(-1844.011 -1429.435)" fill="#be806c"/>
          <path id="Trazado_116574" data-name="Trazado 116574" d="M1855.96,1531.818c.388,3.878-30.644,8.467-30.762,1.963-.1-5.722,3.3-37.211,4.361-41.716,1.867-7.973,3.545-12.527,7.1-13.573,1.313-.381,6.151.874,9.648,1.889a5.833,5.833,0,0,1,.72.25,7.42,7.42,0,0,1,4.345,4.758c.538,1.815,1.159,4.14,1.661,6.7a51.227,51.227,0,0,1,.942,7.281c.029.515.045,1.031.048,1.544.019,1.9.186,4.361.419,7.092.147,1.723.324,3.555.506,5.421.054.535.109,1.073.16,1.614.039.375.634,12.677.807,15.972,0,.048,0,.09.006.132a.03.03,0,0,0,0,.016c0,.044,0,.093.007.137C1855.948,1531.6,1855.957,1531.776,1855.96,1531.818Z" transform="translate(-1812.503 -1452.531)" fill="#e7728c"/>
          <path id="Trazado_116575" data-name="Trazado 116575" d="M1874.263,1451.52c1.259,2.409,5.951,4.492,7.907,5.258-.022-.124-.044-.248-.065-.369-.316-1.789-.589-3.324-.589-3.324l-5.733-2.858C1874.515,1450.209,1873.744,1450.529,1874.263,1451.52Z" transform="translate(-1847.781 -1432.192)" fill="#a76452"/>
          <path id="Trazado_116576" data-name="Trazado 116576" d="M1873.371,1415.2s-10.344,3.227-12.254-3.246-4.532-10.415,1.991-12.748,8.541-.245,9.7,1.761S1876.012,1414.2,1873.371,1415.2Z" transform="translate(-1836.849 -1394.646)" fill="#be806c"/>
          <path id="Trazado_116577" data-name="Trazado 116577" d="M1860.864,1391.2s-.659,7.532-2.217,7.2-2.97-.569-2.742,1.7,2.389,4.892-2.412,5.294-11.7-11.978-10.383-14.322C1846.915,1384.312,1866.364,1382.947,1860.864,1391.2Z" transform="translate(-1825.307 -1385.496)" fill="#33353a"/>
          <g id="Grupo_78263" data-name="Grupo 78263" transform="translate(55.968 19.195)">
            <path id="Trazado_116578" data-name="Trazado 116578" d="M1980.516,1460.064s1.915-3.755,3.426-4.9,5.464-.767,5.609-.462c.449.945-3.233,2.316-3.673,3.163s1.31.8-.067,2.26a14.441,14.441,0,0,1-3.9,2.369Z" transform="translate(-1980.516 -1454.389)" fill="#be806c"/>
            <path id="Trazado_116579" data-name="Trazado 116579" d="M1991.172,1467.6c.026,0,1.249-.143,2.443-.273.879-.1,1.739-.485,2.1-.5.85-.042.252,1.309-1.588,1.982-1.559.569-2,1.492-3.472,1.741C1988.875,1470.849,1991.172,1467.6,1991.172,1467.6Z" transform="translate(-1987.342 -1463.359)" fill="#be806c"/>
          </g>
          <path id="Trazado_116580" data-name="Trazado 116580" d="M1877,1473.545c-.135-.057-8.35-2.481-9.243-2.186s-1.421,2.021-1.421,2.021l12.684,3.613S1878.716,1474.268,1877,1473.545Z" transform="translate(-1842.181 -1447.418)" fill="#e24770"/>
          <path id="Trazado_116581" data-name="Trazado 116581" d="M2037.709,1585.357a8.064,8.064,0,0,1,2.749-1.521c1.281-.28,2.4-1.441,2.4-.881s-.961,1.921-.961,2.4S2037.709,1585.357,2037.709,1585.357Z" transform="translate(-1965.806 -1527.831)" fill="#be806c"/>
          <path id="Trazado_116582" data-name="Trazado 116582" d="M1900.17,1552.985c-6.59-2.5-11.585-12.219-11.585-12.219l11.118,3.583c.029.515.045,1.031.048,1.543C1899.77,1547.795,1899.937,1550.254,1900.17,1552.985Z" transform="translate(-1858.231 -1497.505)" fill="#e24770"/>
          <path id="Trazado_116583" data-name="Trazado 116583" d="M1910.363,1523.985c0-.018.009-.036.014-.054a2.439,2.439,0,0,0-1.305-2.81c-4.141-1.994-14.865-7.166-16.062-7.808-1.263-.677-13.818-12.749-17.573-16.372a2.439,2.439,0,0,0-2.454-.563l-10.4,3.4a2.442,2.442,0,0,0-.623,4.335c7.651,5.245,23.656,16.155,26.533,17.626,5.073,2.593,15.337,3.948,19.125,4.376a2.434,2.434,0,0,0,2.518-1.464A4.989,4.989,0,0,0,1910.363,1523.985Z" transform="translate(-1838.257 -1465.398)" fill="#e7728c"/>
        </g>
      </g>
      <g id="Grupo_78271" data-name="Grupo 78271" transform="translate(546.132 1068.177)">
        <path id="Trazado_116584" data-name="Trazado 116584" d="M640.573,1647.74s-12.688,1.2-19.5,21.082-4.824,56.956-9.856,60.673-32.162-5.775-34.332.327,0,6.826-5.969,3.932-16.1-3.892-13.927.948-11.214,1.595-10.852,8.191h68.3s32.338-3.351,31.215-17.821-12.532-48.2-5.665-60.953a62.709,62.709,0,0,1,15.846-19.381Z" transform="translate(-546.132 -1578.284)" fill="#e24770"/>
        <g id="Grupo_78266" data-name="Grupo 78266" transform="translate(48.282 0)">
          <path id="Trazado_116585" data-name="Trazado 116585" d="M789.658,1748.653l-2.87,1.069s-12.467-17.291-14-32.5a23.1,23.1,0,0,1,.41-7.778s-.122-.7-.335-1.927c-.1-.574-.22-1.266-.358-2.058-.406-2.322-.963-5.5-1.6-9.118-1.467-8.326-3.367-18.969-4.844-26.794l.773-.248,8.368-2.7,1.729-5.493,6.231-1.64s1.392,2.723,2.636,15.586c.23,1.687.438,3.547.6,5.565a110.141,110.141,0,0,1-.593,22.531q-.429,3.353-1.094,6.915a30.849,30.849,0,0,0-.239,6.829C785.093,1729.326,789.658,1748.653,789.658,1748.653Z" transform="translate(-753.065 -1588.906)" fill="#fffff8"/>
          <path id="Trazado_116586" data-name="Trazado 116586" d="M786.392,1680.615l-13.531,26.9c-.1-.574-.22-1.266-.358-2.058-.406-2.322-.963-5.5-1.6-9.118-1.467-8.326-3.367-18.969-4.844-26.794l.773-.248,8.368-2.7,1.729-5.493,6.231-1.64s1.392,2.723,2.636,15.586C786.026,1676.736,786.234,1678.6,786.392,1680.615Z" transform="translate(-753.065 -1588.906)" fill="#fcf1e3"/>
          <path id="Trazado_116587" data-name="Trazado 116587" d="M748.061,1654.815l-.313-2.686c-5.248,1.394-19.269-3.894-19.269-3.894s-5.084,4.468-4.416,15.18c.326,5.229.921,27.446,1.542,34.02.225,2.383.422,4.078.5,4.755a.013.013,0,0,1,0,.007.942.942,0,0,1-.152.583,30.826,30.826,0,0,0-2.294,4.824c-6.1,16.256.94,36.276.94,36.276l1.827-.736s4.006-22.28,7.261-32.122a19.519,19.519,0,0,1,1.568-3.765,42.512,42.512,0,0,0,3.921-10.456,257.18,257.18,0,0,0,5.274-27.739C744.618,1669.069,748.061,1654.815,748.061,1654.815Z" transform="translate(-720.686 -1580.806)" fill="#fffff8"/>
          <path id="Trazado_116588" data-name="Trazado 116588" d="M872.982,1562.85l-.391,2.628s-.174,0-.478-.022c-.956-.065-3.28-.2-5.908-.478-3.953-.391-8.645-1.086-10.513-2.237-2.846-1.737-7.516-7.059-10.557-12.381a3.513,3.513,0,0,1-.217-.391c-1.586-2.824-2.693-5.626-2.78-7.863a11.231,11.231,0,0,1,.369-3.562,9.09,9.09,0,0,1,1.607-3.215,1.634,1.634,0,0,1,.3-.369,7.5,7.5,0,0,1,2.064-1.759c.521-.218,1.086.043,1.672.673v.022a9.968,9.968,0,0,1,1.5,2.215c.021.022.044.043.044.065.108.2.217.413.347.651a.547.547,0,0,1,.087.153q.358.749.717,1.564c2.672,5.821,5.517,14.64,7.885,17.268,1.021,1.13,5.691,3.345,9.405,5C870.81,1561.981,872.982,1562.85,872.982,1562.85Z" transform="translate(-807.936 -1497.768)" fill="#be806c"/>
          <path id="Trazado_116589" data-name="Trazado 116589" d="M808.381,1504.347a16.327,16.327,0,0,1-6.044,1.415c-9.022.495-11.07-7.414-11.443-12.664a7.57,7.57,0,0,1,3.1-.391c.64.035,1.308.1,1.858.168,1.1-.576,3.086-3.376,4.232-8.061l.389.18,6.51,3.061s-.691,2.118-1.2,4.145c-.4,1.586-.684,3.119-.445,3.548.513.208.82.34.82.34a.016.016,0,0,0,0,.007A44.678,44.678,0,0,1,808.381,1504.347Z" transform="translate(-770.982 -1462.918)" fill="#be806c"/>
          <path id="Trazado_116590" data-name="Trazado 116590" d="M772.44,1530.255c-.068.18-.143.356-.225.537-2.285,4.921-6.514,25.306-6.514,25.306.6,3.665-27.544-.719-27.617-4.056-.991-3.539,3.517-9.224,6.06-12.075a8.09,8.09,0,0,0,.853-1.148,8,8,0,0,0,1.153-3.365,116.2,116.2,0,0,0,.351-11.86h0c.5-.367.977-.708,1.425-1.031a12.737,12.737,0,0,0,1.734-1.439,2.625,2.625,0,0,0,.832-1.638,8.715,8.715,0,0,0-.035-1.374c-.021-.218-.049-.436-.082-.654a18.628,18.628,0,0,0-1.308-4.366c2.421-.98,6.725-.4,6.725-.4s0,.239-.007.63c-.014,1.573,0,5.61.5,6.374.63.951,12.162,5.12,12.771,3.829.6-1.27-1.043-7.22-1.1-7.445a.017.017,0,0,1,0-.007,18.182,18.182,0,0,1,5.242,2.789C770.87,1520.376,774.239,1525.482,772.44,1530.255Z" transform="translate(-732.783 -1482.907)" fill="#e7728c"/>
          <path id="Trazado_116591" data-name="Trazado 116591" d="M808.7,1411.051c-.014-.391-.317-4.606-6.737-4.826,0,0,3.157.377,3.7,1.764,0,0-2.15-1.715-3.9-1.163s-2.779,3.618-2.789,4.627.962,4.261,2.073,4.537a3.383,3.383,0,0,0,1.346,0,15.211,15.211,0,0,0-.862,1.54c-2.562,5.259.08,10.4,2.249,9.83,1.391-.365,1.784,2.009,1.784,2.009l13.513-10.94S814.116,1408.161,808.7,1411.051Z" transform="translate(-776.811 -1406.225)" fill="#33353a"/>
          <path id="Trazado_116592" data-name="Trazado 116592" d="M831.77,1488.529s-.692,2.116-1.2,4.145c-3.805-1.062-4.961-5.061-5.309-7.206Z" transform="translate(-795.771 -1463.39)" fill="#a76452"/>
          <path id="Trazado_116593" data-name="Trazado 116593" d="M831.176,1461.627s-9.1-2.107-7.7-7.756,1.167-9.726,7.038-8.62,6.463,3.541,6.454,5.54S833.58,1462.03,831.176,1461.627Z" transform="translate(-794.376 -1434.247)" fill="#be806c"/>
          <path id="Trazado_116594" data-name="Trazado 116594" d="M831.551,1444.918c-.979-2.047-2.13-1.938-2.851-1.575a6.531,6.531,0,0,0-8.473-.725,11.117,11.117,0,0,1-5.115,5.5s1.4,1.432,5.452,1.4a6.67,6.67,0,0,0,3.616-1.362,21.781,21.781,0,0,1-4.747,3.54c5.074-.971,8.477-6.845,8.825-7.469a7.318,7.318,0,0,1,1.321,3.127c.094,1.551-.439,4.562.449,4.676C830.028,1452.026,833.019,1447.989,831.551,1444.918Z" transform="translate(-788.451 -1431.581)" fill="#33353a"/>
          <path id="Trazado_116595" data-name="Trazado 116595" d="M860.627,1535.284s2.192,3.824,2.52,4.808c0,0-2.843-.109-3.99,2.077C859.156,1542.169,858.881,1535.8,860.627,1535.284Z" transform="translate(-820.213 -1499.326)" fill="#e7728c"/>
          <path id="Trazado_116596" data-name="Trazado 116596" d="M776.383,1571.513c-5.551-.058-10.252-5.823-13.125-10.43a8,8,0,0,0,1.153-3.365,116.2,116.2,0,0,0,.351-11.86h0c.5-.368.977-.708,1.425-1.031a12.722,12.722,0,0,0,1.734-1.439C772.467,1551.072,783.909,1571.593,776.383,1571.513Z" transform="translate(-751.044 -1505.172)" fill="#e24770"/>
          <path id="Trazado_116597" data-name="Trazado 116597" d="M733.959,1975.777H719.5a7.94,7.94,0,0,1,.409-3.875c.724-1.6,1.857-2.333,1.585-4.274a5.208,5.208,0,0,0,4.506,1.724,15.874,15.874,0,0,0,2.508,3.252C729.456,1973.283,733.669,1973.041,733.959,1975.777Z" transform="translate(-719.424 -1811.211)" fill="#33353a"/>
          <path id="Trazado_116598" data-name="Trazado 116598" d="M845.176,1977.455H830.719a6.009,6.009,0,0,1,.408-3.875c.84-1.388.518-2.179-.1-3.328a5.608,5.608,0,0,0,2.435.459,5.085,5.085,0,0,0,2.15-.756,52.081,52.081,0,0,0,4.119,4.327C840.672,1974.961,844.885,1974.719,845.176,1977.455Z" transform="translate(-799.6 -1812.89)" fill="#33353a"/>
          <path id="Trazado_116599" data-name="Trazado 116599" d="M800.84,1554.392l-.582,2.243s-7.22-1.514-8.805-1.862h-.022c-2.715-.652-5.756-1.433-8.319-2.3a22.845,22.845,0,0,1-4.431-1.977,2.669,2.669,0,0,1-.3-.218c-2.542-1.846-5.561-7.277-7.907-13.1-.326-.8-.63-1.607-.934-2.389a59.431,59.431,0,0,1-2.476-8.254,23.341,23.341,0,0,1-.586-3.932,9.6,9.6,0,0,1-.022-1.108c.043-6.3,3.171-7.168,3.171-7.168.065-.022.13-.043.217-.065.543-.087,1.108.282,1.694,1a19.733,19.733,0,0,1,2.324,4.1c1.238,2.8,2.542,6.43,3.758,10.036.673,1.977,1.325,3.953,1.977,5.778.37,1.108.739,2.151,1.086,3.106a29.915,29.915,0,0,0,1.825,4.236,10.514,10.514,0,0,0,2.672,2.411C787.478,1546.606,800.84,1554.392,800.84,1554.392Z" transform="translate(-753.342 -1484.152)" fill="#be806c"/>
          <path id="Trazado_116600" data-name="Trazado 116600" d="M773.854,1519.405c-4.182-1.153-7.408,2.113-7.408,2.113.053-6.289,3.183-7.15,3.183-7.15C770.889,1513.847,772.348,1516.027,773.854,1519.405Z" transform="translate(-753.345 -1484.182)" fill="#e7728c"/>
        </g>
        <path id="Trazado_116601" data-name="Trazado 116601" d="M1251.235,1728.249c.124.346-51.6,26.581-51.6,26.581a23.106,23.106,0,0,0,14.335.98c8.369-1.938,40.474-20.407,40.474-20.407Z" transform="translate(-1017.557 -1638.527)" fill="#33353a"/>
        <path id="Trazado_116602" data-name="Trazado 116602" d="M972.285,1663.867s-17.158,27.635-62.954-22.888a6.52,6.52,0,0,0-6.426-1.953l-17.814,4.451a3.356,3.356,0,0,1,2.36.722,4.61,4.61,0,0,1,.936,1.651c3.677,10.255,17.435,44.61,39.739,54.107,26.316,11.206,54.214,4.733,75.081-36.091Z" transform="translate(-790.651 -1574.021)" fill="#e7728c"/>
        <g id="Grupo_78270" data-name="Grupo 78270" transform="translate(231.078 35.033)">
          <path id="Trazado_116603" data-name="Trazado 116603" d="M1535.328,1721.639c-.041.073-.084.149-.127.225-1.015,1.763-3.342,6.085-5.906,10.814-1.213,2.244-2.482,4.58-3.687,6.777-2.076,3.792-3.964,7.17-5.065,8.956-1.121,1.815-1.945,3.09-2.279,3.6l0,0a.842.842,0,0,0-.108.526,27.551,27.551,0,0,1-.073,4.756,36.486,36.486,0,0,1-11.921,23.631l-3.084.455s4.365-16.172,5.651-25.315a17.591,17.591,0,0,0,.236-3.625,37.844,37.844,0,0,1,1-9.894,221.628,221.628,0,0,1,6.308-22.9c.144-.448,4.482-16.14,4.482-16.14,3.641,3.182,16.921,4.5,16.921,4.5S1539.919,1713.475,1535.328,1721.639Z" transform="translate(-1467.529 -1655.71)" fill="#e7728c"/>
          <path id="Trazado_116604" data-name="Trazado 116604" d="M1479.836,1978.481h12.874a7.065,7.065,0,0,0-.364-3.451c-.644-1.429-1.563-1.474-.117-3.713-.818.842-3.448,1.191-5.309.94-.228.37-1.47,2.851-2.232,3.4C1483.847,1976.26,1480.1,1976.044,1479.836,1978.481Z" transform="translate(-1450.767 -1848.905)" fill="#33353a"/>
          <path id="Trazado_116605" data-name="Trazado 116605" d="M1595.039,1748.936c-.041.073-.084.149-.128.225-1.015,1.764-6.5,11.9-9.066,16.628a68.567,68.567,0,0,0,.9-24.445Z" transform="translate(-1527.24 -1683.006)" fill="#e24770"/>
          <path id="Trazado_116606" data-name="Trazado 116606" d="M1440.469,1537.517s-.51-5.555,5.7-5.555a7.289,7.289,0,0,0-2.854,1.53s3.958-2.323,8.267,1.247,1.631,12.527,2.941,14.228,6.412,2.041,5.788,7.539-16.191,12.385-15.192,16.934c0,0-6.1-8.968-1.738-13.061a8.084,8.084,0,0,0-2.343,4.384s-.577-4.648,2.381-6.135c2.617-1.316,4.761-6.128,4.535-6.988S1440.469,1537.517,1440.469,1537.517Z" transform="translate(-1422.361 -1531.962)" fill="#33353a"/>
          <path id="Trazado_116607" data-name="Trazado 116607" d="M1408.274,1635.624s-8.831,22.283-10.734,21.458-13.118-4.387-13.118-4.387l-.738,2.729s10.672,8.224,16.163,8.584,12.93-15.82,12.93-15.82Z" transform="translate(-1381.404 -1606.742)" fill="#be806c"/>
          <g id="Grupo_78269" data-name="Grupo 78269" transform="translate(0 41.933)">
            <g id="Grupo_78267" data-name="Grupo 78267" transform="translate(3.674 27.394)">
              <path id="Trazado_116608" data-name="Trazado 116608" d="M1394.517,1782.121a11.114,11.114,0,1,1-4.492,15.062A11.127,11.127,0,0,1,1394.517,1782.121Zm8.514,15.752a6.792,6.792,0,1,0-9.2-2.745A6.8,6.8,0,0,0,1403.031,1797.873Z" transform="translate(-1388.689 -1780.786)" fill="#33353a"/>
            </g>
            <g id="Grupo_78268" data-name="Grupo 78268">
              <path id="Trazado_116609" data-name="Trazado 116609" d="M1375.811,1690.98a11.114,11.114,0,1,1,8.205,13.406A11.126,11.126,0,0,1,1375.811,1690.98Zm4.2,1.011a6.792,6.792,0,1,0,8.192-5.014A6.8,6.8,0,0,0,1380.013,1691.991Z" transform="translate(-1375.502 -1682.465)" fill="#33353a"/>
            </g>
          </g>
          <path id="Trazado_116610" data-name="Trazado 116610" d="M1428.507,1548.863c-.084-.338,7.353,3.362,7.73,3.78,3.488,3.869,2.494,8.918.5,8.967-1.28.031-1.032,2.159-1.032,2.159l-14.26-6.032S1423.16,1547.724,1428.507,1548.863Z" transform="translate(-1408.643 -1544.089)" fill="#33353a"/>
          <path id="Trazado_116611" data-name="Trazado 116611" d="M1459.079,1637.291s-1.9,1.967-1.9,7.853c0,0,2.617,4.13,9.4,5.176C1466.583,1650.32,1460.749,1637.287,1459.079,1637.291Z" transform="translate(-1434.423 -1607.945)" fill="#44474e"/>
          <path id="Trazado_116612" data-name="Trazado 116612" d="M1582.707,1702l-.044-2.408c4.8.6,16.542-5.733,16.542-5.733s5.019,3.338,5.706,12.872c.335,4.653,2.457,24.332,2.691,30.208.086,2.13.114,3.65.124,4.257a.009.009,0,0,0,0,.005.835.835,0,0,0,.2.5,27.517,27.517,0,0,1,2.6,3.985c7.321,13.62,3.492,32.127,3.492,32.127l-1.7-.432s-6.19-19.186-10.235-27.485a17.4,17.4,0,0,0-1.832-3.136,37.841,37.841,0,0,1-4.706-8.761C1592.559,1730.86,1582.707,1702,1582.707,1702Z" transform="translate(-1524.944 -1648.754)" fill="#e7728c"/>
          <path id="Trazado_116613" data-name="Trazado 116613" d="M1658.467,1978.24h12.874a7.068,7.068,0,0,0-.364-3.451c-.644-1.428-1.654-2.078-1.412-3.806a4.635,4.635,0,0,1-4.012,1.535,14.129,14.129,0,0,1-2.234,2.9C1662.478,1976.019,1658.726,1975.8,1658.467,1978.24Z" transform="translate(-1579.628 -1848.664)" fill="#33353a"/>
          <path id="Trazado_116614" data-name="Trazado 116614" d="M1472.37,1632.821c1.729.295-.282,1.669,2.1,1.928,3.385.37,6.881.622,8.711,1.352a1.967,1.967,0,0,1,1.254,1.016c.793,2.386,4.291,6.069,4.291,6.069,22.418-1.02,24.879-10.4,24.879-10.4-14.55-14.131-27.927-22.463-38.142-23.567-1.748-.189-3.959.921-5.533,1.622-3.578,1.593-5.929,6.184-5.929,6.184S1465.8,1631.7,1472.37,1632.821Z" transform="translate(-1439.341 -1587.681)" fill="#44474e"/>
          <path id="Trazado_116615" data-name="Trazado 116615" d="M1501.571,1653.676c3.385.37,6.88.623,8.712,1.353a35.7,35.7,0,0,0-4.528-19.59S1502.313,1649.445,1501.571,1653.676Z" transform="translate(-1466.446 -1606.608)" fill="#33353a"/>
          <path id="Trazado_116616" data-name="Trazado 116616" d="M1473.425,1628.619s8.513-.465,10.026,4.88-2.838,26.679-3.776,28.881c-1.707,4.009-10.017,15.45-10.017,15.45l-3.056-.93s5.541-17.479,6.778-19.209C1475.322,1654.975,1470.876,1630.944,1473.425,1628.619Z" transform="translate(-1441.22 -1601.681)" fill="#be806c"/>
          <path id="Trazado_116617" data-name="Trazado 116617" d="M1458.839,1800.966a4.818,4.818,0,0,1-.73,2.055c-.573.7-2.239,2.392-2.268,3.383,0,0,.084.44.441.36s1.6-1.309,2.235-1.221a12.336,12.336,0,0,1-.677,2.546,7.291,7.291,0,0,0,.133,3.415c.2.483,2.686-2.592,3.707-3.965s.016-6.945.016-6.945Z" transform="translate(-1433.457 -1725.748)" fill="#be806c"/>
          <path id="Trazado_116618" data-name="Trazado 116618" d="M1495.533,1636.559c-.022.125-8.056,1.478-13.081-1.073,0,0-4.2-13.151,1.8-12.522s9.551,2.519,9.7,5.391A55.321,55.321,0,0,0,1495.533,1636.559Z" transform="translate(-1451.623 -1597.594)" fill="#44474e"/>
          <path id="Trazado_116619" data-name="Trazado 116619" d="M1379.376,1692.986s-2.208-.457-3.021.7-.271,4.612,1.221,4.477,1.634-2.306,1.8-3.12A7.741,7.741,0,0,0,1379.376,1692.986Z" transform="translate(-1375.844 -1648.057)" fill="#be806c"/>
          <path id="Trazado_116620" data-name="Trazado 116620" d="M1461.37,1603.529s-2.367,8.831-5.929,6.184c.1-.426-.521-1.666-1.253-2.925-.936-1.609-2.051-3.253-2.051-3.253l4.819-4.222.288-.252A12.731,12.731,0,0,0,1461.37,1603.529Z" transform="translate(-1430.784 -1580.366)" fill="#be806c"/>
          <path id="Trazado_116621" data-name="Trazado 116621" d="M1452.138,1604.19s1.114,1.641,2.05,3.251c2.995-1.846,3-5.554,2.767-7.475Z" transform="translate(-1430.786 -1581.019)" fill="#a76452"/>
          <path id="Trazado_116622" data-name="Trazado 116622" d="M1431.326,1584.012s7.271-4.046,4.682-8.536-3.4-8.036-8.147-5.642-4.658,4.623-4.158,6.331S1429.368,1584.949,1431.326,1584.012Z" transform="translate(-1410.107 -1558.726)" fill="#be806c"/>
          <path id="Trazado_116623" data-name="Trazado 116623" d="M1419.763,1571.971c.333-1.993,1.346-2.183,2.052-2.051a5.816,5.816,0,0,1,7.073-2.708,9.9,9.9,0,0,0,5.731,3.443s-.844,1.57-4.321,2.542a5.943,5.943,0,0,1-3.43-.274,19.415,19.415,0,0,0,4.935,1.86c-4.582.419-8.941-3.77-9.393-4.218a6.519,6.519,0,0,0-.36,3c.3,1.35,1.5,3.8.768,4.112C1422.819,1577.68,1419.264,1574.961,1419.763,1571.971Z" transform="translate(-1407.397 -1557.151)" fill="#33353a"/>
        </g>
        <path id="Trazado_116624" data-name="Trazado 116624" d="M1250.084,1773.535c.031-.365-56.691-12.457-56.691-12.457a23.106,23.106,0,0,1,13.6-4.624c8.586-.274,44.354,9.344,44.354,9.344Z" transform="translate(-1013.054 -1658.87)" fill="#33353a"/>
        <path id="Trazado_116625" data-name="Trazado 116625" d="M1312.046,1777.015a1.241,1.241,0,1,1-1.225,1.256A1.241,1.241,0,0,1,1312.046,1777.015Z" transform="translate(-1097.765 -1673.706)" fill="#e7728c"/>
        <path id="Trazado_116626" data-name="Trazado 116626" d="M876.792,1655.4a35.6,35.6,0,0,1,4.387,1.99,9.117,9.117,0,0,1,2.324,3.341s-.013.394-.379.393-1.19-1.408-1.792-1.183a12.326,12.326,0,0,0,1.217,2.336,7.285,7.285,0,0,1,.616,3.361c-.092.515-3.187-1.942-4.484-3.059-.69-.594-.67-2.038-.884-3.668-.187-1.43-4.135-2.257-4.135-2.257Z" transform="translate(-782.406 -1585.972)" fill="#be806c"/>
      </g>
    </g>
    <rect id="Rectángulo_340153" data-name="Rectángulo 340153" width="610" height="341" transform="translate(810 392)" fill="none"/>
  </g>
</svg>
