<svg xmlns="http://www.w3.org/2000/svg" width="400" height="172.073" viewBox="0 0 400 172.073">
  <g id="_1" data-name="1" transform="translate(-1020 -402.797)">
    <path id="Trazado_100708" data-name="Trazado 100708" d="M400,0H0V172.073H400Z" transform="translate(1020 402.797)" fill="#0ce6ea" opacity="0.2"/>
    <g id="planificacion" transform="translate(1162 429.297)">
      <circle id="Elipse_4623" data-name="Elipse 4623" cx="57.913" cy="57.913" r="57.913" transform="translate(0 0)" fill="#fbbd5e"/>
      <g id="Grupo_958290" data-name="Grupo 958290" transform="translate(11.945 3.077)">
        <rect id="Rectángulo_340394" data-name="Rectángulo 340394" width="3.62" height="3.62" transform="translate(66.419 41.806)" fill="#183651"/>
        <rect id="Rectángulo_340395" data-name="Rectángulo 340395" width="3.62" height="3.62" transform="translate(77.459 41.806)" fill="#183651"/>
        <rect id="Rectángulo_340396" data-name="Rectángulo 340396" width="3.62" height="3.62" transform="translate(88.318 41.806)" fill="#183651"/>
        <rect id="Rectángulo_340397" data-name="Rectángulo 340397" width="3.62" height="3.62" transform="translate(0 64.248)" fill="#183651"/>
        <rect id="Rectángulo_340398" data-name="Rectángulo 340398" width="3.62" height="3.62" transform="translate(10.859 64.248)" fill="#183651"/>
        <rect id="Rectángulo_340399" data-name="Rectángulo 340399" width="3.62" height="3.62" transform="translate(21.898 64.248)" fill="#183651"/>
        <path id="Trazado_726572" data-name="Trazado 726572" d="M138.017,25.335,135.483,22.8l3.258-3.439-3.258-3.439,2.534-2.534,5.972,5.972Z" transform="translate(-116.299 -13.391)" fill="#183651"/>
        <rect id="Rectángulo_340400" data-name="Rectángulo 340400" width="11.221" height="3.62" transform="translate(13.754 4.163)" fill="#183651"/>
      </g>
      <rect id="Rectángulo_340401" data-name="Rectángulo 340401" width="23.889" height="14.659" transform="translate(45.969 99.357)" fill="#4fbf9f"/>
      <path id="Trazado_726573" data-name="Trazado 726573" d="M217.9,442.845H194.007a1.71,1.71,0,0,1-1.81-1.81V426.376a1.71,1.71,0,0,1,1.81-1.81H217.9a1.71,1.71,0,0,1,1.81,1.81v14.659A1.71,1.71,0,0,1,217.9,442.845Zm-22.079-3.62h20.27v-11.04h-20.27Z" transform="translate(-148.038 -327.018)" fill="#183651"/>
      <rect id="Rectángulo_340402" data-name="Rectángulo 340402" width="23.889" height="14.659" transform="translate(45.969 74.925)" fill="#e0e4e8"/>
      <path id="Trazado_726574" data-name="Trazado 726574" d="M217.9,336.507H194.007a1.71,1.71,0,0,1-1.81-1.81V320.038a1.71,1.71,0,0,1,1.81-1.81H217.9a1.71,1.71,0,0,1,1.81,1.81V334.7A1.71,1.71,0,0,1,217.9,336.507Zm-22.079-3.62h20.27v-11.04h-20.27Z" transform="translate(-148.038 -245.112)" fill="#183651"/>
      <rect id="Rectángulo_340403" data-name="Rectángulo 340403" width="23.889" height="14.659" transform="translate(45.969 50.674)" fill="#4fbf9f"/>
      <path id="Trazado_726575" data-name="Trazado 726575" d="M217.9,230.168H194.007a1.71,1.71,0,0,1-1.81-1.81V213.7a1.71,1.71,0,0,1,1.81-1.81H217.9a1.71,1.71,0,0,1,1.81,1.81v14.659A1.71,1.71,0,0,1,217.9,230.168Zm-22.079-3.62h20.27v-11.04h-20.27Z" transform="translate(-148.038 -163.206)" fill="#183651"/>
      <rect id="Rectángulo_340404" data-name="Rectángulo 340404" width="23.889" height="14.659" transform="translate(45.969 26.242)" fill="#e0e4e8"/>
      <path id="Trazado_726576" data-name="Trazado 726576" d="M217.9,124.617H194.007a1.71,1.71,0,0,1-1.81-1.81V108.148a1.71,1.71,0,0,1,1.81-1.81H217.9a1.71,1.71,0,0,1,1.81,1.81v14.659A1.814,1.814,0,0,1,217.9,124.617ZM195.817,121h20.27v-11.04h-20.27Z" transform="translate(-148.038 -81.906)" fill="#183651"/>
      <rect id="Rectángulo_340405" data-name="Rectángulo 340405" width="23.889" height="14.659" transform="translate(45.969 1.81)" fill="#4fbf9f"/>
      <g id="Grupo_958291" data-name="Grupo 958291" transform="translate(1.267)">
        <path id="Trazado_726577" data-name="Trazado 726577" d="M217.9,18.279H194.007a1.71,1.71,0,0,1-1.81-1.81V1.81A1.71,1.71,0,0,1,194.007,0H217.9a1.71,1.71,0,0,1,1.81,1.81V16.469A1.814,1.814,0,0,1,217.9,18.279Zm-22.079-3.62h20.27V3.62h-20.27Z" transform="translate(-149.305)" fill="#183651"/>
        <path id="Trazado_726578" data-name="Trazado 726578" d="M330.214,448.146l-2.534-2.534,3.258-3.258-3.258-3.439,2.534-2.534,5.791,5.972Z" transform="translate(-253.66 -336.12)" fill="#183651"/>
        <rect id="Rectángulo_340406" data-name="Rectángulo 340406" width="11.221" height="3.62" transform="translate(68.591 104.425)" fill="#183651"/>
        <path id="Trazado_726579" data-name="Trazado 726579" d="M143.712,444.388,141,441.854l3.439-3.439L141,434.977l2.715-2.534,5.791,5.972Z" transform="translate(-109.869 -333.086)" fill="#183651"/>
        <path id="Trazado_726580" data-name="Trazado 726580" d="M42.434,377.127H18.906a13.3,13.3,0,1,1,.181-26.6H50.216v3.62H19.087a9.773,9.773,0,1,0,0,19.546H42.615v3.439h-.181Z" transform="translate(-5.514 -269.987)" fill="#183651"/>
        <path id="Trazado_726581" data-name="Trazado 726581" d="M143.712,232.318,141,229.784l3.439-3.258L141,223.088l2.715-2.534,5.791,5.972Z" transform="translate(-109.869 -169.88)" fill="#183651"/>
        <path id="Trazado_726582" data-name="Trazado 726582" d="M42.434,164.632H18.906A13.362,13.362,0,0,1,5.514,151.239a13.517,13.517,0,0,1,13.573-13.392H50.216v3.619H19.087a9.773,9.773,0,0,0,0,19.546H42.615v3.62h-.181Z" transform="translate(-5.514 -106.176)" fill="#183651"/>
        <path id="Trazado_726583" data-name="Trazado 726583" d="M331.9,342.595l-5.791-5.972,5.791-5.791,2.715,2.534-3.439,3.258,3.439,3.439Z" transform="translate(-252.447 -254.82)" fill="#183651"/>
        <path id="Trazado_726584" data-name="Trazado 726584" d="M335.177,271.088H311.65v-3.62h23.527a9.732,9.732,0,0,0,9.773-9.773v-.9a9.732,9.732,0,0,0-9.773-9.773H304.049V243.4h31.128A13.362,13.362,0,0,1,348.57,256.79v.9A13.362,13.362,0,0,1,335.177,271.088Z" transform="translate(-235.458 -187.475)" fill="#183651"/>
        <path id="Trazado_726585" data-name="Trazado 726585" d="M331.9,130.1l-5.791-5.972,5.791-5.972,2.715,2.534-3.439,3.439,3.439,3.439Z" transform="translate(-252.447 -91.007)" fill="#183651"/>
        <path id="Trazado_726586" data-name="Trazado 726586" d="M335.177,59.2H311.65v-3.62h23.527a9.732,9.732,0,0,0,9.773-9.773v-.9a9.732,9.732,0,0,0-9.773-9.773H304.049v-3.62h31.128A13.362,13.362,0,0,1,348.57,44.9v.9A13.362,13.362,0,0,1,335.177,59.2Z" transform="translate(-235.458 -24.269)" fill="#183651"/>
      </g>
      <rect id="Rectángulo_340407" data-name="Rectángulo 340407" width="23.889" height="14.659" transform="translate(90.128 99.357)" fill="#f06151"/>
      <path id="Trazado_726587" data-name="Trazado 726587" d="M410.093,442.845H386.2a1.71,1.71,0,0,1-1.81-1.81V426.376a1.71,1.71,0,0,1,1.81-1.81h23.889a1.71,1.71,0,0,1,1.81,1.81v14.659A1.71,1.71,0,0,1,410.093,442.845Zm-22.079-3.62h20.27v-11.04h-20.27Z" transform="translate(-296.076 -327.018)" fill="#183651"/>
      <rect id="Rectángulo_340408" data-name="Rectángulo 340408" width="23.889" height="14.659" transform="translate(1.81 1.81)" fill="#f06151"/>
      <path id="Trazado_726588" data-name="Trazado 726588" d="M25.7,18.279H1.81A1.71,1.71,0,0,1,0,16.469V1.81A1.71,1.71,0,0,1,1.81,0H25.7a1.71,1.71,0,0,1,1.81,1.81V16.469A1.814,1.814,0,0,1,25.7,18.279ZM3.62,14.659h20.27V3.62H3.62Z" fill="#183651"/>
    </g>
  </g>
</svg>
