<svg xmlns="http://www.w3.org/2000/svg" width="295" height="267" viewBox="0 0 295 267">
  <g id="_1" data-name="1" transform="translate(-180 -559)">
    <g id="Grupo_958332" data-name="Grupo 958332" transform="translate(-105 -193)">
      <path id="Trazado_100708" data-name="Trazado 100708" d="M295,0H0V267H295Z" transform="translate(285 752)" fill="#0ce6ea" opacity="0.2"/>
    </g>
    <g id="diagrama-de-flujo" transform="translate(244.502 614.75)">
      <g id="Flat" transform="translate(2.578 2.578)">
        <rect id="Rectángulo_340428" data-name="Rectángulo 340428" width="58.489" height="29.244" rx="1" transform="translate(51.174)" fill="#fa82a8"/>
        <rect id="Rectángulo_340429" data-name="Rectángulo 340429" width="43.867" height="14.622" rx="0.5" transform="translate(58.485 146.222)" fill="#8e8be7"/>
        <path id="Trazado_726669" data-name="Trazado 726669" d="M28.83,38.934a3.656,3.656,0,0,1-2.2-.725L10.8,26.329a3.656,3.656,0,0,1,0-5.849L26.637,8.6a3.619,3.619,0,0,1,2.193-.725,3.656,3.656,0,0,1,2.2.725L46.865,20.48a3.656,3.656,0,0,1,0,5.849L31.024,38.209A3.661,3.661,0,0,1,28.83,38.934Z" transform="translate(51.588 42.395)" fill="#fa82a8"/>
        <path id="Trazado_726670" data-name="Trazado 726670" d="M21.273,36.933A3.656,3.656,0,0,1,18,31.643l6.3-12.6A7.264,7.264,0,0,1,30.848,15H53.309a3.656,3.656,0,0,1,3.27,5.294l-6.3,12.6a7.28,7.28,0,0,1-6.543,4.041Z" transform="translate(103.868 87.355)" fill="#7dfad0"/>
        <path id="Trazado_726671" data-name="Trazado 726671" d="M4.659,36.933a3.656,3.656,0,0,1-3.27-5.294l6.3-12.6A7.28,7.28,0,0,1,14.229,15H36.694a3.656,3.656,0,0,1,3.27,5.29l-6.3,12.6a7.264,7.264,0,0,1-6.541,4.041Z" transform="translate(-1 87.355)" fill="#7dfad0"/>
        <rect id="Rectángulo_340430" data-name="Rectángulo 340430" width="29.244" height="21.933" rx="1" transform="translate(65.796 102.355)" fill="#fabb7d"/>
        <g id="Grupo_958330" data-name="Grupo 958330" transform="translate(10.089 87.733)">
          <path id="Trazado_726672" data-name="Trazado 726672" d="M20.254,16.656c-.771-.775-1.035-1.485-.778-2.11C19.883,13.578,21.539,13,23.909,13s4.027.578,4.427,1.546c.264.625,0,1.335-.771,2.11l-3.656,3.656Z" transform="translate(104.908 -13)" fill="#fa8f82"/>
          <path id="Trazado_726673" data-name="Trazado 726673" d="M3.254,16.656c-.771-.775-1.035-1.485-.778-2.11C2.883,13.578,4.539,13,6.909,13s4.027.578,4.427,1.546c.264.625,0,1.335-.771,2.11L6.909,20.311Z" transform="translate(-2.381 -13)" fill="#fa8f82"/>
          <path id="Trazado_726674" data-name="Trazado 726674" d="M9.035,30.354a1.326,1.326,0,0,1-.485-.1C7.578,29.857,7,28.2,7,25.831S7.578,21.8,8.549,21.4l.286-.01a2.413,2.413,0,0,1,1.82.782l3.656,3.656-3.656,3.656A2.549,2.549,0,0,1,9.035,30.354Z" transform="translate(26.773 39.969)" fill="#fa8f82"/>
          <path id="Trazado_726675" data-name="Trazado 726675" d="M21.276,30.428a2.559,2.559,0,0,1-1.621-.864L16,25.9l3.656-3.656a2.549,2.549,0,0,1,1.621-.868c1.456.5,2.035,2.153,2.035,4.523s-.578,4.027-1.549,4.427Z" transform="translate(83.573 39.895)" fill="#fa8f82"/>
          <path id="Trazado_726676" data-name="Trazado 726676" d="M20.276,25.042a2.559,2.559,0,0,1-1.621-.863L15,20.523l3.656-3.656A2.566,2.566,0,0,1,20.276,16c1.456.5,2.035,2.152,2.035,4.523s-.578,4.026-1.549,4.426Z" transform="translate(77.262 5.933)" fill="#fa8f82"/>
          <path id="Trazado_726677" data-name="Trazado 726677" d="M10.035,24.972a1.311,1.311,0,0,1-.485-.1C8.578,24.476,8,22.82,8,20.449s.578-4.021,1.542-4.423a2.977,2.977,0,0,1,.307-.015,2.386,2.386,0,0,1,1.807.782l3.656,3.656L11.656,24.1a2.549,2.549,0,0,1-1.621.867Z" transform="translate(33.084 6.004)" fill="#fa8f82"/>
        </g>
        <path id="Trazado_726678" data-name="Trazado 726678" d="M25.82,18.483l-1.9,1.828-3.656-3.656c-.8-.8-1.024-1.462-.8-2.12.439-.95,2.12-1.535,4.46-1.535h.8a1.864,1.864,0,0,0-.585.877,3.679,3.679,0,0,0,1.17,4.094Z" transform="translate(114.988 74.733)" fill="#e68477"/>
        <path id="Trazado_726679" data-name="Trazado 726679" d="M8.82,18.483l-1.9,1.828L3.263,16.656c-.8-.8-1.024-1.462-.8-2.12C2.9,13.585,4.579,13,6.919,13h.8a1.864,1.864,0,0,0-.585.877,3.679,3.679,0,0,0,1.17,4.094Z" transform="translate(7.699 74.733)" fill="#e68477"/>
        <path id="Trazado_726680" data-name="Trazado 726680" d="M11.752,23.364a13.1,13.1,0,0,0-.219,2.486,13.354,13.354,0,0,0,.219,2.559l-1.1,1.1a2.705,2.705,0,0,1-1.608.877c-.219,0-.366-.073-.512-.073C7.585,29.871,7,28.19,7,25.85s.585-4.021,1.535-4.46h.292a2.393,2.393,0,0,1,1.828.8l1.1,1.1Z" transform="translate(36.863 127.683)" fill="#e68477"/>
        <path id="Trazado_726681" data-name="Trazado 726681" d="M21.045,27.229,22.8,28.984a2.128,2.128,0,0,1-1.024,1.389l-.512.073a2.705,2.705,0,0,1-1.608-.877L16,25.913l3.656-3.656a2.705,2.705,0,0,1,1.608-.877A2.72,2.72,0,0,1,22.8,22.842L21.045,24.6a1.853,1.853,0,0,0,0,2.632Z" transform="translate(93.663 127.62)" fill="#e68477"/>
        <path id="Trazado_726682" data-name="Trazado 726682" d="M20.045,21.776,21.8,23.53a1.956,1.956,0,0,1-1.024,1.389l-.512.146a2.7,2.7,0,0,1-1.608-.877L15,20.533l3.656-3.656A2.375,2.375,0,0,1,20.264,16,2.521,2.521,0,0,1,21.8,17.462l-1.755,1.755a1.766,1.766,0,0,0,0,2.559Z" transform="translate(87.352 93.666)" fill="#e68477"/>
        <path id="Trazado_726683" data-name="Trazado 726683" d="M12.752,17.984a13.1,13.1,0,0,0-.219,2.486,13.356,13.356,0,0,0,.219,2.559l-1.1,1.1A2.705,2.705,0,0,1,10.047,25a1.057,1.057,0,0,1-.512-.146C8.585,24.491,8,22.81,8,20.47c0-2.413.585-4.021,1.535-4.46h.292a2.393,2.393,0,0,1,1.828.8l1.1,1.1Z" transform="translate(43.174 93.729)" fill="#e68477"/>
        <path id="Trazado_726684" data-name="Trazado 726684" d="M19.967,31.967a5.138,5.138,0,0,0,1.462,3.656H12.656A3.62,3.62,0,0,1,9,31.967V24.656A3.62,3.62,0,0,1,12.656,21h8.773a5.138,5.138,0,0,0-1.462,3.656Z" transform="translate(49.485 125.222)" fill="#7e7cce"/>
        <path id="Trazado_726685" data-name="Trazado 726685" d="M22.7,30.244H15.311A7.332,7.332,0,0,1,8,22.933V8.311A7.332,7.332,0,0,1,15.311,1H22.7a8.966,8.966,0,0,0-3.729,7.311V22.933A8.966,8.966,0,0,0,22.7,30.244Z" transform="translate(43.174 -1)" fill="#e17597"/>
        <path id="Trazado_726686" data-name="Trazado 726686" d="M22.49,27.766l11.186,8.408-2.632,1.974a3.656,3.656,0,0,1-4.387,0L10.792,26.3a3.656,3.656,0,0,1,0-5.849L26.657,8.611a3.656,3.656,0,0,1,4.387,0l2.632,1.974L22.49,18.993a5.483,5.483,0,0,0,0,8.773Z" transform="translate(51.568 42.42)" fill="#e17597"/>
        <path id="Trazado_726687" data-name="Trazado 726687" d="M38.117,15a9.444,9.444,0,0,0-2.632,3.217L29.2,30.792a5.349,5.349,0,0,0,.219,5.337,2.286,2.286,0,0,0,.658.8H21.3a3.62,3.62,0,0,1-3.144-1.755,3.544,3.544,0,0,1-.146-3.509L24.3,19.022A7.252,7.252,0,0,1,30.879,15Z" transform="translate(103.861 87.355)" fill="#70e1bb"/>
        <path id="Trazado_726688" data-name="Trazado 726688" d="M21.468,15a9.444,9.444,0,0,0-2.632,3.217L12.548,30.792a5.349,5.349,0,0,0,.219,5.337,2.285,2.285,0,0,0,.658.8H4.652a3.589,3.589,0,0,1-3.071-1.755,3.554,3.554,0,0,1-.219-3.509L7.723,19.021A7.223,7.223,0,0,1,14.23,15Z" transform="translate(-1.001 87.355)" fill="#70e1bb"/>
        <path id="Trazado_726689" data-name="Trazado 726689" d="M24.7,36.933H17.311A7.332,7.332,0,0,1,10,29.622V22.311A7.332,7.332,0,0,1,17.311,15H24.7a8.966,8.966,0,0,0-3.729,7.311v7.311A8.966,8.966,0,0,0,24.7,36.933Z" transform="translate(55.796 87.355)" fill="#e1a870"/>
        <path id="Trazado_726690" data-name="Trazado 726690" d="M48.371,23.38A3.817,3.817,0,0,1,46.909,26.3l-13.233,9.87-2.632,1.974a3.656,3.656,0,0,1-4.387,0L10.792,26.3a3.656,3.656,0,0,1,0-5.849L26.657,8.611a3.656,3.656,0,0,1,4.387,0l2.632,1.974,13.233,9.87a3.817,3.817,0,0,1,1.462,2.924Z" transform="translate(51.568 42.42)" fill="#fa82a8"/>
      </g>
      <g id="Outline" transform="translate(0.751 0.75)">
        <path id="Trazado_726691" data-name="Trazado 726691" d="M57.1,146.972H40.65V128.694h5.483a9.147,9.147,0,0,0,9.139-9.139v-7.311a9.147,9.147,0,0,0-9.139-9.139H40.65V85.4a5.449,5.449,0,0,0,1.462-.758L57.948,72.765a5.483,5.483,0,0,0,.007-8.773L42.112,52.11a5.4,5.4,0,0,0-1.462-.757V33.65H60.755a9.147,9.147,0,0,0,9.139-9.139V9.889A9.147,9.147,0,0,0,60.755.75a1.828,1.828,0,1,0,0,3.656,5.491,5.491,0,0,1,5.483,5.483V24.511a5.491,5.491,0,0,1-5.483,5.483H16.889a5.491,5.491,0,0,1-5.483-5.483V9.889a5.491,5.491,0,0,1,5.483-5.483H53.444a2.278,2.278,0,0,0,1.316-.512,2.1,2.1,0,0,0,.512-1.316,2.1,2.1,0,0,0-.512-1.316,1.73,1.73,0,0,0-.854-.319C53.74.9,53.623.75,53.444.75H16.889A9.147,9.147,0,0,0,7.75,9.889V24.511a9.147,9.147,0,0,0,9.139,9.139H36.994v17.7a5.4,5.4,0,0,0-1.462.757L19.695,63.991a5.483,5.483,0,0,0-.007,8.773L35.531,84.645a5.44,5.44,0,0,0,1.462.759v17.7H31.511a9.147,9.147,0,0,0-9.139,9.139v7.311a9.147,9.147,0,0,0,9.139,9.139h5.483v18.278H20.544a5.491,5.491,0,0,0-5.483,5.483v7.311a5.491,5.491,0,0,0,5.483,5.483H24.2a1.828,1.828,0,1,0,0-3.656H20.544a1.828,1.828,0,0,1-1.828-1.828v-7.311a1.828,1.828,0,0,1,1.828-1.828H57.1a1.828,1.828,0,0,1,1.828,1.828v7.311a1.828,1.828,0,0,1-1.828,1.828H31.511a1.828,1.828,0,1,0,0,3.656H57.1a5.491,5.491,0,0,0,5.483-5.483v-7.311A5.491,5.491,0,0,0,57.1,146.972ZM21.879,69.84a1.823,1.823,0,0,1,.007-2.924L37.73,55.035a1.82,1.82,0,0,1,2.185,0l15.85,11.881a1.823,1.823,0,0,1-.007,2.92L39.914,81.716a1.82,1.82,0,0,1-2.185,0Zm4.148,49.715v-7.311a5.491,5.491,0,0,1,5.483-5.483H46.133a5.491,5.491,0,0,1,5.483,5.483v7.311a5.491,5.491,0,0,1-5.483,5.483H31.511a5.491,5.491,0,0,1-5.483-5.483Z" transform="translate(43.423 -0.75)" fill="#231f20"/>
        <path id="Trazado_726692" data-name="Trazado 726692" d="M59.556,17.356a5.448,5.448,0,0,0-4.67-2.606H32.426A9.079,9.079,0,0,0,24.25,19.8l-6.3,12.6a5.483,5.483,0,0,0,4.905,7.935H45.317a9.1,9.1,0,0,0,8.175-5.051l6.3-12.6a5.443,5.443,0,0,0-.232-5.333Zm-3.034,3.7-6.3,12.6a5.462,5.462,0,0,1-4.905,3.034H22.851a1.828,1.828,0,0,1-1.635-2.645l6.3-12.6v0a5.453,5.453,0,0,1,4.905-3.028H54.887a1.828,1.828,0,0,1,1.635,2.645Z" transform="translate(104.118 87.605)" fill="#231f20"/>
        <path id="Trazado_726693" data-name="Trazado 726693" d="M7.182,42.115a1.828,1.828,0,0,0,2.585,0l3.656-3.656a3.618,3.618,0,0,0,1.17-4.1A4.987,4.987,0,0,0,10.3,31.83V26.2A12.811,12.811,0,0,1,23.1,13.406H45.03a1.828,1.828,0,1,0,0-3.656H23.1A16.47,16.47,0,0,0,6.646,26.2v5.63a4.988,4.988,0,0,0-4.291,2.529,3.618,3.618,0,0,0,1.17,4.1Zm1.293-6.776c1.642,0,2.47.328,2.67.167a2.409,2.409,0,0,1-.307.366L8.474,38.238,6.111,35.874l-.157-.164a6.678,6.678,0,0,1,2.52-.371Z" transform="translate(7.972 56.05)" fill="#231f20"/>
        <path id="Trazado_726694" data-name="Trazado 726694" d="M38.77,37.563a3.615,3.615,0,0,0-4.1-1.17,4.977,4.977,0,0,0-2.531,4.29H19.2A12.811,12.811,0,0,1,6.406,27.889V20.578a1.828,1.828,0,1,0-3.656,0v7.311A16.47,16.47,0,0,0,19.2,44.339H32.141a4.977,4.977,0,0,0,2.533,4.287,3.105,3.105,0,0,0,1.185.236,4.1,4.1,0,0,0,2.913-1.4L42.427,43.8a1.828,1.828,0,0,0,0-2.585Zm-2.585,7.311-.164.157a6.756,6.756,0,0,1-.371-2.52c0-1.66.314-2.486.164-2.666a1.755,1.755,0,0,1,.371.3l2.364,2.363Z" transform="translate(11.868 112.85)" fill="#231f20"/>
        <path id="Trazado_726695" data-name="Trazado 726695" d="M18.578,6.406h7.311A12.811,12.811,0,0,1,38.683,19.2V76.007a4.988,4.988,0,0,0-4.291,2.529,3.618,3.618,0,0,0,1.17,4.1l3.656,3.656a1.828,1.828,0,0,0,2.585,0l3.656-3.656a3.618,3.618,0,0,0,1.17-4.1,4.987,4.987,0,0,0-4.289-2.529V19.2A16.47,16.47,0,0,0,25.889,2.75H18.578a1.828,1.828,0,1,0,0,3.656Zm24.3,73.646-2.363,2.364-2.363-2.364-.157-.164a6.678,6.678,0,0,1,2.52-.371c1.642,0,2.47.328,2.67.167a2.408,2.408,0,0,1-.307.368Z" transform="translate(100.223 11.872)" fill="#231f20"/>
        <path id="Trazado_726696" data-name="Trazado 726696" d="M46.824,18.75A1.828,1.828,0,0,0,45,20.578v7.311A12.811,12.811,0,0,1,32.2,40.683h-5.63A4.977,4.977,0,0,0,24.039,36.4a3.621,3.621,0,0,0-4.1,1.17l-3.656,3.656a1.828,1.828,0,0,0,0,2.585l3.656,3.656a4.1,4.1,0,0,0,2.913,1.4,3.1,3.1,0,0,0,1.185-.236,4.977,4.977,0,0,0,2.533-4.29H32.2a16.47,16.47,0,0,0,16.45-16.45V20.578A1.828,1.828,0,0,0,46.824,18.75ZM22.9,45.177a1.754,1.754,0,0,1-.371-.3l-2.364-2.363,2.364-2.363.164-.157a6.756,6.756,0,0,1,.371,2.52c0,1.66-.314,2.486-.164,2.666Z" transform="translate(93.911 112.85)" fill="#231f20"/>
        <path id="Trazado_726697" data-name="Trazado 726697" d="M11.578,5.406H26.2a1.828,1.828,0,1,0,0-3.656H11.578a1.828,1.828,0,0,0,0,3.656Z" transform="translate(56.046 5.561)" fill="#231f20"/>
        <path id="Trazado_726698" data-name="Trazado 726698" d="M11.578,6.406H26.2a1.828,1.828,0,1,0,0-3.656H11.578a1.828,1.828,0,0,0,0,3.656Z" transform="translate(56.046 11.872)" fill="#231f20"/>
        <path id="Trazado_726699" data-name="Trazado 726699" d="M11.578,7.406H40.822a1.828,1.828,0,0,0,0-3.656H11.578a1.828,1.828,0,0,0,0,3.656Z" transform="translate(56.046 18.183)" fill="#231f20"/>
        <path id="Trazado_726700" data-name="Trazado 726700" d="M36.873,35.288l6.3-12.605A5.483,5.483,0,0,0,39.551,14.9a1.828,1.828,0,1,0-.842,3.555,1.823,1.823,0,0,1,1.221,1.01,1.779,1.779,0,0,1-.022,1.585L33.6,33.656A5.453,5.453,0,0,1,28.7,36.683H6.237A1.828,1.828,0,0,1,4.6,34.038l6.3-12.6a5.462,5.462,0,0,1,4.908-3.034H31.819a1.828,1.828,0,0,0,0-3.656H15.807A9.1,9.1,0,0,0,7.632,19.8l-6.3,12.6a5.483,5.483,0,0,0,4.906,7.939H28.7a9.079,9.079,0,0,0,8.175-5.051Z" transform="translate(-0.751 87.605)" fill="#231f20"/>
        <path id="Trazado_726701" data-name="Trazado 726701" d="M25.572,23.916H31.2a1.828,1.828,0,1,0,0-3.656h-5.63a4.982,4.982,0,0,0-2.525-4.284,3.621,3.621,0,0,0-4.106,1.164L15.285,20.8a1.828,1.828,0,0,0,0,2.584l3.656,3.656a4.1,4.1,0,0,0,2.913,1.4,3.1,3.1,0,0,0,1.185-.235,4.977,4.977,0,0,0,2.533-4.287Zm-3.675.839a1.777,1.777,0,0,1-.371-.3l-2.364-2.363,2.364-2.364.164-.157a6.758,6.758,0,0,1,.371,2.521c0,1.66-.313,2.484-.163,2.666Z" transform="translate(87.6 93.926)" fill="#231f20"/>
        <path id="Trazado_726702" data-name="Trazado 726702" d="M24.493,20.8l-3.656-3.656a3.6,3.6,0,0,0-4.106-1.164,4.982,4.982,0,0,0-2.525,4.284H8.578a1.828,1.828,0,1,0,0,3.656h5.63a4.977,4.977,0,0,0,2.533,4.287,3.107,3.107,0,0,0,1.185.235,4.1,4.1,0,0,0,2.913-1.4l3.656-3.656a1.828,1.828,0,0,0,0-2.584Zm-6.241,3.656-.164.157a6.756,6.756,0,0,1-.371-2.52c0-1.66.314-2.486.164-2.667a1.8,1.8,0,0,1,.371.3l2.364,2.364Z" transform="translate(37.112 93.922)" fill="#231f20"/>
      </g>
    </g>
  </g>
</svg>
