<svg xmlns="http://www.w3.org/2000/svg" xmlns:xlink="http://www.w3.org/1999/xlink" width="493" height="220" viewBox="0 0 493 220">
  <defs>
    <clipPath id="clip-path">
      <rect id="Rectángulo_340359" data-name="Rectángulo 340359" width="360" height="209.057" fill="none"/>
    </clipPath>
  </defs>
  <g id="_1" data-name="1" transform="translate(-915 -406)">
    <rect id="Rectángulo_340360" data-name="Rectángulo 340360" width="493" height="220" transform="translate(915 406)" fill="#fff"/>
    <g id="Grupo_958241" data-name="Grupo 958241" transform="translate(955 412.967)">
      <path id="Trazado_726433" data-name="Trazado 726433" d="M72.964,614.314V526.578H141.9V468.7H339.412v15.243h72.442l1.193,130.37Z" transform="translate(-63.14 -405.598)" fill="#f1f2f5"/>
      <g id="Grupo_958240" data-name="Grupo 958240" transform="translate(0 -0.004)">
        <g id="Grupo_958239" data-name="Grupo 958239" transform="translate(0 0)" clip-path="url(#clip-path)">
          <path id="Trazado_726434" data-name="Trazado 726434" d="M792.478,294.049H657.244a8.4,8.4,0,0,1-8.4-8.4V107.01a8.4,8.4,0,0,1,8.4-8.4H792.478a8.4,8.4,0,0,1,8.4,8.4V285.645a8.4,8.4,0,0,1-8.4,8.4" transform="translate(-561.479 -85.329)" fill="#1d2238"/>
          <rect id="Rectángulo_340329" data-name="Rectángulo 340329" width="133.101" height="172.169" transform="translate(96.831 24.914)" fill="#fff"/>
          <path id="Trazado_726435" data-name="Trazado 726435" d="M1096.04,10.2a10.316,10.316,0,0,0-20.631,0h-9.559V26.55H1105.6V10.2Zm-10.316,1.633a3.639,3.639,0,1,1,3.639-3.639,3.639,3.639,0,0,1-3.639,3.639" transform="translate(-922.343 0.004)" fill="#0ce6ea"/>
          <rect id="Rectángulo_340330" data-name="Rectángulo 340330" width="90.093" height="5.503" transform="translate(134.403 42.894)" fill="#f1f2f5"/>
          <rect id="Rectángulo_340331" data-name="Rectángulo 340331" width="90.093" height="5.503" transform="translate(134.403 53.64)" fill="#f1f2f5"/>
          <rect id="Rectángulo_340332" data-name="Rectángulo 340332" width="43.906" height="5.503" transform="translate(134.403 64.387)" fill="#f1f2f5"/>
          <path id="Trazado_726436" data-name="Trazado 726436" d="M807.5,343.381H782.164v-27.8H807.5Zm-24.531-.808h23.723V316.385H782.972Z" transform="translate(-676.853 -273.087)" fill="#9ea9bd"/>
          <path id="Trazado_726437" data-name="Trazado 726437" d="M828.036,309.252l5.938,8.26,16.371-15.4,2.907,3.754L833.125,325.1l-8.678-12.581Z" transform="translate(-713.443 -261.436)" fill="#ea526f"/>
          <rect id="Rectángulo_340333" data-name="Rectángulo 340333" width="90.093" height="5.503" transform="translate(134.403 78.35)" fill="#f1f2f5"/>
          <rect id="Rectángulo_340334" data-name="Rectángulo 340334" width="90.093" height="5.503" transform="translate(134.403 89.096)" fill="#f1f2f5"/>
          <rect id="Rectángulo_340335" data-name="Rectángulo 340335" width="43.906" height="5.503" transform="translate(134.403 99.843)" fill="#f1f2f5"/>
          <path id="Trazado_726438" data-name="Trazado 726438" d="M807.5,606.718H782.164v-27.8H807.5Zm-24.531-.808h23.723V579.722H782.972Z" transform="translate(-676.853 -500.968)" fill="#9ea9bd"/>
          <path id="Trazado_726439" data-name="Trazado 726439" d="M828.036,572.589l5.938,8.26,16.371-15.4,2.907,3.755-20.126,19.23-8.678-12.581Z" transform="translate(-713.443 -489.317)" fill="#ea526f"/>
          <rect id="Rectángulo_340336" data-name="Rectángulo 340336" width="90.093" height="5.503" transform="translate(134.403 113.806)" fill="#f1f2f5"/>
          <rect id="Rectángulo_340337" data-name="Rectángulo 340337" width="90.093" height="5.503" transform="translate(134.403 124.552)" fill="#f1f2f5"/>
          <rect id="Rectángulo_340338" data-name="Rectángulo 340338" width="43.906" height="5.503" transform="translate(134.403 135.299)" fill="#f1f2f5"/>
          <path id="Trazado_726440" data-name="Trazado 726440" d="M807.5,870.055H782.164v-27.8H807.5Zm-24.531-.808h23.723V843.059H782.972Z" transform="translate(-676.853 -728.849)" fill="#9ea9bd"/>
          <path id="Trazado_726441" data-name="Trazado 726441" d="M828.036,835.926l5.938,8.26,16.371-15.4,2.907,3.754-20.126,19.23-8.678-12.581Z" transform="translate(-713.443 -717.199)" fill="#ea526f"/>
          <rect id="Rectángulo_340339" data-name="Rectángulo 340339" width="90.093" height="5.503" transform="translate(134.403 149.262)" fill="#f1f2f5"/>
          <rect id="Rectángulo_340340" data-name="Rectángulo 340340" width="90.093" height="5.503" transform="translate(134.403 160.008)" fill="#f1f2f5"/>
          <rect id="Rectángulo_340341" data-name="Rectángulo 340341" width="43.906" height="5.503" transform="translate(134.403 170.755)" fill="#f1f2f5"/>
          <path id="Trazado_726442" data-name="Trazado 726442" d="M807.5,1133.391H782.164v-27.8H807.5Zm-24.531-.808h23.723v-26.188H782.972Z" transform="translate(-676.853 -956.729)" fill="#9ea9bd"/>
          <path id="Trazado_726443" data-name="Trazado 726443" d="M828.036,1099.263l5.938,8.26,16.371-15.4,2.907,3.754-20.126,19.23-8.678-12.581Z" transform="translate(-713.443 -945.08)" fill="#ea526f"/>
          <rect id="Rectángulo_340342" data-name="Rectángulo 340342" width="41.851" height="42.028" transform="translate(264.617 166.692)" fill="#9ea9bd"/>
          <rect id="Rectángulo_340343" data-name="Rectángulo 340343" width="5.044" height="6.655" transform="translate(283.02 166.691)" fill="#1d2238"/>
          <rect id="Rectángulo_340344" data-name="Rectángulo 340344" width="29.965" height="42.028" transform="translate(306.468 166.692)" fill="#d2d6e1"/>
          <rect id="Rectángulo_340345" data-name="Rectángulo 340345" width="3.835" height="6.655" transform="translate(319.532 166.691)" fill="#1d2238"/>
          <rect id="Rectángulo_340346" data-name="Rectángulo 340346" width="41.851" height="80.434" transform="translate(256.551 86.257)" fill="#0ce6ea"/>
          <rect id="Rectángulo_340347" data-name="Rectángulo 340347" width="5.044" height="12.736" transform="translate(274.954 86.257)" fill="#1d2238"/>
          <rect id="Rectángulo_340348" data-name="Rectángulo 340348" width="29.965" height="80.434" transform="translate(298.402 86.257)" fill="#dbfafa"/>
          <rect id="Rectángulo_340349" data-name="Rectángulo 340349" width="3.835" height="12.736" transform="translate(311.467 86.257)" fill="#1d2238"/>
          <rect id="Rectángulo_340350" data-name="Rectángulo 340350" width="53.825" height="42.028" transform="translate(186.185 166.692)" fill="#ff6e33"/>
          <rect id="Rectángulo_340351" data-name="Rectángulo 340351" width="6.488" height="6.655" transform="translate(209.853 166.691)" fill="#1d2238"/>
          <rect id="Rectángulo_340352" data-name="Rectángulo 340352" width="35.617" height="42.028" transform="translate(240.01 166.692)" fill="#dbfafa"/>
          <rect id="Rectángulo_340353" data-name="Rectángulo 340353" width="6.488" height="6.655" transform="translate(255.622 166.691)" fill="#1d2238"/>
          <rect id="Rectángulo_340354" data-name="Rectángulo 340354" width="41.851" height="42.029" transform="translate(192.801 124.663)" fill="#d2d6e1"/>
          <rect id="Rectángulo_340355" data-name="Rectángulo 340355" width="5.044" height="6.655" transform="translate(211.204 124.663)" fill="#1d2238"/>
          <rect id="Rectángulo_340356" data-name="Rectángulo 340356" width="29.965" height="42.029" transform="translate(234.652 124.663)" fill="#f1f2f5"/>
          <rect id="Rectángulo_340357" data-name="Rectángulo 340357" width="3.835" height="6.655" transform="translate(247.717 124.663)" fill="#1d2238"/>
          <rect id="Rectángulo_340358" data-name="Rectángulo 340358" width="360" height="0.673" transform="translate(0 208.383)" fill="#1d2238"/>
          <path id="Trazado_726444" data-name="Trazado 726444" d="M441.455,556.071l-1.389.929-7.4-11.066a.835.835,0,1,1,1.389-.929Z" transform="translate(-374.29 -471.303)" fill="#1d2238"/>
          <path id="Trazado_726445" data-name="Trazado 726445" d="M444.4,618.392s.572-4.754,1.761-4.974a27.694,27.694,0,0,1,5.414,0,5.291,5.291,0,0,1,3.037,2.6l-7.527,7.307Z" transform="translate(-384.565 -530.71)" fill="#eb9481"/>
          <path id="Trazado_726446" data-name="Trazado 726446" d="M365.969,354.628a10.768,10.768,0,0,1,1.96,4.451,2.4,2.4,0,0,1-1.038,2.614l-5.106-7.065Z" transform="translate(-313.074 -306.88)" fill="#1d2238"/>
          <path id="Trazado_726447" data-name="Trazado 726447" d="M273.262,345.356h0a8.312,8.312,0,0,0-8.287,7.681l-.068-.011-1.8,11.216a4.528,4.528,0,0,0,3.754,5.187c2.469.4,4.363,1.1,5.187-3.754l.127-.8a8.3,8.3,0,0,0,9.4-8.241v-2.969a8.314,8.314,0,0,0-8.314-8.313" transform="translate(-227.634 -298.856)" fill="#eb9481"/>
          <path id="Trazado_726448" data-name="Trazado 726448" d="M376.16,396.476a6,6,0,0,1,.157.653c.024.109.038.218.055.327s.035.218.045.326c.026.218.05.436.061.653l.022.327.007.327-.369-.369c.139,0,.277-.009.416-.006.071,0,.126,0,.246.01a1.152,1.152,0,0,1,.3.083,1.026,1.026,0,0,1,.611.992,1.012,1.012,0,0,1-.211.543.923.923,0,0,1-.461.3.833.833,0,0,1-.264.029,1.587,1.587,0,0,1-.226-.037c-.139-.031-.278-.066-.416-.109l-.006,0a.02.02,0,0,1-.014-.026.021.021,0,0,1,.019-.015l.416-.006c.069,0,.14,0,.2-.007a.8.8,0,0,0,.192-.051.674.674,0,0,0,0-1.243.747.747,0,0,0-.19-.048c-.064,0-.135,0-.2,0H376.1v-.04c.006-.871,0-1.742.019-2.613a.021.021,0,0,1,.04-.006Z" transform="translate(-325.461 -343.076)" fill="#1d2238"/>
          <path id="Trazado_726449" data-name="Trazado 726449" d="M386.2,393.358a.577.577,0,1,1-.577-.577.577.577,0,0,1,.577.577" transform="translate(-333.199 -339.896)" fill="#1d2238"/>
          <path id="Trazado_726450" data-name="Trazado 726450" d="M361.688,431.694s-.957-1.394-3.745-1.358Z" transform="translate(-309.749 -372.394)" fill="#fff"/>
          <path id="Trazado_726451" data-name="Trazado 726451" d="M378.489,378.445c-.052.215.4.508,1,.654s1.135.09,1.187-.125-.395-.508-1-.654-1.135-.09-1.187.125" transform="translate(-327.526 -327.311)" fill="#1d2238"/>
          <path id="Trazado_726452" data-name="Trazado 726452" d="M361.349,395.348a.577.577,0,1,1-.577-.577.577.577,0,0,1,.577.577" transform="translate(-311.698 -341.618)" fill="#1d2238"/>
          <path id="Trazado_726453" data-name="Trazado 726453" d="M353.669,380.928c.055.214.588.262,1.189.107s1.044-.455.988-.669-.588-.262-1.189-.107-1.044.455-.989.669" transform="translate(-306.047 -328.981)" fill="#1d2238"/>
          <path id="Trazado_726454" data-name="Trazado 726454" d="M360.593,431.977a6.706,6.706,0,0,1-1.219-.223c-.2-.047-.391-.115-.586-.172s-.383-.135-.574-.2-.377-.151-.564-.232-.372-.165-.552-.262a6.773,6.773,0,0,1-1.059-.643l0,0a.017.017,0,0,1,.016-.029l2.283.851,2.271.882a.017.017,0,0,1-.007.032Z" transform="translate(-308.093 -372.286)" fill="#1d2238"/>
          <path id="Trazado_726455" data-name="Trazado 726455" d="M251.959,325.462s7.242-6.381,14.252-6.379c0,0,3.062-.135,4.193,2.459,0,0-1.349-10.591-13.054-8.805s-7.036,13.738-7.036,13.738Z" transform="translate(-215.816 -270.453)" fill="#0ce6ea"/>
          <path id="Trazado_726456" data-name="Trazado 726456" d="M286.905,370.864s-1.426,1.732-4.405,4.879c-.737.778-2.013,1.855-2.013,1.855a5.441,5.441,0,0,0-.242-2.817,28.177,28.177,0,0,1,6.66-3.917" transform="translate(-242.513 -320.93)" fill="#1d2238"/>
          <path id="Trazado_726457" data-name="Trazado 726457" d="M351.433,360.023a3.948,3.948,0,0,0,3.253,1.774s-3.734,1.227-5.19-1.369Z" transform="translate(-302.439 -311.549)" fill="#1d2238"/>
          <path id="Trazado_726458" data-name="Trazado 726458" d="M258.47,405.879l-.552,3.252-1.694-4.889,2.842-1.841Z" transform="translate(-221.726 -348.22)" fill="#1d2238"/>
          <path id="Trazado_726459" data-name="Trazado 726459" d="M260.022,398.416a1.693,1.693,0,1,0,1.655-2.048,1.883,1.883,0,0,0-1.655,2.048" transform="translate(-225.012 -343)" fill="#eb9481"/>
          <path id="Trazado_726460" data-name="Trazado 726460" d="M267.83,403.594a1.248,1.248,0,0,0-.447-.256.61.61,0,0,0-.207-.031.555.555,0,0,0-.182.028.822.822,0,0,0-.475.507,1.144,1.144,0,0,0-.058.19c0,.033-.014.066-.018.1l-.005.051,0,.037c0,.012,0,.008,0,.013s-.006-.008-.015-.023a.165.165,0,0,0-.1-.068c-.049,0,.027.022.1.012.148-.017.336-.057.525-.087a1.292,1.292,0,0,1,.6.024l.006,0a.02.02,0,0,1,.012.026.021.021,0,0,1-.018.013,1.622,1.622,0,0,0-.519.144c-.17.067-.338.143-.518.2a.557.557,0,0,1-.291.022.209.209,0,0,1-.127-.1.344.344,0,0,1-.039-.148,1.386,1.386,0,0,1,.09-.557,1.171,1.171,0,0,1,.32-.464.884.884,0,0,1,.517-.224.841.841,0,0,1,.542.146,1.1,1.1,0,0,1,.36.427.02.02,0,0,1-.031.024Z" transform="translate(-230.217 -348.738)" fill="#1d2238"/>
          <path id="Trazado_726461" data-name="Trazado 726461" d="M341.149,332.675s4.967-6.657,10.971-5.047-2.315,6.759-2.315,6.759-2.313-3.9-8.656-1.711" transform="translate(-295.216 -283.298)" fill="#f1f2f5"/>
          <path id="Trazado_726462" data-name="Trazado 726462" d="M285.285,314.383c.057.292-.569.659-1.4.819s-1.545.053-1.6-.24.569-.659,1.4-.819,1.545-.052,1.6.24" transform="translate(-244.277 -271.782)" fill="#1d2238"/>
          <path id="Trazado_726463" data-name="Trazado 726463" d="M307.047,471.617a17.568,17.568,0,0,1-3.7-2.916,5.956,5.956,0,0,0,3.574,3.712Z" transform="translate(-262.502 -405.594)" fill="#1d2238"/>
          <path id="Trazado_726464" data-name="Trazado 726464" d="M359.435,1474.128l12.582,5.486a5.062,5.062,0,0,1,3.038,4.736l-27.356-.059,1.456-10.185Z" transform="translate(-300.884 -1275.63)" fill="#4a4e60"/>
          <path id="Trazado_726465" data-name="Trazado 726465" d="M347.728,1534.51c2.253.13,4.507.2,6.76.25,1.127.03,2.253.039,3.38.058l3.38.024,3.38-.009c1.127-.015,2.254-.018,3.38-.043,2.254-.039,4.508-.1,6.761-.222-2.253-.131-4.507-.2-6.76-.251-1.127-.031-2.253-.039-3.38-.058l-3.38-.023-3.38.009c-1.127.014-2.254.018-3.38.043-2.254.04-4.507.1-6.761.221" transform="translate(-300.909 -1327.665)" fill="#1d2238"/>
          <path id="Trazado_726466" data-name="Trazado 726466" d="M372.183,1490.288a2.484,2.484,0,1,0,2.49-2.479,2.484,2.484,0,0,0-2.49,2.479" transform="translate(-322.072 -1287.488)" fill="#1d2238"/>
          <path id="Trazado_726467" data-name="Trazado 726467" d="M498.9,1506.911a1.669,1.669,0,0,0-.929-.088,2.191,2.191,0,0,0-.826.328,2.089,2.089,0,0,0-.635.653,1.452,1.452,0,0,0-.216.927l.052.03a3.287,3.287,0,0,1,.237-.32c.043-.05.082-.1.128-.152l.139-.142a4.068,4.068,0,0,1,.626-.49,5.369,5.369,0,0,1,.695-.392c.121-.057.243-.109.368-.158s.249-.1.375-.138Z" transform="translate(-429.467 -1303.918)" fill="#1d2238"/>
          <path id="Trazado_726468" data-name="Trazado 726468" d="M475.054,1496.732a1.669,1.669,0,0,0-.929-.087,2.2,2.2,0,0,0-.826.328,2.088,2.088,0,0,0-.634.653,1.453,1.453,0,0,0-.216.927l.053.03a3.238,3.238,0,0,1,.237-.32c.043-.05.082-.1.128-.152l.139-.142a4.036,4.036,0,0,1,.625-.49,5.4,5.4,0,0,1,.695-.392q.181-.085.368-.157c.123-.052.249-.1.375-.138Z" transform="translate(-408.829 -1295.11)" fill="#1d2238"/>
          <path id="Trazado_726469" data-name="Trazado 726469" d="M452.982,1487.5a1.672,1.672,0,0,0-.929-.088,2.192,2.192,0,0,0-.826.328,2.091,2.091,0,0,0-.634.653,1.452,1.452,0,0,0-.216.927l.053.03a3.272,3.272,0,0,1,.238-.32c.043-.05.082-.1.128-.152l.139-.142a4.052,4.052,0,0,1,.626-.49,5.381,5.381,0,0,1,.695-.392q.181-.085.368-.157c.123-.052.249-.1.375-.138Z" transform="translate(-389.729 -1287.117)" fill="#1d2238"/>
          <path id="Trazado_726470" data-name="Trazado 726470" d="M237.654,1474.128l12.582,5.486a5.062,5.062,0,0,1,3.038,4.736l-27.356-.059,1.456-10.185Z" transform="translate(-195.5 -1275.63)" fill="#9ea9bd"/>
          <path id="Trazado_726471" data-name="Trazado 726471" d="M225.947,1534.51c2.253.13,4.507.2,6.76.25,1.127.03,2.253.039,3.38.058l3.38.024,3.38-.009c1.127-.015,2.254-.018,3.38-.043,2.254-.039,4.508-.1,6.761-.222-2.253-.131-4.507-.2-6.76-.251-1.127-.031-2.253-.039-3.38-.058l-3.38-.023-3.38.009c-1.127.014-2.254.018-3.38.043-2.254.04-4.507.1-6.761.221" transform="translate(-195.525 -1327.665)" fill="#1d2238"/>
          <path id="Trazado_726472" data-name="Trazado 726472" d="M250.4,1490.288a2.484,2.484,0,1,0,2.49-2.479,2.484,2.484,0,0,0-2.49,2.479" transform="translate(-216.688 -1287.488)" fill="#1d2238"/>
          <path id="Trazado_726473" data-name="Trazado 726473" d="M377.122,1506.911a1.669,1.669,0,0,0-.929-.088,2.192,2.192,0,0,0-.826.328,2.089,2.089,0,0,0-.634.653,1.452,1.452,0,0,0-.216.927l.052.03a3.307,3.307,0,0,1,.237-.32c.043-.05.082-.1.128-.152l.139-.142a4.071,4.071,0,0,1,.626-.49,5.384,5.384,0,0,1,.695-.392c.121-.057.243-.109.368-.158s.249-.1.375-.138Z" transform="translate(-324.083 -1303.918)" fill="#1d2238"/>
          <path id="Trazado_726474" data-name="Trazado 726474" d="M353.273,1496.732a1.669,1.669,0,0,0-.929-.087,2.2,2.2,0,0,0-.826.328,2.088,2.088,0,0,0-.634.653,1.452,1.452,0,0,0-.216.927l.053.03a3.238,3.238,0,0,1,.238-.32c.043-.05.082-.1.128-.152l.139-.142a4.041,4.041,0,0,1,.626-.49,5.406,5.406,0,0,1,.695-.392q.181-.085.368-.157c.123-.052.249-.1.375-.138Z" transform="translate(-303.445 -1295.11)" fill="#1d2238"/>
          <path id="Trazado_726475" data-name="Trazado 726475" d="M331.2,1487.5a1.673,1.673,0,0,0-.929-.088,2.192,2.192,0,0,0-.826.328,2.091,2.091,0,0,0-.634.653,1.452,1.452,0,0,0-.216.927l.053.03a3.277,3.277,0,0,1,.238-.32c.043-.05.082-.1.128-.152l.139-.142a4.056,4.056,0,0,1,.626-.49,5.388,5.388,0,0,1,.695-.392q.181-.085.368-.157c.123-.052.249-.1.375-.138Z" transform="translate(-284.345 -1287.117)" fill="#1d2238"/>
          <path id="Trazado_726476" data-name="Trazado 726476" d="M206.358,929.977,203.9,879.525a30.519,30.519,0,0,0-.5-4.222l-5.22-27.42-31.642-2.474s-3.108,12.64,3.26,24.807l3.278,60.161,16.887-.107,0-.189Z" transform="translate(-143.457 -731.581)" fill="#1d2238"/>
          <path id="Trazado_726477" data-name="Trazado 726477" d="M326.251,876.053l.215,2.517.2,2.518.4,5.037L327.8,896.2l.184,2.52.167,2.521.332,5.042.663,10.084.037.63c.011.21,0,.421,0,.631l0,1.263-.009,2.526-.017,5.053-.017,5.053-.011,2.526-.026,2.526L329,946.685l-.086,5.052-.044,2.526-.058,2.526h-.045l-.011-20.2-.006-10.1,0-5.051v-3.788c0-.21.006-.421-.006-.631l-.04-.63-2.493-40.328Z" transform="translate(-282.285 -758.1)" fill="#4a4e60"/>
          <path id="Trazado_726478" data-name="Trazado 726478" d="M216.579,521.218l-4.337-6.75-10.016,2.711-2.621-17.952c-.026-.193-.049-.356-.071-.484-.656-3.95-7.642-10.819-7.642-10.819l-1.543,1.589-7.182-3.89a26.444,26.444,0,0,0-9.637,7.054c-3.668,4.655-2.759,41.388-2.759,41.388s7.414,6.008,12.778,7,19.439-2.869,19.439-2.869-.243-3.083-.6-7.532Z" transform="translate(-147.692 -420.238)" fill="#f5cfd6"/>
          <path id="Trazado_726479" data-name="Trazado 726479" d="M259.421,489.514l-3.383,2.9a1.481,1.481,0,0,1-1.921.01c-1.562-1.323-4.333-4.044-3.462-6.059l1.584-.743Z" transform="translate(-216.764 -420.238)" fill="#fff"/>
          <path id="Trazado_726480" data-name="Trazado 726480" d="M316.823,504.3l1.67,1.8a.982.982,0,0,0,1.577-.188l.49-.877-2.195-2.326Z" transform="translate(-274.166 -435.026)" fill="#fff"/>
          <path id="Trazado_726481" data-name="Trazado 726481" d="M173.778,542.633l6.244,17.848,19.42-9.833,3.073,7.535-17.283,14.3a10.441,10.441,0,0,1-15.045-1.827c-2.925-3.949-6.631-9.361-7.007-11.9-.629-4.245-3.833-12.334,2.71-20.745Z" transform="translate(-140.052 -465.577)" fill="#f7ced6"/>
          <path id="Trazado_726482" data-name="Trazado 726482" d="M269.607,583.638q-1.577.878-3.167,1.729c-1.058.571-2.122,1.133-3.185,1.7s-2.128,1.121-3.2,1.67-2.135,1.107-3.207,1.65l-.3.154-.07-.335c-.161-.77-.337-1.543-.518-2.312s-.364-1.539-.559-2.306c-.392-1.532-.8-3.06-1.257-4.573s-.946-3.016-1.517-4.489c-.289-.735-.593-1.464-.941-2.173a13.494,13.494,0,0,0-1.195-2.046,12.086,12.086,0,0,1,1.346,1.966c.386.7.742,1.41,1.06,2.14.645,1.456,1.187,2.955,1.683,4.465s.934,3.04,1.329,4.579.763,3.084,1.08,4.646l-.374-.182c1.073-.542,2.153-1.071,3.23-1.606s2.16-1.057,3.24-1.586,2.165-1.047,3.253-1.561,2.176-1.026,3.27-1.526" transform="translate(-216.763 -495.246)" fill="#1d2238"/>
          <path id="Trazado_726483" data-name="Trazado 726483" d="M171.777,692.095l.647,1.171.64,1.175q.641,1.174,1.293,2.342c.432.78.866,1.558,1.31,2.33l.667,1.157q.336.581.662,1.166a23.733,23.733,0,0,0,2.906,4.411,8.984,8.984,0,0,0,.941.893c.163.142.341.261.515.387s.361.233.553.331a7.666,7.666,0,0,0,2.44.819,11.258,11.258,0,0,0,5.161-.438,13.292,13.292,0,0,0,2.416-1.018q.575-.316,1.117-.688c.36-.249.7-.523,1.047-.806q2.078-1.685,4.172-3.351l2.1-1.659,1.05-.829,1.056-.821-1,.884-1.011.876-2.022,1.752q-2.031,1.742-4.072,3.471c-.337.286-.685.583-1.054.851a13.3,13.3,0,0,1-1.149.732,13.775,13.775,0,0,1-2.491,1.091,12.873,12.873,0,0,1-2.667.558,10.606,10.606,0,0,1-2.736-.075,8.192,8.192,0,0,1-2.6-.889c-.2-.107-.4-.235-.593-.359s-.378-.267-.552-.418a8.7,8.7,0,0,1-.989-.955,15.369,15.369,0,0,1-1.589-2.2c-.469-.769-.891-1.56-1.307-2.348q-.312-.592-.631-1.176c-.215-.391-.429-.783-.638-1.178q-.628-1.184-1.234-2.377t-1.187-2.4l-.586-1.2Z" transform="translate(-148.649 -598.91)" fill="#1d2238"/>
          <path id="Trazado_726484" data-name="Trazado 726484" d="M278.454,706.971c-.048-.161-.086-.325-.121-.491a3.481,3.481,0,0,1-.085-.5,6.08,6.08,0,0,1-.027-1.017,6.573,6.573,0,0,1,.418-2,6.471,6.471,0,0,1,1-1.784,4.809,4.809,0,0,1,1.538-1.32,17.518,17.518,0,0,0-1.008,1.67,13.847,13.847,0,0,0-.779,1.718,14.067,14.067,0,0,0-.547,1.807c-.089.308-.131.624-.205.943s-.1.644-.189.977" transform="translate(-240.75 -605.627)" fill="#1d2238"/>
          <path id="Trazado_726485" data-name="Trazado 726485" d="M423.7,585.787l-8.016-3.35a.743.743,0,0,1-.219-1.232l20.679-19.154a.744.744,0,0,1,1.169.211l4.377,8.684a.791.791,0,0,1-.205.968L424.73,585.637a1.011,1.011,0,0,1-1.03.151" transform="translate(-359.32 -486.205)" fill="#4a4e60"/>
          <path id="Trazado_726486" data-name="Trazado 726486" d="M399.269,738.983c-.131-.823-.237-1.649-.332-2.474q-.074-.619-.136-1.239c-.043-.413-.086-.826-.121-1.24-.079-.827-.142-1.655-.205-2.483-.035-.414-.055-.829-.084-1.243s-.056-.829-.074-1.244l-.007-.163.132-.072c.407-.221.811-.447,1.22-.664s.816-.438,1.229-.648.824-.425,1.24-.63.833-.409,1.255-.6q-.572.4-1.155.778c-.387.255-.778.5-1.17.751s-.787.488-1.18.733-.793.478-1.19.717l.125-.234c.04.414.069.828.1,1.242s.068.828.092,1.242c.054.829.108,1.657.146,2.487.023.415.04.83.055,1.245s.031.83.04,1.246c.022.831.033,1.663.019,2.5" transform="translate(-344.681 -628.491)" fill="#1d2238"/>
          <path id="Trazado_726487" data-name="Trazado 726487" d="M505.583,662.858c-.031-.206-.089-.413-.139-.612-.1-.415-.2-.831-.3-1.247l-.422-1.734a1.1,1.1,0,0,0-2.131.518l.04.165a1.1,1.1,0,0,0-1.775,1.094q.067.274.134.547a.333.333,0,0,0-.126-.137.867.867,0,0,0-1.177.2,1.212,1.212,0,0,0-.077.752c.085,1.164.254,2.329.381,3.49l-2.132,1.983.488.76c.44-.152.848-.238,1.288-.391.585-.2,1.186-.365,1.753-.618a5.043,5.043,0,0,0,1.215-.807,17.954,17.954,0,0,0,1.979-2.035c.282-.33.559-.665.821-1.012a1.158,1.158,0,0,0,.182-.92" transform="translate(-430.825 -569.775)" fill="#eb9481"/>
          <path id="Trazado_726488" data-name="Trazado 726488" d="M511.365,713.9a2.214,2.214,0,0,0,.211,1.594s-.792-.184-.515-1.312Z" transform="translate(-442.201 -617.777)" fill="#1d2238"/>
          <path id="Trazado_726489" data-name="Trazado 726489" d="M533.3,669.725a1.941,1.941,0,0,1,.655.95c.119.369.211.742.307,1.115s.18.748.258,1.126l.116.566c.034.19.072.378.1.569-.059-.184-.11-.37-.165-.554l-.152-.557c-.1-.371-.194-.744-.288-1.117l-.275-1.118a1.916,1.916,0,0,0-.213-.522,2.3,2.3,0,0,0-.343-.457" transform="translate(-461.496 -579.552)" fill="#1d2238"/>
          <path id="Trazado_726490" data-name="Trazado 726490" d="M521.112,681.926a1.443,1.443,0,0,1,.645.8c.1.331.168.665.24,1s.133.67.188,1.008l.08.506c.022.17.048.339.065.509-.047-.165-.086-.331-.13-.5l-.117-.5c-.078-.333-.147-.667-.218-1s-.135-.67-.208-1a1.158,1.158,0,0,0-.2-.447,2.033,2.033,0,0,0-.341-.375" transform="translate(-450.949 -590.11)" fill="#1d2238"/>
          <path id="Trazado_726491" data-name="Trazado 726491" d="M425.866,588.04c.795-.778,1.6-1.54,2.407-2.307s1.615-1.526,2.425-2.287l2.443-2.268,2.456-2.252c1.645-1.494,3.289-2.988,4.947-4.467l1.241-1.112,1.247-1.1q1.246-1.106,2.5-2.2l.2-.176.117.233.948,1.882.938,1.886.926,1.893q.466.945.916,1.9-.525-.914-1.038-1.834l-1.029-1.839-1.017-1.845-1.007-1.85.319.057q-1.219,1.136-2.45,2.259l-1.228,1.126-1.234,1.119c-1.643,1.5-3.3,2.976-4.956,4.457l-2.495,2.209-2.509,2.194c-.84.727-1.678,1.457-2.526,2.175s-1.688,1.445-2.544,2.155" transform="translate(-368.527 -493.136)" fill="#1d2238"/>
        </g>
      </g>
    </g>
  </g>
</svg>
