<svg xmlns="http://www.w3.org/2000/svg" xmlns:xlink="http://www.w3.org/1999/xlink" width="505" height="333" viewBox="0 0 505 333">
  <defs>
    <clipPath id="clip-path">
      <rect id="Rectángulo_340256" data-name="Rectángulo 340256" width="505" height="333" transform="translate(-6505.119 -13145.841)" fill="#fff" stroke="#707070" stroke-width="1"/>
    </clipPath>
    <clipPath id="clip-path-2">
      <rect id="Rectángulo_340242" data-name="Rectángulo 340242" width="728.549" height="409.809" transform="translate(0 0)" fill="none"/>
    </clipPath>
  </defs>
  <g id="_1" data-name="1" transform="translate(6505.119 13145.841)" clip-path="url(#clip-path)">
    <g id="Grupo_958178" data-name="Grupo 958178" transform="translate(-6728.667 -13222.818)" clip-path="url(#clip-path-2)">
      <rect id="Rectángulo_340232" data-name="Rectángulo 340232" width="13.434" height="133.116" transform="translate(392.478 320.251)" fill="#253339"/>
      <path id="Trazado_726337" data-name="Trazado 726337" d="M1006.558,471.9a38.8,38.8,0,0,0,.3,27.236c5.262,13.6,12.766,35.141,14.78,52,.9,7.573-5.47,15.677-15.363,16.336-45.88,3.059-65.761-1.3-65.761-1.3-7.593-1.456-13.128-5.916-12.921-13.184.4-14,3.094-36.311,14.866-53.4a32.511,32.511,0,0,0,2.151-33.251c-.146-.28-.293-.56-.447-.844-7.3-13.5-12.043-22.262-7.663-36.862a39.061,39.061,0,0,0,.856-19.448,6.588,6.588,0,0,1,4.789-7.728c8.184-2.164,18.071-7.065,20.632-10.417,3.941-5.155-.362-13.868-.362-13.868l24.874.34s-4.8,12.069,7.607,17.908c7.9,3.718,19.061,9.656,26.122,13.481a8.714,8.714,0,0,1,1.2.783s.008,0,.013,0a8.789,8.789,0,0,1,1.4,1.342c1.433,2.276,1.652,6.682.564,11.738-.93,2.646-2.01,5.693-3.184,8.984-4.474,12.564-10.322,28.747-14.448,40.145" transform="translate(-575.61 -235.667)" fill="#ea526f"/>
      <path id="Trazado_726338" data-name="Trazado 726338" d="M1044.416,372.309c0,1.716-5.564,3.106-12.428,3.106s-12.428-1.391-12.428-3.106,5.564-3.106,12.428-3.106,12.428,1.391,12.428,3.106" transform="translate(-632.686 -230.719)" fill="#ff6363"/>
      <path id="Trazado_726339" data-name="Trazado 726339" d="M1044.416,377.328c0,1.716-5.564,3.106-12.428,3.106s-12.428-1.391-12.428-3.106" transform="translate(-632.686 -235.761)" fill="none" stroke="#253339" stroke-linecap="round" stroke-miterlimit="10" stroke-width="1"/>
      <path id="Trazado_726340" data-name="Trazado 726340" d="M1153.045,484.6c-2.908,5.735-6.768,9.259-9.565,8.3-3.515-1.2-4.032-9.006-1.153-17.435,2.7-7.9,7.424-13.543,10.9-13.228" transform="translate(-707.713 -288.446)" fill="none" stroke="#253339" stroke-linecap="round" stroke-miterlimit="10" stroke-width="1"/>
      <path id="Trazado_726341" data-name="Trazado 726341" d="M1016.791,385.84s1.363,4.771-1.59,14.539-13.63,35.666-11.586,50.887,9.769,30.9,5.907,45.889-10.8,21.321-8.231,75.852" transform="translate(-621.003 -241.043)" fill="none" stroke="#253339" stroke-linecap="round" stroke-miterlimit="10" stroke-width="1"/>
      <path id="Trazado_726342" data-name="Trazado 726342" d="M982.2,484.7s-12.174-43.042,5.254-67.127l6.644-3.846s-19.176,22.448-8.407,69.836Z" transform="translate(-606.936 -258.346)" fill="#125b50"/>
      <path id="Trazado_726343" data-name="Trazado 726343" d="M1065.183,410.016s4.185,6.124-1.082,27.192-18.589,35.939-8.985,83.341l3.946-2.054s-7.161-30.822,1.239-54.865c9.4-26.918,12.5-36.729,9.83-49.149Z" transform="translate(-652.647 -256.045)" fill="#125b50"/>
      <path id="Trazado_726344" data-name="Trazado 726344" d="M651.407,1030.774c-1.344,0,43.011-42.339,93.414-52.419s24.393,41.373,12.1,25.537c-9.271-11.939,21.505-30.914,66.532-7.392s37.634,61.156,37.634,61.156" transform="translate(-404.211 -607.907)" fill="none" stroke="#253339" stroke-linecap="round" stroke-miterlimit="10" stroke-width="1"/>
      <path id="Trazado_726345" data-name="Trazado 726345" d="M1545.6.5c.852,49.289,34.446,92.959,83.908,87.835s21.312-36.49,15.029-15.325c-7.427,25.02,20.567,80.341,84.363,49.624" transform="translate(-959.121 -1.922)" fill="none" stroke="#253339" stroke-linecap="round" stroke-miterlimit="10" stroke-width="1"/>
      <rect id="Rectángulo_340233" data-name="Rectángulo 340233" width="146.133" height="36.289" transform="translate(668.414 321.134)" fill="#125b50"/>
      <rect id="Rectángulo_340234" data-name="Rectángulo 340234" width="12.19" height="13.995" transform="translate(656.858 281.426)" fill="#253339"/>
      <rect id="Rectángulo_340235" data-name="Rectángulo 340235" width="12.19" height="13.995" transform="translate(656.858 332.064)" fill="#253339"/>
      <rect id="Rectángulo_340236" data-name="Rectángulo 340236" width="157.148" height="6.866" transform="translate(657.294 201.522)" fill="#253339"/>
      <rect id="Rectángulo_340237" data-name="Rectángulo 340237" width="3.345" height="206.58" transform="translate(668.4 206.502)" fill="#253339"/>
      <rect id="Rectángulo_340238" data-name="Rectángulo 340238" width="11.674" height="13.995" transform="translate(658.337 230.212)" fill="#125b50"/>
      <rect id="Rectángulo_340239" data-name="Rectángulo 340239" width="146.133" height="36.289" transform="translate(668.414 219.878)" fill="#1448d3"/>
      <rect id="Rectángulo_340240" data-name="Rectángulo 340240" width="146.133" height="36.289" transform="translate(668.414 270.564)" fill="#ff6363"/>
      <path id="Trazado_726346" data-name="Trazado 726346" d="M1816.08,607.795a3.3,3.3,0,1,1-3.292-3.565A3.437,3.437,0,0,1,1816.08,607.795Z" transform="translate(-1122.878 -376.564)" fill="none" stroke="#faf5e4" stroke-linecap="round" stroke-miterlimit="10" stroke-width="1"/>
      <path id="Trazado_726347" data-name="Trazado 726347" d="M1916.086,639.819a3.3,3.3,0,1,1-3.292-3.565A3.437,3.437,0,0,1,1916.086,639.819Z" transform="translate(-1184.936 -396.437)" fill="none" stroke="#faf5e4" stroke-linecap="round" stroke-miterlimit="10" stroke-width="1"/>
      <line id="Línea_145" data-name="Línea 145" x2="17.322" transform="translate(694.974 284.71)" fill="none" stroke="#faf5e4" stroke-linecap="round" stroke-miterlimit="10" stroke-width="1"/>
      <rect id="Rectángulo_340241" data-name="Rectángulo 340241" width="146.133" height="36.289" transform="translate(668.299 321.542)" fill="#125b50"/>
    </g>
    <g id="Grupo_958182" data-name="Grupo 958182" transform="translate(-6728.667 -13222.818)" clip-path="url(#clip-path-2)">
      <rect id="Rectángulo_340244" data-name="Rectángulo 340244" width="3.345" height="206.58" transform="translate(476.309 345.313)" fill="#253339"/>
      <rect id="Rectángulo_340245" data-name="Rectángulo 340245" width="3.345" height="206.58" transform="translate(502.326 344.074)" fill="#253339"/>
      <path id="Trazado_726348" data-name="Trazado 726348" d="M1315,873.97c0,9.426-19.632,17.066-43.851,17.066s-43.851-3.318-43.851-17.066c0-12.326,19.633-17.066,43.851-17.066S1315,864.544,1315,873.97" transform="translate(-761.598 -533.361)" fill="#125b50"/>
      <path id="Trazado_726349" data-name="Trazado 726349" d="M1361.871,953.966c-1.751,6.556,3.258,12.937,9.253,11.733,3.582-.719,14.683,1.982,21.109-1.917,23.5-14.258,51.519-71.705,35.851-83.028-14.394-10.4-58.376,43.875-66.213,73.211" transform="translate(-844.886 -547.351)" fill="#253339"/>
      <path id="Trazado_726350" data-name="Trazado 726350" d="M1326.787,837.673s49.426,16.91,58.559,43.482-9.67,96.627-9.67,96.627-.069,16.039-21.138,1.008c0,0-12.171-50.53-6.8-82.537,0,0-64.335-32.52-66.516-47.795-1.578-11.051,45.564-10.785,45.564-10.785" transform="translate(-795.036 -521.426)" fill="#f9cfa5"/>
      <path id="Trazado_726351" data-name="Trazado 726351" d="M1506.4,831.171s20.65,24.664,24.522,45.7,14.686,90.109,14.686,90.109,1.536,12.034-22.1,2.643c0,0-46.148-84.772-44.858-113.789s27.749-24.664,27.749-24.664" transform="translate(-917.559 -517.248)" fill="#f9cfa5"/>
      <path id="Trazado_726352" data-name="Trazado 726352" d="M1266.047,756.6s-18.388,31.546,5.537,53.988c31.315,29.373,26.642,64.762,26.642,64.762s2.521-11.718,14.389-28.531c13.62-19.3,38.754-40.837,70.693-46.733,0,0-18.07-29.8-39.126-40.416-33.179-16.721-78.135-3.069-78.135-3.069" transform="translate(-781.454 -467.862)" fill="#ea526f"/>
      <path id="Trazado_726353" data-name="Trazado 726353" d="M1535.389,977.737c-1.477,0,8.123-47.906.749-64.224-4.466-9.885-11.307-14.279-11.307-14.279" transform="translate(-946.231 -559.628)" fill="none" stroke="#253339" stroke-linecap="round" stroke-miterlimit="10" stroke-width="1"/>
      <path id="Trazado_726354" data-name="Trazado 726354" d="M1300.923,779.054s-7.579,8.52,5.512,25.948,32.717,37.466,30.656,59.011" transform="translate(-805.931 -485.051)" fill="none" stroke="#faf5e4" stroke-miterlimit="10" stroke-width="1"/>
      <path id="Trazado_726355" data-name="Trazado 726355" d="M1456.581,981.888s0-2.519,4.381-6.216" transform="translate(-903.878 -607.062)" fill="none" stroke="#253339" stroke-linecap="round" stroke-miterlimit="10" stroke-width="1"/>
      <path id="Trazado_726356" data-name="Trazado 726356" d="M1471.656,618.073l14.139,14.581s23.2-2.209,37.777.442,17.011,7.732,14.581,9.058-65.518,3.833-66.18,4.054-14.13-13.159-15.9-15.589,10.058-11.441,15.581-12.545" transform="translate(-903.453 -385.154)" fill="#f9cfa5"/>
      <path id="Trazado_726357" data-name="Trazado 726357" d="M1434.32,578.623c.663.442,16.805,17.911,16.805,17.911a38.433,38.433,0,0,1-25.871,14.594l-7.961-23Z" transform="translate(-879.498 -360.674)" fill="#0ce6ea"/>
      <path id="Trazado_726358" data-name="Trazado 726358" d="M1534.689,649.131s22.232-4.793,28.24-4.492,20.126,5.107,23.431,9.613-51.373-5.135-51.671-5.121" transform="translate(-952.348 -401.631)" fill="#f9cfa5"/>
      <path id="Trazado_726359" data-name="Trazado 726359" d="M1285.123,550.139s-21.259,12.309-26.161,18.518l7.715,62.905,53.526,4.121,17.6-63.724s-18.474-14.344-27.777-19.266a22.076,22.076,0,0,0-2.236-1.057c-7.125-2.758-22.667-1.5-22.667-1.5" transform="translate(-781.246 -342.82)" fill="#0ce6ea"/>
      <path id="Trazado_726360" data-name="Trazado 726360" d="M1308.6,450.972a12.648,12.648,0,0,1-12.648,12.648c-6.985,0-16.174-7.832-12.358-13.683,3.167-4.855,1.161-12.665,12.358-11.614,6.955.653,12.648,5.663,12.648,12.648" transform="translate(-795.977 -273.552)" fill="#253339"/>
      <path id="Trazado_726361" data-name="Trazado 726361" d="M1301.7,396.531s-16.689-4.065-14.124-23.35c.844-6.344,4.911-8.5,7.147-12.213a20.794,20.794,0,0,1,32.658-3.876c11.984,12.165-25.681,39.439-25.681,39.439" transform="translate(-798.836 -219.355)" fill="#253339"/>
      <path id="Trazado_726362" data-name="Trazado 726362" d="M1367.877,369.914c.351-.4,3.439-4.713,10.865-.658,8.76,4.783,9.233,19.3,4.43,24.085-8.035,8.007-26.027-11.162-15.295-23.426" transform="translate(-846.77 -229.681)" fill="#253339"/>
      <path id="Trazado_726363" data-name="Trazado 726363" d="M1329.051,422.172a20.949,20.949,0,0,0,17.963,8.8c12.189-.409,13.686-12.073,11.975-31.512s-16.893-20.258-26.516-12.892-10.051,27.011-3.422,35.605" transform="translate(-821.966 -238.833)" fill="#f9cfa5"/>
      <path id="Trazado_726364" data-name="Trazado 726364" d="M1349.72,479.821l.855,20.529s-11.333,9.409-22.667-1.5l4.918-31.649Z" transform="translate(-824.03 -291.533)" fill="#f9cfa5"/>
      <path id="Trazado_726365" data-name="Trazado 726365" d="M1314.2,444.238c1.269,3.807-.165,7.712-3.2,8.724s-6.526-1.254-7.793-5.061.165-7.712,3.2-8.724,6.526,1.254,7.794,5.061" transform="translate(-808.412 -273.991)" fill="#f9cfa5"/>
      <path id="Trazado_726366" data-name="Trazado 726366" d="M1318.457,387.518s-.295-5.93,8.882-8.575,15.554-8.243,15.4-15.243c0,0-1.555-12.754-17.42-8.4s-9.97,28.794-6.86,32.216" transform="translate(-815.875 -221.53)" fill="#253339"/>
      <path id="Trazado_726367" data-name="Trazado 726367" d="M1355.573,497.121s-11.056.474-18.724-8.269" transform="translate(-829.578 -304.967)" fill="none" stroke="#253339" stroke-linecap="round" stroke-miterlimit="10" stroke-width="1"/>
      <path id="Trazado_726368" data-name="Trazado 726368" d="M1364.853,446.063c0,1.147-.519,2.077-1.161,2.077s-1.16-.93-1.16-2.077.52-2.077,1.16-2.077,1.161.93,1.161,2.077" transform="translate(-845.516 -277.125)" fill="#253339"/>
      <path id="Trazado_726369" data-name="Trazado 726369" d="M1402.976,443.949c0,1.147-.519,2.077-1.161,2.077s-1.16-.93-1.16-2.077.52-2.077,1.16-2.077,1.161.93,1.161,2.077" transform="translate(-869.173 -275.813)" fill="#253339"/>
      <path id="Trazado_726370" data-name="Trazado 726370" d="M1352.424,433.574s2.166-2.406,7.219-2.226c0,0-4.331-6.317-7.219,2.226" transform="translate(-839.243 -267.888)" fill="#253339"/>
      <path id="Trazado_726371" data-name="Trazado 726371" d="M1396.883,428.3a11.26,11.26,0,0,1,6.278,1.128s-2.257-7.266-6.278-1.128" transform="translate(-866.832 -265.865)" fill="#253339"/>
      <path id="Trazado_726372" data-name="Trazado 726372" d="M1310.578,451.133c-.781-3.348,3.876-5.266,6.107-.334" transform="translate(-813.222 -279.495)" fill="none" stroke="#253339" stroke-linecap="round" stroke-miterlimit="10" stroke-width="1"/>
      <path id="Trazado_726373" data-name="Trazado 726373" d="M1323.382,454.661s-2.889.392-1.391,3.352" transform="translate(-820.091 -283.75)" fill="none" stroke="#253339" stroke-linecap="round" stroke-miterlimit="10" stroke-width="1"/>
      <path id="Trazado_726374" data-name="Trazado 726374" d="M1387.192,444.012s-.121,5.046,2.216,7.682a.835.835,0,0,1-.11,1.2c-.527.422-1.519.783-3.336.338" transform="translate(-860.056 -277.141)" fill="none" stroke="#253339" stroke-linecap="round" stroke-miterlimit="10" stroke-width="1"/>
      <path id="Trazado_726375" data-name="Trazado 726375" d="M1384.437,478.255c0,1.245-1.536,2.255-3.429,2.255s-3.43-1.01-3.43-2.255,1.535-2.255,3.43-2.255,3.429,1.01,3.429,2.255" transform="translate(-854.853 -296.991)" fill="#f99e78"/>
      <path id="Trazado_726376" data-name="Trazado 726376" d="M1284.605,441.928c-5.612-4.02-4.24,4.53-8.462,8.513-7.616,7.186,12.56,19.916,14.354,6.8" transform="translate(-790.846 -275.197)" fill="none" stroke="#253339" stroke-linecap="round" stroke-miterlimit="10" stroke-width="1"/>
      <path id="Trazado_726377" data-name="Trazado 726377" d="M1372.056,477.123s5.841,3.557,11.2-.351" transform="translate(-851.426 -297.47)" fill="none" stroke="#253339" stroke-linecap="round" stroke-miterlimit="10" stroke-width="1"/>
      <path id="Trazado_726378" data-name="Trazado 726378" d="M1343.509,363.124s1.395,9.064-9.064,12.9-13.264,9.44-11.207,16.581" transform="translate(-820.742 -226.946)" fill="none" stroke="#384e57" stroke-linecap="round" stroke-miterlimit="10" stroke-width="1"/>
      <path id="Trazado_726379" data-name="Trazado 726379" d="M1326.443,368.155s-8.171-1-10.756,6.652c-2.182,6.462-14.31,12.343-6.195,18.585" transform="translate(-810.887 -230.042)" fill="none" stroke="#384e57" stroke-linecap="round" stroke-miterlimit="10" stroke-width="1"/>
      <path id="Trazado_726380" data-name="Trazado 726380" d="M1606.186,658.4s1.317,3.189,8.54,5.253c3.38.966,6.161,1.091,3-1.05-3.728-2.526-2.843-3.821-2.843-3.821s11.395,6.821,12.444,5.321-4.333-7.059-10.085-7.8c-8.083-1.047-11.056,2.1-11.056,2.1" transform="translate(-996.715 -408.746)" fill="#f9cfa5"/>
      <path id="Trazado_726381" data-name="Trazado 726381" d="M1205.156,643.884a19.6,19.6,0,0,1,16.628,3.586l-4.223,9.076,45.956,6.9-.978,8.477-58.091-.54a7.743,7.743,0,0,1-6.95-11Z" transform="translate(-742.651 -400.833)" fill="#f9cfa5"/>
      <path id="Trazado_726382" data-name="Trazado 726382" d="M1222.032,599.316,1249,550.61s-30.581-.1-48.253,38.969c0,0,8.075,9.6,21.289,9.737" transform="translate(-745.118 -343.29)" fill="#0ce6ea"/>
      <rect id="Rectángulo_340246" data-name="Rectángulo 340246" width="6.168" height="4.466" transform="translate(597.411 199.784)" fill="#ff6363"/>
      <rect id="Rectángulo_340247" data-name="Rectángulo 340247" width="6.168" height="4.466" transform="translate(602.935 232.927)" fill="#125b50"/>
      <path id="Trazado_726383" data-name="Trazado 726383" d="M1468.774,519.08h7.958V501.433a1.01,1.01,0,0,0-1.01-1.01h-5.937a1.01,1.01,0,0,0-1.01,1.01Z" transform="translate(-911.444 -312.147)" fill="#ff6363"/>
      <path id="Trazado_726384" data-name="Trazado 726384" d="M1444.438,604.258l.021-8.866a7.446,7.446,0,0,0-7.446-7.464h-91.226V566.453a10.754,10.754,0,0,1,10.754-10.754h40.53a9.522,9.522,0,0,1,9.522,9.522,4.13,4.13,0,0,0,4.13,4.13h20.068a4.13,4.13,0,0,0,4.13-4.13V539.437a4.214,4.214,0,0,0-4.215-4.215H1316.421a4.052,4.052,0,0,0-4.052,4.052v65.037Z" transform="translate(-814.388 -333.741)" fill="#1448d3"/>
      <rect id="Rectángulo_340248" data-name="Rectángulo 340248" width="2.275" height="8.793" transform="translate(604.827 236.288)" fill="#125b50"/>
      <rect id="Rectángulo_340249" data-name="Rectángulo 340249" width="0.781" height="18.201" transform="translate(605.534 231.545)" fill="#125b50"/>
      <path id="Trazado_726385" data-name="Trazado 726385" d="M1352.218,607.686h-10.663V571.161a5.331,5.331,0,0,1,10.663,0Z" transform="translate(-832.499 -352.735)" fill="none" stroke="#faf5e4" stroke-miterlimit="10" stroke-width="1"/>
      <path id="Rectángulo_340250" data-name="Rectángulo 340250" d="M3.468,0H11.2A3.469,3.469,0,0,1,14.67,3.469v0A3.469,3.469,0,0,1,11.2,6.938H3.468A3.468,3.468,0,0,1,0,3.47v0A3.468,3.468,0,0,1,3.468,0Z" transform="translate(598.59 212.155)" fill="none" stroke="#faf5e4" stroke-miterlimit="10" stroke-width="1"/>
      <line id="Línea_152" data-name="Línea 152" x2="58.329" transform="translate(532.329 212.107)" fill="none" stroke="#253339" stroke-linecap="round" stroke-miterlimit="10" stroke-width="1"/>
      <line id="Línea_153" data-name="Línea 153" x2="99.901" transform="translate(498.157 265.041)" fill="none" stroke="#253339" stroke-linecap="round" stroke-miterlimit="10" stroke-width="1"/>
      <path id="Trazado_726386" data-name="Trazado 726386" d="M1428.8,606.032a41.439,41.439,0,0,0,6.24,9.682c3.873,4.3,2.433,11.61,2.433,11.61" transform="translate(-886.637 -377.682)" fill="none" stroke="#253339" stroke-linecap="round" stroke-miterlimit="10" stroke-width="1"/>
      <path id="Trazado_726387" data-name="Trazado 726387" d="M1256.847,651.975s5.655-11.241,10.92-16.506" transform="translate(-779.933 -395.949)" fill="none" stroke="#253339" stroke-linecap="round" stroke-miterlimit="10" stroke-width="1"/>
      <rect id="Rectángulo_340251" data-name="Rectángulo 340251" width="6.567" height="196.195" transform="translate(421.501 277.06)" fill="#ff6e33"/>
      <path id="Trazado_726388" data-name="Trazado 726388" d="M1325.026,401.532c0-.423-1.863-7.762,12.823-8.892s13.556-9.461,9.743-15.533" transform="translate(-822.195 -235.624)" fill="none" stroke="#253339" stroke-linecap="round" stroke-miterlimit="10" stroke-width="1"/>
      <path id="Trazado_726389" data-name="Trazado 726389" d="M1387.427,382.81a22.971,22.971,0,0,1,6.289,9.6c2.24,6.579,5.459,4.619,5.459,4.619" transform="translate(-860.965 -239.163)" fill="none" stroke="#253339" stroke-linecap="round" stroke-miterlimit="10" stroke-width="1"/>
      <rect id="Rectángulo_340252" data-name="Rectángulo 340252" width="281.099" height="29.558" transform="translate(421.57 277.27)" fill="#ff6e33"/>
      <rect id="Rectángulo_340253" data-name="Rectángulo 340253" width="6.567" height="196.195" transform="translate(696.078 277.291)" fill="#ff6e33"/>
      <rect id="Rectángulo_340254" data-name="Rectángulo 340254" width="304.612" height="7.329" transform="translate(408.13 270.524)" fill="#253339"/>
      <path id="Trazado_726390" data-name="Trazado 726390" d="M1524.363,666.843a23.411,23.411,0,0,1,17.569,8.124c9.246,10.792,22.338,24.432,35.368,28.388,0,0,3.49-18.847,17.451-20.011a34.345,34.345,0,0,0-26.293-20.011c-20.011-3.258-44.095,3.51-44.095,3.51" transform="translate(-945.94 -412.69)" fill="#ff6363"/>
      <path id="Trazado_726391" data-name="Trazado 726391" d="M1390.654,366.9s2.425-3.268,8.644-1.371,2.108,9.382,6.22,10.015,3.584-4.006,1.37-4.111" transform="translate(-862.967 -228.072)" fill="none" stroke="#253339" stroke-linecap="round" stroke-miterlimit="10" stroke-width="1"/>
      <path id="Trazado_726392" data-name="Trazado 726392" d="M1399.491,352.621s-8.691,2.395-8.425,9.489" transform="translate(-863.219 -220.429)" fill="none" stroke="#253339" stroke-linecap="round" stroke-miterlimit="10" stroke-width="1"/>
      <path id="Trazado_726393" data-name="Trazado 726393" d="M1301.811,469.916s-3.17,9.058,3.057,11.209,7.36-2.717,7.36-2.717" transform="translate(-807.335 -293.216)" fill="none" stroke="#384e57" stroke-linecap="round" stroke-miterlimit="10" stroke-width="1"/>
      <path id="Trazado_726394" data-name="Trazado 726394" d="M1274.418,447.689s4.056-9.709,9.832-4.179" transform="translate(-790.837 -275.773)" fill="none" stroke="#253339" stroke-linecap="round" stroke-miterlimit="10" stroke-width="1"/>
      <line id="Línea_154" data-name="Línea 154" y1="29.191" transform="translate(428.318 277.06)" fill="none" stroke="#253339" stroke-linecap="round" stroke-miterlimit="10" stroke-width="1"/>
      <line id="Línea_155" data-name="Línea 155" y1="30.644" transform="translate(696.046 276.417)" fill="none" stroke="#253339" stroke-linecap="round" stroke-miterlimit="10" stroke-width="1"/>
    </g>
  </g>
</svg>
