<svg xmlns="http://www.w3.org/2000/svg" width="505" height="420" viewBox="0 0 505 420">
  <g id="_10" data-name="10" transform="translate(-548 -3580)">
    <g id="Grupo_960493" data-name="Grupo 960493" transform="translate(548 3580)">
      <rect id="Rectángulo_340568" data-name="Rectángulo 340568" width="63" height="68" transform="translate(0 72)" fill="#25ced1"/>
      <rect id="Rectángulo_340570" data-name="Rectángulo 340570" width="63" height="67" transform="translate(0 177)" fill="#25ced1"/>
      <rect id="Rectángulo_340571" data-name="Rectángulo 340571" width="94" height="68" transform="translate(0 280)" fill="#25ced1"/>
      <rect id="Rectángulo_340573" data-name="Rectángulo 340573" width="33" height="91" transform="translate(220 138)" fill="#25ced1"/>
      <rect id="Rectángulo_340574" data-name="Rectángulo 340574" width="34" height="111" transform="translate(316 138)" fill="#25ced1"/>
      <rect id="Rectángulo_340576" data-name="Rectángulo 340576" width="54" height="43" transform="translate(470 140) rotate(90)" fill="#25ced1"/>
      <rect id="Rectángulo_340567" data-name="Rectángulo 340567" width="244" height="41" transform="translate(63)" fill="#25ced1"/>
      <g id="Rectángulo_340566" data-name="Rectángulo 340566" transform="translate(0)" fill="none" stroke="#707070" stroke-width="1">
        <rect width="505" height="420" stroke="none"/>
        <rect x="0.5" y="0.5" width="504" height="419" fill="none"/>
      </g>
      <path id="Trazado_727171" data-name="Trazado 727171" d="M9712.972-7735v418.92" transform="translate(-9649.882 7735.001)" fill="none" stroke="#707070" stroke-width="1"/>
      <path id="Trazado_727172" data-name="Trazado 727172" d="M9712.972-7735v418.92" transform="translate(-9585.494 7735.001)" fill="none" stroke="#707070" stroke-width="1"/>
      <path id="Trazado_727173" data-name="Trazado 727173" d="M9712.972-7735v418.92" transform="translate(-9521.107 7735.001)" fill="none" stroke="#707070" stroke-width="1"/>
      <path id="Trazado_727174" data-name="Trazado 727174" d="M9712.972-7735v418.92" transform="translate(-9460.472 7735.001)" fill="none" stroke="#707070" stroke-width="1"/>
      <path id="Trazado_727175" data-name="Trazado 727175" d="M9712.972-7735v418.92" transform="translate(-9396.084 7735.001)" fill="none" stroke="#707070" stroke-width="1"/>
      <path id="Trazado_727176" data-name="Trazado 727176" d="M9712.972-7735v418.92" transform="translate(-9335.449 7735.001)" fill="none" stroke="#707070" stroke-width="1"/>
      <path id="Trazado_727177" data-name="Trazado 727177" d="M9712.972-7735v418.92" transform="translate(-9271.062 7735.001)" fill="none" stroke="#707070" stroke-width="1"/>
      <path id="Trazado_727178" data-name="Trazado 727178" d="M0,0V505" transform="translate(505.001 71.848) rotate(90)" fill="none" stroke="#707070" stroke-width="1"/>
      <path id="Trazado_727179" data-name="Trazado 727179" d="M0,0V505" transform="translate(505.001 140.023) rotate(90)" fill="none" stroke="#707070" stroke-width="1"/>
      <path id="Trazado_727180" data-name="Trazado 727180" d="M0,0V505" transform="translate(505.001 210.205) rotate(90)" fill="none" stroke="#707070" stroke-width="1"/>
      <path id="Trazado_727181" data-name="Trazado 727181" d="M0,0V505" transform="translate(505.001 280.387) rotate(90)" fill="none" stroke="#707070" stroke-width="1"/>
      <path id="Trazado_727182" data-name="Trazado 727182" d="M0,0V505" transform="translate(505.001 348.562) rotate(90)" fill="none" stroke="#707070" stroke-width="1"/>
      <rect id="Rectángulo_340569" data-name="Rectángulo 340569" width="32" height="34" transform="translate(31 106)" fill="#fff"/>
      <rect id="Rectángulo_340572" data-name="Rectángulo 340572" width="189" height="46" transform="translate(253 374)" fill="#25ced1"/>
      <rect id="Rectángulo_340575" data-name="Rectángulo 340575" width="33" height="61" transform="translate(377 72) rotate(90)" fill="#25ced1"/>
      <rect id="Rectángulo_340577" data-name="Rectángulo 340577" width="28" height="22" transform="translate(486 154) rotate(90)" fill="#25ced1"/>
      <g id="Calque_2" data-name="Calque 2" transform="translate(392.732 37.875)">
        <g id="_27-_Push_Pin" data-name="27- Push Pin" transform="translate(0 0)">
          <path id="Trazado_727183" data-name="Trazado 727183" d="M99.793,199.224s2.082,33.453,5.54,0Z" transform="translate(-94.231 -188.121)" fill="#51518e"/>
          <path id="Trazado_727184" data-name="Trazado 727184" d="M18.44,171.528c0,2.777-3.68,5.028-8.22,5.028S2,174.3,2,171.528a3.263,3.263,0,0,1,.347-1.45c1.017-2.07,4.157-3.578,7.873-3.578s6.856,1.508,7.873,3.578a3.27,3.27,0,0,1,.347,1.45Z" transform="translate(-1.889 -157.221)" fill="#ff8293"/>
          <path id="Trazado_727185" data-name="Trazado 727185" d="M23.976,170.078c-1.018,2.07-4.158,3.578-7.873,3.578s-6.856-1.508-7.873-3.578c1.017-2.07,4.157-3.578,7.873-3.578S22.958,168.008,23.976,170.078Z" transform="translate(-7.771 -157.221)" fill="#ff9fb3"/>
          <path id="Trazado_727186" data-name="Trazado 727186" d="M80.815,100.912a8.445,8.445,0,0,1-8.575,0l.813-3.793,1.021-4.764h4.907L80,97.119Z" transform="translate(-68.214 -87.208)" fill="#ff8293"/>
          <path id="Trazado_727187" data-name="Trazado 727187" d="M61.7,5.368c0,1.86-2.465,3.368-5.506,3.368S50.69,7.228,50.69,5.368a2.22,2.22,0,0,1,.318-1.129C51.766,2.935,53.8,2,56.2,2s4.431.935,5.189,2.239A2.22,2.22,0,0,1,61.7,5.368Z" transform="translate(-47.865 -1.889)" fill="#ff9fb3"/>
          <ellipse id="Elipse_4864" data-name="Elipse 4864" cx="5.189" cy="2.239" rx="5.189" ry="2.239" transform="translate(3.143 0.111)" fill="#ff8293"/>
          <path id="Trazado_727188" data-name="Trazado 727188" d="M11.846,9.646l-.678-3.164c1.663-.6,2.782-1.724,2.782-3C13.949,1.561,11.429,0,8.331,0S2.714,1.561,2.714,3.479c0,1.27,1.1,2.383,2.749,2.99L4.78,9.657a8.409,8.409,0,0,0-3.418,1.829A3.883,3.883,0,0,0,0,14.307a4.436,4.436,0,0,0,2.461,3.65,10.373,10.373,0,0,0,3.746,1.321c.761,6.084,1.458,6.8,1.916,6.8h.006c.454,0,1.161-.718,2.077-6.767a10.5,10.5,0,0,0,4-1.358,4.436,4.436,0,0,0,2.461-3.65c0-2-1.889-3.822-4.817-4.661ZM2.937,3.479c0-1.8,2.42-3.257,5.395-3.257s5.395,1.461,5.395,3.257c0,1.206-1.092,2.262-2.712,2.824l-.022.007a8.241,8.241,0,0,1-2.661.425,8.225,8.225,0,0,1-2.7-.436h0c-1.611-.564-2.7-1.616-2.7-2.819ZM5.674,6.544a8.436,8.436,0,0,0,2.657.414,8.453,8.453,0,0,0,2.624-.4l1.522,7.1a7.489,7.489,0,0,1-4.163,1.106,7.491,7.491,0,0,1-4.163-1.106ZM8.947,24.416c-.389,1.26-.681,1.443-.821,1.443-.262,0-.948-.653-1.69-6.547a13.457,13.457,0,0,0,1.9.134,13.542,13.542,0,0,0,1.644-.1A38.323,38.323,0,0,1,8.947,24.416Zm-.616-5.193c-4.471,0-8.109-2.205-8.109-4.916,0-1.859,1.761-3.573,4.5-4.4l-.809,3.776a.111.111,0,0,0,.043.113,7.635,7.635,0,0,0,4.354,1.191,7.633,7.633,0,0,0,4.354-1.191.111.111,0,0,0,.043-.113L11.9,9.894c2.765.824,4.541,2.543,4.541,4.413,0,2.711-3.638,4.916-8.109,4.916Z" transform="translate(0 0)"/>
          <path id="Trazado_727189" data-name="Trazado 727189" d="M52,264.8a11.123,11.123,0,0,1-5.807,1.489,11.157,11.157,0,0,1-5.924-1.563.111.111,0,1,0-.121.187,11.226,11.226,0,0,0,6.046,1.6,11.346,11.346,0,0,0,5.925-1.523A.112.112,0,1,0,52,264.8Z" transform="translate(-37.861 -249.957)"/>
          <path id="Trazado_727190" data-name="Trazado 727190" d="M83.663,61.7a.112.112,0,0,0-.118-.189,8.026,8.026,0,0,1-7.819-.049.111.111,0,1,0-.121.187,7.555,7.555,0,0,0,4.07,1.077A7.638,7.638,0,0,0,83.663,61.7Z" transform="translate(-71.343 -58.02)"/>
        </g>
      </g>
      <g id="Calque_2-2" data-name="Calque 2" transform="translate(196.95 163.708)">
        <g id="_27-_Push_Pin-2" data-name="27- Push Pin" transform="translate(0 0)">
          <path id="Trazado_727183-2" data-name="Trazado 727183" d="M99.793,199.224s2.082,33.453,5.54,0Z" transform="translate(-94.231 -188.121)" fill="#51518e"/>
          <path id="Trazado_727184-2" data-name="Trazado 727184" d="M18.44,171.528c0,2.777-3.68,5.028-8.22,5.028S2,174.3,2,171.528a3.263,3.263,0,0,1,.347-1.45c1.017-2.07,4.157-3.578,7.873-3.578s6.856,1.508,7.873,3.578a3.27,3.27,0,0,1,.347,1.45Z" transform="translate(-1.889 -157.221)" fill="#ff8293"/>
          <path id="Trazado_727185-2" data-name="Trazado 727185" d="M23.976,170.078c-1.018,2.07-4.158,3.578-7.873,3.578s-6.856-1.508-7.873-3.578c1.017-2.07,4.157-3.578,7.873-3.578S22.958,168.008,23.976,170.078Z" transform="translate(-7.771 -157.221)" fill="#ff9fb3"/>
          <path id="Trazado_727186-2" data-name="Trazado 727186" d="M80.815,100.912a8.445,8.445,0,0,1-8.575,0l.813-3.793,1.021-4.764h4.907L80,97.119Z" transform="translate(-68.214 -87.208)" fill="#ff8293"/>
          <path id="Trazado_727187-2" data-name="Trazado 727187" d="M61.7,5.368c0,1.86-2.465,3.368-5.506,3.368S50.69,7.228,50.69,5.368a2.22,2.22,0,0,1,.318-1.129C51.766,2.935,53.8,2,56.2,2s4.431.935,5.189,2.239A2.22,2.22,0,0,1,61.7,5.368Z" transform="translate(-47.865 -1.889)" fill="#ff9fb3"/>
          <ellipse id="Elipse_4864-2" data-name="Elipse 4864" cx="5.189" cy="2.239" rx="5.189" ry="2.239" transform="translate(3.143 0.111)" fill="#ff8293"/>
          <path id="Trazado_727188-2" data-name="Trazado 727188" d="M11.846,9.646l-.678-3.164c1.663-.6,2.782-1.724,2.782-3C13.949,1.561,11.429,0,8.331,0S2.714,1.561,2.714,3.479c0,1.27,1.1,2.383,2.749,2.99L4.78,9.657a8.409,8.409,0,0,0-3.418,1.829A3.883,3.883,0,0,0,0,14.307a4.436,4.436,0,0,0,2.461,3.65,10.373,10.373,0,0,0,3.746,1.321c.761,6.084,1.458,6.8,1.916,6.8h.006c.454,0,1.161-.718,2.077-6.767a10.5,10.5,0,0,0,4-1.358,4.436,4.436,0,0,0,2.461-3.65c0-2-1.889-3.822-4.817-4.661ZM2.937,3.479c0-1.8,2.42-3.257,5.395-3.257s5.395,1.461,5.395,3.257c0,1.206-1.092,2.262-2.712,2.824l-.022.007a8.241,8.241,0,0,1-2.661.425,8.225,8.225,0,0,1-2.7-.436h0c-1.611-.564-2.7-1.616-2.7-2.819ZM5.674,6.544a8.436,8.436,0,0,0,2.657.414,8.453,8.453,0,0,0,2.624-.4l1.522,7.1a7.489,7.489,0,0,1-4.163,1.106,7.491,7.491,0,0,1-4.163-1.106ZM8.947,24.416c-.389,1.26-.681,1.443-.821,1.443-.262,0-.948-.653-1.69-6.547a13.457,13.457,0,0,0,1.9.134,13.542,13.542,0,0,0,1.644-.1A38.323,38.323,0,0,1,8.947,24.416Zm-.616-5.193c-4.471,0-8.109-2.205-8.109-4.916,0-1.859,1.761-3.573,4.5-4.4l-.809,3.776a.111.111,0,0,0,.043.113,7.635,7.635,0,0,0,4.354,1.191,7.633,7.633,0,0,0,4.354-1.191.111.111,0,0,0,.043-.113L11.9,9.894c2.765.824,4.541,2.543,4.541,4.413,0,2.711-3.638,4.916-8.109,4.916Z" transform="translate(0 0)"/>
          <path id="Trazado_727189-2" data-name="Trazado 727189" d="M52,264.8a11.123,11.123,0,0,1-5.807,1.489,11.157,11.157,0,0,1-5.924-1.563.111.111,0,1,0-.121.187,11.226,11.226,0,0,0,6.046,1.6,11.346,11.346,0,0,0,5.925-1.523A.112.112,0,1,0,52,264.8Z" transform="translate(-37.861 -249.957)"/>
          <path id="Trazado_727190-2" data-name="Trazado 727190" d="M83.663,61.7a.112.112,0,0,0-.118-.189,8.026,8.026,0,0,1-7.819-.049.111.111,0,1,0-.121.187,7.555,7.555,0,0,0,4.07,1.077A7.638,7.638,0,0,0,83.663,61.7Z" transform="translate(-71.343 -58.02)"/>
        </g>
      </g>
      <g id="Calque_2-3" data-name="Calque 2" transform="translate(341.38 140.137)">
        <g id="_27-_Push_Pin-3" data-name="27- Push Pin" transform="translate(0 0)">
          <path id="Trazado_727183-3" data-name="Trazado 727183" d="M99.793,199.224s2.082,33.453,5.54,0Z" transform="translate(-94.231 -188.121)" fill="#51518e"/>
          <path id="Trazado_727184-3" data-name="Trazado 727184" d="M18.44,171.528c0,2.777-3.68,5.028-8.22,5.028S2,174.3,2,171.528a3.263,3.263,0,0,1,.347-1.45c1.017-2.07,4.157-3.578,7.873-3.578s6.856,1.508,7.873,3.578a3.27,3.27,0,0,1,.347,1.45Z" transform="translate(-1.889 -157.221)" fill="#ff8293"/>
          <path id="Trazado_727185-3" data-name="Trazado 727185" d="M23.976,170.078c-1.018,2.07-4.158,3.578-7.873,3.578s-6.856-1.508-7.873-3.578c1.017-2.07,4.157-3.578,7.873-3.578S22.958,168.008,23.976,170.078Z" transform="translate(-7.771 -157.221)" fill="#ff9fb3"/>
          <path id="Trazado_727186-3" data-name="Trazado 727186" d="M80.815,100.912a8.445,8.445,0,0,1-8.575,0l.813-3.793,1.021-4.764h4.907L80,97.119Z" transform="translate(-68.214 -87.208)" fill="#ff8293"/>
          <path id="Trazado_727187-3" data-name="Trazado 727187" d="M61.7,5.368c0,1.86-2.465,3.368-5.506,3.368S50.69,7.228,50.69,5.368a2.22,2.22,0,0,1,.318-1.129C51.766,2.935,53.8,2,56.2,2s4.431.935,5.189,2.239A2.22,2.22,0,0,1,61.7,5.368Z" transform="translate(-47.865 -1.889)" fill="#ff9fb3"/>
          <ellipse id="Elipse_4864-3" data-name="Elipse 4864" cx="5.189" cy="2.239" rx="5.189" ry="2.239" transform="translate(3.143 0.111)" fill="#ff8293"/>
          <path id="Trazado_727188-3" data-name="Trazado 727188" d="M11.846,9.646l-.678-3.164c1.663-.6,2.782-1.724,2.782-3C13.949,1.561,11.429,0,8.331,0S2.714,1.561,2.714,3.479c0,1.27,1.1,2.383,2.749,2.99L4.78,9.657a8.409,8.409,0,0,0-3.418,1.829A3.883,3.883,0,0,0,0,14.307a4.436,4.436,0,0,0,2.461,3.65,10.373,10.373,0,0,0,3.746,1.321c.761,6.084,1.458,6.8,1.916,6.8h.006c.454,0,1.161-.718,2.077-6.767a10.5,10.5,0,0,0,4-1.358,4.436,4.436,0,0,0,2.461-3.65c0-2-1.889-3.822-4.817-4.661ZM2.937,3.479c0-1.8,2.42-3.257,5.395-3.257s5.395,1.461,5.395,3.257c0,1.206-1.092,2.262-2.712,2.824l-.022.007a8.241,8.241,0,0,1-2.661.425,8.225,8.225,0,0,1-2.7-.436h0c-1.611-.564-2.7-1.616-2.7-2.819ZM5.674,6.544a8.436,8.436,0,0,0,2.657.414,8.453,8.453,0,0,0,2.624-.4l1.522,7.1a7.489,7.489,0,0,1-4.163,1.106,7.491,7.491,0,0,1-4.163-1.106ZM8.947,24.416c-.389,1.26-.681,1.443-.821,1.443-.262,0-.948-.653-1.69-6.547a13.457,13.457,0,0,0,1.9.134,13.542,13.542,0,0,0,1.644-.1A38.323,38.323,0,0,1,8.947,24.416Zm-.616-5.193c-4.471,0-8.109-2.205-8.109-4.916,0-1.859,1.761-3.573,4.5-4.4l-.809,3.776a.111.111,0,0,0,.043.113,7.635,7.635,0,0,0,4.354,1.191,7.633,7.633,0,0,0,4.354-1.191.111.111,0,0,0,.043-.113L11.9,9.894c2.765.824,4.541,2.543,4.541,4.413,0,2.711-3.638,4.916-8.109,4.916Z" transform="translate(0 0)"/>
          <path id="Trazado_727189-3" data-name="Trazado 727189" d="M52,264.8a11.123,11.123,0,0,1-5.807,1.489,11.157,11.157,0,0,1-5.924-1.563.111.111,0,1,0-.121.187,11.226,11.226,0,0,0,6.046,1.6,11.346,11.346,0,0,0,5.925-1.523A.112.112,0,1,0,52,264.8Z" transform="translate(-37.861 -249.957)"/>
          <path id="Trazado_727190-3" data-name="Trazado 727190" d="M83.663,61.7a.112.112,0,0,0-.118-.189,8.026,8.026,0,0,1-7.819-.049.111.111,0,1,0-.121.187,7.555,7.555,0,0,0,4.07,1.077A7.638,7.638,0,0,0,83.663,61.7Z" transform="translate(-71.343 -58.02)"/>
        </g>
      </g>
      <g id="Calque_2-4" data-name="Calque 2" transform="translate(30.681 93.008)">
        <g id="_27-_Push_Pin-4" data-name="27- Push Pin" transform="translate(0 0)">
          <path id="Trazado_727183-4" data-name="Trazado 727183" d="M99.793,199.224s2.082,33.453,5.54,0Z" transform="translate(-94.231 -188.121)" fill="#51518e"/>
          <path id="Trazado_727184-4" data-name="Trazado 727184" d="M18.44,171.528c0,2.777-3.68,5.028-8.22,5.028S2,174.3,2,171.528a3.263,3.263,0,0,1,.347-1.45c1.017-2.07,4.157-3.578,7.873-3.578s6.856,1.508,7.873,3.578a3.27,3.27,0,0,1,.347,1.45Z" transform="translate(-1.889 -157.221)" fill="#ff8293"/>
          <path id="Trazado_727185-4" data-name="Trazado 727185" d="M23.976,170.078c-1.018,2.07-4.158,3.578-7.873,3.578s-6.856-1.508-7.873-3.578c1.017-2.07,4.157-3.578,7.873-3.578S22.958,168.008,23.976,170.078Z" transform="translate(-7.771 -157.221)" fill="#ff9fb3"/>
          <path id="Trazado_727186-4" data-name="Trazado 727186" d="M80.815,100.912a8.445,8.445,0,0,1-8.575,0l.813-3.793,1.021-4.764h4.907L80,97.119Z" transform="translate(-68.214 -87.208)" fill="#ff8293"/>
          <path id="Trazado_727187-4" data-name="Trazado 727187" d="M61.7,5.368c0,1.86-2.465,3.368-5.506,3.368S50.69,7.228,50.69,5.368a2.22,2.22,0,0,1,.318-1.129C51.766,2.935,53.8,2,56.2,2s4.431.935,5.189,2.239A2.22,2.22,0,0,1,61.7,5.368Z" transform="translate(-47.865 -1.889)" fill="#ff9fb3"/>
          <ellipse id="Elipse_4864-4" data-name="Elipse 4864" cx="5.189" cy="2.239" rx="5.189" ry="2.239" transform="translate(3.143 0.111)" fill="#ff8293"/>
          <path id="Trazado_727188-4" data-name="Trazado 727188" d="M11.846,9.646l-.678-3.164c1.663-.6,2.782-1.724,2.782-3C13.949,1.561,11.429,0,8.331,0S2.714,1.561,2.714,3.479c0,1.27,1.1,2.383,2.749,2.99L4.78,9.657a8.409,8.409,0,0,0-3.418,1.829A3.883,3.883,0,0,0,0,14.307a4.436,4.436,0,0,0,2.461,3.65,10.373,10.373,0,0,0,3.746,1.321c.761,6.084,1.458,6.8,1.916,6.8h.006c.454,0,1.161-.718,2.077-6.767a10.5,10.5,0,0,0,4-1.358,4.436,4.436,0,0,0,2.461-3.65c0-2-1.889-3.822-4.817-4.661ZM2.937,3.479c0-1.8,2.42-3.257,5.395-3.257s5.395,1.461,5.395,3.257c0,1.206-1.092,2.262-2.712,2.824l-.022.007a8.241,8.241,0,0,1-2.661.425,8.225,8.225,0,0,1-2.7-.436h0c-1.611-.564-2.7-1.616-2.7-2.819ZM5.674,6.544a8.436,8.436,0,0,0,2.657.414,8.453,8.453,0,0,0,2.624-.4l1.522,7.1a7.489,7.489,0,0,1-4.163,1.106,7.491,7.491,0,0,1-4.163-1.106ZM8.947,24.416c-.389,1.26-.681,1.443-.821,1.443-.262,0-.948-.653-1.69-6.547a13.457,13.457,0,0,0,1.9.134,13.542,13.542,0,0,0,1.644-.1A38.323,38.323,0,0,1,8.947,24.416Zm-.616-5.193c-4.471,0-8.109-2.205-8.109-4.916,0-1.859,1.761-3.573,4.5-4.4l-.809,3.776a.111.111,0,0,0,.043.113,7.635,7.635,0,0,0,4.354,1.191,7.633,7.633,0,0,0,4.354-1.191.111.111,0,0,0,.043-.113L11.9,9.894c2.765.824,4.541,2.543,4.541,4.413,0,2.711-3.638,4.916-8.109,4.916Z" transform="translate(0 0)"/>
          <path id="Trazado_727189-4" data-name="Trazado 727189" d="M52,264.8a11.123,11.123,0,0,1-5.807,1.489,11.157,11.157,0,0,1-5.924-1.563.111.111,0,1,0-.121.187,11.226,11.226,0,0,0,6.046,1.6,11.346,11.346,0,0,0,5.925-1.523A.112.112,0,1,0,52,264.8Z" transform="translate(-37.861 -249.957)"/>
          <path id="Trazado_727190-4" data-name="Trazado 727190" d="M83.663,61.7a.112.112,0,0,0-.118-.189,8.026,8.026,0,0,1-7.819-.049.111.111,0,1,0-.121.187,7.555,7.555,0,0,0,4.07,1.077A7.638,7.638,0,0,0,83.663,61.7Z" transform="translate(-71.343 -58.02)"/>
        </g>
      </g>
    </g>
    <path id="Trazado_727221" data-name="Trazado 727221" d="M9.967-6.593H3.7V0H1.733V-14.93h9.249v1.61H3.7V-8.2H9.967Z" transform="translate(628 3605)" fill="#12263f"/>
    <path id="Trazado_727222" data-name="Trazado 727222" d="M12.756-1.958A4.548,4.548,0,0,1,10.638-.333,8.553,8.553,0,0,1,7.475.205a6.135,6.135,0,0,1-3.24-.856A5.7,5.7,0,0,1,2.046-3.086a8.411,8.411,0,0,1-.795-3.661v-1.3a7.852,7.852,0,0,1,1.574-5.229A5.484,5.484,0,0,1,7.25-15.135a5.665,5.665,0,0,1,3.763,1.195,5.2,5.2,0,0,1,1.743,3.389H10.787A3.255,3.255,0,0,0,7.26-13.525a3.485,3.485,0,0,0-3,1.391A6.79,6.79,0,0,0,3.23-8.106v1.221a6.363,6.363,0,0,0,1.148,4A3.723,3.723,0,0,0,7.485-1.4,6.862,6.862,0,0,0,9.423-1.65,3,3,0,0,0,10.8-2.479V-5.824H7.342v-1.61h5.414Z" transform="translate(747 3605)" fill="#12263f"/>
    <path id="Trazado_727223" data-name="Trazado 727223" d="M11.949,0H10.159V-6.244H3.349V0H1.568V-13.508H3.349V-7.7h6.81v-5.808h1.791Z" transform="translate(806 3604)" fill="#12263f"/>
    <path id="Trazado_727224" data-name="Trazado 727224" d="M10.172-6.9H3.7V-1.61h7.516V0H1.733V-14.93h9.382v1.61H3.7v4.809h6.47Z" transform="translate(562 3679)" fill="#12263f"/>
    <path id="Trazado_727225" data-name="Trazado 727225" d="M1.568,0V-13.508H5.381a6.138,6.138,0,0,1,3.117.779,5.271,5.271,0,0,1,2.092,2.217,7.217,7.217,0,0,1,.747,3.3v.863A7.242,7.242,0,0,1,10.6-3,5.188,5.188,0,0,1,8.493-.789,6.529,6.529,0,0,1,5.307,0ZM3.349-12.051V-1.457H5.223A4.077,4.077,0,0,0,8.428-2.738,5.294,5.294,0,0,0,9.574-6.387v-.789a5.378,5.378,0,0,0-1.081-3.579,3.846,3.846,0,0,0-3.066-1.3Z" transform="translate(574 3796)" fill="#12263f"/>
    <path id="Trazado_727226" data-name="Trazado 727226" d="M11.5-4.286A4.97,4.97,0,0,1,9.922-.979,5.184,5.184,0,0,1,6.383.186,4.76,4.76,0,0,1,2.547-1.531,6.905,6.905,0,0,1,1.1-6.123v-1.3a7.7,7.7,0,0,1,.673-3.312,5.024,5.024,0,0,1,1.906-2.194,5.308,5.308,0,0,1,2.857-.765,4.881,4.881,0,0,1,3.451,1.2A5.029,5.029,0,0,1,11.5-9.166H9.713a3.881,3.881,0,0,0-1.007-2.345,3.046,3.046,0,0,0-2.166-.726,3.187,3.187,0,0,0-2.677,1.263,5.8,5.8,0,0,0-.969,3.593v1.309a5.959,5.959,0,0,0,.918,3.5,2.968,2.968,0,0,0,2.57,1.3A3.428,3.428,0,0,0,8.66-1.944,3.733,3.733,0,0,0,9.713-4.286Z" transform="translate(574 3897)" fill="#12263f"/>
    <path id="Trazado_727227" data-name="Trazado 727227" d="M3.712-1.61h7.075V0H1.733V-14.93H3.712Z" transform="translate(777 3763)" fill="#12263f"/>
    <path id="Trazado_727228" data-name="Trazado 727228" d="M5.527-6.942,3.7-5.045V0H1.733V-14.93H3.7v7.383l6.634-7.383h2.379L6.839-8.336,13.176,0H10.818Z" transform="translate(874 3774)" fill="#12263f"/>
    <path id="Trazado_727229" data-name="Trazado 727229" d="M1.733,0V-14.93H6.614a5.666,5.666,0,0,1,3.656,1,3.622,3.622,0,0,1,1.225,2.974A3.032,3.032,0,0,1,10.9-9.1,3.855,3.855,0,0,1,9.28-7.854a3.462,3.462,0,0,1,1.912,1.287,3.693,3.693,0,0,1,.7,2.261,3.993,3.993,0,0,1-1.3,3.158A5.385,5.385,0,0,1,6.911,0ZM3.7-6.983V-1.61h3.25a3.13,3.13,0,0,0,2.169-.713,2.5,2.5,0,0,0,.795-1.964q0-2.7-2.933-2.7Zm0-1.579H6.675a3.117,3.117,0,0,0,2.066-.647,2.17,2.17,0,0,0,.774-1.757A2.134,2.134,0,0,0,8.8-12.76a3.525,3.525,0,0,0-2.184-.56H3.7Z" transform="translate(820 3983)" fill="#12263f"/>
    <path id="Trazado_727230" data-name="Trazado 727230" d="M9.027-3.535H3.368L2.1,0H.26L5.418-13.508H6.977L12.144,0H10.316ZM3.906-4.991H8.5L6.2-11.309Z" transform="translate(953 3982)" fill="#12263f"/>
    <path id="Trazado_727231" data-name="Trazado 727231" d="M7.988-14.93H9.967V-4.358A4.379,4.379,0,0,1,8.68-1,4.8,4.8,0,0,1,5.25.205,4.937,4.937,0,0,1,1.784-.933,4.11,4.11,0,0,1,.543-4.122H2.512a2.737,2.737,0,0,0,.7,2A2.721,2.721,0,0,0,5.25-1.4a2.64,2.64,0,0,0,1.974-.769,2.979,2.979,0,0,0,.764-2.153Z" transform="translate(890 3675)" fill="#12263f"/>
    <path id="Trazado_727232" data-name="Trazado 727232" d="M3.3,0H1.608V-12.8H3.3Z" transform="translate(1002 3752)" fill="#12263f"/>
    <path id="Trazado_727193" data-name="Trazado 727193" d="M9691.2-7622.31l78.326-83.705-46.2,148.2,197.271,77.057,18.225,89.949,135.584,8.371-4.449-204.4s-2.254-96.631-4.8-97.477-74.142-10.672-74.142-10.672l-57.4-3.831-102.958,76.5-10.847-86.514-50.284,2.809-18.884,269.9,80.015-186.2" transform="translate(-9105.072 11323.135)" fill="none" stroke="#2ba74c" stroke-width="1.5"/>
    <path id="Trazado_727194" data-name="Trazado 727194" d="M9690-7626.548l32.08,64.276,28.295,129.055,173.358-44.792,156.33,90.1-9.946-199.84-65.956,11.586,30.661,101.246,40.894,87.008L9921.06-7481.8s13.447-209.689,13.447-215.779-115.727-9.932-115.727-9.932" transform="translate(-9105.39 11323.479)" fill="none" stroke="#2ba74c" stroke-width="1.5"/>
    <g id="_27-_Push_Pin-5" data-name="27- Push Pin" transform="translate(611.125 3746.536)">
      <path id="Trazado_727183-5" data-name="Trazado 727183" d="M99.793,199.224s2.082,33.453,5.54,0Z" transform="translate(-94.231 -188.121)" fill="#51518e"/>
      <path id="Trazado_727184-5" data-name="Trazado 727184" d="M18.44,171.528c0,2.777-3.68,5.028-8.22,5.028S2,174.3,2,171.528a3.263,3.263,0,0,1,.347-1.45c1.017-2.07,4.157-3.578,7.873-3.578s6.856,1.508,7.873,3.578a3.27,3.27,0,0,1,.347,1.45Z" transform="translate(-1.889 -157.221)" fill="#ff8293"/>
      <path id="Trazado_727185-5" data-name="Trazado 727185" d="M23.976,170.078c-1.018,2.07-4.158,3.578-7.873,3.578s-6.856-1.508-7.873-3.578c1.017-2.07,4.157-3.578,7.873-3.578S22.958,168.008,23.976,170.078Z" transform="translate(-7.771 -157.221)" fill="#ff9fb3"/>
      <path id="Trazado_727186-5" data-name="Trazado 727186" d="M80.815,100.912a8.445,8.445,0,0,1-8.575,0l.813-3.793,1.021-4.764h4.907L80,97.119Z" transform="translate(-68.214 -87.208)" fill="#ff8293"/>
      <path id="Trazado_727187-5" data-name="Trazado 727187" d="M61.7,5.368c0,1.86-2.465,3.368-5.506,3.368S50.69,7.228,50.69,5.368a2.22,2.22,0,0,1,.318-1.129C51.766,2.935,53.8,2,56.2,2s4.431.935,5.189,2.239A2.22,2.22,0,0,1,61.7,5.368Z" transform="translate(-47.865 -1.889)" fill="#ff9fb3"/>
      <ellipse id="Elipse_4864-5" data-name="Elipse 4864" cx="5.189" cy="2.239" rx="5.189" ry="2.239" transform="translate(3.143 0.111)" fill="#ff8293"/>
      <path id="Trazado_727188-5" data-name="Trazado 727188" d="M11.846,9.646l-.678-3.164c1.663-.6,2.782-1.724,2.782-3C13.949,1.561,11.429,0,8.331,0S2.714,1.561,2.714,3.479c0,1.27,1.1,2.383,2.749,2.99L4.78,9.657a8.409,8.409,0,0,0-3.418,1.829A3.883,3.883,0,0,0,0,14.307a4.436,4.436,0,0,0,2.461,3.65,10.373,10.373,0,0,0,3.746,1.321c.761,6.084,1.458,6.8,1.916,6.8h.006c.454,0,1.161-.718,2.077-6.767a10.5,10.5,0,0,0,4-1.358,4.436,4.436,0,0,0,2.461-3.65c0-2-1.889-3.822-4.817-4.661ZM2.937,3.479c0-1.8,2.42-3.257,5.395-3.257s5.395,1.461,5.395,3.257c0,1.206-1.092,2.262-2.712,2.824l-.022.007a8.241,8.241,0,0,1-2.661.425,8.225,8.225,0,0,1-2.7-.436h0c-1.611-.564-2.7-1.616-2.7-2.819ZM5.674,6.544a8.436,8.436,0,0,0,2.657.414,8.453,8.453,0,0,0,2.624-.4l1.522,7.1a7.489,7.489,0,0,1-4.163,1.106,7.491,7.491,0,0,1-4.163-1.106ZM8.947,24.416c-.389,1.26-.681,1.443-.821,1.443-.262,0-.948-.653-1.69-6.547a13.457,13.457,0,0,0,1.9.134,13.542,13.542,0,0,0,1.644-.1A38.323,38.323,0,0,1,8.947,24.416Zm-.616-5.193c-4.471,0-8.109-2.205-8.109-4.916,0-1.859,1.761-3.573,4.5-4.4l-.809,3.776a.111.111,0,0,0,.043.113,7.635,7.635,0,0,0,4.354,1.191,7.633,7.633,0,0,0,4.354-1.191.111.111,0,0,0,.043-.113L11.9,9.894c2.765.824,4.541,2.543,4.541,4.413,0,2.711-3.638,4.916-8.109,4.916Z" transform="translate(0 0)"/>
      <path id="Trazado_727189-5" data-name="Trazado 727189" d="M52,264.8a11.123,11.123,0,0,1-5.807,1.489,11.157,11.157,0,0,1-5.924-1.563.111.111,0,1,0-.121.187,11.226,11.226,0,0,0,6.046,1.6,11.346,11.346,0,0,0,5.925-1.523A.112.112,0,1,0,52,264.8Z" transform="translate(-37.861 -249.957)"/>
      <path id="Trazado_727190-5" data-name="Trazado 727190" d="M83.663,61.7a.112.112,0,0,0-.118-.189,8.026,8.026,0,0,1-7.819-.049.111.111,0,1,0-.121.187,7.555,7.555,0,0,0,4.07,1.077A7.638,7.638,0,0,0,83.663,61.7Z" transform="translate(-71.343 -58.02)"/>
    </g>
    <g id="_27-_Push_Pin-6" data-name="27- Push Pin" transform="translate(637.638 3865.21)">
      <path id="Trazado_727183-6" data-name="Trazado 727183" d="M99.793,199.224s2.082,33.453,5.54,0Z" transform="translate(-94.231 -188.121)" fill="#51518e"/>
      <path id="Trazado_727184-6" data-name="Trazado 727184" d="M18.44,171.528c0,2.777-3.68,5.028-8.22,5.028S2,174.3,2,171.528a3.263,3.263,0,0,1,.347-1.45c1.017-2.07,4.157-3.578,7.873-3.578s6.856,1.508,7.873,3.578a3.27,3.27,0,0,1,.347,1.45Z" transform="translate(-1.889 -157.221)" fill="#ff8293"/>
      <path id="Trazado_727185-6" data-name="Trazado 727185" d="M23.976,170.078c-1.018,2.07-4.158,3.578-7.873,3.578s-6.856-1.508-7.873-3.578c1.017-2.07,4.157-3.578,7.873-3.578S22.958,168.008,23.976,170.078Z" transform="translate(-7.771 -157.221)" fill="#ff9fb3"/>
      <path id="Trazado_727186-6" data-name="Trazado 727186" d="M80.815,100.912a8.445,8.445,0,0,1-8.575,0l.813-3.793,1.021-4.764h4.907L80,97.119Z" transform="translate(-68.214 -87.208)" fill="#ff8293"/>
      <path id="Trazado_727187-6" data-name="Trazado 727187" d="M61.7,5.368c0,1.86-2.465,3.368-5.506,3.368S50.69,7.228,50.69,5.368a2.22,2.22,0,0,1,.318-1.129C51.766,2.935,53.8,2,56.2,2s4.431.935,5.189,2.239A2.22,2.22,0,0,1,61.7,5.368Z" transform="translate(-47.865 -1.889)" fill="#ff9fb3"/>
      <ellipse id="Elipse_4864-6" data-name="Elipse 4864" cx="5.189" cy="2.239" rx="5.189" ry="2.239" transform="translate(3.143 0.111)" fill="#ff8293"/>
      <path id="Trazado_727188-6" data-name="Trazado 727188" d="M11.846,9.646l-.678-3.164c1.663-.6,2.782-1.724,2.782-3C13.949,1.561,11.429,0,8.331,0S2.714,1.561,2.714,3.479c0,1.27,1.1,2.383,2.749,2.99L4.78,9.657a8.409,8.409,0,0,0-3.418,1.829A3.883,3.883,0,0,0,0,14.307a4.436,4.436,0,0,0,2.461,3.65,10.373,10.373,0,0,0,3.746,1.321c.761,6.084,1.458,6.8,1.916,6.8h.006c.454,0,1.161-.718,2.077-6.767a10.5,10.5,0,0,0,4-1.358,4.436,4.436,0,0,0,2.461-3.65c0-2-1.889-3.822-4.817-4.661ZM2.937,3.479c0-1.8,2.42-3.257,5.395-3.257s5.395,1.461,5.395,3.257c0,1.206-1.092,2.262-2.712,2.824l-.022.007a8.241,8.241,0,0,1-2.661.425,8.225,8.225,0,0,1-2.7-.436h0c-1.611-.564-2.7-1.616-2.7-2.819ZM5.674,6.544a8.436,8.436,0,0,0,2.657.414,8.453,8.453,0,0,0,2.624-.4l1.522,7.1a7.489,7.489,0,0,1-4.163,1.106,7.491,7.491,0,0,1-4.163-1.106ZM8.947,24.416c-.389,1.26-.681,1.443-.821,1.443-.262,0-.948-.653-1.69-6.547a13.457,13.457,0,0,0,1.9.134,13.542,13.542,0,0,0,1.644-.1A38.323,38.323,0,0,1,8.947,24.416Zm-.616-5.193c-4.471,0-8.109-2.205-8.109-4.916,0-1.859,1.761-3.573,4.5-4.4l-.809,3.776a.111.111,0,0,0,.043.113,7.635,7.635,0,0,0,4.354,1.191,7.633,7.633,0,0,0,4.354-1.191.111.111,0,0,0,.043-.113L11.9,9.894c2.765.824,4.541,2.543,4.541,4.413,0,2.711-3.638,4.916-8.109,4.916Z" transform="translate(0 0)"/>
      <path id="Trazado_727189-6" data-name="Trazado 727189" d="M52,264.8a11.123,11.123,0,0,1-5.807,1.489,11.157,11.157,0,0,1-5.924-1.563.111.111,0,1,0-.121.187,11.226,11.226,0,0,0,6.046,1.6,11.346,11.346,0,0,0,5.925-1.523A.112.112,0,1,0,52,264.8Z" transform="translate(-37.861 -249.957)"/>
      <path id="Trazado_727190-6" data-name="Trazado 727190" d="M83.663,61.7a.112.112,0,0,0-.118-.189,8.026,8.026,0,0,1-7.819-.049.111.111,0,1,0-.121.187,7.555,7.555,0,0,0,4.07,1.077A7.638,7.638,0,0,0,83.663,61.7Z" transform="translate(-71.343 -58.02)"/>
    </g>
    <g id="_27-_Push_Pin-7" data-name="27- Push Pin" transform="translate(716.294 3684.788)">
      <path id="Trazado_727183-7" data-name="Trazado 727183" d="M99.793,199.224s2.082,33.453,5.54,0Z" transform="translate(-94.231 -188.121)" fill="#51518e"/>
      <path id="Trazado_727184-7" data-name="Trazado 727184" d="M18.44,171.528c0,2.777-3.68,5.028-8.22,5.028S2,174.3,2,171.528a3.263,3.263,0,0,1,.347-1.45c1.017-2.07,4.157-3.578,7.873-3.578s6.856,1.508,7.873,3.578a3.27,3.27,0,0,1,.347,1.45Z" transform="translate(-1.889 -157.221)" fill="#ff8293"/>
      <path id="Trazado_727185-7" data-name="Trazado 727185" d="M23.976,170.078c-1.018,2.07-4.158,3.578-7.873,3.578s-6.856-1.508-7.873-3.578c1.017-2.07,4.157-3.578,7.873-3.578S22.958,168.008,23.976,170.078Z" transform="translate(-7.771 -157.221)" fill="#ff9fb3"/>
      <path id="Trazado_727186-7" data-name="Trazado 727186" d="M80.815,100.912a8.445,8.445,0,0,1-8.575,0l.813-3.793,1.021-4.764h4.907L80,97.119Z" transform="translate(-68.214 -87.208)" fill="#ff8293"/>
      <path id="Trazado_727187-7" data-name="Trazado 727187" d="M61.7,5.368c0,1.86-2.465,3.368-5.506,3.368S50.69,7.228,50.69,5.368a2.22,2.22,0,0,1,.318-1.129C51.766,2.935,53.8,2,56.2,2s4.431.935,5.189,2.239A2.22,2.22,0,0,1,61.7,5.368Z" transform="translate(-47.865 -1.889)" fill="#ff9fb3"/>
      <ellipse id="Elipse_4864-7" data-name="Elipse 4864" cx="5.189" cy="2.239" rx="5.189" ry="2.239" transform="translate(3.143 0.111)" fill="#ff8293"/>
      <path id="Trazado_727188-7" data-name="Trazado 727188" d="M11.846,9.646l-.678-3.164c1.663-.6,2.782-1.724,2.782-3C13.949,1.561,11.429,0,8.331,0S2.714,1.561,2.714,3.479c0,1.27,1.1,2.383,2.749,2.99L4.78,9.657a8.409,8.409,0,0,0-3.418,1.829A3.883,3.883,0,0,0,0,14.307a4.436,4.436,0,0,0,2.461,3.65,10.373,10.373,0,0,0,3.746,1.321c.761,6.084,1.458,6.8,1.916,6.8h.006c.454,0,1.161-.718,2.077-6.767a10.5,10.5,0,0,0,4-1.358,4.436,4.436,0,0,0,2.461-3.65c0-2-1.889-3.822-4.817-4.661ZM2.937,3.479c0-1.8,2.42-3.257,5.395-3.257s5.395,1.461,5.395,3.257c0,1.206-1.092,2.262-2.712,2.824l-.022.007a8.241,8.241,0,0,1-2.661.425,8.225,8.225,0,0,1-2.7-.436h0c-1.611-.564-2.7-1.616-2.7-2.819ZM5.674,6.544a8.436,8.436,0,0,0,2.657.414,8.453,8.453,0,0,0,2.624-.4l1.522,7.1a7.489,7.489,0,0,1-4.163,1.106,7.491,7.491,0,0,1-4.163-1.106ZM8.947,24.416c-.389,1.26-.681,1.443-.821,1.443-.262,0-.948-.653-1.69-6.547a13.457,13.457,0,0,0,1.9.134,13.542,13.542,0,0,0,1.644-.1A38.323,38.323,0,0,1,8.947,24.416Zm-.616-5.193c-4.471,0-8.109-2.205-8.109-4.916,0-1.859,1.761-3.573,4.5-4.4l-.809,3.776a.111.111,0,0,0,.043.113,7.635,7.635,0,0,0,4.354,1.191,7.633,7.633,0,0,0,4.354-1.191.111.111,0,0,0,.043-.113L11.9,9.894c2.765.824,4.541,2.543,4.541,4.413,0,2.711-3.638,4.916-8.109,4.916Z" transform="translate(0 0)"/>
      <path id="Trazado_727189-7" data-name="Trazado 727189" d="M52,264.8a11.123,11.123,0,0,1-5.807,1.489,11.157,11.157,0,0,1-5.924-1.563.111.111,0,1,0-.121.187,11.226,11.226,0,0,0,6.046,1.6,11.346,11.346,0,0,0,5.925-1.523A.112.112,0,1,0,52,264.8Z" transform="translate(-37.861 -249.957)"/>
      <path id="Trazado_727190-7" data-name="Trazado 727190" d="M83.663,61.7a.112.112,0,0,0-.118-.189,8.026,8.026,0,0,1-7.819-.049.111.111,0,1,0-.121.187,7.555,7.555,0,0,0,4.07,1.077A7.638,7.638,0,0,0,83.663,61.7Z" transform="translate(-71.343 -58.02)"/>
    </g>
    <g id="_27-_Push_Pin-8" data-name="27- Push Pin" transform="translate(953.334 3716.235)">
      <path id="Trazado_727183-8" data-name="Trazado 727183" d="M99.793,199.224s2.082,33.453,5.54,0Z" transform="translate(-94.231 -188.121)" fill="#51518e"/>
      <path id="Trazado_727184-8" data-name="Trazado 727184" d="M18.44,171.528c0,2.777-3.68,5.028-8.22,5.028S2,174.3,2,171.528a3.263,3.263,0,0,1,.347-1.45c1.017-2.07,4.157-3.578,7.873-3.578s6.856,1.508,7.873,3.578a3.27,3.27,0,0,1,.347,1.45Z" transform="translate(-1.889 -157.221)" fill="#ff8293"/>
      <path id="Trazado_727185-8" data-name="Trazado 727185" d="M23.976,170.078c-1.018,2.07-4.158,3.578-7.873,3.578s-6.856-1.508-7.873-3.578c1.017-2.07,4.157-3.578,7.873-3.578S22.958,168.008,23.976,170.078Z" transform="translate(-7.771 -157.221)" fill="#ff9fb3"/>
      <path id="Trazado_727186-8" data-name="Trazado 727186" d="M80.815,100.912a8.445,8.445,0,0,1-8.575,0l.813-3.793,1.021-4.764h4.907L80,97.119Z" transform="translate(-68.214 -87.208)" fill="#ff8293"/>
      <path id="Trazado_727187-8" data-name="Trazado 727187" d="M61.7,5.368c0,1.86-2.465,3.368-5.506,3.368S50.69,7.228,50.69,5.368a2.22,2.22,0,0,1,.318-1.129C51.766,2.935,53.8,2,56.2,2s4.431.935,5.189,2.239A2.22,2.22,0,0,1,61.7,5.368Z" transform="translate(-47.865 -1.889)" fill="#ff9fb3"/>
      <ellipse id="Elipse_4864-8" data-name="Elipse 4864" cx="5.189" cy="2.239" rx="5.189" ry="2.239" transform="translate(3.143 0.111)" fill="#ff8293"/>
      <path id="Trazado_727188-8" data-name="Trazado 727188" d="M11.846,9.646l-.678-3.164c1.663-.6,2.782-1.724,2.782-3C13.949,1.561,11.429,0,8.331,0S2.714,1.561,2.714,3.479c0,1.27,1.1,2.383,2.749,2.99L4.78,9.657a8.409,8.409,0,0,0-3.418,1.829A3.883,3.883,0,0,0,0,14.307a4.436,4.436,0,0,0,2.461,3.65,10.373,10.373,0,0,0,3.746,1.321c.761,6.084,1.458,6.8,1.916,6.8h.006c.454,0,1.161-.718,2.077-6.767a10.5,10.5,0,0,0,4-1.358,4.436,4.436,0,0,0,2.461-3.65c0-2-1.889-3.822-4.817-4.661ZM2.937,3.479c0-1.8,2.42-3.257,5.395-3.257s5.395,1.461,5.395,3.257c0,1.206-1.092,2.262-2.712,2.824l-.022.007a8.241,8.241,0,0,1-2.661.425,8.225,8.225,0,0,1-2.7-.436h0c-1.611-.564-2.7-1.616-2.7-2.819ZM5.674,6.544a8.436,8.436,0,0,0,2.657.414,8.453,8.453,0,0,0,2.624-.4l1.522,7.1a7.489,7.489,0,0,1-4.163,1.106,7.491,7.491,0,0,1-4.163-1.106ZM8.947,24.416c-.389,1.26-.681,1.443-.821,1.443-.262,0-.948-.653-1.69-6.547a13.457,13.457,0,0,0,1.9.134,13.542,13.542,0,0,0,1.644-.1A38.323,38.323,0,0,1,8.947,24.416Zm-.616-5.193c-4.471,0-8.109-2.205-8.109-4.916,0-1.859,1.761-3.573,4.5-4.4l-.809,3.776a.111.111,0,0,0,.043.113,7.635,7.635,0,0,0,4.354,1.191,7.633,7.633,0,0,0,4.354-1.191.111.111,0,0,0,.043-.113L11.9,9.894c2.765.824,4.541,2.543,4.541,4.413,0,2.711-3.638,4.916-8.109,4.916Z" transform="translate(0 0)"/>
      <path id="Trazado_727189-8" data-name="Trazado 727189" d="M52,264.8a11.123,11.123,0,0,1-5.807,1.489,11.157,11.157,0,0,1-5.924-1.563.111.111,0,1,0-.121.187,11.226,11.226,0,0,0,6.046,1.6,11.346,11.346,0,0,0,5.925-1.523A.112.112,0,1,0,52,264.8Z" transform="translate(-37.861 -249.957)"/>
      <path id="Trazado_727190-8" data-name="Trazado 727190" d="M83.663,61.7a.112.112,0,0,0-.118-.189,8.026,8.026,0,0,1-7.819-.049.111.111,0,1,0-.121.187,7.555,7.555,0,0,0,4.07,1.077A7.638,7.638,0,0,0,83.663,61.7Z" transform="translate(-71.343 -58.02)"/>
    </g>
    <g id="_27-_Push_Pin-9" data-name="27- Push Pin" transform="translate(966.393 3915.408)">
      <path id="Trazado_727183-9" data-name="Trazado 727183" d="M99.793,199.224s2.082,33.453,5.54,0Z" transform="translate(-94.231 -188.121)" fill="#51518e"/>
      <path id="Trazado_727184-9" data-name="Trazado 727184" d="M18.44,171.528c0,2.777-3.68,5.028-8.22,5.028S2,174.3,2,171.528a3.263,3.263,0,0,1,.347-1.45c1.017-2.07,4.157-3.578,7.873-3.578s6.856,1.508,7.873,3.578a3.27,3.27,0,0,1,.347,1.45Z" transform="translate(-1.889 -157.221)" fill="#ff8293"/>
      <path id="Trazado_727185-9" data-name="Trazado 727185" d="M23.976,170.078c-1.018,2.07-4.158,3.578-7.873,3.578s-6.856-1.508-7.873-3.578c1.017-2.07,4.157-3.578,7.873-3.578S22.958,168.008,23.976,170.078Z" transform="translate(-7.771 -157.221)" fill="#ff9fb3"/>
      <path id="Trazado_727186-9" data-name="Trazado 727186" d="M80.815,100.912a8.445,8.445,0,0,1-8.575,0l.813-3.793,1.021-4.764h4.907L80,97.119Z" transform="translate(-68.214 -87.208)" fill="#ff8293"/>
      <path id="Trazado_727187-9" data-name="Trazado 727187" d="M61.7,5.368c0,1.86-2.465,3.368-5.506,3.368S50.69,7.228,50.69,5.368a2.22,2.22,0,0,1,.318-1.129C51.766,2.935,53.8,2,56.2,2s4.431.935,5.189,2.239A2.22,2.22,0,0,1,61.7,5.368Z" transform="translate(-47.865 -1.889)" fill="#ff9fb3"/>
      <ellipse id="Elipse_4864-9" data-name="Elipse 4864" cx="5.189" cy="2.239" rx="5.189" ry="2.239" transform="translate(3.143 0.111)" fill="#ff8293"/>
      <path id="Trazado_727188-9" data-name="Trazado 727188" d="M11.846,9.646l-.678-3.164c1.663-.6,2.782-1.724,2.782-3C13.949,1.561,11.429,0,8.331,0S2.714,1.561,2.714,3.479c0,1.27,1.1,2.383,2.749,2.99L4.78,9.657a8.409,8.409,0,0,0-3.418,1.829A3.883,3.883,0,0,0,0,14.307a4.436,4.436,0,0,0,2.461,3.65,10.373,10.373,0,0,0,3.746,1.321c.761,6.084,1.458,6.8,1.916,6.8h.006c.454,0,1.161-.718,2.077-6.767a10.5,10.5,0,0,0,4-1.358,4.436,4.436,0,0,0,2.461-3.65c0-2-1.889-3.822-4.817-4.661ZM2.937,3.479c0-1.8,2.42-3.257,5.395-3.257s5.395,1.461,5.395,3.257c0,1.206-1.092,2.262-2.712,2.824l-.022.007a8.241,8.241,0,0,1-2.661.425,8.225,8.225,0,0,1-2.7-.436h0c-1.611-.564-2.7-1.616-2.7-2.819ZM5.674,6.544a8.436,8.436,0,0,0,2.657.414,8.453,8.453,0,0,0,2.624-.4l1.522,7.1a7.489,7.489,0,0,1-4.163,1.106,7.491,7.491,0,0,1-4.163-1.106ZM8.947,24.416c-.389,1.26-.681,1.443-.821,1.443-.262,0-.948-.653-1.69-6.547a13.457,13.457,0,0,0,1.9.134,13.542,13.542,0,0,0,1.644-.1A38.323,38.323,0,0,1,8.947,24.416Zm-.616-5.193c-4.471,0-8.109-2.205-8.109-4.916,0-1.859,1.761-3.573,4.5-4.4l-.809,3.776a.111.111,0,0,0,.043.113,7.635,7.635,0,0,0,4.354,1.191,7.633,7.633,0,0,0,4.354-1.191.111.111,0,0,0,.043-.113L11.9,9.894c2.765.824,4.541,2.543,4.541,4.413,0,2.711-3.638,4.916-8.109,4.916Z" transform="translate(0 0)"/>
      <path id="Trazado_727189-9" data-name="Trazado 727189" d="M52,264.8a11.123,11.123,0,0,1-5.807,1.489,11.157,11.157,0,0,1-5.924-1.563.111.111,0,1,0-.121.187,11.226,11.226,0,0,0,6.046,1.6,11.346,11.346,0,0,0,5.925-1.523A.112.112,0,1,0,52,264.8Z" transform="translate(-37.861 -249.957)"/>
      <path id="Trazado_727190-9" data-name="Trazado 727190" d="M83.663,61.7a.112.112,0,0,0-.118-.189,8.026,8.026,0,0,1-7.819-.049.111.111,0,1,0-.121.187,7.555,7.555,0,0,0,4.07,1.077A7.638,7.638,0,0,0,83.663,61.7Z" transform="translate(-71.343 -58.02)"/>
    </g>
    <g id="_27-_Push_Pin-10" data-name="27- Push Pin" transform="translate(809.901 3822.4)">
      <path id="Trazado_727183-10" data-name="Trazado 727183" d="M99.793,199.224s2.082,33.453,5.54,0Z" transform="translate(-94.231 -188.121)" fill="#51518e"/>
      <path id="Trazado_727184-10" data-name="Trazado 727184" d="M18.44,171.528c0,2.777-3.68,5.028-8.22,5.028S2,174.3,2,171.528a3.263,3.263,0,0,1,.347-1.45c1.017-2.07,4.157-3.578,7.873-3.578s6.856,1.508,7.873,3.578a3.27,3.27,0,0,1,.347,1.45Z" transform="translate(-1.889 -157.221)" fill="#ff8293"/>
      <path id="Trazado_727185-10" data-name="Trazado 727185" d="M23.976,170.078c-1.018,2.07-4.158,3.578-7.873,3.578s-6.856-1.508-7.873-3.578c1.017-2.07,4.157-3.578,7.873-3.578S22.958,168.008,23.976,170.078Z" transform="translate(-7.771 -157.221)" fill="#ff9fb3"/>
      <path id="Trazado_727186-10" data-name="Trazado 727186" d="M80.815,100.912a8.445,8.445,0,0,1-8.575,0l.813-3.793,1.021-4.764h4.907L80,97.119Z" transform="translate(-68.214 -87.208)" fill="#ff8293"/>
      <path id="Trazado_727187-10" data-name="Trazado 727187" d="M61.7,5.368c0,1.86-2.465,3.368-5.506,3.368S50.69,7.228,50.69,5.368a2.22,2.22,0,0,1,.318-1.129C51.766,2.935,53.8,2,56.2,2s4.431.935,5.189,2.239A2.22,2.22,0,0,1,61.7,5.368Z" transform="translate(-47.865 -1.889)" fill="#ff9fb3"/>
      <ellipse id="Elipse_4864-10" data-name="Elipse 4864" cx="5.189" cy="2.239" rx="5.189" ry="2.239" transform="translate(3.143 0.111)" fill="#ff8293"/>
      <path id="Trazado_727188-10" data-name="Trazado 727188" d="M11.846,9.646l-.678-3.164c1.663-.6,2.782-1.724,2.782-3C13.949,1.561,11.429,0,8.331,0S2.714,1.561,2.714,3.479c0,1.27,1.1,2.383,2.749,2.99L4.78,9.657a8.409,8.409,0,0,0-3.418,1.829A3.883,3.883,0,0,0,0,14.307a4.436,4.436,0,0,0,2.461,3.65,10.373,10.373,0,0,0,3.746,1.321c.761,6.084,1.458,6.8,1.916,6.8h.006c.454,0,1.161-.718,2.077-6.767a10.5,10.5,0,0,0,4-1.358,4.436,4.436,0,0,0,2.461-3.65c0-2-1.889-3.822-4.817-4.661ZM2.937,3.479c0-1.8,2.42-3.257,5.395-3.257s5.395,1.461,5.395,3.257c0,1.206-1.092,2.262-2.712,2.824l-.022.007a8.241,8.241,0,0,1-2.661.425,8.225,8.225,0,0,1-2.7-.436h0c-1.611-.564-2.7-1.616-2.7-2.819ZM5.674,6.544a8.436,8.436,0,0,0,2.657.414,8.453,8.453,0,0,0,2.624-.4l1.522,7.1a7.489,7.489,0,0,1-4.163,1.106,7.491,7.491,0,0,1-4.163-1.106ZM8.947,24.416c-.389,1.26-.681,1.443-.821,1.443-.262,0-.948-.653-1.69-6.547a13.457,13.457,0,0,0,1.9.134,13.542,13.542,0,0,0,1.644-.1A38.323,38.323,0,0,1,8.947,24.416Zm-.616-5.193c-4.471,0-8.109-2.205-8.109-4.916,0-1.859,1.761-3.573,4.5-4.4l-.809,3.776a.111.111,0,0,0,.043.113,7.635,7.635,0,0,0,4.354,1.191,7.633,7.633,0,0,0,4.354-1.191.111.111,0,0,0,.043-.113L11.9,9.894c2.765.824,4.541,2.543,4.541,4.413,0,2.711-3.638,4.916-8.109,4.916Z" transform="translate(0 0)"/>
      <path id="Trazado_727189-10" data-name="Trazado 727189" d="M52,264.8a11.123,11.123,0,0,1-5.807,1.489,11.157,11.157,0,0,1-5.924-1.563.111.111,0,1,0-.121.187,11.226,11.226,0,0,0,6.046,1.6,11.346,11.346,0,0,0,5.925-1.523A.112.112,0,1,0,52,264.8Z" transform="translate(-37.861 -249.957)"/>
      <path id="Trazado_727190-10" data-name="Trazado 727190" d="M83.663,61.7a.112.112,0,0,0-.118-.189,8.026,8.026,0,0,1-7.819-.049.111.111,0,1,0-.121.187,7.555,7.555,0,0,0,4.07,1.077A7.638,7.638,0,0,0,83.663,61.7Z" transform="translate(-71.343 -58.02)"/>
    </g>
    <g id="_27-_Push_Pin-11" data-name="27- Push Pin" transform="translate(917.192 3811.883)">
      <path id="Trazado_727183-11" data-name="Trazado 727183" d="M99.793,199.224s2.082,33.453,5.54,0Z" transform="translate(-94.231 -188.121)" fill="#51518e"/>
      <path id="Trazado_727184-11" data-name="Trazado 727184" d="M18.44,171.528c0,2.777-3.68,5.028-8.22,5.028S2,174.3,2,171.528a3.263,3.263,0,0,1,.347-1.45c1.017-2.07,4.157-3.578,7.873-3.578s6.856,1.508,7.873,3.578a3.27,3.27,0,0,1,.347,1.45Z" transform="translate(-1.889 -157.221)" fill="#ff8293"/>
      <path id="Trazado_727185-11" data-name="Trazado 727185" d="M23.976,170.078c-1.018,2.07-4.158,3.578-7.873,3.578s-6.856-1.508-7.873-3.578c1.017-2.07,4.157-3.578,7.873-3.578S22.958,168.008,23.976,170.078Z" transform="translate(-7.771 -157.221)" fill="#ff9fb3"/>
      <path id="Trazado_727186-11" data-name="Trazado 727186" d="M80.815,100.912a8.445,8.445,0,0,1-8.575,0l.813-3.793,1.021-4.764h4.907L80,97.119Z" transform="translate(-68.214 -87.208)" fill="#ff8293"/>
      <path id="Trazado_727187-11" data-name="Trazado 727187" d="M61.7,5.368c0,1.86-2.465,3.368-5.506,3.368S50.69,7.228,50.69,5.368a2.22,2.22,0,0,1,.318-1.129C51.766,2.935,53.8,2,56.2,2s4.431.935,5.189,2.239A2.22,2.22,0,0,1,61.7,5.368Z" transform="translate(-47.865 -1.889)" fill="#ff9fb3"/>
      <ellipse id="Elipse_4864-11" data-name="Elipse 4864" cx="5.189" cy="2.239" rx="5.189" ry="2.239" transform="translate(3.143 0.111)" fill="#ff8293"/>
      <path id="Trazado_727188-11" data-name="Trazado 727188" d="M11.846,9.646l-.678-3.164c1.663-.6,2.782-1.724,2.782-3C13.949,1.561,11.429,0,8.331,0S2.714,1.561,2.714,3.479c0,1.27,1.1,2.383,2.749,2.99L4.78,9.657a8.409,8.409,0,0,0-3.418,1.829A3.883,3.883,0,0,0,0,14.307a4.436,4.436,0,0,0,2.461,3.65,10.373,10.373,0,0,0,3.746,1.321c.761,6.084,1.458,6.8,1.916,6.8h.006c.454,0,1.161-.718,2.077-6.767a10.5,10.5,0,0,0,4-1.358,4.436,4.436,0,0,0,2.461-3.65c0-2-1.889-3.822-4.817-4.661ZM2.937,3.479c0-1.8,2.42-3.257,5.395-3.257s5.395,1.461,5.395,3.257c0,1.206-1.092,2.262-2.712,2.824l-.022.007a8.241,8.241,0,0,1-2.661.425,8.225,8.225,0,0,1-2.7-.436h0c-1.611-.564-2.7-1.616-2.7-2.819ZM5.674,6.544a8.436,8.436,0,0,0,2.657.414,8.453,8.453,0,0,0,2.624-.4l1.522,7.1a7.489,7.489,0,0,1-4.163,1.106,7.491,7.491,0,0,1-4.163-1.106ZM8.947,24.416c-.389,1.26-.681,1.443-.821,1.443-.262,0-.948-.653-1.69-6.547a13.457,13.457,0,0,0,1.9.134,13.542,13.542,0,0,0,1.644-.1A38.323,38.323,0,0,1,8.947,24.416Zm-.616-5.193c-4.471,0-8.109-2.205-8.109-4.916,0-1.859,1.761-3.573,4.5-4.4l-.809,3.776a.111.111,0,0,0,.043.113,7.635,7.635,0,0,0,4.354,1.191,7.633,7.633,0,0,0,4.354-1.191.111.111,0,0,0,.043-.113L11.9,9.894c2.765.824,4.541,2.543,4.541,4.413,0,2.711-3.638,4.916-8.109,4.916Z" transform="translate(0 0)"/>
      <path id="Trazado_727189-11" data-name="Trazado 727189" d="M52,264.8a11.123,11.123,0,0,1-5.807,1.489,11.157,11.157,0,0,1-5.924-1.563.111.111,0,1,0-.121.187,11.226,11.226,0,0,0,6.046,1.6,11.346,11.346,0,0,0,5.925-1.523A.112.112,0,1,0,52,264.8Z" transform="translate(-37.861 -249.957)"/>
      <path id="Trazado_727190-11" data-name="Trazado 727190" d="M83.663,61.7a.112.112,0,0,0-.118-.189,8.026,8.026,0,0,1-7.819-.049.111.111,0,1,0-.121.187,7.555,7.555,0,0,0,4.07,1.077A7.638,7.638,0,0,0,83.663,61.7Z" transform="translate(-71.343 -58.02)"/>
    </g>
    <g id="_27-_Push_Pin-12" data-name="27- Push Pin" transform="translate(880.097 3607.358)">
      <path id="Trazado_727183-12" data-name="Trazado 727183" d="M99.793,199.224s2.082,33.453,5.54,0Z" transform="translate(-94.231 -188.121)" fill="#51518e"/>
      <path id="Trazado_727184-12" data-name="Trazado 727184" d="M18.44,171.528c0,2.777-3.68,5.028-8.22,5.028S2,174.3,2,171.528a3.263,3.263,0,0,1,.347-1.45c1.017-2.07,4.157-3.578,7.873-3.578s6.856,1.508,7.873,3.578a3.27,3.27,0,0,1,.347,1.45Z" transform="translate(-1.889 -157.221)" fill="#ff8293"/>
      <path id="Trazado_727185-12" data-name="Trazado 727185" d="M23.976,170.078c-1.018,2.07-4.158,3.578-7.873,3.578s-6.856-1.508-7.873-3.578c1.017-2.07,4.157-3.578,7.873-3.578S22.958,168.008,23.976,170.078Z" transform="translate(-7.771 -157.221)" fill="#ff9fb3"/>
      <path id="Trazado_727186-12" data-name="Trazado 727186" d="M80.815,100.912a8.445,8.445,0,0,1-8.575,0l.813-3.793,1.021-4.764h4.907L80,97.119Z" transform="translate(-68.214 -87.208)" fill="#ff8293"/>
      <path id="Trazado_727187-12" data-name="Trazado 727187" d="M61.7,5.368c0,1.86-2.465,3.368-5.506,3.368S50.69,7.228,50.69,5.368a2.22,2.22,0,0,1,.318-1.129C51.766,2.935,53.8,2,56.2,2s4.431.935,5.189,2.239A2.22,2.22,0,0,1,61.7,5.368Z" transform="translate(-47.865 -1.889)" fill="#ff9fb3"/>
      <ellipse id="Elipse_4864-12" data-name="Elipse 4864" cx="5.189" cy="2.239" rx="5.189" ry="2.239" transform="translate(3.143 0.111)" fill="#ff8293"/>
      <path id="Trazado_727188-12" data-name="Trazado 727188" d="M11.846,9.646l-.678-3.164c1.663-.6,2.782-1.724,2.782-3C13.949,1.561,11.429,0,8.331,0S2.714,1.561,2.714,3.479c0,1.27,1.1,2.383,2.749,2.99L4.78,9.657a8.409,8.409,0,0,0-3.418,1.829A3.883,3.883,0,0,0,0,14.307a4.436,4.436,0,0,0,2.461,3.65,10.373,10.373,0,0,0,3.746,1.321c.761,6.084,1.458,6.8,1.916,6.8h.006c.454,0,1.161-.718,2.077-6.767a10.5,10.5,0,0,0,4-1.358,4.436,4.436,0,0,0,2.461-3.65c0-2-1.889-3.822-4.817-4.661ZM2.937,3.479c0-1.8,2.42-3.257,5.395-3.257s5.395,1.461,5.395,3.257c0,1.206-1.092,2.262-2.712,2.824l-.022.007a8.241,8.241,0,0,1-2.661.425,8.225,8.225,0,0,1-2.7-.436h0c-1.611-.564-2.7-1.616-2.7-2.819ZM5.674,6.544a8.436,8.436,0,0,0,2.657.414,8.453,8.453,0,0,0,2.624-.4l1.522,7.1a7.489,7.489,0,0,1-4.163,1.106,7.491,7.491,0,0,1-4.163-1.106ZM8.947,24.416c-.389,1.26-.681,1.443-.821,1.443-.262,0-.948-.653-1.69-6.547a13.457,13.457,0,0,0,1.9.134,13.542,13.542,0,0,0,1.644-.1A38.323,38.323,0,0,1,8.947,24.416Zm-.616-5.193c-4.471,0-8.109-2.205-8.109-4.916,0-1.859,1.761-3.573,4.5-4.4l-.809,3.776a.111.111,0,0,0,.043.113,7.635,7.635,0,0,0,4.354,1.191,7.633,7.633,0,0,0,4.354-1.191.111.111,0,0,0,.043-.113L11.9,9.894c2.765.824,4.541,2.543,4.541,4.413,0,2.711-3.638,4.916-8.109,4.916Z" transform="translate(0 0)"/>
      <path id="Trazado_727189-12" data-name="Trazado 727189" d="M52,264.8a11.123,11.123,0,0,1-5.807,1.489,11.157,11.157,0,0,1-5.924-1.563.111.111,0,1,0-.121.187,11.226,11.226,0,0,0,6.046,1.6,11.346,11.346,0,0,0,5.925-1.523A.112.112,0,1,0,52,264.8Z" transform="translate(-37.861 -249.957)"/>
      <path id="Trazado_727190-12" data-name="Trazado 727190" d="M83.663,61.7a.112.112,0,0,0-.118-.189,8.026,8.026,0,0,1-7.819-.049.111.111,0,1,0-.121.187,7.555,7.555,0,0,0,4.07,1.077A7.638,7.638,0,0,0,83.663,61.7Z" transform="translate(-71.343 -58.02)"/>
    </g>
    <g id="_27-_Push_Pin-13" data-name="27- Push Pin" transform="translate(820.76 3601.27)">
      <path id="Trazado_727183-13" data-name="Trazado 727183" d="M99.793,199.224s2.082,33.453,5.54,0Z" transform="translate(-94.231 -188.121)" fill="#51518e"/>
      <path id="Trazado_727184-13" data-name="Trazado 727184" d="M18.44,171.528c0,2.777-3.68,5.028-8.22,5.028S2,174.3,2,171.528a3.263,3.263,0,0,1,.347-1.45c1.017-2.07,4.157-3.578,7.873-3.578s6.856,1.508,7.873,3.578a3.27,3.27,0,0,1,.347,1.45Z" transform="translate(-1.889 -157.221)" fill="#ff8293"/>
      <path id="Trazado_727185-13" data-name="Trazado 727185" d="M23.976,170.078c-1.018,2.07-4.158,3.578-7.873,3.578s-6.856-1.508-7.873-3.578c1.017-2.07,4.157-3.578,7.873-3.578S22.958,168.008,23.976,170.078Z" transform="translate(-7.771 -157.221)" fill="#ff9fb3"/>
      <path id="Trazado_727186-13" data-name="Trazado 727186" d="M80.815,100.912a8.445,8.445,0,0,1-8.575,0l.813-3.793,1.021-4.764h4.907L80,97.119Z" transform="translate(-68.214 -87.208)" fill="#ff8293"/>
      <path id="Trazado_727187-13" data-name="Trazado 727187" d="M61.7,5.368c0,1.86-2.465,3.368-5.506,3.368S50.69,7.228,50.69,5.368a2.22,2.22,0,0,1,.318-1.129C51.766,2.935,53.8,2,56.2,2s4.431.935,5.189,2.239A2.22,2.22,0,0,1,61.7,5.368Z" transform="translate(-47.865 -1.889)" fill="#ff9fb3"/>
      <ellipse id="Elipse_4864-13" data-name="Elipse 4864" cx="5.189" cy="2.239" rx="5.189" ry="2.239" transform="translate(3.143 0.111)" fill="#ff8293"/>
      <path id="Trazado_727188-13" data-name="Trazado 727188" d="M11.846,9.646l-.678-3.164c1.663-.6,2.782-1.724,2.782-3C13.949,1.561,11.429,0,8.331,0S2.714,1.561,2.714,3.479c0,1.27,1.1,2.383,2.749,2.99L4.78,9.657a8.409,8.409,0,0,0-3.418,1.829A3.883,3.883,0,0,0,0,14.307a4.436,4.436,0,0,0,2.461,3.65,10.373,10.373,0,0,0,3.746,1.321c.761,6.084,1.458,6.8,1.916,6.8h.006c.454,0,1.161-.718,2.077-6.767a10.5,10.5,0,0,0,4-1.358,4.436,4.436,0,0,0,2.461-3.65c0-2-1.889-3.822-4.817-4.661ZM2.937,3.479c0-1.8,2.42-3.257,5.395-3.257s5.395,1.461,5.395,3.257c0,1.206-1.092,2.262-2.712,2.824l-.022.007a8.241,8.241,0,0,1-2.661.425,8.225,8.225,0,0,1-2.7-.436h0c-1.611-.564-2.7-1.616-2.7-2.819ZM5.674,6.544a8.436,8.436,0,0,0,2.657.414,8.453,8.453,0,0,0,2.624-.4l1.522,7.1a7.489,7.489,0,0,1-4.163,1.106,7.491,7.491,0,0,1-4.163-1.106ZM8.947,24.416c-.389,1.26-.681,1.443-.821,1.443-.262,0-.948-.653-1.69-6.547a13.457,13.457,0,0,0,1.9.134,13.542,13.542,0,0,0,1.644-.1A38.323,38.323,0,0,1,8.947,24.416Zm-.616-5.193c-4.471,0-8.109-2.205-8.109-4.916,0-1.859,1.761-3.573,4.5-4.4l-.809,3.776a.111.111,0,0,0,.043.113,7.635,7.635,0,0,0,4.354,1.191,7.633,7.633,0,0,0,4.354-1.191.111.111,0,0,0,.043-.113L11.9,9.894c2.765.824,4.541,2.543,4.541,4.413,0,2.711-3.638,4.916-8.109,4.916Z" transform="translate(0 0)"/>
      <path id="Trazado_727189-13" data-name="Trazado 727189" d="M52,264.8a11.123,11.123,0,0,1-5.807,1.489,11.157,11.157,0,0,1-5.924-1.563.111.111,0,1,0-.121.187,11.226,11.226,0,0,0,6.046,1.6,11.346,11.346,0,0,0,5.925-1.523A.112.112,0,1,0,52,264.8Z" transform="translate(-37.861 -249.957)"/>
      <path id="Trazado_727190-13" data-name="Trazado 727190" d="M83.663,61.7a.112.112,0,0,0-.118-.189,8.026,8.026,0,0,1-7.819-.049.111.111,0,1,0-.121.187,7.555,7.555,0,0,0,4.07,1.077A7.638,7.638,0,0,0,83.663,61.7Z" transform="translate(-71.343 -58.02)"/>
    </g>
    <g id="_27-_Push_Pin-14" data-name="27- Push Pin" transform="translate(824.04 3915.408)">
      <path id="Trazado_727183-14" data-name="Trazado 727183" d="M99.793,199.224s2.082,33.453,5.54,0Z" transform="translate(-94.231 -188.121)" fill="#51518e"/>
      <path id="Trazado_727184-14" data-name="Trazado 727184" d="M18.44,171.528c0,2.777-3.68,5.028-8.22,5.028S2,174.3,2,171.528a3.263,3.263,0,0,1,.347-1.45c1.017-2.07,4.157-3.578,7.873-3.578s6.856,1.508,7.873,3.578a3.27,3.27,0,0,1,.347,1.45Z" transform="translate(-1.889 -157.221)" fill="#ff8293"/>
      <path id="Trazado_727185-14" data-name="Trazado 727185" d="M23.976,170.078c-1.018,2.07-4.158,3.578-7.873,3.578s-6.856-1.508-7.873-3.578c1.017-2.07,4.157-3.578,7.873-3.578S22.958,168.008,23.976,170.078Z" transform="translate(-7.771 -157.221)" fill="#ff9fb3"/>
      <path id="Trazado_727186-14" data-name="Trazado 727186" d="M80.815,100.912a8.445,8.445,0,0,1-8.575,0l.813-3.793,1.021-4.764h4.907L80,97.119Z" transform="translate(-68.214 -87.208)" fill="#ff8293"/>
      <path id="Trazado_727187-14" data-name="Trazado 727187" d="M61.7,5.368c0,1.86-2.465,3.368-5.506,3.368S50.69,7.228,50.69,5.368a2.22,2.22,0,0,1,.318-1.129C51.766,2.935,53.8,2,56.2,2s4.431.935,5.189,2.239A2.22,2.22,0,0,1,61.7,5.368Z" transform="translate(-47.865 -1.889)" fill="#ff9fb3"/>
      <ellipse id="Elipse_4864-14" data-name="Elipse 4864" cx="5.189" cy="2.239" rx="5.189" ry="2.239" transform="translate(3.143 0.111)" fill="#ff8293"/>
      <path id="Trazado_727188-14" data-name="Trazado 727188" d="M11.846,9.646l-.678-3.164c1.663-.6,2.782-1.724,2.782-3C13.949,1.561,11.429,0,8.331,0S2.714,1.561,2.714,3.479c0,1.27,1.1,2.383,2.749,2.99L4.78,9.657a8.409,8.409,0,0,0-3.418,1.829A3.883,3.883,0,0,0,0,14.307a4.436,4.436,0,0,0,2.461,3.65,10.373,10.373,0,0,0,3.746,1.321c.761,6.084,1.458,6.8,1.916,6.8h.006c.454,0,1.161-.718,2.077-6.767a10.5,10.5,0,0,0,4-1.358,4.436,4.436,0,0,0,2.461-3.65c0-2-1.889-3.822-4.817-4.661ZM2.937,3.479c0-1.8,2.42-3.257,5.395-3.257s5.395,1.461,5.395,3.257c0,1.206-1.092,2.262-2.712,2.824l-.022.007a8.241,8.241,0,0,1-2.661.425,8.225,8.225,0,0,1-2.7-.436h0c-1.611-.564-2.7-1.616-2.7-2.819ZM5.674,6.544a8.436,8.436,0,0,0,2.657.414,8.453,8.453,0,0,0,2.624-.4l1.522,7.1a7.489,7.489,0,0,1-4.163,1.106,7.491,7.491,0,0,1-4.163-1.106ZM8.947,24.416c-.389,1.26-.681,1.443-.821,1.443-.262,0-.948-.653-1.69-6.547a13.457,13.457,0,0,0,1.9.134,13.542,13.542,0,0,0,1.644-.1A38.323,38.323,0,0,1,8.947,24.416Zm-.616-5.193c-4.471,0-8.109-2.205-8.109-4.916,0-1.859,1.761-3.573,4.5-4.4l-.809,3.776a.111.111,0,0,0,.043.113,7.635,7.635,0,0,0,4.354,1.191,7.633,7.633,0,0,0,4.354-1.191.111.111,0,0,0,.043-.113L11.9,9.894c2.765.824,4.541,2.543,4.541,4.413,0,2.711-3.638,4.916-8.109,4.916Z" transform="translate(0 0)"/>
      <path id="Trazado_727189-14" data-name="Trazado 727189" d="M52,264.8a11.123,11.123,0,0,1-5.807,1.489,11.157,11.157,0,0,1-5.924-1.563.111.111,0,1,0-.121.187,11.226,11.226,0,0,0,6.046,1.6,11.346,11.346,0,0,0,5.925-1.523A.112.112,0,1,0,52,264.8Z" transform="translate(-37.861 -249.957)"/>
      <path id="Trazado_727190-14" data-name="Trazado 727190" d="M83.663,61.7a.112.112,0,0,0-.118-.189,8.026,8.026,0,0,1-7.819-.049.111.111,0,1,0-.121.187,7.555,7.555,0,0,0,4.07,1.077A7.638,7.638,0,0,0,83.663,61.7Z" transform="translate(-71.343 -58.02)"/>
    </g>
    <g id="_27-_Push_Pin-15" data-name="27- Push Pin" transform="translate(705.467 3591.792)">
      <path id="Trazado_727183-15" data-name="Trazado 727183" d="M99.793,199.224s2.082,33.453,5.54,0Z" transform="translate(-94.231 -188.121)" fill="#51518e"/>
      <path id="Trazado_727184-15" data-name="Trazado 727184" d="M18.44,171.528c0,2.777-3.68,5.028-8.22,5.028S2,174.3,2,171.528a3.263,3.263,0,0,1,.347-1.45c1.017-2.07,4.157-3.578,7.873-3.578s6.856,1.508,7.873,3.578a3.27,3.27,0,0,1,.347,1.45Z" transform="translate(-1.889 -157.221)" fill="#ff8293"/>
      <path id="Trazado_727185-15" data-name="Trazado 727185" d="M23.976,170.078c-1.018,2.07-4.158,3.578-7.873,3.578s-6.856-1.508-7.873-3.578c1.017-2.07,4.157-3.578,7.873-3.578S22.958,168.008,23.976,170.078Z" transform="translate(-7.771 -157.221)" fill="#ff9fb3"/>
      <path id="Trazado_727186-15" data-name="Trazado 727186" d="M80.815,100.912a8.445,8.445,0,0,1-8.575,0l.813-3.793,1.021-4.764h4.907L80,97.119Z" transform="translate(-68.214 -87.208)" fill="#ff8293"/>
      <path id="Trazado_727187-15" data-name="Trazado 727187" d="M61.7,5.368c0,1.86-2.465,3.368-5.506,3.368S50.69,7.228,50.69,5.368a2.22,2.22,0,0,1,.318-1.129C51.766,2.935,53.8,2,56.2,2s4.431.935,5.189,2.239A2.22,2.22,0,0,1,61.7,5.368Z" transform="translate(-47.865 -1.889)" fill="#ff9fb3"/>
      <ellipse id="Elipse_4864-15" data-name="Elipse 4864" cx="5.189" cy="2.239" rx="5.189" ry="2.239" transform="translate(3.143 0.111)" fill="#ff8293"/>
      <path id="Trazado_727188-15" data-name="Trazado 727188" d="M11.846,9.646l-.678-3.164c1.663-.6,2.782-1.724,2.782-3C13.949,1.561,11.429,0,8.331,0S2.714,1.561,2.714,3.479c0,1.27,1.1,2.383,2.749,2.99L4.78,9.657a8.409,8.409,0,0,0-3.418,1.829A3.883,3.883,0,0,0,0,14.307a4.436,4.436,0,0,0,2.461,3.65,10.373,10.373,0,0,0,3.746,1.321c.761,6.084,1.458,6.8,1.916,6.8h.006c.454,0,1.161-.718,2.077-6.767a10.5,10.5,0,0,0,4-1.358,4.436,4.436,0,0,0,2.461-3.65c0-2-1.889-3.822-4.817-4.661ZM2.937,3.479c0-1.8,2.42-3.257,5.395-3.257s5.395,1.461,5.395,3.257c0,1.206-1.092,2.262-2.712,2.824l-.022.007a8.241,8.241,0,0,1-2.661.425,8.225,8.225,0,0,1-2.7-.436h0c-1.611-.564-2.7-1.616-2.7-2.819ZM5.674,6.544a8.436,8.436,0,0,0,2.657.414,8.453,8.453,0,0,0,2.624-.4l1.522,7.1a7.489,7.489,0,0,1-4.163,1.106,7.491,7.491,0,0,1-4.163-1.106ZM8.947,24.416c-.389,1.26-.681,1.443-.821,1.443-.262,0-.948-.653-1.69-6.547a13.457,13.457,0,0,0,1.9.134,13.542,13.542,0,0,0,1.644-.1A38.323,38.323,0,0,1,8.947,24.416Zm-.616-5.193c-4.471,0-8.109-2.205-8.109-4.916,0-1.859,1.761-3.573,4.5-4.4l-.809,3.776a.111.111,0,0,0,.043.113,7.635,7.635,0,0,0,4.354,1.191,7.633,7.633,0,0,0,4.354-1.191.111.111,0,0,0,.043-.113L11.9,9.894c2.765.824,4.541,2.543,4.541,4.413,0,2.711-3.638,4.916-8.109,4.916Z" transform="translate(0 0)"/>
      <path id="Trazado_727189-15" data-name="Trazado 727189" d="M52,264.8a11.123,11.123,0,0,1-5.807,1.489,11.157,11.157,0,0,1-5.924-1.563.111.111,0,1,0-.121.187,11.226,11.226,0,0,0,6.046,1.6,11.346,11.346,0,0,0,5.925-1.523A.112.112,0,1,0,52,264.8Z" transform="translate(-37.861 -249.957)"/>
      <path id="Trazado_727190-15" data-name="Trazado 727190" d="M83.663,61.7a.112.112,0,0,0-.118-.189,8.026,8.026,0,0,1-7.819-.049.111.111,0,1,0-.121.187,7.555,7.555,0,0,0,4.07,1.077A7.638,7.638,0,0,0,83.663,61.7Z" transform="translate(-71.343 -58.02)"/>
    </g>
    <g id="_27-_Push_Pin-16" data-name="27- Push Pin" transform="translate(654.968 3591.792)">
      <path id="Trazado_727183-16" data-name="Trazado 727183" d="M99.793,199.224s2.082,33.453,5.54,0Z" transform="translate(-94.231 -188.121)" fill="#51518e"/>
      <path id="Trazado_727184-16" data-name="Trazado 727184" d="M18.44,171.528c0,2.777-3.68,5.028-8.22,5.028S2,174.3,2,171.528a3.263,3.263,0,0,1,.347-1.45c1.017-2.07,4.157-3.578,7.873-3.578s6.856,1.508,7.873,3.578a3.27,3.27,0,0,1,.347,1.45Z" transform="translate(-1.889 -157.221)" fill="#ff8293"/>
      <path id="Trazado_727185-16" data-name="Trazado 727185" d="M23.976,170.078c-1.018,2.07-4.158,3.578-7.873,3.578s-6.856-1.508-7.873-3.578c1.017-2.07,4.157-3.578,7.873-3.578S22.958,168.008,23.976,170.078Z" transform="translate(-7.771 -157.221)" fill="#ff9fb3"/>
      <path id="Trazado_727186-16" data-name="Trazado 727186" d="M80.815,100.912a8.445,8.445,0,0,1-8.575,0l.813-3.793,1.021-4.764h4.907L80,97.119Z" transform="translate(-68.214 -87.208)" fill="#ff8293"/>
      <path id="Trazado_727187-16" data-name="Trazado 727187" d="M61.7,5.368c0,1.86-2.465,3.368-5.506,3.368S50.69,7.228,50.69,5.368a2.22,2.22,0,0,1,.318-1.129C51.766,2.935,53.8,2,56.2,2s4.431.935,5.189,2.239A2.22,2.22,0,0,1,61.7,5.368Z" transform="translate(-47.865 -1.889)" fill="#ff9fb3"/>
      <ellipse id="Elipse_4864-16" data-name="Elipse 4864" cx="5.189" cy="2.239" rx="5.189" ry="2.239" transform="translate(3.143 0.111)" fill="#ff8293"/>
      <path id="Trazado_727188-16" data-name="Trazado 727188" d="M11.846,9.646l-.678-3.164c1.663-.6,2.782-1.724,2.782-3C13.949,1.561,11.429,0,8.331,0S2.714,1.561,2.714,3.479c0,1.27,1.1,2.383,2.749,2.99L4.78,9.657a8.409,8.409,0,0,0-3.418,1.829A3.883,3.883,0,0,0,0,14.307a4.436,4.436,0,0,0,2.461,3.65,10.373,10.373,0,0,0,3.746,1.321c.761,6.084,1.458,6.8,1.916,6.8h.006c.454,0,1.161-.718,2.077-6.767a10.5,10.5,0,0,0,4-1.358,4.436,4.436,0,0,0,2.461-3.65c0-2-1.889-3.822-4.817-4.661ZM2.937,3.479c0-1.8,2.42-3.257,5.395-3.257s5.395,1.461,5.395,3.257c0,1.206-1.092,2.262-2.712,2.824l-.022.007a8.241,8.241,0,0,1-2.661.425,8.225,8.225,0,0,1-2.7-.436h0c-1.611-.564-2.7-1.616-2.7-2.819ZM5.674,6.544a8.436,8.436,0,0,0,2.657.414,8.453,8.453,0,0,0,2.624-.4l1.522,7.1a7.489,7.489,0,0,1-4.163,1.106,7.491,7.491,0,0,1-4.163-1.106ZM8.947,24.416c-.389,1.26-.681,1.443-.821,1.443-.262,0-.948-.653-1.69-6.547a13.457,13.457,0,0,0,1.9.134,13.542,13.542,0,0,0,1.644-.1A38.323,38.323,0,0,1,8.947,24.416Zm-.616-5.193c-4.471,0-8.109-2.205-8.109-4.916,0-1.859,1.761-3.573,4.5-4.4l-.809,3.776a.111.111,0,0,0,.043.113,7.635,7.635,0,0,0,4.354,1.191,7.633,7.633,0,0,0,4.354-1.191.111.111,0,0,0,.043-.113L11.9,9.894c2.765.824,4.541,2.543,4.541,4.413,0,2.711-3.638,4.916-8.109,4.916Z" transform="translate(0 0)"/>
      <path id="Trazado_727189-16" data-name="Trazado 727189" d="M52,264.8a11.123,11.123,0,0,1-5.807,1.489,11.157,11.157,0,0,1-5.924-1.563.111.111,0,1,0-.121.187,11.226,11.226,0,0,0,6.046,1.6,11.346,11.346,0,0,0,5.925-1.523A.112.112,0,1,0,52,264.8Z" transform="translate(-37.861 -249.957)"/>
      <path id="Trazado_727190-16" data-name="Trazado 727190" d="M83.663,61.7a.112.112,0,0,0-.118-.189,8.026,8.026,0,0,1-7.819-.049.111.111,0,1,0-.121.187,7.555,7.555,0,0,0,4.07,1.077A7.638,7.638,0,0,0,83.663,61.7Z" transform="translate(-71.343 -58.02)"/>
    </g>
    <path id="Trazado_727195" data-name="Trazado 727195" d="M9719.6-7227.155l133.239-6.143Z" transform="translate(-9100.143 10999.772)" fill="none" stroke="#2ba74c" stroke-width="1.5"/>
  </g>
</svg>
