<svg xmlns="http://www.w3.org/2000/svg" width="128" height="128" viewBox="0 0 128 128">
  <g id="Grupo_957721" data-name="Grupo 957721" transform="translate(-409 -1106)">
    <circle id="Elipse_4549" data-name="Elipse 4549" cx="64" cy="64" r="64" transform="translate(409 1106)" fill="#fac7d1"/>
    <g id="disenador-de-moda" transform="translate(430.857 1122.808)">
      <g id="Grupo_957619" data-name="Grupo 957619" transform="translate(50.666 15.16)">
        <path id="Trazado_725489" data-name="Trazado 725489" d="M202.126,37.114a1.9,1.9,0,0,1-1.087-.342v64.052c0,1.785.486,2.272,1.087,2.272s1.087-.486,1.087-2.272V36.772a1.892,1.892,0,0,1-1.087.342Z" transform="translate(-186.454 -33.306)" fill="#58595b"/>
        <g id="Grupo_957604" data-name="Grupo 957604" transform="translate(6.476 6.266)">
          <g id="Grupo_957603" data-name="Grupo 957603">
            <g id="Grupo_957602" data-name="Grupo 957602">
              <path id="Trazado_725490" data-name="Trazado 725490" d="M176.2,55.024c.732-.909,2.049-2.263,3.522-2.437,2.105-.251,4.527,1.579,4.953,1.916.426-.337,2.847-2.167,4.953-1.916,1.473.175,2.79,1.528,3.522,2.437.2-.448.391-.877.58-1.284a1.481,1.481,0,0,0-.742-1.987l-4.19-1.827a1.307,1.307,0,0,1-.785-1.2V46.335a.737.737,0,0,0-.737-.737h-5.2a.738.738,0,0,0-.737.737v2.391a1.307,1.307,0,0,1-.785,1.2l-4.19,1.827a1.481,1.481,0,0,0-.742,1.987C175.814,54.147,176.01,54.576,176.2,55.024Z" transform="translate(-175.484 -45.598)" fill="#ffd2c0"/>
            </g>
          </g>
        </g>
        <g id="Grupo_957607" data-name="Grupo 957607" transform="translate(16.685 6.266)">
          <g id="Grupo_957606" data-name="Grupo 957606">
            <g id="Grupo_957605" data-name="Grupo 957605">
              <path id="Trazado_725491" data-name="Trazado 725491" d="M208.4,46.336v2.391a1.307,1.307,0,0,0,.785,1.2l4.19,1.827a1.481,1.481,0,0,1,.742,1.987l-.064.14a10.161,10.161,0,0,1,1.071,1.144c.2-.448.391-.877.58-1.284a1.481,1.481,0,0,0-.742-1.987l-4.19-1.827a1.307,1.307,0,0,1-.785-1.2V46.336a.737.737,0,0,0-.737-.737h-1.586a.737.737,0,0,1,.737.737Z" transform="translate(-207.658 -45.599)" fill="#fcc4ae"/>
            </g>
          </g>
        </g>
        <g id="Grupo_957609" data-name="Grupo 957609" transform="translate(0 13.231)">
          <g id="Grupo_957608" data-name="Grupo 957608">
            <path id="Trazado_725492" data-name="Trazado 725492" d="M182.624,97.154c-1.139-3.425-1.322-6.573-2.584-9.589a21.462,21.462,0,0,0-3.876-6.065,35.61,35.61,0,0,1,1.507-6.1,35.683,35.683,0,0,1,1.966-4.221.629.629,0,0,0-.041-.671c-.567-.789-2.121-2.722-3.9-2.933-2.105-.251-4.527,1.579-4.953,1.916-.426-.337-2.847-2.167-4.953-1.916-1.778.211-3.333,2.143-3.9,2.933a.629.629,0,0,0-.041.671,35.683,35.683,0,0,1,1.966,4.221,35.644,35.644,0,0,1,1.507,6.1,21.454,21.454,0,0,0-3.876,6.065c-1.262,3.016-1.445,6.164-2.584,9.589a53.467,53.467,0,0,1-3.713,8.564.63.63,0,0,0,.193.824c1.482,1.019,6.525,3.973,15.4,4.162,8.874-.188,13.917-3.143,15.4-4.162a.63.63,0,0,0,.193-.824A53.452,53.452,0,0,1,182.624,97.154Z" transform="translate(-155.072 -67.55)" fill="#e63950"/>
          </g>
        </g>
        <g id="Grupo_957611" data-name="Grupo 957611" transform="translate(0 14.627)">
          <g id="Grupo_957610" data-name="Grupo 957610" transform="translate(0 0)">
            <path id="Trazado_725493" data-name="Trazado 725493" d="M186.337,108.724a53.459,53.459,0,0,1-3.713-8.566c-1.139-3.425-1.322-6.573-2.584-9.589a21.462,21.462,0,0,0-3.876-6.065,35.6,35.6,0,0,1,1.507-6.1,35.7,35.7,0,0,1,1.966-4.221.629.629,0,0,0-.042-.672,10.881,10.881,0,0,0-1.362-1.559,36.016,36.016,0,0,0-2.148,4.549,35.642,35.642,0,0,0-1.507,6.1,21.454,21.454,0,0,1,3.876,6.065c1.262,3.016,1.445,6.164,2.584,9.589a53.458,53.458,0,0,0,3.713,8.565.628.628,0,0,1-.193.822c-1.481,1.018-6.524,3.974-15.4,4.163a30.682,30.682,0,0,1-13.908-3.262l-.1.179a.63.63,0,0,0,.194.825c1.483,1.019,6.526,3.973,15.4,4.162,8.876-.188,13.92-3.145,15.4-4.163A.628.628,0,0,0,186.337,108.724Z" transform="translate(-155.073 -71.95)" fill="#d10028"/>
          </g>
        </g>
        <g id="Grupo_957614" data-name="Grupo 957614" transform="translate(9.574 23.83)">
          <g id="Grupo_957613" data-name="Grupo 957613">
            <g id="Grupo_957612" data-name="Grupo 957612">
              <path id="Trazado_725494" data-name="Trazado 725494" d="M197.442,100.954H185.248c.445,1.805.678,3.352.678,3.352h10.839S197,102.759,197.442,100.954Z" transform="translate(-185.248 -100.954)" fill="#ffc91d"/>
            </g>
          </g>
        </g>
        <g id="Grupo_957616" data-name="Grupo 957616" transform="translate(13.768)">
          <g id="Grupo_957615" data-name="Grupo 957615">
            <circle id="Elipse_4544" data-name="Elipse 4544" cx="1.904" cy="1.904" r="1.904" fill="#d1d3d4"/>
          </g>
        </g>
        <g id="Grupo_957618" data-name="Grupo 957618" transform="translate(6.052 60.914)">
          <g id="Grupo_957617" data-name="Grupo 957617">
            <path id="Trazado_725495" data-name="Trazado 725495" d="M192.434,226.451a4.587,4.587,0,0,1-4.582-4.582,2.135,2.135,0,0,0-2.132-2.132h-3.907a2.135,2.135,0,0,0-2.132,2.132,4.587,4.587,0,0,1-4.582,4.582.952.952,0,1,1,0-1.9,2.681,2.681,0,0,0,2.678-2.678,4.04,4.04,0,0,1,4.036-4.036h3.907a4.04,4.04,0,0,1,4.036,4.036,2.681,2.681,0,0,0,2.678,2.678.952.952,0,1,1,0,1.9Z" transform="translate(-174.146 -217.833)" fill="#58595b"/>
          </g>
        </g>
      </g>
      <g id="Grupo_957714" data-name="Grupo 957714" transform="translate(2.143 10.192)">
        <g id="Grupo_957628" data-name="Grupo 957628" transform="translate(7.542)">
          <g id="Grupo_957621" data-name="Grupo 957621" transform="translate(2.752 0)">
            <g id="Grupo_957620" data-name="Grupo 957620">
              <path id="Trazado_725496" data-name="Trazado 725496" d="M67.881,33.578h-33.3V26.841a16.648,16.648,0,0,1,33.3,0v6.737Z" transform="translate(-34.585 -10.193)" fill="#995222"/>
            </g>
          </g>
          <g id="Grupo_957623" data-name="Grupo 957623" transform="translate(18.606)">
            <g id="Grupo_957622" data-name="Grupo 957622" transform="translate(0)">
              <path id="Trazado_725497" data-name="Trazado 725497" d="M85.348,10.192c-.266,0-.53.008-.793.02A16.647,16.647,0,0,1,100.41,26.84v6.737H102V26.84A16.648,16.648,0,0,0,85.348,10.192Z" transform="translate(-84.555 -10.192)" fill="#8c3f0a"/>
            </g>
          </g>
          <g id="Grupo_957625" data-name="Grupo 957625" transform="translate(0 25.945)">
            <g id="Grupo_957624" data-name="Grupo 957624">
              <path id="Trazado_725498" data-name="Trazado 725498" d="M34.235,110.318H56.39a15.788,15.788,0,0,1,8.322,2.358c-.124-6.839-2.092-13.932-4.844-20.714a14.591,14.591,0,0,1-29.111,0c-2.752,6.782-4.72,13.875-4.844,20.714a15.788,15.788,0,0,1,8.322-2.358Z" transform="translate(-25.913 -91.962)" fill="#7c3108"/>
            </g>
          </g>
          <g id="Grupo_957627" data-name="Grupo 957627" transform="translate(33.47 25.945)">
            <g id="Grupo_957626" data-name="Grupo 957626">
              <path id="Trazado_725499" data-name="Trazado 725499" d="M136.731,112.676c-.124-6.839-2.092-13.932-4.844-20.714a14.542,14.542,0,0,1-.485,2.854,56.774,56.774,0,0,1,3.716,16.99A15.843,15.843,0,0,1,136.731,112.676Z" transform="translate(-131.402 -91.962)" fill="#6d2e03"/>
            </g>
          </g>
        </g>
        <g id="Grupo_957713" data-name="Grupo 957713" transform="translate(0 7.805)">
          <g id="Grupo_957712" data-name="Grupo 957712">
            <g id="Grupo_957641" data-name="Grupo 957641" transform="translate(8.01 11.535)">
              <g id="Grupo_957635" data-name="Grupo 957635" transform="translate(33.2)">
                <g id="Grupo_957630" data-name="Grupo 957630">
                  <g id="Grupo_957629" data-name="Grupo 957629">
                    <path id="Trazado_725500" data-name="Trazado 725500" d="M132.351,71.147v5.582a14.647,14.647,0,0,1-.327,3.074c.109.008.217.017.327.017a4.336,4.336,0,1,0,0-8.672Z" transform="translate(-132.024 -71.147)" fill="#ffd2c0"/>
                  </g>
                </g>
                <g id="Grupo_957632" data-name="Grupo 957632" transform="translate(0.001 0.97)">
                  <g id="Grupo_957631" data-name="Grupo 957631">
                    <path id="Trazado_725501" data-name="Trazado 725501" d="M135.084,74.205a4.334,4.334,0,0,1-2.937,7.046c-.036.214-.076.427-.121.637.109.008.216.019.327.019a4.335,4.335,0,0,0,2.731-7.7Z" transform="translate(-132.026 -74.205)" fill="#fcc4ae"/>
                  </g>
                </g>
                <g id="Grupo_957634" data-name="Grupo 957634" transform="translate(0.291 2.115)">
                  <g id="Grupo_957633" data-name="Grupo 957633">
                    <path id="Trazado_725502" data-name="Trazado 725502" d="M132.978,77.814V81.28c0,.328-.015.652-.036.974l.036,0a2.221,2.221,0,1,0,0-4.442Z" transform="translate(-132.942 -77.814)" fill="#f2ad97"/>
                  </g>
                </g>
              </g>
              <g id="Grupo_957640" data-name="Grupo 957640">
                <g id="Grupo_957637" data-name="Grupo 957637">
                  <g id="Grupo_957636" data-name="Grupo 957636">
                    <path id="Trazado_725503" data-name="Trazado 725503" d="M31.724,76.729V71.147a4.336,4.336,0,1,0,0,8.672c.11,0,.219-.008.327-.017A14.645,14.645,0,0,1,31.724,76.729Z" transform="translate(-27.388 -71.147)" fill="#ffd2c0"/>
                  </g>
                </g>
                <g id="Grupo_957639" data-name="Grupo 957639" transform="translate(2.115 2.115)">
                  <g id="Grupo_957638" data-name="Grupo 957638">
                    <path id="Trazado_725504" data-name="Trazado 725504" d="M36.276,81.28V77.814a2.221,2.221,0,1,0,0,4.442l.036,0C36.291,81.932,36.276,81.608,36.276,81.28Z" transform="translate(-34.055 -77.814)" fill="#f2ad97"/>
                  </g>
                </g>
              </g>
            </g>
            <g id="Grupo_957643" data-name="Grupo 957643" transform="translate(0 36.495)">
              <g id="Grupo_957642" data-name="Grupo 957642">
                <path id="Trazado_725505" data-name="Trazado 725505" d="M52.853,180.272H5.316A3.173,3.173,0,0,1,2.143,177.1v-11.42a15.864,15.864,0,0,1,15.864-15.864H40.162a15.864,15.864,0,0,1,15.864,15.864V177.1a3.173,3.173,0,0,1-3.173,3.173Z" transform="translate(-2.143 -149.814)" fill="#76a34f"/>
              </g>
            </g>
            <g id="Grupo_957645" data-name="Grupo 957645" transform="translate(25.408 52.506)">
              <g id="Grupo_957644" data-name="Grupo 957644">
                <circle id="Elipse_4545" data-name="Elipse 4545" cx="1.533" cy="1.533" r="1.533" fill="#5a7a39"/>
              </g>
            </g>
            <g id="Grupo_957647" data-name="Grupo 957647" transform="translate(25.408 58.852)">
              <g id="Grupo_957646" data-name="Grupo 957646">
                <circle id="Elipse_4546" data-name="Elipse 4546" cx="1.533" cy="1.533" r="1.533" fill="#5a7a39"/>
              </g>
            </g>
            <g id="Grupo_957649" data-name="Grupo 957649" transform="translate(1.269 40.889)">
              <g id="Grupo_957648" data-name="Grupo 957648">
                <path id="Trazado_725506" data-name="Trazado 725506" d="M6.778,175.767a.635.635,0,0,1-.635-.635,14.593,14.593,0,0,1,3.48-9.45.635.635,0,0,1,.966.823,13.321,13.321,0,0,0-3.177,8.627A.635.635,0,0,1,6.778,175.767Zm5.139-10.812a.635.635,0,0,1-.4-1.13l.4.5-.4-.5a.622.622,0,0,1,.886.049.646.646,0,0,1-.05.906l-.044.037A.632.632,0,0,1,11.917,164.954Z" transform="translate(-6.143 -163.661)" fill="#91b56b"/>
              </g>
            </g>
            <g id="Grupo_957651" data-name="Grupo 957651" transform="translate(0 39.668)">
              <g id="Grupo_957650" data-name="Grupo 957650">
                <path id="Trazado_725507" data-name="Trazado 725507" d="M49.68,159.814a15.792,15.792,0,0,1,3.173,9.519v11.42a3.173,3.173,0,0,1-3.173,3.173H2.143A3.173,3.173,0,0,0,5.316,187.1H52.853a3.173,3.173,0,0,0,3.173-3.173v-11.42A15.839,15.839,0,0,0,49.68,159.814Z" transform="translate(-2.143 -159.814)" fill="#648940"/>
              </g>
            </g>
            <g id="Grupo_957653" data-name="Grupo 957653" transform="translate(0.282 40.38)">
              <g id="Grupo_957652" data-name="Grupo 957652">
                <path id="Trazado_725508" data-name="Trazado 725508" d="M51.163,162.057a15.8,15.8,0,0,1,3.885,10.393v11.42a3.173,3.173,0,0,1-3.173,3.173H4.337a3.159,3.159,0,0,1-1.3-.282,3.171,3.171,0,0,0,2.89,1.869H53.461a3.173,3.173,0,0,0,3.173-3.173v-11.42A15.822,15.822,0,0,0,51.163,162.057Z" transform="translate(-3.033 -162.057)" fill="#5a7a39"/>
              </g>
            </g>
            <g id="Grupo_957655" data-name="Grupo 957655" transform="translate(16.418 36.495)">
              <g id="Grupo_957654" data-name="Grupo 957654">
                <path id="Trazado_725509" data-name="Trazado 725509" d="M74.935,149.814H53.888v4.078a5.14,5.14,0,0,0,2.486,4.4l6.091,3.673a3.77,3.77,0,0,0,3.893,0l6.091-3.673a5.14,5.14,0,0,0,2.486-4.4v-4.078Z" transform="translate(-53.888 -149.814)" fill="#fcc4ae"/>
              </g>
            </g>
            <g id="Grupo_957676" data-name="Grupo 957676" transform="translate(18.297 36.495)">
              <g id="Grupo_957657" data-name="Grupo 957657">
                <g id="Grupo_957656" data-name="Grupo 957656">
                  <path id="Trazado_725510" data-name="Trazado 725510" d="M62.69,173.649H60.445a.634.634,0,0,1-.635-.635v-23.2h3.515v23.2A.635.635,0,0,1,62.69,173.649Z" transform="translate(-59.81 -149.814)" fill="#ffc91d"/>
                </g>
              </g>
              <g id="Grupo_957660" data-name="Grupo 957660" transform="translate(2.075 1.574)">
                <g id="Grupo_957659" data-name="Grupo 957659">
                  <g id="Grupo_957658" data-name="Grupo 957658">
                    <path id="Trazado_725511" data-name="Trazado 725511" d="M67.789,155.728h-.964a.476.476,0,1,1,0-.952h.964Z" transform="translate(-66.349 -154.776)" fill="#414042"/>
                  </g>
                </g>
              </g>
              <g id="Grupo_957663" data-name="Grupo 957663" transform="translate(0.806 4.747)">
                <g id="Grupo_957662" data-name="Grupo 957662">
                  <g id="Grupo_957661" data-name="Grupo 957661">
                    <path id="Trazado_725512" data-name="Trazado 725512" d="M65.058,165.728H62.825a.476.476,0,1,1,0-.952h2.233Z" transform="translate(-62.349 -164.776)" fill="#414042"/>
                  </g>
                </g>
              </g>
              <g id="Grupo_957666" data-name="Grupo 957666" transform="translate(2.075 7.92)">
                <g id="Grupo_957665" data-name="Grupo 957665">
                  <g id="Grupo_957664" data-name="Grupo 957664">
                    <path id="Trazado_725513" data-name="Trazado 725513" d="M67.789,175.728h-.964a.476.476,0,0,1,0-.952h.964Z" transform="translate(-66.349 -174.776)" fill="#414042"/>
                  </g>
                </g>
              </g>
              <g id="Grupo_957669" data-name="Grupo 957669" transform="translate(2.075 11.093)">
                <g id="Grupo_957668" data-name="Grupo 957668">
                  <g id="Grupo_957667" data-name="Grupo 957667">
                    <path id="Trazado_725514" data-name="Trazado 725514" d="M67.789,185.728h-.964a.476.476,0,0,1,0-.952h.964Z" transform="translate(-66.349 -184.776)" fill="#414042"/>
                  </g>
                </g>
              </g>
              <g id="Grupo_957672" data-name="Grupo 957672" transform="translate(2.075 14.266)">
                <g id="Grupo_957671" data-name="Grupo 957671">
                  <g id="Grupo_957670" data-name="Grupo 957670">
                    <path id="Trazado_725515" data-name="Trazado 725515" d="M67.789,195.728h-.964a.476.476,0,1,1,0-.952h.964Z" transform="translate(-66.349 -194.776)" fill="#414042"/>
                  </g>
                </g>
              </g>
              <g id="Grupo_957675" data-name="Grupo 957675" transform="translate(2.075 17.439)">
                <g id="Grupo_957674" data-name="Grupo 957674">
                  <g id="Grupo_957673" data-name="Grupo 957673">
                    <path id="Trazado_725516" data-name="Trazado 725516" d="M67.789,205.728h-.964a.476.476,0,0,1,0-.952h.964Z" transform="translate(-66.349 -204.776)" fill="#414042"/>
                  </g>
                </g>
              </g>
            </g>
            <g id="Grupo_957697" data-name="Grupo 957697" transform="translate(32.071 36.495)">
              <g id="Grupo_957678" data-name="Grupo 957678">
                <g id="Grupo_957677" data-name="Grupo 957677">
                  <path id="Trazado_725517" data-name="Trazado 725517" d="M103.857,173.649H106.1a.634.634,0,0,0,.635-.635v-23.2h-3.515v23.2A.635.635,0,0,0,103.857,173.649Z" transform="translate(-103.222 -149.814)" fill="#ffc91d"/>
                </g>
              </g>
              <g id="Grupo_957681" data-name="Grupo 957681" transform="translate(0 1.574)">
                <g id="Grupo_957680" data-name="Grupo 957680">
                  <g id="Grupo_957679" data-name="Grupo 957679">
                    <path id="Trazado_725518" data-name="Trazado 725518" d="M103.222,155.728h.964a.476.476,0,1,0,0-.952h-.964Z" transform="translate(-103.222 -154.776)" fill="#414042"/>
                  </g>
                </g>
              </g>
              <g id="Grupo_957684" data-name="Grupo 957684" transform="translate(0 17.439)">
                <g id="Grupo_957683" data-name="Grupo 957683">
                  <g id="Grupo_957682" data-name="Grupo 957682">
                    <path id="Trazado_725519" data-name="Trazado 725519" d="M103.222,205.728h2.233a.476.476,0,0,0,0-.952h-2.233Z" transform="translate(-103.222 -204.776)" fill="#414042"/>
                  </g>
                </g>
              </g>
              <g id="Grupo_957687" data-name="Grupo 957687" transform="translate(0 7.92)">
                <g id="Grupo_957686" data-name="Grupo 957686">
                  <g id="Grupo_957685" data-name="Grupo 957685">
                    <path id="Trazado_725520" data-name="Trazado 725520" d="M103.222,175.728h.964a.476.476,0,1,0,0-.952h-.964Z" transform="translate(-103.222 -174.776)" fill="#414042"/>
                  </g>
                </g>
              </g>
              <g id="Grupo_957690" data-name="Grupo 957690" transform="translate(0 11.093)">
                <g id="Grupo_957689" data-name="Grupo 957689">
                  <g id="Grupo_957688" data-name="Grupo 957688">
                    <path id="Trazado_725521" data-name="Trazado 725521" d="M103.222,185.728h.964a.476.476,0,1,0,0-.952h-.964Z" transform="translate(-103.222 -184.776)" fill="#414042"/>
                  </g>
                </g>
              </g>
              <g id="Grupo_957693" data-name="Grupo 957693" transform="translate(0 14.266)">
                <g id="Grupo_957692" data-name="Grupo 957692">
                  <g id="Grupo_957691" data-name="Grupo 957691">
                    <path id="Trazado_725522" data-name="Trazado 725522" d="M103.222,195.728h.964a.476.476,0,1,0,0-.952h-.964Z" transform="translate(-103.222 -194.776)" fill="#414042"/>
                  </g>
                </g>
              </g>
              <g id="Grupo_957696" data-name="Grupo 957696" transform="translate(0 4.747)">
                <g id="Grupo_957695" data-name="Grupo 957695">
                  <g id="Grupo_957694" data-name="Grupo 957694">
                    <path id="Trazado_725523" data-name="Trazado 725523" d="M103.222,165.728h.964a.476.476,0,1,0,0-.952h-.964Z" transform="translate(-103.222 -164.776)" fill="#414042"/>
                  </g>
                </g>
              </g>
            </g>
            <g id="Grupo_957699" data-name="Grupo 957699" transform="translate(21.812 30.783)">
              <g id="Grupo_957698" data-name="Grupo 957698">
                <path id="Trazado_725524" data-name="Trazado 725524" d="M76.018,132.739a14.561,14.561,0,0,1-5.13-.929v5.712H81.147V131.81A14.559,14.559,0,0,1,76.018,132.739Z" transform="translate(-70.888 -131.81)" fill="#fcc4ae"/>
              </g>
            </g>
            <g id="Grupo_957701" data-name="Grupo 957701" transform="translate(21.812 30.783)">
              <g id="Grupo_957700" data-name="Grupo 957700">
                <path id="Trazado_725525" data-name="Trazado 725525" d="M76.018,132.739a14.561,14.561,0,0,1-5.13-.929V133.4a14.621,14.621,0,0,0,10.259,0V131.81A14.562,14.562,0,0,1,76.018,132.739Z" transform="translate(-70.888 -131.81)" fill="#f2ad97"/>
              </g>
            </g>
            <g id="Grupo_957703" data-name="Grupo 957703" transform="translate(12.346)">
              <g id="Grupo_957702" data-name="Grupo 957702">
                <path id="Trazado_725526" data-name="Trazado 725526" d="M45.363,44.242c7.542,0,13.969-3.932,16.453-9.45a9.519,9.519,0,0,1,8.429,9.455v7.662a14.6,14.6,0,0,1-29.19,0V44.247c0-.151,0-.3.011-.449a21.061,21.061,0,0,0,4.3.445Z" transform="translate(-41.055 -34.792)" fill="#ffd2c0"/>
              </g>
            </g>
            <g id="Grupo_957705" data-name="Grupo 957705" transform="translate(15.861 1.978)">
              <g id="Grupo_957704" data-name="Grupo 957704">
                <path id="Trazado_725527" data-name="Trazado 725527" d="M74.176,41.026a9.47,9.47,0,0,1,2.045,5.89v7.662a14.591,14.591,0,0,1-24.089,11.08,14.592,14.592,0,0,0,25.676-9.494V48.5A9.494,9.494,0,0,0,74.176,41.026Z" transform="translate(-52.132 -41.026)" fill="#fcc4ae"/>
              </g>
            </g>
            <g id="Grupo_957707" data-name="Grupo 957707" transform="translate(31.608 12.064)">
              <g id="Grupo_957706" data-name="Grupo 957706">
                <circle id="Elipse_4547" data-name="Elipse 4547" cx="1.679" cy="1.679" r="1.679" fill="#995222"/>
              </g>
            </g>
            <g id="Grupo_957709" data-name="Grupo 957709" transform="translate(18.917 12.064)">
              <g id="Grupo_957708" data-name="Grupo 957708">
                <circle id="Elipse_4548" data-name="Elipse 4548" cx="1.679" cy="1.679" r="1.679" fill="#995222"/>
              </g>
            </g>
            <g id="Grupo_957711" data-name="Grupo 957711" transform="translate(23.346 22.426)">
              <g id="Grupo_957710" data-name="Grupo 957710">
                <path id="Trazado_725528" data-name="Trazado 725528" d="M79.318,107.616c1.986,0,3.6-.96,3.6-2.145H75.722C75.722,106.655,77.332,107.616,79.318,107.616Z" transform="translate(-75.722 -105.471)" fill="#995222"/>
              </g>
            </g>
          </g>
        </g>
      </g>
    </g>
  </g>
</svg>
