<svg xmlns="http://www.w3.org/2000/svg" width="63" height="63" viewBox="0 0 63 63">
  <g id="_3" data-name="3" transform="translate(-629 -889)">
    <circle id="Elipse_4555" data-name="Elipse 4555" cx="31.5" cy="31.5" r="31.5" transform="translate(629 889)" fill="#ff6e33"/>
    <path id="Trazado_727154" data-name="Trazado 727154" d="M22.122,0H1.782V-4.4l9.369-9.85q3.463-3.944,3.463-6.266a4.358,4.358,0,0,0-.821-2.863,2.931,2.931,0,0,0-2.382-.981,2.967,2.967,0,0,0-2.5,1.311,5.389,5.389,0,0,0-.961,3.273H1.181a9.573,9.573,0,0,1,1.341-4.955,9.406,9.406,0,0,1,3.724-3.553,11.061,11.061,0,0,1,5.325-1.281q4.725,0,7.277,2.182A7.79,7.79,0,0,1,21.4-21.121a9.1,9.1,0,0,1-.641,3.353,14.706,14.706,0,0,1-1.992,3.423,50.177,50.177,0,0,1-4.354,4.795L10.65-5.205H22.122Z" transform="translate(650 934)" fill="#fff"/>
  </g>
</svg>
