<svg xmlns="http://www.w3.org/2000/svg" xmlns:xlink="http://www.w3.org/1999/xlink" width="820" height="463" viewBox="0 0 820 463">
  <defs>
    <clipPath id="clip-path">
      <rect id="Rectángulo_340582" data-name="Rectángulo 340582" width="75.5" height="72.102" fill="#25ced1" stroke="#707070" stroke-width="1"/>
    </clipPath>
  </defs>
  <g id="_3" data-name="3" transform="translate(-390 -1345)">
    <rect id="Rectángulo_340586" data-name="Rectángulo 340586" width="820" height="463" transform="translate(390 1345)" fill="#ecf7f4"/>
    <path id="Trazado_727196" data-name="Trazado 727196" d="M11068.793-10057.869v50.35h14.318v11.063H11121v-11.062h42.516v-50.35h-47.082v-10.24h-33.322v10.24Z" transform="translate(-10421 11730.735)" fill="#25ced1" stroke="#707070" stroke-width="1"/>
    <g id="Trazado_727233" data-name="Trazado 727233" transform="translate(758 1666.735)" fill="#25ced1">
      <path d="M 56.5 86.5 L 0.5 86.5 L 0.5 0.5 L 56.5 0.5 L 56.5 86.5 Z" stroke="none"/>
      <path d="M 1 1 L 1 86 L 56 86 L 56 1 L 1 1 M 0 0 L 57 0 L 57 87 L 0 87 L 0 0 Z" stroke="none" fill="#707070"/>
    </g>
    <g id="Trazado_727234" data-name="Trazado 727234" transform="translate(825 1690.735)" fill="#25ced1">
      <path d="M 69.5 45.5 L 0.5 45.5 L 0.5 0.5 L 69.5 0.5 L 69.5 45.5 Z" stroke="none"/>
      <path d="M 1 1 L 1 45 L 69 45 L 69 1 L 1 1 M 0 0 L 70 0 L 70 46 L 0 46 L 0 0 Z" stroke="none" fill="#707070"/>
    </g>
    <g id="Trazado_727235" data-name="Trazado 727235" transform="translate(910 1672.735)" fill="#25ced1">
      <path d="M 35 78.5 C 30.35016059875488 78.5 25.8389892578125 77.47203826904297 21.59181022644043 75.44467163085938 C 17.48479080200195 73.48419952392578 13.79518985748291 70.67635345458984 10.62549018859863 67.09912872314453 C 7.451930046081543 63.51752853393555 4.959919929504395 59.34577178955078 3.218669891357422 54.69971084594727 C 1.414690017700195 49.88626098632812 0.5 44.7723388671875 0.5 39.5 C 0.5 34.2276611328125 1.414690017700195 29.11374092102051 3.218669891357422 24.30028915405273 C 4.959919929504395 19.65423011779785 7.451930046081543 15.48246955871582 10.62549018859863 11.90087032318115 C 13.79518985748291 8.323650360107422 17.48479080200195 5.515799999237061 21.59181022644043 3.555330038070679 C 25.8389892578125 1.527959942817688 30.35016059875488 0.5 35 0.5 C 39.64984130859375 0.5 44.1610107421875 1.527959942817688 48.4081916809082 3.555330038070679 C 52.51520919799805 5.515799999237061 56.20481109619141 8.323650360107422 59.37451171875 11.90087032318115 C 62.54806900024414 15.48246955871582 65.04007720947266 19.65423011779785 66.78132629394531 24.30028915405273 C 68.58531188964844 29.11374092102051 69.5 34.2276611328125 69.5 39.5 C 69.5 44.7723388671875 68.58531188964844 49.88626098632812 66.78132629394531 54.69971084594727 C 65.04007720947266 59.34577178955078 62.54806900024414 63.51752853393555 59.37451171875 67.09912872314453 C 56.20481109619141 70.67635345458984 52.51520919799805 73.48419952392578 48.4081916809082 75.44467163085938 C 44.1610107421875 77.47203826904297 39.64984130859375 78.5 35 78.5 Z" stroke="none"/>
      <path d="M 35 1 C 30.42527770996094 1 25.98657608032227 2.011558532714844 21.80720138549805 4.006568908691406 C 17.76093292236328 5.938034057617188 14.1247673034668 8.705619812011719 10.99971008300781 12.23246765136719 C 7.866931915283203 15.76804351806641 5.406532287597656 19.88727951049805 3.686866760253906 24.47575378417969 C 1.90399169921875 29.23291015625 1 34.28778839111328 1 39.5 C 1 44.71221160888672 1.90399169921875 49.76708984375 3.686866760253906 54.52424621582031 C 5.406532287597656 59.11272430419922 7.866931915283203 63.23195648193359 10.99971008300781 66.76753234863281 C 14.1247673034668 70.29438018798828 17.76093292236328 73.06196594238281 21.80720138549805 74.99343109130859 C 25.98657608032227 76.98844146728516 30.42527770996094 78 35 78 C 39.57472229003906 78 44.01342010498047 76.98844146728516 48.19280242919922 74.99343109130859 C 52.23906707763672 73.06196594238281 55.8752326965332 70.29438018798828 59.00028991699219 66.76753234863281 C 62.1330680847168 63.23195648193359 64.59346771240234 59.11272430419922 66.31313323974609 54.52424621582031 C 68.09600830078125 49.76708984375 69 44.71221160888672 69 39.5 C 69 34.28778839111328 68.09600830078125 29.23291015625 66.31313323974609 24.47575378417969 C 64.59346771240234 19.88727951049805 62.1330680847168 15.76804351806641 59.00028991699219 12.23246765136719 C 55.8752326965332 8.705619812011719 52.23906707763672 5.938034057617188 48.19280242919922 4.006568908691406 C 44.01342010498047 2.011558532714844 39.57472229003906 1 35 1 M 35 0 C 54.3299674987793 0 70 17.68475723266602 70 39.5 C 70 61.31524658203125 54.3299674987793 79 35 79 C 15.6700325012207 79 0 61.31524658203125 0 39.5 C 0 17.68475723266602 15.6700325012207 0 35 0 Z" stroke="none" fill="#707070"/>
    </g>
    <path id="Trazado_727197" data-name="Trazado 727197" d="M11396.438-10060.674l39.563-45.844,55.51,63.869-40.736,46.875Z" transform="translate(-10421 11730.735)" fill="#25ced1" stroke="#707070" stroke-width="1"/>
    <path id="Trazado_727198" data-name="Trazado 727198" d="M11396.438-10263.971c3.74,4.652,45.133,53.91,45.133,53.91l8.92-8.92,14.549,14.548,33.781-35.173L11436-10309.1Z" transform="translate(-10421 11730.735)" fill="#25ced1" stroke="#707070" stroke-width="1"/>
    <g id="Trazado_727236" data-name="Trazado 727236" transform="translate(903 1412.735)" fill="#25ced1">
      <path d="M 53.5 36.5 L 0.5 36.5 L 0.5 0.5 L 53.5 0.5 L 53.5 36.5 Z" stroke="none"/>
      <path d="M 1 1 L 1 36 L 53 36 L 53 1 L 1 1 M 0 0 L 54 0 L 54 37 L 0 37 L 0 0 Z" stroke="none" fill="#707070"/>
    </g>
    <g id="Trazado_727237" data-name="Trazado 727237" transform="translate(836 1404.735)" fill="#25ced1">
      <path d="M 39.5 63.5 L 0.5 63.5 L 0.5 0.5 L 39.5 0.5 L 39.5 63.5 Z" stroke="none"/>
      <path d="M 1 1 L 1 63 L 39 63 L 39 1 L 1 1 M 0 0 L 40 0 L 40 64 L 0 64 L 0 0 Z" stroke="none" fill="#707070"/>
    </g>
    <path id="Trazado_727199" data-name="Trazado 727199" d="M11170.359-10275v-39.937h70.6v19.061h-26.328V-10275Z" transform="translate(-10421 11730.735)" fill="#25ced1" stroke="#707070" stroke-width="1"/>
    <path id="Trazado_727200" data-name="Trazado 727200" d="M11081.557-10286.951v-29.111h72.672v29.111H11141v16.654h-29.463v-16.654Z" transform="translate(-10421 11730.735)" fill="#25ced1" stroke="#707070" stroke-width="1"/>
    <g id="Grupo_960497" data-name="Grupo 960497" transform="translate(1019 1540.45)">
      <g id="Grupo_960496" data-name="Grupo 960496" clip-path="url(#clip-path)">
        <path id="Trazado_727201" data-name="Trazado 727201" d="M.449,72.218V.45H42.414c.567,0,1.073.013,1.549.04C61.727,1.368,75.64,17.112,75.64,36.334S61.727,71.3,43.964,72.178c-.479.027-.986.04-1.551.04Z" transform="translate(-0.295 -0.283)" fill="#25ced1" stroke="#707070" stroke-width="1"/>
        <path id="Trazado_727202" data-name="Trazado 727202" d="M42.118.333c.563,0,1.068.013,1.544.04A31.888,31.888,0,0,1,66.007,11.349a37.11,37.11,0,0,1,9.184,24.7,37.11,37.11,0,0,1-9.184,24.7A31.888,31.888,0,0,1,43.66,71.728c-.474.027-.978.04-1.542.04H.309V.333Zm0-.333H0V72.1H42.118c.522,0,1.04-.011,1.558-.041C61.388,71.186,75.5,55.4,75.5,36.051S61.388.915,43.676.041C43.158.011,42.64,0,42.118,0" fill="#25ced1" stroke="#707070" stroke-width="1"/>
      </g>
    </g>
    <path id="Trazado_727203" data-name="Trazado 727203" d="M11031.238-10277.285s13.33,33.646,79.426,21.135" transform="translate(-10421 11730.735)" fill="none" stroke="#000" stroke-width="1"/>
    <path id="Trazado_727238" data-name="Trazado 727238" d="M5,0l5,9H0Z" transform="matrix(0.454, 0.891, -0.891, 0.454, 694.46, 1466.412)"/>
    <path id="Trazado_727204" data-name="Trazado 727204" d="M11127.045-10264.323s29.911,26.134,61.408,0" transform="translate(-10421 11730.735)" fill="none" stroke="#000" stroke-width="1"/>
    <path id="Trazado_727205" data-name="Trazado 727205" d="M11197.677-10271.614s14.771,35.6,66.51,21.647" transform="translate(-10421 11730.735)" fill="none" stroke="#000" stroke-width="1"/>
    <path id="Trazado_727206" data-name="Trazado 727206" d="M11282.189-10252.708s25.78,22.71,58.85,2.862" transform="translate(-10421 11730.735)" fill="none" stroke="#000" stroke-width="1"/>
    <path id="Trazado_727207" data-name="Trazado 727207" d="M11353.042-10256.766s7.9,42.811,57.642,36.5" transform="translate(-10421 11730.735)" fill="none" stroke="#000" stroke-width="1"/>
    <path id="Trazado_727208" data-name="Trazado 727208" d="M11416.7-10217.4s-20.552,31.952,10.278,53.061" transform="translate(-10421 11730.735)" fill="none" stroke="#000" stroke-width="1"/>
    <path id="Trazado_727209" data-name="Trazado 727209" d="M11430.217-10154.234s-41.734,13.061-16.885,62.859" transform="translate(-10421 11730.735)" fill="none" stroke="#000" stroke-width="1"/>
    <path id="Trazado_727210" data-name="Trazado 727210" d="M11413.419-10083.813s-31.729-30.411-51.337,18.859" transform="translate(-10421 11730.735)" fill="none" stroke="#000" stroke-width="1"/>
    <path id="Trazado_727211" data-name="Trazado 727211" d="M11355.4-10064.954s-35.484-26.237-64.441,7.627" transform="translate(-10421 11730.735)" fill="none" stroke="#000" stroke-width="1"/>
    <path id="Trazado_727212" data-name="Trazado 727212" d="M11287.351-10049.271s-30.784-58.579-76.948-19.448" transform="translate(-10421 11730.735)" fill="none" stroke="#000" stroke-width="1"/>
    <path id="Trazado_727213" data-name="Trazado 727213" d="M11205.845-10065.986s-27.878-31.2-79.555-3.641" transform="translate(-10421 11730.735)" fill="none" stroke="#000" stroke-width="1"/>
    <path id="Trazado_727214" data-name="Trazado 727214" d="M11118.576-10077.979s-49.11-36.894-82.576,18.832" transform="translate(-10421 11730.735)" fill="none" stroke="#000" stroke-width="1"/>
    <path id="Trazado_727239" data-name="Trazado 727239" d="M5,0l5,9H0Z" transform="translate(767.899 1457.735) rotate(41)"/>
    <path id="Trazado_727240" data-name="Trazado 727240" d="M5,0l5,9H0Z" transform="matrix(0.53, 0.848, -0.848, 0.53, 849.888, 1470.276)"/>
    <path id="Trazado_727241" data-name="Trazado 727241" d="M5,0l5,9H0Z" transform="translate(920.038 1473.868) rotate(48)"/>
    <path id="Trazado_727242" data-name="Trazado 727242" d="M5,0l5,9H0Z" transform="translate(996.472 1502.601) rotate(75)"/>
    <path id="Trazado_727243" data-name="Trazado 727243" d="M5,0l5,9H0Z" transform="matrix(-0.559, 0.829, -0.829, -0.559, 1015, 1565.767)"/>
    <path id="Trazado_727244" data-name="Trazado 727244" d="M5,0l5,9H0Z" transform="matrix(-0.799, 0.602, -0.602, -0.799, 1000.12, 1638.224)"/>
    <path id="Trazado_727245" data-name="Trazado 727245" d="M5,0l5,9H0Z" transform="matrix(-0.883, -0.469, 0.469, -0.883, 943.384, 1671.069)"/>
    <path id="Trazado_727246" data-name="Trazado 727246" d="M5,0l5,9H0Z" transform="matrix(-0.719, -0.695, 0.695, -0.719, 870.429, 1681.854)"/>
    <path id="Trazado_727247" data-name="Trazado 727247" d="M5,0l5,9H0Z" transform="matrix(-0.719, -0.695, 0.695, -0.719, 792.038, 1668.433)"/>
    <path id="Trazado_727248" data-name="Trazado 727248" d="M5,0l5,9H0Z" transform="matrix(-0.53, -0.848, 0.848, -0.53, 705.556, 1668.347)"/>
    <path id="Trazado_727249" data-name="Trazado 727249" d="M5,0l5,9H0Z" transform="translate(616.305 1680.722) rotate(-156)"/>
    <path id="Trazado_727250" data-name="Trazado 727250" d="M5.084,0H3.25V-7.071l-2.19.679V-7.884L4.888-9.255h.2Z" transform="translate(702 1491.001)" fill="#12263f"/>
    <g id="Trazado_727251" data-name="Trazado 727251" transform="translate(696 1476.735)" fill="none">
      <path d="M10,0A10,10,0,1,1,0,10,10,10,0,0,1,10,0Z" stroke="none"/>
      <path d="M 10 1 C 5.037380218505859 1 1 5.037380218505859 1 10 C 1 14.96261978149414 5.037380218505859 19 10 19 C 14.96261978149414 19 19 14.96261978149414 19 10 C 19 5.037380218505859 14.96261978149414 1 10 1 M 10 0 C 15.52285003662109 0 20 4.477149963378906 20 10 C 20 15.52285003662109 15.52285003662109 20 10 20 C 4.477149963378906 20 0 15.52285003662109 0 10 C 0 4.477149963378906 4.477149963378906 0 10 0 Z" stroke="none" fill="#000"/>
    </g>
    <path id="Trazado_727252" data-name="Trazado 727252" d="M6.963,0H.628V-1.257l2.99-3.187a7.376,7.376,0,0,0,.911-1.174,1.887,1.887,0,0,0,.3-.952,1.412,1.412,0,0,0-.311-.968,1.123,1.123,0,0,0-.889-.352,1.211,1.211,0,0,0-.981.428,1.7,1.7,0,0,0-.359,1.127H.444a3.03,3.03,0,0,1,.4-1.542A2.841,2.841,0,0,1,1.987-8.972a3.463,3.463,0,0,1,1.669-.4,3.279,3.279,0,0,1,2.219.686,2.425,2.425,0,0,1,.79,1.936,3.108,3.108,0,0,1-.355,1.4A7.76,7.76,0,0,1,5.091-3.694L2.99-1.479H6.963Z" transform="translate(771 1487.001)" fill="#12263f"/>
    <g id="Trazado_727253" data-name="Trazado 727253" transform="translate(765 1472.735)" fill="none">
      <path d="M10,0A10,10,0,1,1,0,10,10,10,0,0,1,10,0Z" stroke="none"/>
      <path d="M 10 1 C 5.037380218505859 1 1 5.037380218505859 1 10 C 1 14.96261978149414 5.037380218505859 19 10 19 C 14.96261978149414 19 19 14.96261978149414 19 10 C 19 5.037380218505859 14.96261978149414 1 10 1 M 10 0 C 15.52285003662109 0 20 4.477149963378906 20 10 C 20 15.52285003662109 15.52285003662109 20 10 20 C 4.477149963378906 20 0 15.52285003662109 0 10 C 0 4.477149963378906 4.477149963378906 0 10 0 Z" stroke="none" fill="#000"/>
    </g>
    <path id="Trazado_727254" data-name="Trazado 727254" d="M.9-4.545l.533-4.7h5.18v1.53H2.939L2.71-5.726A2.908,2.908,0,0,1,4.1-6.075a2.664,2.664,0,0,1,2.069.819,3.271,3.271,0,0,1,.749,2.292,3.351,3.351,0,0,1-.378,1.6,2.666,2.666,0,0,1-1.082,1.1A3.379,3.379,0,0,1,3.8.127a3.588,3.588,0,0,1-1.555-.34,2.758,2.758,0,0,1-1.133-.955,2.6,2.6,0,0,1-.441-1.4H2.482a1.356,1.356,0,0,0,.4.9,1.278,1.278,0,0,0,.9.321A1.128,1.128,0,0,0,4.748-1.8a2.073,2.073,0,0,0,.336-1.266A1.714,1.714,0,0,0,4.7-4.272a1.421,1.421,0,0,0-1.1-.419,1.588,1.588,0,0,0-1.06.343l-.178.165Z" transform="translate(852 1498.001)" fill="#12263f"/>
    <g id="Trazado_727255" data-name="Trazado 727255" transform="translate(846 1483.735)" fill="none">
      <path d="M10,0A10,10,0,1,1,0,10,10,10,0,0,1,10,0Z" stroke="none"/>
      <path d="M 10 1 C 5.037380218505859 1 1 5.037380218505859 1 10 C 1 14.96261978149414 5.037380218505859 19 10 19 C 14.96261978149414 19 19 14.96261978149414 19 10 C 19 5.037380218505859 14.96261978149414 1 10 1 M 10 0 C 15.52285003662109 0 20 4.477149963378906 20 10 C 20 15.52285003662109 15.52285003662109 20 10 20 C 4.477149963378906 20 0 15.52285003662109 0 10 C 0 4.477149963378906 4.477149963378906 0 10 0 Z" stroke="none" fill="#000"/>
    </g>
    <path id="Trazado_727256" data-name="Trazado 727256" d="M5.6-9.337v1.511H5.427a3.117,3.117,0,0,0-2,.647,2.631,2.631,0,0,0-.911,1.746,2.5,2.5,0,0,1,1.86-.749,2.354,2.354,0,0,1,1.917.863A3.461,3.461,0,0,1,7-3.047a3.4,3.4,0,0,1-.39,1.631,2.8,2.8,0,0,1-1.1,1.136A3.209,3.209,0,0,1,3.891.127,3,3,0,0,1,1.533-.889a3.942,3.942,0,0,1-.9-2.71v-.66A5.933,5.933,0,0,1,1.2-6.916,4.166,4.166,0,0,1,2.834-8.7,4.78,4.78,0,0,1,5.3-9.337ZM3.815-4.7a1.466,1.466,0,0,0-.806.231,1.393,1.393,0,0,0-.533.611V-3.3a2.47,2.47,0,0,0,.362,1.435,1.169,1.169,0,0,0,1.016.516,1.156,1.156,0,0,0,.955-.466,1.9,1.9,0,0,0,.365-1.207,1.9,1.9,0,0,0-.368-1.216A1.2,1.2,0,0,0,3.815-4.7Z" transform="translate(921 1503.001)" fill="#12263f"/>
    <g id="Trazado_727257" data-name="Trazado 727257" transform="translate(915 1488.735)" fill="none">
      <path d="M10,0A10,10,0,1,1,0,10,10,10,0,0,1,10,0Z" stroke="none"/>
      <path d="M 10 1 C 5.037380218505859 1 1 5.037380218505859 1 10 C 1 14.96261978149414 5.037380218505859 19 10 19 C 14.96261978149414 19 19 14.96261978149414 19 10 C 19 5.037380218505859 14.96261978149414 1 10 1 M 10 0 C 15.52285003662109 0 20 4.477149963378906 20 10 C 20 15.52285003662109 15.52285003662109 20 10 20 C 4.477149963378906 20 0 15.52285003662109 0 10 C 0 4.477149963378906 4.477149963378906 0 10 0 Z" stroke="none" fill="#000"/>
    </g>
    <path id="Trazado_727258" data-name="Trazado 727258" d="M6.652-6.786a2.15,2.15,0,0,1-.336,1.193,2.421,2.421,0,0,1-.927.832,2.68,2.68,0,0,1,1.066.892,2.288,2.288,0,0,1,.394,1.336A2.422,2.422,0,0,1,6.011-.587,3.4,3.4,0,0,1,3.732.127,3.414,3.414,0,0,1,1.447-.59,2.416,2.416,0,0,1,.6-2.533,2.3,2.3,0,0,1,1-3.872a2.632,2.632,0,0,1,1.06-.889,2.4,2.4,0,0,1-.924-.832A2.165,2.165,0,0,1,.8-6.786a2.4,2.4,0,0,1,.787-1.882,3.1,3.1,0,0,1,2.139-.7,3.12,3.12,0,0,1,2.136.7A2.386,2.386,0,0,1,6.652-6.786ZM5.008-2.666a1.331,1.331,0,0,0-.349-.965,1.245,1.245,0,0,0-.939-.362,1.243,1.243,0,0,0-.933.359,1.328,1.328,0,0,0-.349.968,1.328,1.328,0,0,0,.343.952,1.249,1.249,0,0,0,.952.362A1.246,1.246,0,0,0,4.669-1.7,1.325,1.325,0,0,0,5.008-2.666ZM4.818-6.7a1.27,1.27,0,0,0-.286-.866,1.014,1.014,0,0,0-.806-.327,1.021,1.021,0,0,0-.8.317,1.262,1.262,0,0,0-.286.876,1.326,1.326,0,0,0,.286.889,1,1,0,0,0,.806.336.99.99,0,0,0,.8-.336A1.336,1.336,0,0,0,4.818-6.7Z" transform="translate(970 1531.001)" fill="#12263f"/>
    <g id="Trazado_727259" data-name="Trazado 727259" transform="translate(964 1516.735)" fill="none">
      <path d="M10,0A10,10,0,1,1,0,10,10,10,0,0,1,10,0Z" stroke="none"/>
      <path d="M 10 1 C 5.037380218505859 1 1 5.037380218505859 1 10 C 1 14.96261978149414 5.037380218505859 19 10 19 C 14.96261978149414 19 19 14.96261978149414 19 10 C 19 5.037380218505859 14.96261978149414 1 10 1 M 10 0 C 15.52285003662109 0 20 4.477149963378906 20 10 C 20 15.52285003662109 15.52285003662109 20 10 20 C 4.477149963378906 20 0 15.52285003662109 0 10 C 0 4.477149963378906 4.477149963378906 0 10 0 Z" stroke="none" fill="#000"/>
    </g>
    <path id="Trazado_727260" data-name="Trazado 727260" d="M4.919-3.694a2.316,2.316,0,0,1-1.676.7,2.477,2.477,0,0,1-1.961-.841A3.324,3.324,0,0,1,.546-6.1a3.54,3.54,0,0,1,.4-1.666A2.91,2.91,0,0,1,2.05-8.947a3.073,3.073,0,0,1,1.6-.422,2.939,2.939,0,0,1,1.625.457A3,3,0,0,1,6.379-7.6a4.718,4.718,0,0,1,.4,1.961v.679A5.346,5.346,0,0,1,5.63-1.327,4.344,4.344,0,0,1,2.374.083L1.923.089v-1.53l.406-.006Q4.723-1.555,4.919-3.694Zm-1.225-.7a1.283,1.283,0,0,0,.765-.229,1.527,1.527,0,0,0,.486-.552v-.755a2.522,2.522,0,0,0-.355-1.447,1.1,1.1,0,0,0-.952-.514,1.071,1.071,0,0,0-.908.5,2.146,2.146,0,0,0-.355,1.266A2.088,2.088,0,0,0,2.72-4.878,1.127,1.127,0,0,0,3.694-4.393Z" transform="translate(984 1575.001)" fill="#12263f"/>
    <g id="Trazado_727261" data-name="Trazado 727261" transform="translate(978 1560.735)" fill="none">
      <path d="M10,0A10,10,0,1,1,0,10,10,10,0,0,1,10,0Z" stroke="none"/>
      <path d="M 10 1 C 5.037380218505859 1 1 5.037380218505859 1 10 C 1 14.96261978149414 5.037380218505859 19 10 19 C 14.96261978149414 19 19 14.96261978149414 19 10 C 19 5.037380218505859 14.96261978149414 1 10 1 M 10 0 C 15.52285003662109 0 20 4.477149963378906 20 10 C 20 15.52285003662109 15.52285003662109 20 10 20 C 4.477149963378906 20 0 15.52285003662109 0 10 C 0 4.477149963378906 4.477149963378906 0 10 0 Z" stroke="none" fill="#000"/>
    </g>
    <path id="Trazado_727262" data-name="Trazado 727262" d="M5.084,0H3.25V-7.071l-2.19.679V-7.884L4.888-9.255h.2Zm9.223-3.821a4.682,4.682,0,0,1-.793,2.933A2.77,2.77,0,0,1,11.191.127a2.789,2.789,0,0,1-2.311-1,4.545,4.545,0,0,1-.819-2.856v-1.7a4.621,4.621,0,0,1,.8-2.939,2.79,2.79,0,0,1,2.314-1,2.793,2.793,0,0,1,2.311.993,4.531,4.531,0,0,1,.819,2.853Zm-1.834-1.87a3.384,3.384,0,0,0-.314-1.674,1.062,1.062,0,0,0-.981-.524,1.043,1.043,0,0,0-.955.5A3.167,3.167,0,0,0,9.9-5.832v2.249A3.553,3.553,0,0,0,10.2-1.9a1.048,1.048,0,0,0,.987.55,1.03,1.03,0,0,0,.971-.527,3.468,3.468,0,0,0,.311-1.614Z" transform="translate(963 1628.001)" fill="#12263f"/>
    <g id="Trazado_727263" data-name="Trazado 727263" transform="translate(960 1613.735)" fill="none">
      <path d="M10,0A10,10,0,1,1,0,10,10,10,0,0,1,10,0Z" stroke="none"/>
      <path d="M 10 1 C 5.037380218505859 1 1 5.037380218505859 1 10 C 1 14.96261978149414 5.037380218505859 19 10 19 C 14.96261978149414 19 19 14.96261978149414 19 10 C 19 5.037380218505859 14.96261978149414 1 10 1 M 10 0 C 15.52285003662109 0 20 4.477149963378906 20 10 C 20 15.52285003662109 15.52285003662109 20 10 20 C 4.477149963378906 20 0 15.52285003662109 0 10 C 0 4.477149963378906 4.477149963378906 0 10 0 Z" stroke="none" fill="#000"/>
    </g>
    <path id="Trazado_727264" data-name="Trazado 727264" d="M5.084,0H3.25V-7.071l-2.19.679V-7.884L4.888-9.255h.2Zm7.458,0H10.708V-7.071l-2.19.679V-7.884l3.828-1.371h.2Z" transform="translate(921 1649.001)" fill="#12263f"/>
    <g id="Trazado_727265" data-name="Trazado 727265" transform="translate(918 1634.735)" fill="none">
      <path d="M10,0A10,10,0,1,1,0,10,10,10,0,0,1,10,0Z" stroke="none"/>
      <path d="M 10 1 C 5.037380218505859 1 1 5.037380218505859 1 10 C 1 14.96261978149414 5.037380218505859 19 10 19 C 14.96261978149414 19 19 14.96261978149414 19 10 C 19 5.037380218505859 14.96261978149414 1 10 1 M 10 0 C 15.52285003662109 0 20 4.477149963378906 20 10 C 20 15.52285003662109 15.52285003662109 20 10 20 C 4.477149963378906 20 0 15.52285003662109 0 10 C 0 4.477149963378906 4.477149963378906 0 10 0 Z" stroke="none" fill="#000"/>
    </g>
    <path id="Trazado_727266" data-name="Trazado 727266" d="M6.913-8.218,3.339,0H1.4l3.58-7.763H.387V-9.242H6.913Z" transform="translate(864 1659.001)" fill="#12263f"/>
    <g id="Trazado_727267" data-name="Trazado 727267" transform="translate(857 1644.735)" fill="none">
      <path d="M10,0A10,10,0,1,1,0,10,10,10,0,0,1,10,0Z" stroke="none"/>
      <path d="M 10 1 C 5.037380218505859 1 1 5.037380218505859 1 10 C 1 14.96261978149414 5.037380218505859 19 10 19 C 14.96261978149414 19 19 14.96261978149414 19 10 C 19 5.037380218505859 14.96261978149414 1 10 1 M 10 0 C 15.52285003662109 0 20 4.477149963378906 20 10 C 20 15.52285003662109 15.52285003662109 20 10 20 C 4.477149963378906 20 0 15.52285003662109 0 10 C 0 4.477149963378906 4.477149963378906 0 10 0 Z" stroke="none" fill="#000"/>
    </g>
    <path id="Trazado_727268" data-name="Trazado 727268" d="M2.495-5.434h.978a1.377,1.377,0,0,0,1.035-.349,1.279,1.279,0,0,0,.336-.927,1.131,1.131,0,0,0-.333-.87,1.292,1.292,0,0,0-.917-.311A1.354,1.354,0,0,0,2.71-7.6a.923.923,0,0,0-.355.752H.521a2.256,2.256,0,0,1,.39-1.3A2.6,2.6,0,0,1,2-9.045a3.644,3.644,0,0,1,1.546-.324,3.456,3.456,0,0,1,2.3.7,2.393,2.393,0,0,1,.832,1.933,1.945,1.945,0,0,1-.387,1.168,2.516,2.516,0,0,1-1.016.819A2.3,2.3,0,0,1,6.44-3.91a2.273,2.273,0,0,1,.384,1.32,2.433,2.433,0,0,1-.9,1.974A3.611,3.611,0,0,1,3.548.127,3.424,3.424,0,0,1,1.285-.6a2.384,2.384,0,0,1-.879-1.93H2.241a1.063,1.063,0,0,0,.39.851,1.439,1.439,0,0,0,.962.33A1.445,1.445,0,0,0,4.618-1.7a1.194,1.194,0,0,0,.371-.917Q4.989-4,3.466-4H2.495Z" transform="translate(779 1646.001)" fill="#12263f"/>
    <g id="Trazado_727269" data-name="Trazado 727269" transform="translate(772 1631.735)" fill="none">
      <path d="M10,0A10,10,0,1,1,0,10,10,10,0,0,1,10,0Z" stroke="none"/>
      <path d="M 10 1 C 5.037380218505859 1 1 5.037380218505859 1 10 C 1 14.96261978149414 5.037380218505859 19 10 19 C 14.96261978149414 19 19 14.96261978149414 19 10 C 19 5.037380218505859 14.96261978149414 1 10 1 M 10 0 C 15.52285003662109 0 20 4.477149963378906 20 10 C 20 15.52285003662109 15.52285003662109 20 10 20 C 4.477149963378906 20 0 15.52285003662109 0 10 C 0 4.477149963378906 4.477149963378906 0 10 0 Z" stroke="none" fill="#000"/>
    </g>
    <path id="Trazado_727270" data-name="Trazado 727270" d="M6.056-3.479H7.1V-2H6.056V0H4.221V-2H.432L.349-3.155,4.2-9.242H6.056Zm-3.878,0H4.221V-6.741L4.1-6.532Z" transform="translate(707 1646.001)" fill="#12263f"/>
    <g id="Trazado_727271" data-name="Trazado 727271" transform="translate(700 1631.735)" fill="none">
      <path d="M10,0A10,10,0,1,1,0,10,10,10,0,0,1,10,0Z" stroke="none"/>
      <path d="M 10 1 C 5.037380218505859 1 1 5.037380218505859 1 10 C 1 14.96261978149414 5.037380218505859 19 10 19 C 14.96261978149414 19 19 14.96261978149414 19 10 C 19 5.037380218505859 14.96261978149414 1 10 1 M 10 0 C 15.52285003662109 0 20 4.477149963378906 20 10 C 20 15.52285003662109 15.52285003662109 20 10 20 C 4.477149963378906 20 0 15.52285003662109 0 10 C 0 4.477149963378906 4.477149963378906 0 10 0 Z" stroke="none" fill="#000"/>
    </g>
    <g id="Grupo_960498" data-name="Grupo 960498" transform="translate(15 -400.265)">
      <path id="Trazado_727215" data-name="Trazado 727215" d="M11131.5-9676.234c-.151-4.058,0-115.43,0-115.43" transform="translate(-10436 11700)" fill="none" stroke="#707070" stroke-width="1.2" stroke-dasharray="6"/>
      <path id="Polígono_60" data-name="Polígono 60" d="M6,0l6,10H0Z" transform="translate(689 1900)"/>
    </g>
    <g id="Grupo_960499" data-name="Grupo 960499" transform="translate(1477.5 3532.36) rotate(180)">
      <path id="Trazado_727215-2" data-name="Trazado 727215" d="M11136.659-9668.7c-.151-4.058-5.159-122.969-5.159-122.969" transform="translate(-10436 11700)" fill="none" stroke="#707070" stroke-width="1.2"/>
      <path id="Polígono_60-2" data-name="Polígono 60" d="M4.659,0,9.318,7.987H0Z" transform="translate(691.341 1906.006)"/>
    </g>
    <g id="Grupo_960500" data-name="Grupo 960500" transform="matrix(0.998, -0.07, 0.07, 0.998, 30.938, -332.578)">
      <path id="Trazado_727215-3" data-name="Trazado 727215" d="M11131.5-9676.234c-.151-4.058,0-115.43,0-115.43" transform="translate(-10436 11700)" fill="none" stroke="#707070" stroke-width="1.2" stroke-dasharray="6"/>
      <path id="Polígono_60-3" data-name="Polígono 60" d="M5,0l5,8H0Z" transform="translate(691.086 1894.979)"/>
    </g>
    <g id="Grupo_960501" data-name="Grupo 960501" transform="translate(1124.396 3654.701) rotate(-167)">
      <path id="Trazado_727215-4" data-name="Trazado 727215" d="M11118.652-9659.368c-.151-4.058,12.848-132.3,12.848-132.3" transform="translate(-10436 11700)" fill="none" stroke="#707070" stroke-width="1.2"/>
      <path id="Polígono_60-4" data-name="Polígono 60" d="M4,0,8,8H0Z" transform="translate(692.675 1905.423) rotate(9)"/>
    </g>
    <g id="Grupo_960502" data-name="Grupo 960502" transform="translate(825.516 -484.718) rotate(16)">
      <path id="Trazado_727215-5" data-name="Trazado 727215" d="M11123.981-9695.738c-.151-4.058,7.519-95.926,7.519-95.926" transform="translate(-10436 11700)" fill="none" stroke="#707070" stroke-width="1.2" stroke-dasharray="6"/>
      <path id="Polígono_60-5" data-name="Polígono 60" d="M5,0l5,8H0Z" transform="translate(690.237 1904.686)"/>
    </g>
    <g id="Grupo_960503" data-name="Grupo 960503" transform="translate(15 -400.265)">
      <path id="Trazado_727216" data-name="Trazado 727216" d="M11141-9806.234l39.761-2.906" transform="translate(-10436 11700)" fill="none" stroke="#000" stroke-width="1.2"/>
      <path id="Polígono_61" data-name="Polígono 61" d="M4,0,8,8H0Z" transform="matrix(0.105, 0.995, -0.995, 0.105, 746.861, 1886.463)"/>
    </g>
    <g id="Grupo_960504" data-name="Grupo 960504" transform="translate(719.361 1629.737) rotate(7)">
      <path id="Trazado_727216-2" data-name="Trazado 727216" d="M11184.8-9813.83l-43.8,4.69" transform="translate(-11135.762 9816.729)" fill="none" stroke="#000" stroke-width="1.2"/>
      <path id="Polígono_61-2" data-name="Polígono 61" d="M5.256,0l5.256,9.011H0Z" transform="matrix(-0.087, -0.996, 0.996, -0.087, 2.669, 13.218)"/>
    </g>
    <g id="Grupo_960505" data-name="Grupo 960505" transform="translate(433.358 -473.465) rotate(8)">
      <path id="Trazado_727216-3" data-name="Trazado 727216" d="M11141-9806.234l39.761-2.906" transform="translate(-10436 11700)" fill="none" stroke="#000" stroke-width="1.2"/>
      <path id="Polígono_61-3" data-name="Polígono 61" d="M4.133,0,8.266,7.085H0Z" transform="matrix(0.105, 0.995, -0.995, 0.105, 746.392, 1886.379)"/>
    </g>
    <g id="Grupo_960506" data-name="Grupo 960506" transform="translate(15 -400.265)">
      <path id="Trazado_727217" data-name="Trazado 727217" d="M11399-9759.285c.895,3.047,3.393,13.375,3.393,13.375" transform="translate(-10436 11700)" fill="none" stroke="#000" stroke-width="1"/>
      <path id="Polígono_62" data-name="Polígono 62" d="M4,0,8,7H0Z" transform="translate(971.799 1958.559) rotate(164)"/>
    </g>
    <g id="Grupo_960507" data-name="Grupo 960507" transform="matrix(0.848, 0.53, -0.53, 0.848, 1191.089, -567.272)">
      <path id="Trazado_727217-2" data-name="Trazado 727217" d="M11399-9759.285c.895,3.047,3.393,13.375,3.393,13.375" transform="translate(-10436 11700)" fill="none" stroke="#000" stroke-width="1"/>
      <path id="Polígono_62-2" data-name="Polígono 62" d="M4,0,8,7H0Z" transform="translate(971.799 1958.559) rotate(164)"/>
    </g>
    <g id="Grupo_960508" data-name="Grupo 960508" transform="translate(2307.901 -64.807) rotate(65)">
      <path id="Trazado_727217-3" data-name="Trazado 727217" d="M11399-9759.285c.895,3.047,3.393,13.375,3.393,13.375" transform="translate(-10436 11700)" fill="none" stroke="#000" stroke-width="1"/>
      <path id="Polígono_62-3" data-name="Polígono 62" d="M4,0,8,7H0Z" transform="translate(971.799 1958.559) rotate(164)"/>
    </g>
    <g id="Grupo_960509" data-name="Grupo 960509" transform="translate(15 -400.265)">
      <circle id="Elipse_4877" data-name="Elipse 4877" cx="10" cy="10" r="10" transform="translate(718 1927)" fill="#aaa"/>
      <path id="Trazado_727218" data-name="Trazado 727218" d="M11143.784-9746.75s15.021,16.642,32.945,0" transform="translate(-10432.999 11693.791)" fill="none" stroke="#696969" stroke-width="1.3"/>
    </g>
    <g id="Grupo_960510" data-name="Grupo 960510" transform="translate(156.932 -415.925)">
      <circle id="Elipse_4877-2" data-name="Elipse 4877" cx="10" cy="10" r="10" transform="translate(718 1927)" fill="#aaa"/>
      <path id="Trazado_727218-2" data-name="Trazado 727218" d="M11143.784-9746.75s15.021,16.642,32.945,0" transform="translate(-10432.999 11693.791)" fill="none" stroke="#696969" stroke-width="1.3"/>
    </g>
    <g id="Grupo_960511" data-name="Grupo 960511" transform="matrix(-0.259, 0.966, -0.966, -0.259, 3021.936, 1394.919)">
      <circle id="Elipse_4877-3" data-name="Elipse 4877" cx="6.364" cy="6.364" r="6.364" transform="translate(715.377 1927)" fill="#aaa"/>
      <path id="Trazado_727218-3" data-name="Trazado 727218" d="M11143.784-9746.75s9.56,10.591,20.967,0" transform="translate(-10432.999 11686.504)" fill="none" stroke="#696969" stroke-width="1.3"/>
    </g>
    <path id="Trazado_727272" data-name="Trazado 727272" d="M5.084,0H3.25V-7.071l-2.19.679V-7.884L4.888-9.255h.2Z" transform="translate(700 1432.765)" fill="#12263f"/>
    <path id="Trazado_727273" data-name="Trazado 727273" d="M6.963,0H.628V-1.257l2.99-3.187a7.376,7.376,0,0,0,.911-1.174,1.887,1.887,0,0,0,.3-.952,1.412,1.412,0,0,0-.311-.968,1.123,1.123,0,0,0-.889-.352,1.211,1.211,0,0,0-.981.428,1.7,1.7,0,0,0-.359,1.127H.444a3.03,3.03,0,0,1,.4-1.542A2.841,2.841,0,0,1,1.987-8.972a3.463,3.463,0,0,1,1.669-.4,3.279,3.279,0,0,1,2.219.686,2.425,2.425,0,0,1,.79,1.936,3.108,3.108,0,0,1-.355,1.4A7.76,7.76,0,0,1,5.091-3.694L2.99-1.479H6.963Z" transform="translate(763.953 1443.235)" fill="#12263f"/>
    <path id="Trazado_727274" data-name="Trazado 727274" d="M2.495-5.434h.978a1.377,1.377,0,0,0,1.035-.349,1.279,1.279,0,0,0,.336-.927,1.131,1.131,0,0,0-.333-.87,1.292,1.292,0,0,0-.917-.311A1.354,1.354,0,0,0,2.71-7.6a.923.923,0,0,0-.355.752H.521a2.256,2.256,0,0,1,.39-1.3A2.6,2.6,0,0,1,2-9.045a3.644,3.644,0,0,1,1.546-.324,3.456,3.456,0,0,1,2.3.7,2.393,2.393,0,0,1,.832,1.933,1.945,1.945,0,0,1-.387,1.168,2.516,2.516,0,0,1-1.016.819A2.3,2.3,0,0,1,6.44-3.91a2.273,2.273,0,0,1,.384,1.32,2.433,2.433,0,0,1-.9,1.974A3.611,3.611,0,0,1,3.548.127,3.424,3.424,0,0,1,1.285-.6a2.384,2.384,0,0,1-.879-1.93H2.241a1.063,1.063,0,0,0,.39.851,1.439,1.439,0,0,0,.962.33A1.445,1.445,0,0,0,4.618-1.7a1.194,1.194,0,0,0,.371-.917Q4.989-4,3.466-4H2.495Z" transform="translate(846 1428.235)" fill="#12263f"/>
    <path id="Trazado_727275" data-name="Trazado 727275" d="M6.056-3.479H7.1V-2H6.056V0H4.221V-2H.432L.349-3.155,4.2-9.242H6.056Zm-3.878,0H4.221V-6.741L4.1-6.532Z" transform="translate(926 1432.765)" fill="#12263f"/>
    <path id="Trazado_727276" data-name="Trazado 727276" d="M.9-4.545l.533-4.7h5.18v1.53H2.939L2.71-5.726A2.908,2.908,0,0,1,4.1-6.075a2.664,2.664,0,0,1,2.069.819,3.271,3.271,0,0,1,.749,2.292,3.351,3.351,0,0,1-.378,1.6,2.666,2.666,0,0,1-1.082,1.1A3.379,3.379,0,0,1,3.8.127a3.588,3.588,0,0,1-1.555-.34,2.758,2.758,0,0,1-1.133-.955,2.6,2.6,0,0,1-.441-1.4H2.482a1.356,1.356,0,0,0,.4.9,1.278,1.278,0,0,0,.9.321A1.128,1.128,0,0,0,4.748-1.8a2.073,2.073,0,0,0,.336-1.266A1.714,1.714,0,0,0,4.7-4.272a1.421,1.421,0,0,0-1.1-.419,1.588,1.588,0,0,0-1.06.343l-.178.165Z" transform="translate(1008 1473.735)" fill="#12263f"/>
    <path id="Trazado_727277" data-name="Trazado 727277" d="M5.6-9.337v1.511H5.427a3.117,3.117,0,0,0-2,.647,2.631,2.631,0,0,0-.911,1.746,2.5,2.5,0,0,1,1.86-.749,2.354,2.354,0,0,1,1.917.863A3.461,3.461,0,0,1,7-3.047a3.4,3.4,0,0,1-.39,1.631,2.8,2.8,0,0,1-1.1,1.136A3.209,3.209,0,0,1,3.891.127,3,3,0,0,1,1.533-.889a3.942,3.942,0,0,1-.9-2.71v-.66A5.933,5.933,0,0,1,1.2-6.916,4.166,4.166,0,0,1,2.834-8.7,4.78,4.78,0,0,1,5.3-9.337ZM3.815-4.7a1.466,1.466,0,0,0-.806.231,1.393,1.393,0,0,0-.533.611V-3.3a2.47,2.47,0,0,0,.362,1.435,1.169,1.169,0,0,0,1.016.516,1.156,1.156,0,0,0,.955-.466,1.9,1.9,0,0,0,.365-1.207,1.9,1.9,0,0,0-.368-1.216A1.2,1.2,0,0,0,3.815-4.7Z" transform="translate(1047 1579.735)" fill="#12263f"/>
    <path id="Trazado_727278" data-name="Trazado 727278" d="M6.913-8.218,3.339,0H1.4l3.58-7.763H.387V-9.242H6.913Z" transform="translate(1015 1676.735)" fill="#12263f"/>
    <path id="Trazado_727279" data-name="Trazado 727279" d="M6.652-6.786a2.15,2.15,0,0,1-.336,1.193,2.421,2.421,0,0,1-.927.832,2.68,2.68,0,0,1,1.066.892,2.288,2.288,0,0,1,.394,1.336A2.422,2.422,0,0,1,6.011-.587,3.4,3.4,0,0,1,3.732.127,3.414,3.414,0,0,1,1.447-.59,2.416,2.416,0,0,1,.6-2.533,2.3,2.3,0,0,1,1-3.872a2.632,2.632,0,0,1,1.06-.889,2.4,2.4,0,0,1-.924-.832A2.165,2.165,0,0,1,.8-6.786a2.4,2.4,0,0,1,.787-1.882,3.1,3.1,0,0,1,2.139-.7,3.12,3.12,0,0,1,2.136.7A2.386,2.386,0,0,1,6.652-6.786ZM5.008-2.666a1.331,1.331,0,0,0-.349-.965,1.245,1.245,0,0,0-.939-.362,1.243,1.243,0,0,0-.933.359,1.328,1.328,0,0,0-.349.968,1.328,1.328,0,0,0,.343.952,1.249,1.249,0,0,0,.952.362A1.246,1.246,0,0,0,4.669-1.7,1.325,1.325,0,0,0,5.008-2.666ZM4.818-6.7a1.27,1.27,0,0,0-.286-.866,1.014,1.014,0,0,0-.806-.327,1.021,1.021,0,0,0-.8.317,1.262,1.262,0,0,0-.286.876,1.326,1.326,0,0,0,.286.889,1,1,0,0,0,.806.336.99.99,0,0,0,.8-.336A1.336,1.336,0,0,0,4.818-6.7Z" transform="translate(942 1710.735)" fill="#12263f"/>
    <path id="Trazado_727280" data-name="Trazado 727280" d="M4.919-3.694a2.316,2.316,0,0,1-1.676.7,2.477,2.477,0,0,1-1.961-.841A3.324,3.324,0,0,1,.546-6.1a3.54,3.54,0,0,1,.4-1.666A2.91,2.91,0,0,1,2.05-8.947a3.073,3.073,0,0,1,1.6-.422,2.939,2.939,0,0,1,1.625.457A3,3,0,0,1,6.379-7.6a4.718,4.718,0,0,1,.4,1.961v.679A5.346,5.346,0,0,1,5.63-1.327,4.344,4.344,0,0,1,2.374.083L1.923.089v-1.53l.406-.006Q4.723-1.555,4.919-3.694Zm-1.225-.7a1.283,1.283,0,0,0,.765-.229,1.527,1.527,0,0,0,.486-.552v-.755a2.522,2.522,0,0,0-.355-1.447,1.1,1.1,0,0,0-.952-.514,1.071,1.071,0,0,0-.908.5,2.146,2.146,0,0,0-.355,1.266A2.088,2.088,0,0,0,2.72-4.878,1.127,1.127,0,0,0,3.694-4.393Z" transform="translate(862 1710.735)" fill="#12263f"/>
    <path id="Trazado_727281" data-name="Trazado 727281" d="M5.084,0H3.25V-7.071l-2.19.679V-7.884L4.888-9.255h.2Zm9.223-3.821a4.682,4.682,0,0,1-.793,2.933A2.77,2.77,0,0,1,11.191.127a2.789,2.789,0,0,1-2.311-1,4.545,4.545,0,0,1-.819-2.856v-1.7a4.621,4.621,0,0,1,.8-2.939,2.79,2.79,0,0,1,2.314-1,2.793,2.793,0,0,1,2.311.993,4.531,4.531,0,0,1,.819,2.853Zm-1.834-1.87a3.384,3.384,0,0,0-.314-1.674,1.062,1.062,0,0,0-.981-.524,1.043,1.043,0,0,0-.955.5A3.167,3.167,0,0,0,9.9-5.832v2.249A3.553,3.553,0,0,0,10.2-1.9a1.048,1.048,0,0,0,.987.55,1.03,1.03,0,0,0,.971-.527,3.468,3.468,0,0,0,.311-1.614Z" transform="translate(769 1714.735)" fill="#12263f"/>
    <path id="Trazado_727282" data-name="Trazado 727282" d="M5.084,0H3.25V-7.071l-2.19.679V-7.884L4.888-9.255h.2Zm7.458,0H10.708V-7.071l-2.19.679V-7.884l3.828-1.371h.2Z" transform="translate(671 1695.735)" fill="#12263f"/>
    <g id="Grupo_960512" data-name="Grupo 960512" transform="translate(52 -403.265)">
      <g id="Rectángulo_340583" data-name="Rectángulo 340583" transform="translate(531 1815)" fill="#fff" stroke="#000" stroke-width="1.5">
        <rect width="49" height="34" stroke="none"/>
        <rect x="0.75" y="0.75" width="47.5" height="32.5" fill="none"/>
      </g>
      <path id="Trazado_727219" data-name="Trazado 727219" d="M10967-9883.5l49,31.553" transform="translate(-10436 11700)" fill="none" stroke="#000" stroke-width="1.5"/>
      <path id="Trazado_727220" data-name="Trazado 727220" d="M11016-9883.5l-49,31.553" transform="translate(-10436 11700)" fill="none" stroke="#000" stroke-width="1.5"/>
    </g>
    <g id="Grupo_960513" data-name="Grupo 960513" transform="translate(52 -126.265)">
      <g id="Rectángulo_340583-2" data-name="Rectángulo 340583" transform="translate(531 1815)" fill="#fff" stroke="#000" stroke-width="1.5">
        <rect width="49" height="34" stroke="none"/>
        <rect x="0.75" y="0.75" width="47.5" height="32.5" fill="none"/>
      </g>
      <path id="Trazado_727219-2" data-name="Trazado 727219" d="M10967-9883.5l49,31.553" transform="translate(-10436 11700)" fill="none" stroke="#000" stroke-width="1.5"/>
      <path id="Trazado_727220-2" data-name="Trazado 727220" d="M11016-9883.5l-49,31.553" transform="translate(-10436 11700)" fill="none" stroke="#000" stroke-width="1.5"/>
    </g>
    <path id="Trazado_727283" data-name="Trazado 727283" d="M-10420,11728h-16v-20h16v-8l26,18-26,18Z" transform="translate(10961 -10290.266)" fill="#ff8a5b"/>
    <path id="Trazado_727284" data-name="Trazado 727284" d="M16,8H0V28H16v8L42,18,16,0Z" transform="translate(567.001 1722.735) rotate(180)" fill="#ff8a5b"/>
    <path id="Trazado_727285" data-name="Trazado 727285" d="M6.386-4.005H2.729V-1.53H7.021V0H.825V-9.242H7.008V-7.7H2.729v2.2H6.386ZM15.653,0h-1.9L10.042-6.081V0h-1.9V-9.242h1.9l3.713,6.094V-9.242h1.9Zm8.436-7.7H21.258V0h-1.9V-7.7H16.561V-9.242h7.528ZM28.6-3.383H27.079V0h-1.9V-9.242h3.434a3.882,3.882,0,0,1,2.526.73,2.519,2.519,0,0,1,.889,2.063,2.843,2.843,0,0,1-.409,1.577,2.792,2.792,0,0,1-1.241,1.006l2,3.777V0H30.329ZM27.079-4.926h1.536a1.573,1.573,0,0,0,1.111-.365A1.3,1.3,0,0,0,30.12-6.3a1.4,1.4,0,0,0-.371-1.028A1.543,1.543,0,0,0,28.609-7.7h-1.53ZM38.689-1.9H35.35L34.715,0H32.69l3.44-9.242H37.9L41.355,0H39.33ZM35.864-3.447h2.311L37.013-6.906ZM42.218,0V-9.242h2.844a4.319,4.319,0,0,1,2.18.549,3.829,3.829,0,0,1,1.5,1.562,4.816,4.816,0,0,1,.54,2.3v.425a4.83,4.83,0,0,1-.53,2.292A3.8,3.8,0,0,1,47.258-.559,4.351,4.351,0,0,1,45.081,0Zm1.9-7.7v6.17h.92a2.068,2.068,0,0,0,1.708-.73,3.3,3.3,0,0,0,.6-2.088v-.489a3.351,3.351,0,0,0-.584-2.136A2.061,2.061,0,0,0,45.062-7.7ZM55.751-1.9H52.413L51.778,0H49.753l3.44-9.242h1.765L58.417,0H56.393ZM52.927-3.447h2.311L54.076-6.906Z" transform="translate(502 1457.265) rotate(-90)" fill="#12263f"/>
    <path id="Trazado_727286" data-name="Trazado 727286" d="M5.618-2.425a.977.977,0,0,0-.381-.828,5,5,0,0,0-1.371-.609A9.72,9.72,0,0,1,2.3-4.494,2.562,2.562,0,0,1,.724-6.786a2.232,2.232,0,0,1,.422-1.336,2.753,2.753,0,0,1,1.212-.917,4.563,4.563,0,0,1,1.774-.33A4.154,4.154,0,0,1,5.9-9.01,2.81,2.81,0,0,1,7.1-8a2.649,2.649,0,0,1,.428,1.485h-1.9a1.246,1.246,0,0,0-.4-.987A1.644,1.644,0,0,0,4.1-7.852a1.756,1.756,0,0,0-1.085.3.931.931,0,0,0-.387.778.892.892,0,0,0,.454.755,5.128,5.128,0,0,0,1.336.571A5.773,5.773,0,0,1,6.786-4.24a2.415,2.415,0,0,1,.743,1.8A2.224,2.224,0,0,1,6.621-.555,3.974,3.974,0,0,1,4.177.127a4.719,4.719,0,0,1-1.942-.39A3.074,3.074,0,0,1,.9-1.333a2.739,2.739,0,0,1-.46-1.574H2.349q0,1.53,1.828,1.53a1.778,1.778,0,0,0,1.06-.276A.9.9,0,0,0,5.618-2.425Zm8.417.521H10.7L10.061,0H8.036l3.44-9.242h1.765L16.7,0H14.676ZM11.21-3.447h2.311L12.359-6.906ZM19.468-1.53h4.043V0H17.564V-9.242h1.9ZM26.628,0h-1.9V-9.242h1.9Zm1.765,0V-9.242h2.844a4.319,4.319,0,0,1,2.18.549,3.829,3.829,0,0,1,1.5,1.562,4.816,4.816,0,0,1,.54,2.3v.425a4.83,4.83,0,0,1-.53,2.292A3.8,3.8,0,0,1,33.433-.559,4.351,4.351,0,0,1,31.256,0Zm1.9-7.7v6.17h.92a2.068,2.068,0,0,0,1.708-.73,3.3,3.3,0,0,0,.6-2.088v-.489a3.351,3.351,0,0,0-.584-2.136A2.061,2.061,0,0,0,31.237-7.7ZM41.926-1.9H38.587L37.953,0H35.928l3.44-9.242h1.765L44.592,0H42.567ZM39.1-3.447h2.311L40.25-6.906Z" transform="translate(502 1724.735) rotate(-90)" fill="#12263f"/>
  </g>
</svg>
