<svg xmlns="http://www.w3.org/2000/svg" xmlns:xlink="http://www.w3.org/1999/xlink" width="59" height="59" viewBox="0 0 59 59">
  <defs>
    <clipPath id="clip-path">
      <path id="path5526" d="M0-682.665H40.7v40.7H0Z" transform="translate(0 682.665)" fill="#fff"/>
    </clipPath>
  </defs>
  <g id="_32" data-name="32" transform="translate(-604 -3871)">
    <circle id="Elipse_4590" data-name="Elipse 4590" cx="29.5" cy="29.5" r="29.5" transform="translate(604 3871)" fill="#0ce6ea"/>
    <g id="g5520" transform="translate(613 4562.665)">
      <g id="g5522" transform="translate(0 -682.665)">
        <g id="g5524" clip-path="url(#clip-path)">
          <g id="g5530" transform="translate(23.706 15.152)">
            <path id="path5532" d="M-105.816-52.908a3.354,3.354,0,0,1-3.355,3.355,3.355,3.355,0,0,1-3.355-3.355,3.355,3.355,0,0,1,3.355-3.355A3.355,3.355,0,0,1-105.816-52.908Z" transform="translate(112.525 56.263)" fill="none" stroke="#fff" stroke-linecap="round" stroke-linejoin="round" stroke-miterlimit="10" stroke-width="1.2"/>
          </g>
          <g id="g5534" transform="translate(25.383 21.861)">
            <path id="path5536" d="M0,0H3.858A3.019,3.019,0,0,1,6.877,3.019V4.3" fill="none" stroke="#fff" stroke-linecap="round" stroke-linejoin="round" stroke-miterlimit="10" stroke-width="1.2"/>
          </g>
          <g id="g5538" transform="translate(29.577 26.306)">
            <path id="path5540" d="M0-54.229v-3.438" transform="translate(0 57.668)" fill="none" stroke="#fff" stroke-linecap="round" stroke-linejoin="round" stroke-miterlimit="10" stroke-width="1.2"/>
          </g>
          <g id="g5542" transform="translate(11.126 26.306)">
            <path id="path5544" d="M0,0V3.438" fill="none" stroke="#fff" stroke-linecap="round" stroke-linejoin="round" stroke-miterlimit="10" stroke-width="1.2"/>
          </g>
          <g id="g5546" transform="translate(10.288 15.152)">
            <path id="path5548" d="M0-52.908a3.354,3.354,0,0,0,3.355,3.355,3.355,3.355,0,0,0,3.355-3.355,3.355,3.355,0,0,0-3.355-3.355A3.355,3.355,0,0,0,0-52.908Z" transform="translate(0 56.263)" fill="none" stroke="#fff" stroke-linecap="round" stroke-linejoin="round" stroke-miterlimit="10" stroke-width="1.2"/>
          </g>
          <g id="g5550" transform="translate(8.443 21.861)">
            <path id="path5552" d="M0-67.787v-1.279a3.019,3.019,0,0,1,3.019-3.019H6.877" transform="translate(0 72.085)" fill="none" stroke="#fff" stroke-linecap="round" stroke-linejoin="round" stroke-miterlimit="10" stroke-width="1.2"/>
          </g>
          <g id="g5554" transform="translate(15.152 27.55)">
            <path id="path5556" d="M0-78.252v-4.961" transform="translate(0 83.213)" fill="none" stroke="#fff" stroke-linecap="round" stroke-linejoin="round" stroke-miterlimit="10" stroke-width="1.2"/>
          </g>
          <g id="g5558" transform="translate(25.551 30.109)">
            <path id="path5560" d="M0-37.891v-2.4" transform="translate(0 40.293)" fill="none" stroke="#fff" stroke-linecap="round" stroke-linejoin="round" stroke-miterlimit="10" stroke-width="1.2"/>
          </g>
          <g id="g5562" transform="translate(15.152 20.016)">
            <path id="path5564" d="M0-74.942v-1.732a3.019,3.019,0,0,1,3.019-3.019H7.38A3.019,3.019,0,0,1,10.4-76.674v4.291" transform="translate(0 79.693)" fill="none" stroke="#fff" stroke-linecap="round" stroke-linejoin="round" stroke-miterlimit="10" stroke-width="1.2"/>
          </g>
          <g id="g5566" transform="translate(16.997 13.307)">
            <path id="path5568" d="M-105.815-52.908a3.354,3.354,0,0,1-3.355,3.355,3.354,3.354,0,0,1-3.355-3.355,3.355,3.355,0,0,1,3.355-3.355A3.355,3.355,0,0,1-105.815-52.908Z" transform="translate(112.524 56.263)" fill="none" stroke="#fff" stroke-linecap="round" stroke-linejoin="round" stroke-miterlimit="10" stroke-width="1.2"/>
          </g>
          <g id="g5570" transform="translate(22.867 24.629)">
            <path id="path5572" d="M0,0V8.722" fill="none" stroke="#fff" stroke-linecap="round" stroke-linejoin="round" stroke-miterlimit="10" stroke-width="1.2"/>
          </g>
          <g id="g5574" transform="translate(17.836 24.629)">
            <path id="path5576" d="M0-137.559v-8.722" transform="translate(0 146.281)" fill="none" stroke="#fff" stroke-linecap="round" stroke-linejoin="round" stroke-miterlimit="10" stroke-width="1.2"/>
          </g>
          <g id="g5578" transform="translate(0.596 0.596)">
            <path id="path5580" d="M-623.154-340.657v-3.688l-4.184-.872a15.685,15.685,0,0,0-.726-2.72l3.186-2.845-1.844-3.194-4.062,1.338a15.9,15.9,0,0,0-1.988-1.988l1.338-4.062-3.194-1.844-2.845,3.186a15.7,15.7,0,0,0-2.72-.726l-.872-4.184h-3.688l-.872,4.184a15.7,15.7,0,0,0-2.72.726l-2.845-3.186-3.194,1.844,1.338,4.062a15.9,15.9,0,0,0-1.988,1.988l-4.062-1.338-1.844,3.194,3.186,2.845a15.69,15.69,0,0,0-.726,2.72l-4.184.872v3.688l4.184.872a15.693,15.693,0,0,0,.726,2.72l-3.186,2.845,1.844,3.194,4.062-1.338a15.9,15.9,0,0,0,1.988,1.988l-1.338,4.062,3.194,1.844,2.845-3.186a15.69,15.69,0,0,0,2.72.726l.872,4.184h3.688l.872-4.184a15.689,15.689,0,0,0,2.72-.726l2.845,3.186,3.194-1.844-1.338-4.062a15.908,15.908,0,0,0,1.988-1.988l4.062,1.338,1.844-3.194-3.186-2.845a15.688,15.688,0,0,0,.726-2.72Z" transform="translate(662.665 362.256)" fill="none" stroke="#fff" stroke-linecap="round" stroke-linejoin="round" stroke-miterlimit="10" stroke-width="1.2"/>
          </g>
          <g id="g5582" transform="translate(7.101 7.101)">
            <path id="path5584" d="M-371.448-77.524a13.193,13.193,0,0,1,2.95,8.335,13.251,13.251,0,0,1-13.251,13.251A13.251,13.251,0,0,1-395-69.189,13.251,13.251,0,0,1-381.748-82.44a13.192,13.192,0,0,1,8.335,2.95" transform="translate(394.999 82.44)" fill="none" stroke="#fff" stroke-linecap="round" stroke-linejoin="round" stroke-miterlimit="10" stroke-width="1.2"/>
          </g>
        </g>
      </g>
    </g>
  </g>
</svg>
