<svg xmlns="http://www.w3.org/2000/svg" width="125.624" height="128.14" viewBox="0 0 125.624 128.14">
  <g id="_35" data-name="35" transform="translate(-19 -17.197)">
    <path id="Trazado_726417" data-name="Trazado 726417" d="M78.228,26.26a2.441,2.441,0,0,1-2.443-2.443V19.64a2.443,2.443,0,0,1,4.885,0v4.178a2.441,2.441,0,0,1-2.443,2.443Z" transform="translate(22.476 0)" fill="#221766"/>
    <path id="Trazado_726418" data-name="Trazado 726418" d="M0,0H125.623V7.948a9.613,9.613,0,0,1-9.613,9.613H9.613A9.613,9.613,0,0,1,0,7.948Z" transform="translate(144.623 145.337) rotate(180)" fill="#0ce6ea"/>
    <path id="Trazado_726419" data-name="Trazado 726419" d="M19,51.527V86.988A4.312,4.312,0,0,0,23.313,91.3H45.646a4.312,4.312,0,0,0,4.312-4.312V77.5a8.915,8.915,0,0,1,8.914-8.914H80.382A8.914,8.914,0,0,1,89.3,77.5V120.16h44.1V51.527a15.089,15.089,0,0,0-15.089-15.089H34.089A15.089,15.089,0,0,0,19,51.527Z" transform="translate(0 7.616)" fill="#ff3e7c"/>
    <path id="Trazado_726420" data-name="Trazado 726420" d="M100.956,48.879h11.228V79.967H100.956Z" transform="translate(32.44 12.54)" fill="#0ce6ea"/>
    <circle id="Elipse_4588" data-name="Elipse 4588" cx="10.33" cy="10.33" r="10.33" transform="translate(96.406 70.75) rotate(-45)" fill="#ffc653"/>
    <path id="Trazado_726421" data-name="Trazado 726421" d="M30.781,94.768a2.444,2.444,0,0,1-2.443-2.443V82.893a2.443,2.443,0,0,1,4.885,0v9.429a2.444,2.444,0,0,1-2.443,2.447Z" transform="translate(3.696 25.037)" fill="#221766"/>
    <path id="Trazado_726422" data-name="Trazado 726422" d="M38.051,51.142a4.637,4.637,0,1,1-4.636-4.635,4.637,4.637,0,0,1,4.636,4.635Z" transform="translate(3.87 11.601)" fill="#ffc653"/>
    <path id="Trazado_726423" data-name="Trazado 726423" d="M24.756,75.742H39.643v4.582a3.954,3.954,0,0,1-3.954,3.954H28.709a3.954,3.954,0,0,1-3.954-3.954V75.742Z" transform="translate(2.278 23.173)" fill="#ef266f"/>
    <g id="Grupo_958227" data-name="Grupo 958227" transform="translate(43.093 23.817)">
      <path id="Trazado_726424" data-name="Trazado 726424" d="M36.261,29.963H49.322V39H36.261Z" transform="translate(-36.261 -18.764)" fill="#ffc653"/>
      <path id="Trazado_726425" data-name="Trazado 726425" d="M72.845,21.94H85.936V42.175H72.845Z" transform="translate(-21.78 -21.94)" fill="#ffc653"/>
    </g>
  </g>
</svg>
