<svg xmlns="http://www.w3.org/2000/svg" width="128" height="128" viewBox="0 0 128 128">
  <g id="Grupo_957719" data-name="Grupo 957719" transform="translate(-1051 -1106)">
    <circle id="Elipse_4551" data-name="Elipse 4551" cx="64" cy="64" r="64" transform="translate(1051 1106)" fill="#fac7d1"/>
    <g id="calendario" transform="translate(1078 1101.976)">
      <rect id="Rectángulo_340156" data-name="Rectángulo 340156" width="74.875" height="47.298" transform="translate(0 53.062)" fill="#efefef"/>
      <rect id="Rectángulo_340157" data-name="Rectángulo 340157" width="74.875" height="15.02" transform="translate(0 38.042)" fill="#fa7564"/>
      <g id="Grupo_957716" data-name="Grupo 957716" transform="translate(7.286 60.348)">
        <rect id="Rectángulo_340158" data-name="Rectángulo 340158" width="6.502" height="4.484" transform="translate(17.934)" fill="#cecece"/>
        <rect id="Rectángulo_340159" data-name="Rectángulo 340159" width="6.502" height="4.484" transform="translate(26.9)" fill="#cecece"/>
        <rect id="Rectángulo_340160" data-name="Rectángulo 340160" width="6.502" height="4.484" transform="translate(35.868)" fill="#cecece"/>
        <rect id="Rectángulo_340161" data-name="Rectángulo 340161" width="6.502" height="4.484" transform="translate(44.834)" fill="#cecece"/>
        <rect id="Rectángulo_340162" data-name="Rectángulo 340162" width="6.502" height="4.484" transform="translate(53.804)" fill="#cecece"/>
        <rect id="Rectángulo_340163" data-name="Rectángulo 340163" width="6.5" height="4.484" transform="translate(0 7.06)" fill="#cecece"/>
        <rect id="Rectángulo_340164" data-name="Rectángulo 340164" width="6.502" height="4.484" transform="translate(8.967 7.06)" fill="#cecece"/>
        <rect id="Rectángulo_340165" data-name="Rectángulo 340165" width="6.502" height="4.484" transform="translate(17.934 7.06)" fill="#cecece"/>
        <rect id="Rectángulo_340166" data-name="Rectángulo 340166" width="6.502" height="4.484" transform="translate(26.9 7.06)" fill="#cecece"/>
        <rect id="Rectángulo_340167" data-name="Rectángulo 340167" width="6.502" height="4.484" transform="translate(35.868 7.06)" fill="#cecece"/>
        <rect id="Rectángulo_340168" data-name="Rectángulo 340168" width="6.502" height="4.484" transform="translate(44.834 7.06)" fill="#cecece"/>
        <rect id="Rectángulo_340169" data-name="Rectángulo 340169" width="6.502" height="4.484" transform="translate(53.804 7.06)" fill="#cecece"/>
        <rect id="Rectángulo_340170" data-name="Rectángulo 340170" width="6.5" height="4.484" transform="translate(0 14.008)" fill="#cecece"/>
        <rect id="Rectángulo_340171" data-name="Rectángulo 340171" width="6.502" height="4.484" transform="translate(8.967 14.008)" fill="#cecece"/>
      </g>
      <rect id="Rectángulo_340172" data-name="Rectángulo 340172" width="6.502" height="4.484" transform="translate(25.221 74.356)" fill="#dd4e4e"/>
      <g id="Grupo_957717" data-name="Grupo 957717" transform="translate(7.286 74.356)">
        <rect id="Rectángulo_340173" data-name="Rectángulo 340173" width="6.502" height="4.484" transform="translate(26.9)" fill="#cecece"/>
        <rect id="Rectángulo_340174" data-name="Rectángulo 340174" width="6.502" height="4.484" transform="translate(35.868)" fill="#cecece"/>
        <rect id="Rectángulo_340175" data-name="Rectángulo 340175" width="6.502" height="4.484" transform="translate(44.834)" fill="#cecece"/>
        <rect id="Rectángulo_340176" data-name="Rectángulo 340176" width="6.502" height="4.484" transform="translate(53.804)" fill="#cecece"/>
        <rect id="Rectángulo_340177" data-name="Rectángulo 340177" width="6.5" height="4.484" transform="translate(0 7.06)" fill="#cecece"/>
        <rect id="Rectángulo_340178" data-name="Rectángulo 340178" width="6.502" height="4.484" transform="translate(8.967 7.06)" fill="#cecece"/>
        <rect id="Rectángulo_340179" data-name="Rectángulo 340179" width="6.502" height="4.484" transform="translate(17.934 7.06)" fill="#cecece"/>
        <rect id="Rectángulo_340180" data-name="Rectángulo 340180" width="6.502" height="4.484" transform="translate(26.9 7.06)" fill="#cecece"/>
        <rect id="Rectángulo_340181" data-name="Rectángulo 340181" width="6.502" height="4.484" transform="translate(35.868 7.06)" fill="#cecece"/>
        <rect id="Rectángulo_340182" data-name="Rectángulo 340182" width="6.502" height="4.484" transform="translate(44.834 7.06)" fill="#cecece"/>
        <rect id="Rectángulo_340183" data-name="Rectángulo 340183" width="6.502" height="4.484" transform="translate(53.804 7.06)" fill="#cecece"/>
        <rect id="Rectángulo_340184" data-name="Rectángulo 340184" width="6.5" height="4.484" transform="translate(0 14.121)" fill="#cecece"/>
        <rect id="Rectángulo_340185" data-name="Rectángulo 340185" width="6.502" height="4.484" transform="translate(8.967 14.121)" fill="#cecece"/>
        <rect id="Rectángulo_340186" data-name="Rectángulo 340186" width="6.502" height="4.484" transform="translate(17.934 14.121)" fill="#cecece"/>
        <rect id="Rectángulo_340187" data-name="Rectángulo 340187" width="6.502" height="4.484" transform="translate(26.9 14.121)" fill="#cecece"/>
      </g>
      <g id="Grupo_957718" data-name="Grupo 957718" transform="translate(2.69 36.024)">
        <path id="Trazado_725542" data-name="Trazado 725542" d="M21.647,37.257a1.963,1.963,0,0,1,1.569.785h1.457a3.35,3.35,0,0,0-3.026-2.018,3.251,3.251,0,0,0,0,6.5V41.292a2.008,2.008,0,0,1-2.017-2.017A2.169,2.169,0,0,1,21.647,37.257Z" transform="translate(-18.397 -36.024)" fill="#20262d"/>
        <path id="Trazado_725543" data-name="Trazado 725543" d="M76.068,37.257a1.963,1.963,0,0,1,1.569.785h1.457a3.351,3.351,0,0,0-3.026-2.018,3.251,3.251,0,0,0,0,6.5V41.292a2.008,2.008,0,0,1-2.017-2.017A2.083,2.083,0,0,1,76.068,37.257Z" transform="translate(-64.859 -36.024)" fill="#20262d"/>
        <path id="Trazado_725544" data-name="Trazado 725544" d="M129.72,37.257a1.963,1.963,0,0,1,1.569.785h1.457a3.351,3.351,0,0,0-3.026-2.018,3.251,3.251,0,0,0,0,6.5V41.292a2.008,2.008,0,0,1-2.017-2.017A2.083,2.083,0,0,1,129.72,37.257Z" transform="translate(-110.665 -36.024)" fill="#20262d"/>
        <path id="Trazado_725545" data-name="Trazado 725545" d="M184.141,37.257a1.964,1.964,0,0,1,1.569.785h1.457a3.351,3.351,0,0,0-3.026-2.018,3.251,3.251,0,0,0,0,6.5V41.292a2.009,2.009,0,0,1-2.018-2.017A2.084,2.084,0,0,1,184.141,37.257Z" transform="translate(-157.128 -36.024)" fill="#20262d"/>
        <path id="Trazado_725546" data-name="Trazado 725546" d="M237.788,37.257a1.96,1.96,0,0,1,1.569.785h1.457a3.35,3.35,0,0,0-3.026-2.018,3.251,3.251,0,0,0,0,6.5V41.292a2.009,2.009,0,0,1-2.018-2.017A2.085,2.085,0,0,1,237.788,37.257Z" transform="translate(-202.929 -36.024)" fill="#20262d"/>
        <path id="Trazado_725547" data-name="Trazado 725547" d="M292.2,37.257a1.962,1.962,0,0,1,1.569.785h1.458a3.35,3.35,0,0,0-3.026-2.018,3.251,3.251,0,1,0,0,6.5V41.292a2.008,2.008,0,0,1-2.017-2.017A2.083,2.083,0,0,1,292.2,37.257Z" transform="translate(-249.386 -36.024)" fill="#20262d"/>
        <path id="Trazado_725548" data-name="Trazado 725548" d="M345.861,37.257a1.962,1.962,0,0,1,1.569.785h1.458a3.351,3.351,0,0,0-3.026-2.018,3.251,3.251,0,1,0,0,6.5V41.292a2.008,2.008,0,0,1-2.017-2.017A2.083,2.083,0,0,1,345.861,37.257Z" transform="translate(-295.197 -36.024)" fill="#20262d"/>
        <path id="Trazado_725549" data-name="Trazado 725549" d="M399.508,37.257a1.962,1.962,0,0,1,1.569.785h1.458a3.35,3.35,0,0,0-3.026-2.018,3.251,3.251,0,1,0,0,6.5V41.292a2.008,2.008,0,0,1-2.017-2.017A2.083,2.083,0,0,1,399.508,37.257Z" transform="translate(-340.999 -36.024)" fill="#20262d"/>
        <path id="Trazado_725550" data-name="Trazado 725550" d="M453.933,37.257a1.964,1.964,0,0,1,1.57.785h1.457a3.352,3.352,0,0,0-3.027-2.018,3.251,3.251,0,0,0,0,6.5V41.292a2.008,2.008,0,0,1-2.017-2.017A2.083,2.083,0,0,1,453.933,37.257Z" transform="translate(-387.466 -36.024)" fill="#20262d"/>
      </g>
      <path id="Trazado_725551" data-name="Trazado 725551" d="M436.122,411.193V400.1h11.1Z" transform="translate(-372.343 -310.83)" fill="#cecece"/>
    </g>
  </g>
</svg>
