<svg xmlns="http://www.w3.org/2000/svg" width="63" height="63" viewBox="0 0 63 63">
  <g id="_4" data-name="4" transform="translate(-906 -889)">
    <circle id="Elipse_4556" data-name="Elipse 4556" cx="31.5" cy="31.5" r="31.5" transform="translate(906 889)" fill="#ff6e33"/>
    <path id="Trazado_727153" data-name="Trazado 727153" d="M7.948-17.4h3.183q3.784,0,3.784-3.7a3.2,3.2,0,0,0-.9-2.352,3.416,3.416,0,0,0-2.542-.911,3.657,3.657,0,0,0-2.332.781,2.382,2.382,0,0,0-.991,1.942H1.4a6.906,6.906,0,0,1,1.281-4.1,8.461,8.461,0,0,1,3.553-2.813,12.149,12.149,0,0,1,4.995-1.011,11.937,11.937,0,0,1,7.647,2.222,7.387,7.387,0,0,1,2.783,6.106,6.157,6.157,0,0,1-1.151,3.553,8.2,8.2,0,0,1-3.353,2.713A7.837,7.837,0,0,1,20.8-12.422a6.722,6.722,0,0,1,1.321,4.234,7.521,7.521,0,0,1-3,6.246A12.465,12.465,0,0,1,11.231.4,12.927,12.927,0,0,1,5.916-.691,8.328,8.328,0,0,1,2.2-3.714,7.859,7.859,0,0,1,.941-8.108H7.728A3.038,3.038,0,0,0,8.809-5.786a3.817,3.817,0,0,0,2.663.981A4,4,0,0,0,14.314-5.8a3.312,3.312,0,0,0,1.061-2.532,3.872,3.872,0,0,0-1.1-3.123,4.6,4.6,0,0,0-3.043-.921H7.948Z" transform="translate(926 935)" fill="#fff"/>
  </g>
</svg>
