<svg xmlns="http://www.w3.org/2000/svg" width="105" height="105" viewBox="0 0 105 105">
  <g id="_4" data-name="4" transform="translate(-475 -1814)">
    <g id="Grupo_958352" data-name="Grupo 958352" transform="translate(0 383)">
      <circle id="Elipse_4624" data-name="Elipse 4624" cx="52.5" cy="52.5" r="52.5" transform="translate(475 1431)" fill="#ff6e33"/>
    </g>
    <g id="flecha" transform="translate(494.993 1834.002)">
      <path id="Trazado_726817" data-name="Trazado 726817" d="M34.317,26.8h-4.3V38.661l-5.279,5.279a3.971,3.971,0,0,0,0,5.612L27.791,52.6H10.675a2.157,2.157,0,0,1-2.15-2.15V26.8H4.236A3.216,3.216,0,0,1,1.677,21.62L16.717,2.247a3.233,3.233,0,0,1,5.107,0L36.875,21.62A3.216,3.216,0,0,1,34.317,26.8Z" transform="translate(0.075 0.075)" fill="#e2eacb"/>
      <path id="Trazado_726818" data-name="Trazado 726818" d="M25.44,36.858l-5.279,5.279a3.971,3.971,0,0,0,0,5.612L23.214,50.8H26.44l-3.053-3.053a3.971,3.971,0,0,1,0-5.612l5.279-5.279V25H25.44Z" transform="translate(1.426 1.877)" fill="#549414"/>
      <path id="Trazado_726819" data-name="Trazado 726819" d="M35.712,21.62,20.661,2.246a3.219,3.219,0,0,0-4.161-.8,3.207,3.207,0,0,1,.941.8L32.492,21.62A3.216,3.216,0,0,1,29.928,26.8h3.225a3.216,3.216,0,0,0,2.559-5.182Z" transform="translate(1.238 0.076)" fill="#549414"/>
      <path id="Trazado_726820" data-name="Trazado 726820" d="M60.832,26.847V39.49A3.971,3.971,0,0,1,59.671,42.3L41.416,60.551a3.971,3.971,0,0,1-5.612,0L23.161,47.908a3.971,3.971,0,0,1,0-5.612L41.416,24.041a3.971,3.971,0,0,1,2.806-1.161H56.865a3.964,3.964,0,0,1,3.967,3.967Z" transform="translate(1.652 1.718)" fill="#ffdf00"/>
      <path id="Trazado_726821" data-name="Trazado 726821" d="M55.818,22.88H52.592a3.964,3.964,0,0,1,3.967,3.967V39.49A3.971,3.971,0,0,1,55.4,42.3L37.143,60.551a3.947,3.947,0,0,1-1.193.808,3.964,3.964,0,0,0,4.419-.808L58.624,42.3a3.971,3.971,0,0,0,1.161-2.806V26.847a3.964,3.964,0,0,0-3.967-3.967Z" transform="translate(2.699 1.718)" fill="#fec108"/>
      <rect id="Rectángulo_340458" data-name="Rectángulo 340458" width="17.215" height="22.577" rx="2" transform="translate(44.052 30.848) rotate(45)" fill="#0ce6ea"/>
      <path id="Trazado_726822" data-name="Trazado 726822" d="M52.007,39.292l-9.133-9.138a2.15,2.15,0,0,0-3.04,0l-.092.092,9.04,9.04a2.15,2.15,0,0,1,0,3.04L35.95,55.164l.092.092a2.15,2.15,0,0,0,3.04,0L52.007,42.333A2.15,2.15,0,0,0,52.007,39.292Z" transform="translate(2.699 2.217)" fill="#90ac00"/>
      <path id="Trazado_726823" data-name="Trazado 726823" d="M44.387,29.472a3.3,3.3,0,0,0-4.562,0L26.9,42.4a3.225,3.225,0,0,0,0,4.561l9.138,9.133a3.225,3.225,0,0,0,4.561,0L53.522,43.166a3.225,3.225,0,0,0,0-4.563ZM52,41.645,39.073,54.569a1.075,1.075,0,0,1-1.52,0L28.415,45.43a1.075,1.075,0,0,1,0-1.519l12.93-12.919a1.1,1.1,0,0,1,1.519,0L52,40.124a1.075,1.075,0,0,1,0,1.521Z" transform="translate(1.949 2.145)"/>
      <path id="Trazado_726824" data-name="Trazado 726824" d="M45.343,38.036a1.077,1.077,0,1,0-1.523-1.523l-.108.115a4.019,4.019,0,0,0-4.826,6.343,1.907,1.907,0,0,1,.562,1.346,1.866,1.866,0,0,1-1.874,1.877,1.908,1.908,0,0,1-1.364-3.239,1.076,1.076,0,1,0-1.529-1.516,4.028,4.028,0,0,0-.63,4.838l-.115.115a1.075,1.075,0,1,0,1.52,1.52l.114-.114a4.013,4.013,0,0,0,1.984.545h.016A4.03,4.03,0,0,0,40.4,41.454a1.882,1.882,0,1,1,2.677.016,1.075,1.075,0,1,0,1.52,1.52,4.029,4.029,0,0,0,.63-4.838Z" transform="translate(2.516 2.711)"/>
      <path id="Trazado_726825" data-name="Trazado 726825" d="M62.67,22.892l-1.438,1.438a5,5,0,0,0-2.715-.807H45.874A5.078,5.078,0,0,0,42.308,25L31.166,36.142V27.953h3.225A4.29,4.29,0,0,0,37.8,21.037L22.747,1.662a4.308,4.308,0,0,0-6.8,0L.9,21.04a4.291,4.291,0,0,0,3.409,6.913H7.525V50.53a3.225,3.225,0,0,0,3.225,3.225h16.67L36.7,63.03a5.045,5.045,0,0,0,7.132,0L62.084,44.775a5.085,5.085,0,0,0,1.475-3.566V28.565a5,5,0,0,0-.807-2.715l1.438-1.438a1.075,1.075,0,1,0-1.52-1.52ZM10.75,51.6A1.075,1.075,0,0,1,9.675,50.53V26.877A1.075,1.075,0,0,0,8.6,25.8H4.311A2.139,2.139,0,0,1,2.6,22.362L17.64,2.986a2.228,2.228,0,0,1,3.411,0L36.1,22.357a2.1,2.1,0,0,1,.23,2.25,2.121,2.121,0,0,1-1.951,1.2h-4.29a1.075,1.075,0,0,0-1.075,1.075V38.292l-4.964,4.963a5.045,5.045,0,0,0,0,7.132L25.271,51.6ZM61.409,28.565V41.208a2.916,2.916,0,0,1-.846,2.043L42.308,61.506a2.964,2.964,0,0,1-4.092,0L25.573,48.863a2.9,2.9,0,0,1,0-4.092L43.829,26.516a2.9,2.9,0,0,1,2.043-.846H58.517a2.869,2.869,0,0,1,1.137.234L57.6,27.959a3.225,3.225,0,1,0,1.517,1.523l2.052-2.055a2.869,2.869,0,0,1,.237,1.137ZM56.979,30.1a1.075,1.075,0,1,1-.76-.314A1.075,1.075,0,0,1,56.979,30.1Z" transform="translate(0)"/>
    </g>
  </g>
</svg>
