<svg xmlns="http://www.w3.org/2000/svg" xmlns:xlink="http://www.w3.org/1999/xlink" width="105" height="105" viewBox="0 0 105 105">
  <defs>
    <clipPath id="clip-path">
      <path id="path6903" d="M0-682.665H70.251v70.251H0Z" transform="translate(0 682.665)"/>
    </clipPath>
  </defs>
  <g id="_5" data-name="5" transform="translate(-748 -1814)">
    <g id="Grupo_958353" data-name="Grupo 958353" transform="translate(0 383)">
      <circle id="Elipse_4625" data-name="Elipse 4625" cx="52.5" cy="52.5" r="52.5" transform="translate(748 1431)" fill="#0ce6ea"/>
    </g>
    <g id="g6897" transform="translate(760 2513.666)">
      <g id="g6899" transform="translate(0 -682.665)">
        <g id="g6901" clip-path="url(#clip-path)">
          <g id="g6907" transform="translate(45.377 7.697)">
            <path id="path6909" d="M-28.482,0l-3.267,9.3a26.673,26.673,0,0,1,5.056,1.14,26.834,26.834,0,0,1,4.745,2.089l3.267-9.3Z" transform="translate(31.749)" fill="#eff6ff" fill-rule="evenodd"/>
          </g>
          <g id="g6911" transform="translate(44.62 1.682)">
            <path id="path6913" d="M-11.207-9.1l-1.21,3.672a1.522,1.522,0,0,0,.965,1.917l2.326.762L.671.479l2.322.766A1.524,1.524,0,0,0,4.911.277L6.12-3.4a1.524,1.524,0,0,0-.968-1.918L-9.29-10.07a1.524,1.524,0,0,0-1.917.969" transform="translate(12.493 10.145)" fill="#375e7d" fill-rule="evenodd"/>
          </g>
          <g id="g6915" transform="translate(56.528 5.336)">
            <path id="path6917" d="M-31.194-67.443a1.524,1.524,0,0,0,1.918-.969l1.209-3.672A1.524,1.524,0,0,0-29.035-74l-3.578-1.179a1.524,1.524,0,0,1,.969,1.918l-1.21,3.672a1.524,1.524,0,0,1-1.917.968h.008l1.248.412Z" transform="translate(34.772 75.18)" fill="#2b4d66" fill-rule="evenodd"/>
          </g>
          <g id="g6919" transform="translate(15.966 15.311)">
            <path id="path6921" d="M-159.517-452.575A26.622,26.622,0,0,0-125.9-469.533a26.631,26.631,0,0,0-12.213-31.525,26.828,26.828,0,0,0-4.745-2.089,26.684,26.684,0,0,0-5.056-1.14,26.6,26.6,0,0,0-16.67,3.423,26.511,26.511,0,0,0-11.882,14.675,26.62,26.62,0,0,0,16.954,33.614" transform="translate(177.816 504.49)" fill="#375e7d" fill-rule="evenodd"/>
          </g>
          <g id="g6923" transform="translate(21.842 21.188)">
            <path id="path6925" d="M-237.479-9.131a20.747,20.747,0,0,0-26.2,13.217,20.745,20.745,0,0,0,13.216,26.193,20.745,20.745,0,0,0,26.2-13.213l.012-.039A20.745,20.745,0,0,0-237.479-9.131" transform="translate(264.721 10.178)" fill="#eff6ff" fill-rule="evenodd"/>
          </g>
          <g id="g6927" transform="translate(43.509 22.236)">
            <path id="path6929" d="M-48.6,0l-5.406,16.414a3.537,3.537,0,0,0,2.182,4.325l16.453,5.418A20.745,20.745,0,0,0-48.6,0" transform="translate(54.174)" fill="#eb5468" fill-rule="evenodd"/>
          </g>
          <g id="g6931" transform="translate(39.18 38.477)">
            <path id="path6933" d="M-39.209-1.5A3.426,3.426,0,0,0-43.534.677,3.426,3.426,0,0,0-41.352,5,3.425,3.425,0,0,0-37.027,2.82,3.426,3.426,0,0,0-39.209-1.5" transform="translate(43.707 1.677)" fill="#ffd772" fill-rule="evenodd"/>
          </g>
          <g id="g6935" transform="translate(52.876 23.916)">
            <path id="path6937" d="M-82.258-213.381a20.756,20.756,0,0,0-9.436-24.477,45.1,45.1,0,0,1,2.287,14.318,46.246,46.246,0,0,1-.622,7.6Z" transform="translate(91.694 237.858)" fill="#e5384f" fill-rule="evenodd"/>
          </g>
          <g id="g6939" transform="translate(42.472 16.192)">
            <path id="path6941" d="M-221.479-297.065a26.631,26.631,0,0,0-12.213-31.525,26.221,26.221,0,0,0-3.435-1.618c-.432-.167-.867-.323-1.311-.47-.521-.171-1.042-.327-1.567-.463a39.822,39.822,0,0,1,3.524,7.725,20.756,20.756,0,0,1,9.436,24.477c0,.012-.008.023-.012.039a20.726,20.726,0,0,1-13.952,13.443,32.616,32.616,0,0,1-5.877,6.694,26.628,26.628,0,0,0,25.406-18.3" transform="translate(246.885 331.142)" fill="#2b4d66" fill-rule="evenodd"/>
          </g>
          <g id="g6943" transform="translate(48.349 45.834)">
            <path id="path6945" d="M0-139.835a20.726,20.726,0,0,0,13.952-13.442l.012-.039-7.771-2.559a42.394,42.394,0,0,1-3.874,12.046A37.855,37.855,0,0,1,0-139.835" transform="translate(0 155.876)" fill="#d9eeff" fill-rule="evenodd"/>
          </g>
          <g id="g6947" transform="translate(52.23 11.127)">
            <path id="path6949" d="M-29.94-66.391l2.12-6.437-1.256-.412-2.322-.766-1.976,6a26.2,26.2,0,0,1,3.434,1.618" transform="translate(33.375 74.006)" fill="#d9eeff" fill-rule="evenodd"/>
          </g>
          <g id="g6951" transform="translate(36.128 58.211)">
            <path id="path6953" d="M0-29.33l1.109-3.365" transform="translate(0 32.695)" fill="none" stroke="#000" stroke-linecap="round" stroke-linejoin="round" stroke-miterlimit="10" stroke-width="2"/>
          </g>
          <g id="g6955" transform="translate(22.939 35.426)">
            <path id="path6957" d="M0,0,3.361,1.109" fill="none" stroke="#000" stroke-linecap="round" stroke-linejoin="round" stroke-miterlimit="10" stroke-width="2"/>
          </g>
          <g id="g6959" transform="translate(33.277 23.415)">
            <path id="path6961" d="M0,0,1.6,3.162" fill="none" stroke="#000" stroke-linecap="round" stroke-linejoin="round" stroke-miterlimit="10" stroke-width="2"/>
          </g>
          <g id="g6963" transform="translate(50.34 57.231)">
            <path id="path6965" d="M-13.9-27.567-15.5-30.729" transform="translate(15.496 30.729)" fill="none" stroke="#000" stroke-linecap="round" stroke-linejoin="round" stroke-miterlimit="10" stroke-width="2"/>
          </g>
          <g id="g6967" transform="translate(24.117 49.638)">
            <path id="path6969" d="M0-13.9,3.162-15.5" transform="translate(0 15.497)" fill="none" stroke="#000" stroke-linecap="round" stroke-linejoin="round" stroke-miterlimit="10" stroke-width="2"/>
          </g>
          <g id="g6971" transform="translate(15.966 15.311)">
            <path id="path6973" d="M-200.375-2.188a26.51,26.51,0,0,1,11.968,1.093,26.62,26.62,0,0,1,16.958,33.614,26.622,26.622,0,0,1-33.613,16.959,26.62,26.62,0,0,1-16.954-33.614A26.588,26.588,0,0,1-205.042-1.1" transform="translate(223.36 2.438)" fill="none" stroke="#000" stroke-linecap="round" stroke-linejoin="round" stroke-miterlimit="10" stroke-width="2"/>
          </g>
          <g id="g6975" transform="translate(45.863 9.078)">
            <path id="path6977" d="M0-56.117l2.124-6.437m9.8,3.228L9.8-52.889" transform="translate(0 62.555)" fill="none" stroke="#000" stroke-linecap="round" stroke-linejoin="round" stroke-miterlimit="10" stroke-width="2"/>
          </g>
          <g id="g6979" transform="translate(44.62 1.682)">
            <path id="path6981" d="M-72.577-15.375-77.7-17.063a1.524,1.524,0,0,0-1.917.969l-1.21,3.672a1.522,1.522,0,0,0,.965,1.917l14.446,4.757A1.524,1.524,0,0,0-63.5-6.717l1.21-3.672a1.524,1.524,0,0,0-.969-1.918l-4.928-1.622" transform="translate(80.903 17.139)" fill="none" stroke="#000" stroke-linecap="round" stroke-linejoin="round" stroke-miterlimit="10" stroke-width="2"/>
          </g>
          <g id="g6983" transform="translate(1.029 18.938)">
            <path id="path6985" d="M-111.554,0h-12.8m28.164,0h-8.51" transform="translate(124.35)" fill="none" stroke="#000" stroke-linecap="round" stroke-linejoin="round" stroke-miterlimit="10" stroke-width="2"/>
          </g>
          <g id="g6987" transform="translate(5.144 26.141)">
            <path id="path6989" d="M-84.327,0H-94" transform="translate(94)" fill="none" stroke="#000" stroke-linecap="round" stroke-linejoin="round" stroke-miterlimit="10" stroke-width="2"/>
          </g>
          <g id="g6991" transform="translate(1.029 40.544)">
            <path id="path6993" d="M-63.1,0h-7.238" transform="translate(70.338)" fill="none" stroke="#000" stroke-linecap="round" stroke-linejoin="round" stroke-miterlimit="10" stroke-width="2"/>
          </g>
          <g id="g6995" transform="translate(4.355 47.748)">
            <path id="path6997" d="M-103.449,0h-11.867" transform="translate(115.316)" fill="none" stroke="#000" stroke-linecap="round" stroke-linejoin="round" stroke-miterlimit="10" stroke-width="2"/>
          </g>
          <g id="g6999" transform="translate(7.342 54.951)">
            <path id="path7001" d="M-43.942,0h-5.041" transform="translate(48.983)" fill="none" stroke="#000" stroke-linecap="round" stroke-linejoin="round" stroke-miterlimit="10" stroke-width="2"/>
          </g>
          <g id="g7003" transform="translate(13.413 62.155)">
            <path id="path7005" d="M-96.667,0h-11.089" transform="translate(107.756)" fill="none" stroke="#000" stroke-linecap="round" stroke-linejoin="round" stroke-miterlimit="10" stroke-width="2"/>
          </g>
          <g id="g7007" transform="translate(45.859 42.975)">
            <path id="path7009" d="M-143.426-47.234l-16.453-5.418" transform="translate(159.878 52.652)" fill="none" stroke="#000" stroke-linecap="round" stroke-linejoin="round" stroke-miterlimit="10" stroke-width="2"/>
          </g>
          <g id="g7011" transform="translate(43.677 22.236)">
            <path id="path7013" d="M-47.13,0l-5.406,16.414" transform="translate(52.536)" fill="none" stroke="#000" stroke-linecap="round" stroke-linejoin="round" stroke-miterlimit="10" stroke-width="2"/>
          </g>
          <g id="g7015" transform="translate(32.328 32.878)">
            <path id="path7017" d="M0,0,7.472,6.811" fill="none" stroke="#000" stroke-linecap="round" stroke-linejoin="round" stroke-miterlimit="10" stroke-width="2"/>
          </g>
          <g id="g7019" transform="translate(43.032 45.34)">
            <path id="path7021" d="M0,0,.451,3.862" fill="none" stroke="#000" stroke-linecap="round" stroke-linejoin="round" stroke-miterlimit="10" stroke-width="2"/>
          </g>
          <g id="g7023" transform="translate(9.481 33.345)">
            <path id="path7025" d="M-69.711,0h-8" transform="translate(77.708)" fill="none" stroke="#000" stroke-linecap="round" stroke-linejoin="round" stroke-miterlimit="10" stroke-width="2"/>
          </g>
          <g id="g7027" transform="translate(40.959 38.478)">
            <path id="path7029" d="M-42.722-39.205A3.426,3.426,0,0,0-44.9-43.531a3.428,3.428,0,0,0-2.719.249,3.43,3.43,0,0,1,1.972,4.251A3.432,3.432,0,0,1-47.257-37.1c.07.027.14.05.21.074a3.425,3.425,0,0,0,4.325-2.182" transform="translate(47.623 43.703)" fill="#fbba58" fill-rule="evenodd"/>
          </g>
          <g id="g7031" transform="translate(39.18 38.477)">
            <path id="path7033" d="M-39.209-1.5A3.426,3.426,0,0,1-37.027,2.82,3.425,3.425,0,0,1-41.352,5,3.426,3.426,0,0,1-43.534.677,3.426,3.426,0,0,1-39.209-1.5Z" transform="translate(43.707 1.677)" fill="none" stroke="#000" stroke-linecap="round" stroke-linejoin="round" stroke-miterlimit="10" stroke-width="2"/>
          </g>
          <g id="g7035" transform="translate(21.842 21.188)">
            <path id="path7037" d="M-237.479-9.131a20.747,20.747,0,0,0-26.2,13.217,20.745,20.745,0,0,0,13.216,26.193,20.745,20.745,0,0,0,26.2-13.213l.012-.039A20.745,20.745,0,0,0-237.479-9.131Z" transform="translate(264.721 10.178)" fill="none" stroke="#000" stroke-linecap="round" stroke-linejoin="round" stroke-miterlimit="10" stroke-width="2"/>
          </g>
        </g>
      </g>
    </g>
  </g>
</svg>
