<svg xmlns="http://www.w3.org/2000/svg" xmlns:xlink="http://www.w3.org/1999/xlink" width="105" height="105" viewBox="0 0 105 105">
  <defs>
    <clipPath id="clip-path">
      <path id="path597" d="M0-682.665H66.661V-616H0Z" transform="translate(0 682.665)"/>
    </clipPath>
  </defs>
  <g id="_6" data-name="6" transform="translate(-1021 -1814)">
    <g id="Grupo_958354" data-name="Grupo 958354" transform="translate(0 383)">
      <circle id="Elipse_4626" data-name="Elipse 4626" cx="52.5" cy="52.5" r="52.5" transform="translate(1021 1431)" fill="#ff6e33"/>
    </g>
    <g id="g591" transform="translate(1040 2515.666)">
      <g id="g593" transform="translate(0 -682.665)">
        <g id="g595" clip-path="url(#clip-path)">
          <g id="g601" transform="translate(0.975 0.975)">
            <path id="path603" d="M-597.992-299a32.356,32.356,0,0,1-32.356,32.356A32.356,32.356,0,0,1-662.7-299a32.356,32.356,0,0,1,32.356-32.356A32.356,32.356,0,0,1-597.992-299" transform="translate(662.704 331.353)" fill="#d5efc8"/>
          </g>
          <g id="g605" transform="translate(25.321 1.413)">
            <path id="path607" d="M-373.006-294.948a32.355,32.355,0,0,1-32.355,32.355,32.412,32.412,0,0,1-8.01-1,32.666,32.666,0,0,0,5.316.434A32.356,32.356,0,0,0-375.7-295.514a32.368,32.368,0,0,0-24.328-31.352,32.364,32.364,0,0,1,27.021,31.918" transform="translate(413.371 326.866)" fill="#c1e9af"/>
          </g>
          <g id="g609" transform="translate(0.975 0.975)">
            <path id="path611" d="M-84.876-507.687a32.251,32.251,0,0,1-9.185-22.584,32.356,32.356,0,0,1,32.356-32.356,32.356,32.356,0,0,1,32.356,32.356,32.356,32.356,0,0,1-32.356,32.356A32.216,32.216,0,0,1-81.5-504.673" transform="translate(94.061 562.627)" fill="none" stroke="#000" stroke-linecap="round" stroke-linejoin="round" stroke-miterlimit="10" stroke-width="2"/>
          </g>
          <g id="g613" transform="translate(11.429 11.429)">
            <path id="path615" d="M-404.783-202.392a21.9,21.9,0,0,1-21.9,21.9,21.9,21.9,0,0,1-21.9-21.9,21.9,21.9,0,0,1,21.9-21.9,21.9,21.9,0,0,1,21.9,21.9" transform="translate(448.587 224.294)" fill="#faf7f7"/>
          </g>
          <g id="g617" transform="translate(22.678 13.069)">
            <path id="path619" d="M-300.831-187.231a21.9,21.9,0,0,1-21.9,21.9,21.8,21.8,0,0,1-10.653-2.761,21.842,21.842,0,0,0,8.331,1.64,21.9,21.9,0,0,0,21.9-21.9,21.893,21.893,0,0,0-11.249-19.14,21.907,21.907,0,0,1,13.57,20.261" transform="translate(333.386 207.493)" fill="#ede1dd"/>
          </g>
          <g id="g621" transform="translate(11.429 11.429)">
            <path id="path623" d="M-404.783-202.392a21.9,21.9,0,0,1-21.9,21.9,21.9,21.9,0,0,1-21.9-21.9,21.9,21.9,0,0,1,21.9-21.9A21.9,21.9,0,0,1-404.783-202.392Z" transform="translate(448.587 224.294)" fill="none" stroke="#000" stroke-linecap="round" stroke-linejoin="round" stroke-miterlimit="10" stroke-width="2"/>
          </g>
          <g id="g625" transform="translate(18.923 14.893)">
            <path id="path627" d="M-117.887-277.862h-.027a4.248,4.248,0,0,1-3.2-1.483l-8.509-9.927a4.248,4.248,0,0,1,.461-5.99,4.248,4.248,0,0,1,5.99.461l5.325,6.213,15.708-17.9a4.248,4.248,0,0,1,6-.384,4.248,4.248,0,0,1,.384,6L-114.7-279.3a4.248,4.248,0,0,1-3.19,1.442" transform="translate(130.644 307.931)" fill="#ade194"/>
          </g>
          <g id="g629" transform="translate(27.821 15.22)">
            <path id="path631" d="M-240.146-62.166l-18.939,21.572a4.246,4.246,0,0,1-3.19,1.443h-.027a4.246,4.246,0,0,1-3.2-1.484l-.634-.74a4.239,4.239,0,0,0,1.771.4h.027a4.246,4.246,0,0,0,3.19-1.443l18.939-21.572a4.25,4.25,0,0,0,.505-4.9,4.229,4.229,0,0,1,1.172.732,4.249,4.249,0,0,1,.384,6" transform="translate(266.134 68.893)" fill="#97da7b"/>
          </g>
          <g id="g633" transform="translate(18.923 14.893)">
            <path id="path635" d="M-207.8-76.705l6.019-6.858a4.248,4.248,0,0,1,6-.384,4.248,4.248,0,0,1,.384,6l-18.939,21.573a4.249,4.249,0,0,1-3.19,1.442h-.027a4.248,4.248,0,0,1-3.2-1.483l-8.509-9.927a4.248,4.248,0,0,1,.461-5.99,4.248,4.248,0,0,1,5.99.461l5.325,6.213,6.692-7.625" transform="translate(230.292 85.006)" fill="none" stroke="#000" stroke-linecap="round" stroke-linejoin="round" stroke-miterlimit="10" stroke-width="2"/>
          </g>
          <g id="g637" transform="translate(32.354 5.599)">
            <path id="path639" d="M-18.047-9.023a.976.976,0,0,1-.976.976A.976.976,0,0,1-20-9.023.976.976,0,0,1-19.023-10a.976.976,0,0,1,.976.976" transform="translate(20 10)"/>
          </g>
          <g id="g641" transform="translate(32.354 59.109)">
            <path id="path643" d="M-18.047-9.023a.976.976,0,0,1-.976.976A.976.976,0,0,1-20-9.023.976.976,0,0,1-19.023-10a.976.976,0,0,1,.976.976" transform="translate(20 10)"/>
          </g>
          <g id="g645" transform="translate(18.976 9.183)">
            <path id="path647" d="M-16.84-4.513A.976.976,0,0,1-17.2-3.179a.976.976,0,0,1-1.334-.357.976.976,0,0,1,.357-1.334.976.976,0,0,1,1.334.357" transform="translate(18.662 5.001)"/>
          </g>
          <g id="g649" transform="translate(45.732 55.525)">
            <path id="path651" d="M-16.84-4.513A.976.976,0,0,1-17.2-3.179a.976.976,0,0,1-1.334-.357.976.976,0,0,1,.357-1.334.976.976,0,0,1,1.334.357" transform="translate(18.662 5.001)"/>
          </g>
          <g id="g653" transform="translate(9.183 18.976)">
            <path id="path655" d="M-13.536-1.21A.976.976,0,0,1-13.179.123a.976.976,0,0,1-1.334.357A.976.976,0,0,1-14.87-.853a.976.976,0,0,1,1.334-.357" transform="translate(15.001 1.341)"/>
          </g>
          <g id="g657" transform="translate(55.525 45.732)">
            <path id="path659" d="M-13.536-1.21A.976.976,0,0,1-13.179.123a.976.976,0,0,1-1.334.357A.976.976,0,0,1-14.87-.853a.976.976,0,0,1,1.334-.357" transform="translate(15.001 1.341)"/>
          </g>
          <g id="g661" transform="translate(5.599 32.354)">
            <path id="path663" d="M-9.023,0a.977.977,0,0,1,.976.976.977.977,0,0,1-.976.976A.976.976,0,0,1-10,.976.976.976,0,0,1-9.023,0" transform="translate(10)"/>
          </g>
          <g id="g665" transform="translate(59.109 32.354)">
            <path id="path667" d="M-9.023,0a.976.976,0,0,1,.976.976.976.976,0,0,1-.976.976A.977.977,0,0,1-10,.976.977.977,0,0,1-9.023,0" transform="translate(10)"/>
          </g>
          <g id="g669" transform="translate(9.183 45.732)">
            <path id="path671" d="M-4.513-1.21a.976.976,0,0,1,1.334.357A.976.976,0,0,1-3.537.481.976.976,0,0,1-4.87.123.976.976,0,0,1-4.513-1.21" transform="translate(5.001 1.341)"/>
          </g>
          <g id="g673" transform="translate(18.976 55.525)">
            <path id="path675" d="M-1.21-4.513A.976.976,0,0,1,.123-4.87.976.976,0,0,1,.481-3.537a.976.976,0,0,1-1.334.357A.976.976,0,0,1-1.21-4.513" transform="translate(1.341 5.001)"/>
          </g>
          <g id="g677" transform="translate(45.732 9.183)">
            <path id="path679" d="M-1.21-4.513A.976.976,0,0,1,.123-4.87.976.976,0,0,1,.481-3.537a.976.976,0,0,1-1.334.357A.976.976,0,0,1-1.21-4.513" transform="translate(1.341 5.001)"/>
          </g>
        </g>
      </g>
    </g>
  </g>
</svg>
