<svg xmlns="http://www.w3.org/2000/svg" width="105" height="105" viewBox="0 0 105 105">
  <g id="_6" data-name="6" transform="translate(-475 -1431)">
    <circle id="Elipse_4624" data-name="Elipse 4624" cx="52.5" cy="52.5" r="52.5" transform="translate(475 1431)" fill="#ff6e33"/>
    <g id="sabana" transform="translate(431.717 1440.789)">
      <g id="Grupo_958300" data-name="Grupo 958300" transform="translate(69.625 11.848)">
        <path id="Trazado_726589" data-name="Trazado 726589" d="M174.25,157.212H132.73a.98.98,0,0,1-.98-.98V101.667a.98.98,0,0,1,.98-.98H174.25a.98.98,0,0,1,.98.98v54.565A.98.98,0,0,1,174.25,157.212Z" transform="translate(-123.054 -91.991)" fill="#9dcffd"/>
        <path id="Trazado_726590" data-name="Trazado 726590" d="M143.188,126.15H101.668a.98.98,0,0,1-.98-.98V70.6a.98.98,0,0,1,.98-.98h41.521a.98.98,0,0,1,.98.98V125.17A.98.98,0,0,1,143.188,126.15Z" transform="translate(-96.34 -65.277)" fill="#bedaff"/>
        <path id="Trazado_726591" data-name="Trazado 726591" d="M106.583,95.087H70.6a.98.98,0,0,1-.98-.98V39.542a.98.98,0,0,1,.98-.98h39.172a.98.98,0,0,1,.98.98V88.565Z" transform="translate(-69.625 -38.562)" fill="#f0fcff"/>
        <path id="Trazado_726592" data-name="Trazado 726592" d="M346.533,38.562h-4.348a.98.98,0,0,1,.98.98V88.565l-.84,2.519,5.188-2.519V39.542A.98.98,0,0,0,346.533,38.562Z" transform="translate(-304.032 -38.562)" fill="#d7ecfe"/>
        <path id="Trazado_726593" data-name="Trazado 726593" d="M167.041,147.1h19.715l2.462-3.6-2.462-5.1-7.3-1.445L165.2,138.4Z" transform="translate(-151.823 -123.186)" fill="#bedaff"/>
        <path id="Trazado_726594" data-name="Trazado 726594" d="M252.752,136.958l-2.324.236,9.625,1.209v8.7h4.2v-8.7Z" transform="translate(-225.119 -123.185)" fill="#9dcffd"/>
        <rect id="Rectángulo_340418" data-name="Rectángulo 340418" width="4.348" height="4.348" transform="translate(4.348 39.133)" fill="#7a6c79"/>
        <path id="Trazado_726595" data-name="Trazado 726595" d="M340.176,395.778h-5.542a.98.98,0,0,0-.98.98V402.3Z" transform="translate(-296.696 -345.775)" fill="#9dcffd"/>
        <rect id="Rectángulo_340419" data-name="Rectángulo 340419" width="4.348" height="4.348" transform="translate(4.348 47.829)" fill="#7a6c79"/>
        <path id="Trazado_726596" data-name="Trazado 726596" d="M186.756,120.566H165.2l1.839-4.348h19.715l2.295,2.376Z" transform="translate(-151.823 -105.348)" fill="#6bbcf9"/>
        <rect id="Rectángulo_340420" data-name="Rectángulo 340420" width="4.199" height="4.348" transform="translate(34.933 10.87)" fill="#38acf6"/>
        <rect id="Rectángulo_340421" data-name="Rectángulo 340421" width="10.87" height="13.044" transform="translate(4.348 10.87)" fill="#ff7e8e"/>
      </g>
      <g id="Grupo_958301" data-name="Grupo 958301" transform="translate(69.625 7.5)">
        <path id="Trazado_726597" data-name="Trazado 726597" d="M175.23,256.81V290.5a.98.98,0,0,1-.98.98H132.73a.98.98,0,0,1-.98-.98v-3.368" transform="translate(-123.054 -221.912)" fill="none" stroke="#000" stroke-linecap="round" stroke-linejoin="round" stroke-miterlimit="10" stroke-width="1.8"/>
        <path id="Trazado_726598" data-name="Trazado 726598" d="M411.309,100.687h3.368a.98.98,0,0,1,.98.98v16.3" transform="translate(-363.481 -87.643)" fill="none" stroke="#000" stroke-linecap="round" stroke-linejoin="round" stroke-miterlimit="10" stroke-width="1.8"/>
        <path id="Trazado_726599" data-name="Trazado 726599" d="M134.639,447.538H101.668a.98.98,0,0,1-.98-.98v-3.235" transform="translate(-96.34 -382.317)" fill="none" stroke="#000" stroke-linecap="round" stroke-linejoin="round" stroke-miterlimit="10" stroke-width="1.8"/>
        <path id="Trazado_726600" data-name="Trazado 726600" d="M376.527,69.625h3.368a.98.98,0,0,1,.98.98V125.17a.98.98,0,0,1-.98.98h-3.974" transform="translate(-333.046 -60.929)" fill="none" stroke="#000" stroke-linecap="round" stroke-linejoin="round" stroke-miterlimit="10" stroke-width="1.8"/>
        <path id="Trazado_726601" data-name="Trazado 726601" d="M69.625,46.579V39.542a.98.98,0,0,1,.98-.98h41.521a.98.98,0,0,1,.98.98V88.565l-6.522,6.522H70.6a.98.98,0,0,1-.98-.98V51.154" transform="translate(-69.625 -34.214)" fill="none" stroke="#000" stroke-linecap="round" stroke-linejoin="round" stroke-miterlimit="10" stroke-width="1.8"/>
        <line id="Línea_159" data-name="Línea 159" x2="13.763" transform="translate(14.858 9.924)" fill="none" stroke="#000" stroke-linecap="round" stroke-linejoin="round" stroke-miterlimit="10" stroke-width="1.8"/>
        <path id="Trazado_726602" data-name="Trazado 726602" d="M178.342,116.218h23.914v4.348H178.342" transform="translate(-163.124 -101)" fill="none" stroke="#000" stroke-linecap="round" stroke-linejoin="round" stroke-miterlimit="10" stroke-width="1.8"/>
        <rect id="Rectángulo_340422" data-name="Rectángulo 340422" width="10.87" height="13.044" transform="translate(4.348 15.218)" fill="none" stroke="#000" stroke-linecap="round" stroke-linejoin="round" stroke-miterlimit="10" stroke-width="1.8"/>
        <line id="Línea_160" data-name="Línea 160" y2="8.696" transform="translate(23.19 19.566)" fill="none" stroke="#000" stroke-linecap="round" stroke-linejoin="round" stroke-miterlimit="10" stroke-width="1.8"/>
        <line id="Línea_161" data-name="Línea 161" y2="8.696" transform="translate(31.161 19.566)" fill="none" stroke="#000" stroke-linecap="round" stroke-linejoin="round" stroke-miterlimit="10" stroke-width="1.8"/>
        <path id="Trazado_726603" data-name="Trazado 726603" d="M202.256,147.28v8.7H178.342" transform="translate(-163.124 -127.714)" fill="none" stroke="#000" stroke-linecap="round" stroke-linejoin="round" stroke-miterlimit="10" stroke-width="1.8"/>
        <line id="Línea_162" data-name="Línea 162" x2="4.348" transform="translate(4.348 32.61)" fill="none" stroke="#000" stroke-linecap="round" stroke-linejoin="round" stroke-miterlimit="10" stroke-width="1.8"/>
        <line id="Línea_163" data-name="Línea 163" x2="4.348" transform="translate(4.348 36.958)" fill="none" stroke="#000" stroke-linecap="round" stroke-linejoin="round" stroke-miterlimit="10" stroke-width="1.8"/>
        <line id="Línea_164" data-name="Línea 164" x2="24.828" transform="translate(13.044 32.61)" fill="none" stroke="#000" stroke-linecap="round" stroke-linejoin="round" stroke-miterlimit="10" stroke-width="1.8"/>
        <line id="Línea_165" data-name="Línea 165" x2="24.828" transform="translate(13.044 36.958)" fill="none" stroke="#000" stroke-linecap="round" stroke-linejoin="round" stroke-miterlimit="10" stroke-width="1.8"/>
        <rect id="Rectángulo_340423" data-name="Rectángulo 340423" width="4.348" height="4.348" transform="translate(4.348 43.481)" fill="none" stroke="#000" stroke-linecap="round" stroke-linejoin="round" stroke-miterlimit="10" stroke-width="1.8"/>
        <path id="Trazado_726604" data-name="Trazado 726604" d="M340.176,395.778h-5.542a.98.98,0,0,0-.98.98V402.3" transform="translate(-296.696 -341.427)" fill="none" stroke="#000" stroke-linecap="round" stroke-linejoin="round" stroke-miterlimit="10" stroke-width="1.8"/>
        <line id="Línea_166" data-name="Línea 166" x2="17.392" transform="translate(13.044 43.481)" fill="none" stroke="#000" stroke-linecap="round" stroke-linejoin="round" stroke-miterlimit="10" stroke-width="1.8"/>
        <line id="Línea_167" data-name="Línea 167" x2="13.044" transform="translate(13.044 47.829)" fill="none" stroke="#000" stroke-linecap="round" stroke-linejoin="round" stroke-miterlimit="10" stroke-width="1.8"/>
        <line id="Línea_168" data-name="Línea 168" x2="17.392" transform="translate(13.044 52.177)" fill="none" stroke="#000" stroke-linecap="round" stroke-linejoin="round" stroke-miterlimit="10" stroke-width="1.8"/>
        <rect id="Rectángulo_340424" data-name="Rectángulo 340424" width="4.348" height="4.348" transform="translate(4.348 52.177)" fill="none" stroke="#000" stroke-linecap="round" stroke-linejoin="round" stroke-miterlimit="10" stroke-width="1.8"/>
        <line id="Línea_169" data-name="Línea 169" x2="13.044" transform="translate(13.044 56.525)" fill="none" stroke="#000" stroke-linecap="round" stroke-linejoin="round" stroke-miterlimit="10" stroke-width="1.8"/>
        <path id="Trazado_726605" data-name="Trazado 726605" d="M105.035,16.61a2.174,2.174,0,0,1-2.174,2.174h0a2.174,2.174,0,0,1-2.174-2.174V9.674A2.174,2.174,0,0,1,102.861,7.5h0a2.174,2.174,0,0,1,2.174,2.174v2.174" transform="translate(-96.339 -7.5)" fill="none" stroke="#000" stroke-linecap="round" stroke-linejoin="round" stroke-miterlimit="10" stroke-width="1.8"/>
      </g>
    </g>
  </g>
</svg>
