<svg xmlns="http://www.w3.org/2000/svg" width="153" height="153" viewBox="0 0 153 153">
  <g id="_6" data-name="6" transform="translate(-461 -3493)">
    <g id="Elipse_4552" data-name="Elipse 4552" transform="translate(461 3493)" fill="#fff" stroke="#ff6e33" stroke-width="1">
      <circle cx="76.5" cy="76.5" r="76.5" stroke="none"/>
      <circle cx="76.5" cy="76.5" r="76" fill="none"/>
    </g>
    <g id="vestido" transform="translate(432.971 3515)">
      <g id="Grupo_957723" data-name="Grupo 957723" transform="translate(88.476 0)">
        <g id="Grupo_957722" data-name="Grupo 957722">
          <path id="Trazado_725570" data-name="Trazado 725570" d="M180.236,12.02a1.657,1.657,0,0,1-1.657-1.657V1.657a1.657,1.657,0,1,1,3.314,0v8.706A1.657,1.657,0,0,1,180.236,12.02Z" transform="translate(-178.579 0)" fill="#ffe07d"/>
        </g>
      </g>
      <g id="Grupo_957725" data-name="Grupo 957725" transform="translate(118.209 0)">
        <g id="Grupo_957724" data-name="Grupo 957724" transform="translate(0)">
          <path id="Trazado_725571" data-name="Trazado 725571" d="M319.548,12.02a1.657,1.657,0,0,1-1.657-1.657V1.657a1.657,1.657,0,0,1,3.314,0v8.706A1.657,1.657,0,0,1,319.548,12.02Z" transform="translate(-317.891 0)" fill="#ffe07d"/>
        </g>
      </g>
      <g id="Grupo_957726" data-name="Grupo 957726" transform="translate(64.029 42.306)">
        <path id="Trazado_725572" data-name="Trazado 725572" d="M120.179,198.227H89.821l-25.51,45.615a2.206,2.206,0,0,0,.457,2.727c3.829,3.4,16.393,12.6,40.232,12.6s36.4-9.2,40.232-12.6a2.206,2.206,0,0,0,.457-2.727Z" transform="translate(-64.029 -198.227)" fill="#9d66d5"/>
      </g>
      <g id="Grupo_957727" data-name="Grupo 957727" transform="translate(81.447 42.306)">
        <path id="Trazado_725573" data-name="Trazado 725573" d="M169.194,265.192a76.068,76.068,0,0,0,21.991-3.029,2.205,2.205,0,0,0,1.487-2.682l-16.335-61.255H162.051l-16.335,61.255a2.205,2.205,0,0,0,1.487,2.682A76.068,76.068,0,0,0,169.194,265.192Z" transform="translate(-145.642 -198.226)" fill="#bc95e2"/>
      </g>
      <g id="Grupo_957728" data-name="Grupo 957728" transform="translate(95.539 69.872)">
        <path id="Trazado_725574" data-name="Trazado 725574" d="M235.626,327.387c-.43,20.854-10.867,37.7-23.955,38.885a85.217,85.217,0,0,0,9.461.516,76.068,76.068,0,0,0,21.991-3.029,2.205,2.205,0,0,0,1.487-2.682Z" transform="translate(-211.671 -327.387)" fill="#ac80dd"/>
      </g>
      <g id="Grupo_957729" data-name="Grupo 957729" transform="translate(86.267 8.33)">
        <path id="Trazado_725575" data-name="Trazado 725575" d="M202.138,64.076l3.539-23.523a1.325,1.325,0,0,0-1.5-1.509c-3.034.454-9.16,1.948-11.633,6.729-2.515,4.862-4.4,8.717-5.183,10.334a.442.442,0,0,1-.8,0c-.783-1.618-2.668-5.472-5.183-10.334-2.473-4.781-8.6-6.274-11.633-6.729a1.325,1.325,0,0,0-1.5,1.509l3.539,23.523Z" transform="translate(-168.226 -39.029)" fill="#bc95e2"/>
      </g>
      <g id="Grupo_957731" data-name="Grupo 957731" transform="translate(103.343 40.649)">
        <g id="Grupo_957730" data-name="Grupo 957730">
          <path id="Trazado_725576" data-name="Trazado 725576" d="M249.892,200.473a1.657,1.657,0,0,1-1.657-1.657v-6.7a1.657,1.657,0,1,1,3.314,0v6.7A1.657,1.657,0,0,1,249.892,200.473Z" transform="translate(-248.235 -190.462)" fill="#ac80dd"/>
        </g>
      </g>
      <g id="Grupo_957733" data-name="Grupo 957733" transform="translate(107.752 27.255)">
        <g id="Grupo_957732" data-name="Grupo 957732">
          <path id="Trazado_725577" data-name="Trazado 725577" d="M270.551,137.3a1.658,1.658,0,0,1-1.539-2.273l2.51-6.275a1.657,1.657,0,0,1,3.078,1.231l-2.51,6.275A1.658,1.658,0,0,1,270.551,137.3Z" transform="translate(-268.894 -127.705)" fill="#ac80dd"/>
        </g>
      </g>
      <g id="Grupo_957735" data-name="Grupo 957735" transform="translate(96.422 27.255)">
        <g id="Grupo_957734" data-name="Grupo 957734" transform="translate(0)">
          <path id="Trazado_725578" data-name="Trazado 725578" d="M219.978,137.3a1.658,1.658,0,0,1-1.539-1.042l-2.51-6.275a1.657,1.657,0,0,1,3.078-1.231l2.51,6.275a1.658,1.658,0,0,1-1.539,2.273Z" transform="translate(-215.809 -127.706)" fill="#ac80dd"/>
        </g>
      </g>
      <g id="Grupo_957736" data-name="Grupo 957736" transform="translate(115.268 8.33)">
        <path id="Trazado_725579" data-name="Trazado 725579" d="M307.769,39.769l-3.657,24.31h4.911l3.539-23.523a1.326,1.326,0,0,0-1.511-1.508A24.806,24.806,0,0,0,307.769,39.769Z" transform="translate(-304.112 -39.033)" fill="#ac80dd"/>
      </g>
      <g id="Grupo_957737" data-name="Grupo 957737" transform="translate(89.821 33.377)">
        <path id="Trazado_725580" data-name="Trazado 725580" d="M184.878,156.39h30.358v8.929H184.878Z" transform="translate(-184.878 -156.39)" fill="#ffe07d"/>
      </g>
      <g id="Grupo_957738" data-name="Grupo 957738" transform="translate(115.268 33.377)">
        <path id="Trazado_725581" data-name="Trazado 725581" d="M304.112,156.39h4.911v8.929h-4.911Z" transform="translate(-304.112 -156.39)" fill="#ffd064"/>
      </g>
    </g>
  </g>
</svg>
