<svg xmlns="http://www.w3.org/2000/svg" width="63" height="63" viewBox="0 0 63 63">
  <g id="_6" data-name="6" transform="translate(3926 10794)">
    <circle id="Elipse_4841" data-name="Elipse 4841" cx="31.5" cy="31.5" r="31.5" transform="translate(-3926 -10794)" fill="#ff6e33"/>
    <path id="Trazado_727151" data-name="Trazado 727151" d="M2.182-14.238l1.782-14.91H21V-23.9H9.449l-.661,5.79a7.957,7.957,0,0,1,1.892-.744,8.632,8.632,0,0,1,2.292-.322,8.551,8.551,0,0,1,6.677,2.573q2.332,2.573,2.332,7.217A10.344,10.344,0,0,1,20.73-4.314,8.6,8.6,0,0,1,17.217-.821,11.092,11.092,0,0,1,11.872.4,11.935,11.935,0,0,1,6.727-.73a9.23,9.23,0,0,1-3.764-3.1A7.534,7.534,0,0,1,1.622-8.281H8.388A3.827,3.827,0,0,0,9.409-5.744a3.241,3.241,0,0,0,2.422.939q3.4,0,3.4-5.035,0-4.655-4.164-4.655a4.155,4.155,0,0,0-3.523,1.518Z" transform="translate(-3906 -10748)" fill="#fff"/>
  </g>
</svg>
