<svg xmlns="http://www.w3.org/2000/svg" width="153" height="153" viewBox="0 0 153 153">
  <g id="_7" data-name="7" transform="translate(-987 -3493)">
    <g id="Elipse_4553" data-name="Elipse 4553" transform="translate(987 3493)" fill="#fff" stroke="#ff6e33" stroke-width="1">
      <circle cx="76.5" cy="76.5" r="76.5" stroke="none"/>
      <circle cx="76.5" cy="76.5" r="76" fill="none"/>
    </g>
    <g id="Page-1" transform="translate(1019 3512)">
      <g id="_078---Stopwatch" data-name="078---Stopwatch" transform="translate(0 0)">
        <path id="Path" d="M27.051,2.722v9.457a29.492,29.492,0,0,0-3.525-.208A25.559,25.559,0,0,0,20,12.2V2.722Z" transform="translate(15.254 2.076)" fill="#7f8c8d" fill-rule="evenodd"/>
        <path id="Path-2" data-name="Path" d="M46.83,67.932a28.2,28.2,0,0,0,2.785,12.251,37.017,37.017,0,0,1-40.7-58.028,36.042,36.042,0,0,1,6.24-6.24A36.578,36.578,0,0,1,34.491,8.176,33.492,33.492,0,0,1,38.017,8c1.2,0,2.362.053,3.525.159v.018a37.017,37.017,0,0,1,33.121,31.57A28.172,28.172,0,0,0,46.83,67.932Z" transform="translate(0.763 6.102)" fill="#ecf0f1" fill-rule="evenodd"/>
        <path id="Path-3" data-name="Path" d="M59.169,25.363v-.018c-1.163-.106-2.327-.159-3.525-.159a33.492,33.492,0,0,0-3.525.176A36.578,36.578,0,0,0,32.781,33.1a36.042,36.042,0,0,0-6.24,6.24,37.033,37.033,0,0,0-4.089,39.273A37.017,37.017,0,0,1,8.914,22.155a36.042,36.042,0,0,1,6.24-6.24A36.578,36.578,0,0,1,34.491,8.176,33.492,33.492,0,0,1,38.017,8c1.2,0,2.362.053,3.525.159v.018a37,37,0,0,1,29.649,20.43,36.571,36.571,0,0,0-12.022-3.243Z" transform="translate(0.763 6.102)" fill="#fff" fill-rule="evenodd"/>
        <path id="Path-4" data-name="Path" d="M22.763,40.308A1.763,1.763,0,0,1,21,38.546V18.763a1.763,1.763,0,0,1,3.525,0V38.546A1.763,1.763,0,0,1,22.763,40.308Z" transform="translate(16.017 12.966)" fill="#e64c3c" fill-rule="evenodd"/>
        <g id="Grupo_957739" data-name="Grupo 957739" transform="translate(8.814 21.153)">
          <ellipse id="Oval" cx="2" cy="1.5" rx="2" ry="1.5" transform="translate(28.187 0.091)" fill="#7f8c8d"/>
          <circle id="Oval-2" data-name="Oval" cx="2" cy="2" r="2" transform="translate(28.187 56.092)" fill="#7f8c8d"/>
          <ellipse id="Oval-3" data-name="Oval" cx="1.5" cy="2" rx="1.5" ry="2" transform="translate(0.187 28.091)" fill="#7f8c8d"/>
          <circle id="Oval-4" data-name="Oval" cx="2" cy="2" r="2" transform="translate(3.187 42.092)" fill="#7f8c8d"/>
          <ellipse id="Oval-5" data-name="Oval" cx="1.5" cy="2" rx="1.5" ry="2" transform="translate(53.187 14.091)" fill="#7f8c8d"/>
          <ellipse id="Oval-6" data-name="Oval" cx="1.5" cy="2" rx="1.5" ry="2" transform="translate(14.187 3.091)" fill="#7f8c8d"/>
          <circle id="Oval-7" data-name="Oval" cx="2" cy="2" r="2" transform="translate(3.187 14.091)" fill="#7f8c8d"/>
          <circle id="Oval-8" data-name="Oval" cx="2" cy="2" r="2" transform="translate(42.187 3.091)" fill="#7f8c8d"/>
          <circle id="Oval-9" data-name="Oval" cx="1.5" cy="1.5" r="1.5" transform="translate(14.187 53.092)" fill="#7f8c8d"/>
        </g>
        <path id="Path-5" data-name="Path" d="M14.394,15.154a36.042,36.042,0,0,0-6.24,6.24L3.289,16.529a4.412,4.412,0,0,1,6.24-6.24Z" transform="translate(1.523 6.862)" fill="#bdc3c7" fill-rule="evenodd"/>
        <path id="Path-6" data-name="Path" d="M34.627,3.525a3.446,3.446,0,0,1-1.04,2.485A3.446,3.446,0,0,1,31.1,7.051H20.525A3.536,3.536,0,0,1,17,3.525,3.446,3.446,0,0,1,18.04,1.04,3.446,3.446,0,0,1,20.525,0H31.1a3.536,3.536,0,0,1,3.525,3.525Z" transform="translate(12.966 0)" fill="#f0c419" fill-rule="evenodd"/>
        <path id="Shape" d="M38.78,84.559a38.78,38.78,0,1,1,38.78-38.78A38.78,38.78,0,0,1,38.78,84.559Zm0-74.034A35.254,35.254,0,1,0,74.034,45.78,35.254,35.254,0,0,0,38.78,10.525Z" transform="translate(0 5.339)" fill="#3b97d3"/>
        <path id="Path-7" data-name="Path" d="M83.407,54.2A28.2,28.2,0,1,1,54.833,26.018,2.6,2.6,0,0,1,55.2,26,28.2,28.2,0,0,1,83.407,54.2Z" transform="translate(20.593 19.83)" fill="#0ce6ea" fill-rule="evenodd"/>
        <path id="Path-8" data-name="Path" d="M41.809,60.7a1.763,1.763,0,0,1-1.246-.516l-7.051-7.051A1.763,1.763,0,0,1,36,50.639l5.9,5.9L65.347,36.441a1.763,1.763,0,1,1,2.292,2.676L42.96,60.269a1.752,1.752,0,0,1-1.151.43Z" transform="translate(25.183 27.437)" fill="#fff" fill-rule="evenodd"/>
        <ellipse id="Oval-10" data-name="Oval" cx="5.5" cy="5" rx="5.5" ry="5" transform="translate(33 46.244)" fill="#7f8c8d"/>
      </g>
    </g>
  </g>
</svg>
