<svg xmlns="http://www.w3.org/2000/svg" width="105" height="105" viewBox="0 0 105 105">
  <g id="_7" data-name="7" transform="translate(-748 -1431)">
    <circle id="Elipse_4625" data-name="Elipse 4625" cx="52.5" cy="52.5" r="52.5" transform="translate(748 1431)" fill="#0ce6ea"/>
    <g id="patron-de-tela" transform="translate(764 1393.378)">
      <path id="Trazado_726606" data-name="Trazado 726606" d="M167.288,215.749H125.135a2.31,2.31,0,0,1-2.31-2.31V197.351H169.6v16.087A2.31,2.31,0,0,1,167.288,215.749Z" transform="translate(-105.095 -116.136)" fill="#0a81f9"/>
      <path id="Trazado_726607" data-name="Trazado 726607" d="M102,69.12c-4.6,0-8.323,4.957-8.323,11.073S97.407,91.265,102,91.265h42.658V69.12Z" transform="translate(-80.158 -6.416)" fill="#62b4fd"/>
      <path id="Trazado_726608" data-name="Trazado 726608" d="M135.373,69.12a25.492,25.492,0,0,0-2.444,11.073v.044a4.181,4.181,0,0,1-4.17,4.207H98.846a6.348,6.348,0,0,1-.883-.063c1.242,4.038,4.223,6.884,7.7,6.884h42.658V69.12Z" transform="translate(-83.822 -6.416)" fill="#27a2fb"/>
      <ellipse id="Elipse_4629" data-name="Elipse 4629" cx="8.323" cy="11.073" rx="8.323" ry="11.073" transform="translate(56.181 62.704)" fill="#89c6fc"/>
      <path id="Trazado_726609" data-name="Trazado 726609" d="M81.1,333.828H38.95a2.31,2.31,0,0,1-2.31-2.31V315.431H83.413v16.087a2.31,2.31,0,0,1-2.31,2.31Z" transform="translate(-31.351 -217.171)" fill="#fa4954"/>
      <path id="Trazado_726610" data-name="Trazado 726610" d="M77.078,315.431v9.753a2.309,2.309,0,0,1-2.309,2.309H36.64v4.026a2.309,2.309,0,0,0,2.309,2.31H81.1a2.309,2.309,0,0,0,2.309-2.31V315.431Z" transform="translate(-31.351 -217.171)" fill="#fa2a3b"/>
      <path id="Trazado_726611" data-name="Trazado 726611" d="M15.819,187.2c-4.6,0-8.323,4.957-8.323,11.073s3.726,11.073,8.323,11.073H58.476V187.2Z" transform="translate(-6.414 -107.451)" fill="#fa989e"/>
      <path id="Trazado_726612" data-name="Trazado 726612" d="M49.188,187.2a25.492,25.492,0,0,0-2.444,11.073v.044a4.181,4.181,0,0,1-4.17,4.207H12.661a6.346,6.346,0,0,1-.883-.062c1.242,4.038,4.223,6.884,7.7,6.884H62.14V187.2Z" transform="translate(-10.078 -107.451)" fill="#fb636f"/>
      <ellipse id="Elipse_4630" data-name="Elipse 4630" cx="8.323" cy="11.073" rx="8.323" ry="11.073" transform="translate(43.74 79.749)" fill="#ffc3c6"/>
      <path id="Trazado_726613" data-name="Trazado 726613" d="M408.043,72.486a13.753,13.753,0,0,1,1.364,6.071c0,6.115-3.726,11.073-8.323,11.073a6.439,6.439,0,0,1-2.443-.486c1.487,3.011,4.048,5,6.959,5,4.6,0,8.323-4.957,8.323-11.073C413.922,78.089,411.447,73.875,408.043,72.486Z" transform="translate(-341.096 -9.296)" fill="#62b4fd"/>
      <ellipse id="Elipse_4631" data-name="Elipse 4631" cx="4.686" cy="6.235" rx="4.686" ry="6.235" transform="translate(59.817 67.542)" fill="#62b4fd"/>
      <path id="Trazado_726614" data-name="Trazado 726614" d="M441.12,120.323c-.246,4.388-2.412,8.063-5.385,9.541a3.657,3.657,0,0,0,1.6.375c2.588,0,4.686-2.791,4.686-6.234A7.658,7.658,0,0,0,441.12,120.323Z" transform="translate(-372.836 -50.227)" fill="#0a81f9"/>
      <path id="Trazado_726615" data-name="Trazado 726615" d="M321.859,190.566a13.754,13.754,0,0,1,1.364,6.071c0,6.115-3.726,11.073-8.323,11.073a6.439,6.439,0,0,1-2.443-.486c1.487,3.011,4.048,5,6.959,5,4.6,0,8.323-4.957,8.323-11.073C327.738,196.169,325.263,191.955,321.859,190.566Z" transform="translate(-267.353 -110.331)" fill="#fa989e"/>
      <ellipse id="Elipse_4632" data-name="Elipse 4632" cx="4.686" cy="6.235" rx="4.686" ry="6.235" transform="translate(47.376 84.587)" fill="#fa989e"/>
      <path id="Trazado_726616" data-name="Trazado 726616" d="M354.936,238.4c-.246,4.388-2.412,8.063-5.385,9.541a3.657,3.657,0,0,0,1.6.375c2.588,0,4.686-2.791,4.686-6.234a7.659,7.659,0,0,0-.9-3.681Z" transform="translate(-299.093 -151.262)" fill="#fb636f"/>
      <path id="Trazado_726617" data-name="Trazado 726617" d="M71.254,65.3a8.454,8.454,0,0,0-6.75-3.675H21.846A8.454,8.454,0,0,0,15.1,65.3a14.149,14.149,0,0,0-2.655,8.48,15.307,15.307,0,0,0,.789,4.89H9.4a8.454,8.454,0,0,0-6.75,3.675,14.87,14.87,0,0,0,0,16.959,10.5,10.5,0,0,0,1.552,1.664v13.382A3.4,3.4,0,0,0,7.6,117.74H49.753a3.4,3.4,0,0,0,3.392-3.392v-.757a1.082,1.082,0,1,0-2.164,0v.757a1.229,1.229,0,0,1-1.227,1.227H7.6a1.229,1.229,0,0,1-1.227-1.227V102.336a7.557,7.557,0,0,0,3.034.641H50.98v6.009a1.082,1.082,0,1,0,2.164,0V102.9a8.2,8.2,0,0,0,4.417-2.2h4.632A3.4,3.4,0,0,0,65.586,97.3V85.851a8.713,8.713,0,0,0,5.668-3.594,14.87,14.87,0,0,0,0-16.959ZM52.063,100.812H9.4c-3.992,0-7.24-4.482-7.24-9.99s3.248-9.99,7.24-9.99H19.739a1.082,1.082,0,0,0,0-2.164h-4.2a12.93,12.93,0,0,1-.933-4.89c0-5.509,3.248-9.99,7.24-9.99H59.13A10.6,10.6,0,0,0,57.753,65.3a14.149,14.149,0,0,0-2.655,8.48A14.9,14.9,0,0,0,56.44,80.05a7.74,7.74,0,0,0-4.377-1.383H24.284a1.082,1.082,0,0,0,0,2.164H46.689a10.611,10.611,0,0,0-1.377,1.511,14.149,14.149,0,0,0-2.655,8.48,14.592,14.592,0,0,0,1.818,7.2,1.082,1.082,0,0,0,1.882-1.068,12.428,12.428,0,0,1-1.536-6.132c0-5.509,3.248-9.99,7.24-9.99s7.24,4.482,7.24,9.99-3.248,9.99-7.241,9.99ZM62.194,98.53H59.343a14.436,14.436,0,0,0,2.124-7.708,14.9,14.9,0,0,0-1.341-6.273,7.872,7.872,0,0,0,3.3,1.3V97.3a1.229,1.229,0,0,1-1.227,1.227ZM64.5,83.767c-3.992,0-7.24-4.482-7.24-9.99s3.248-9.99,7.24-9.99,7.24,4.482,7.24,9.99S68.5,83.767,64.5,83.767Z" transform="translate(0 0)"/>
      <path id="Trazado_726618" data-name="Trazado 726618" d="M412.657,95.139c-3.181,0-5.768,3.282-5.768,7.317s2.588,7.317,5.768,7.317,5.768-3.282,5.768-7.317-2.588-7.317-5.768-7.317Zm0,12.469c-1.954,0-3.6-2.359-3.6-5.152s1.65-5.152,3.6-5.152,3.6,2.359,3.6,5.152S414.611,107.608,412.657,107.608Z" transform="translate(-348.154 -28.679)"/>
      <path id="Trazado_726619" data-name="Trazado 726619" d="M439.323,134.124c-.7,0-1.27.756-1.27,1.689s.568,1.689,1.27,1.689,1.27-.756,1.27-1.689S440.024,134.124,439.323,134.124Z" transform="translate(-374.819 -62.036)"/>
      <path id="Trazado_726620" data-name="Trazado 726620" d="M326.472,213.219c-3.181,0-5.768,3.282-5.768,7.317s2.588,7.317,5.768,7.317,5.768-3.282,5.768-7.317S329.653,213.219,326.472,213.219Zm0,12.469c-1.954,0-3.6-2.359-3.6-5.152s1.65-5.152,3.6-5.152,3.6,2.359,3.6,5.152S328.426,225.688,326.472,225.688Z" transform="translate(-274.41 -129.714)"/>
      <path id="Trazado_726621" data-name="Trazado 726621" d="M353.138,252.2c-.7,0-1.27.756-1.27,1.689s.568,1.689,1.27,1.689,1.27-.756,1.27-1.689S353.839,252.2,353.138,252.2Z" transform="translate(-301.075 -163.07)"/>
    </g>
  </g>
</svg>
