<svg xmlns="http://www.w3.org/2000/svg" width="63" height="63" viewBox="0 0 63 63">
  <g id="_7" data-name="7" transform="translate(3661 10794)">
    <circle id="Elipse_4842" data-name="Elipse 4842" cx="31.5" cy="31.5" r="31.5" transform="translate(-3661 -10794)" fill="#ff6e33"/>
    <path id="Trazado_727150" data-name="Trazado 727150" d="M18.078-29.569v5.305h-.3a10.129,10.129,0,0,0-6.216,1.812,7.65,7.65,0,0,0-2.993,5.035,7.889,7.889,0,0,1,5.766-2.242A7.359,7.359,0,0,1,20.36-16.9,11.143,11.143,0,0,1,22.6-9.649a10.2,10.2,0,0,1-1.311,5.1A9.357,9.357,0,0,1,17.627-.911,10.527,10.527,0,0,1,12.412.4,10.88,10.88,0,0,1,6.867-1.011a9.7,9.7,0,0,1-3.8-4.034,13.283,13.283,0,0,1-1.4-6.046v-2.7a16.827,16.827,0,0,1,1.932-8.1,14.005,14.005,0,0,1,5.515-5.635,15.769,15.769,0,0,1,7.948-2.042ZM11.992-14.494a3.86,3.86,0,0,0-2.242.621,3.94,3.94,0,0,0-1.341,1.521v2.022q0,5.525,3.824,5.525A3.1,3.1,0,0,0,14.8-6.186a5.63,5.63,0,0,0,1.031-3.463,5.526,5.526,0,0,0-1.051-3.493A3.362,3.362,0,0,0,11.992-14.494Z" transform="translate(-3641 -10748)" fill="#fff"/>
  </g>
</svg>
