<svg xmlns="http://www.w3.org/2000/svg" width="161.453" height="136" viewBox="0 0 161.453 136">
  <g id="_7" data-name="7" transform="translate(-3436.547 9131)">
    <g id="Grupo_958273" data-name="Grupo 958273" transform="translate(2493 -10389)">
      <g id="Grupo_958245" data-name="Grupo 958245">
        <rect id="Rectángulo_340365" data-name="Rectángulo 340365" width="137" height="136" rx="12" transform="translate(968 1258)" fill="#e8e8e8"/>
      </g>
      <g id="_x32_2_x2C__memories_x2C__time_x2C__emotion_x2C__memory_x2C__efficiency_x2C__clock" transform="translate(942.454 1286.907)">
        <g id="Grupo_958246" data-name="Grupo 958246" transform="translate(1.093 1.093)">
          <path id="Trazado_726503" data-name="Trazado 726503" d="M25.046,1.093A23.769,23.769,0,0,0,10.514,6V5.32a1.409,1.409,0,0,0-2.818,0V9.107a1.41,1.41,0,0,0,2.4,1,21.071,21.071,0,1,1-4.064,5.7A1.409,1.409,0,0,0,3.5,14.566,23.957,23.957,0,1,0,25.046,1.093Z" transform="translate(-1.093 -1.093)" fill="#ea526f"/>
          <path id="Trazado_726504" data-name="Trazado 726504" d="M92.974,109.883A16.908,16.908,0,1,0,76.066,92.974,16.928,16.928,0,0,0,92.974,109.883ZM85.049,97.51,91.565,92.3V84.52a1.409,1.409,0,0,1,2.818,0v8.454a1.409,1.409,0,0,1-.529,1.1l-7.045,5.636a1.409,1.409,0,0,1-1.76-2.2Z" transform="translate(-69.021 -69.021)" fill="#ea526f"/>
        </g>
      </g>
    </g>
    <g id="controlar" transform="translate(3485.795 -9124.8)">
      <g id="Grupo_958274" data-name="Grupo 958274" transform="translate(6 14.8)">
        <path id="Trazado_726531" data-name="Trazado 726531" d="M21.1,175.4H56.37v31.539H21.1Z" transform="translate(-18.135 -143.861)" fill="#fbd18f" fill-rule="evenodd"/>
        <path id="Trazado_726532" data-name="Trazado 726532" d="M92.6,175.4h7.188v23.919H92.6Z" transform="translate(-75.593 -143.861)" fill="#ed1968" fill-rule="evenodd"/>
        <path id="Trazado_726533" data-name="Trazado 726533" d="M200.7,175.4h35.27v31.539H200.7Z" transform="translate(-162.465 -143.861)" fill="#e2bc81" fill-rule="evenodd"/>
        <path id="Trazado_726534" data-name="Trazado 726534" d="M272.2,175.4h7.207v23.919H272.2Z" transform="translate(-219.924 -143.861)" fill="#ed1968" fill-rule="evenodd"/>
        <path id="Trazado_726535" data-name="Trazado 726535" d="M110.9,14.8h35.27V46.339H110.9Z" transform="translate(-90.3 -14.8)" fill="#fcb13b" fill-rule="evenodd"/>
        <path id="Trazado_726536" data-name="Trazado 726536" d="M182.4,14.8h7.188V38.719H182.4Z" transform="translate(-147.759 -14.8)" fill="#ed1968" fill-rule="evenodd"/>
        <path id="Trazado_726537" data-name="Trazado 726537" d="M6,351.278H82.47V336H6Zm5.931-5.086H38.953v-5.106H11.931Zm37.568,0h26.3v-5.106H49.5Z" transform="translate(-6 -272.923)" fill="#0ce6ea" fill-rule="evenodd"/>
        <path id="Trazado_726538" data-name="Trazado 726538" d="M223.5,249.5h40.278v48.643H223.5Z" transform="translate(-180.787 -203.41)" fill="#e6e6e6" fill-rule="evenodd"/>
        <path id="Trazado_726539" data-name="Trazado 726539" d="M263.778,273.4v43.95H223.5v-11.7q22.741-9.043,40.278-32.246Z" transform="translate(-180.787 -222.616)" fill="#d8d8d8" fill-rule="evenodd"/>
      </g>
      <path id="Trazado_726540" data-name="Trazado 726540" d="M245.882,274.064a.982.982,0,0,1,0-1.964h19.029a.985.985,0,0,1,.982.982.972.972,0,0,1-.982.982Zm0,34.209a.985.985,0,0,1-.982-.982.972.972,0,0,1,.982-.982h19.029a.982.982,0,0,1,0,1.964Zm0,3.338a.985.985,0,0,1-.982-.982.972.972,0,0,1,.982-.982h19.029a.982.982,0,1,1,0,1.964Zm0-14.748a.982.982,0,0,1,0-1.964h19.029a.985.985,0,0,1,.982.982.972.972,0,0,1-.982.982Zm0,3.338a.982.982,0,0,1,0-1.964h19.029a.985.985,0,0,1,.982.982.972.972,0,0,1-.982.982Zm0-14.748a.985.985,0,0,1-.982-.982.972.972,0,0,1,.982-.982h19.029a.982.982,0,1,1,0,1.964Zm0,3.339a.985.985,0,0,1-.982-.982.972.972,0,0,1,.982-.982h19.029a.982.982,0,0,1,0,1.964Zm0-11.39a.982.982,0,0,1,0-1.964h19.029a.985.985,0,0,1,.982.982.972.972,0,0,1-.982.982Z" transform="translate(-191.985 -206.771)" fill="gray"/>
      <path id="Trazado_726541" data-name="Trazado 726541" d="M369.6,269.9h6.147v6.147H369.6Z" transform="translate(-292.196 -205.003)" fill="#fff" fill-rule="evenodd"/>
      <path id="Trazado_726542" data-name="Trazado 726542" d="M369.6,328h6.147v6.147H369.6Z" transform="translate(-292.196 -251.694)" fill="#fff" fill-rule="evenodd"/>
      <path id="Trazado_726543" data-name="Trazado 726543" d="M369.6,386.1h6.147v6.147H369.6Z" transform="translate(-292.196 -298.384)" fill="#fff" fill-rule="evenodd"/>
      <path id="Trazado_726544" data-name="Trazado 726544" d="M369.6,444.1h6.147v6.147H369.6Z" transform="translate(-292.196 -344.994)" fill="#fff" fill-rule="evenodd"/>
      <path id="Trazado_726545" data-name="Trazado 726545" d="M409.984,276.588,394.627,304.18l-7.227,4.968.412-8.759,15.416-27.69Z" transform="translate(-306.501 -207.254)" fill="#1448d3" fill-rule="evenodd"/>
      <path id="Trazado_726546" data-name="Trazado 726546" d="M478.29,260.291a2.969,2.969,0,0,1,1.159,4.026l-.923,1.669L473.4,263.02l.884-1.591A2.947,2.947,0,0,1,478.29,260.291Z" transform="translate(-375.612 -196.985)" fill="#1448d3" fill-rule="evenodd"/>
      <path id="Trazado_726547" data-name="Trazado 726547" d="M407.745,286l-6.284,11.292-2.141,3.829-6.481,11.645-5.283,3.633-.157,3.437,7.227-4.968,4.772-8.582,2.141-3.829,8.444-15.18Z" transform="translate(-306.501 -217.942)" fill="#dbfafa" fill-rule="evenodd"/>
    </g>
  </g>
</svg>
