<svg xmlns="http://www.w3.org/2000/svg" width="161.453" height="136" viewBox="0 0 161.453 136">
  <g id="_8" data-name="8" transform="translate(-3436.547 8810)">
    <g id="Grupo_958279" data-name="Grupo 958279" transform="translate(0 321)">
      <g id="Grupo_958273" data-name="Grupo 958273" transform="translate(2493 -10389)">
        <g id="Grupo_958245" data-name="Grupo 958245">
          <rect id="Rectángulo_340365" data-name="Rectángulo 340365" width="137" height="136" rx="12" transform="translate(968 1258)" fill="#e8e8e8"/>
        </g>
        <g id="_x32_2_x2C__memories_x2C__time_x2C__emotion_x2C__memory_x2C__efficiency_x2C__clock" transform="translate(942.454 1286.907)">
          <g id="Grupo_958246" data-name="Grupo 958246" transform="translate(1.093 1.093)">
            <path id="Trazado_726503" data-name="Trazado 726503" d="M25.046,1.093A23.769,23.769,0,0,0,10.514,6V5.32a1.409,1.409,0,0,0-2.818,0V9.107a1.41,1.41,0,0,0,2.4,1,21.071,21.071,0,1,1-4.064,5.7A1.409,1.409,0,0,0,3.5,14.566,23.957,23.957,0,1,0,25.046,1.093Z" transform="translate(-1.093 -1.093)" fill="#ea526f"/>
            <path id="Trazado_726504" data-name="Trazado 726504" d="M92.974,109.883A16.908,16.908,0,1,0,76.066,92.974,16.928,16.928,0,0,0,92.974,109.883ZM85.049,97.51,91.565,92.3V84.52a1.409,1.409,0,0,1,2.818,0v8.454a1.409,1.409,0,0,1-.529,1.1l-7.045,5.636a1.409,1.409,0,0,1-1.76-2.2Z" transform="translate(-69.021 -69.021)" fill="#ea526f"/>
          </g>
        </g>
      </g>
    </g>
    <g id="gestion" transform="translate(3479 -8789)">
      <path id="Trazado_726548" data-name="Trazado 726548" d="M60.009,20.813a32,32,0,0,1,8.4,3.483l10.514-7.612L87.335,25.1,79.722,35.61a32.023,32.023,0,0,1,3.483,8.4L96.018,46.06v11.9L83.206,60.009a31.994,31.994,0,0,1-3.483,8.4l7.612,10.514-8.413,8.413L68.408,79.722a32.017,32.017,0,0,1-8.4,3.483L57.958,96.018H46.06L44.009,83.206a32,32,0,0,1-8.4-3.483L25.1,87.335l-8.413-8.413L24.3,68.408a32.024,32.024,0,0,1-3.483-8.4L8,57.958v-11.9l12.814-2.051a32.005,32.005,0,0,1,3.482-8.4L16.684,25.1,25.1,16.684,35.61,24.3a32,32,0,0,1,8.4-3.483L46.06,8h11.9Z" fill="#0ce6ea" fill-rule="evenodd"/>
      <path id="Trazado_726549" data-name="Trazado 726549" d="M393.949,100.26a32,32,0,0,1-3.483,8.4l7.612,10.514-6.8,6.8,2.234,1.618,8.413-8.413-7.612-10.514a32,32,0,0,0,3.483-8.4l12.813-2.051v-11.9L397.8,84.261a32.024,32.024,0,0,0-3.483-8.4l7.612-10.514-8.413-8.413-2.234,1.618,6.8,6.8-7.612,10.514a32.026,32.026,0,0,1,3.483,8.4l12.813,2.051v11.9Z" transform="translate(-314.595 -40.251)" fill="#c7f1f2" fill-rule="evenodd"/>
      <circle id="Elipse_4622" data-name="Elipse 4622" cx="24.4" cy="24.4" r="24.4" transform="translate(17.497 52.009) rotate(-45)" fill="#eceff1"/>
      <path id="Trazado_726550" data-name="Trazado 726550" d="M142.9,118.5a24.4,24.4,0,0,0,0,48.8q.9,0,1.775-.065a24.4,24.4,0,0,1,0-48.671q-.88-.063-1.775-.065Z" transform="translate(-90.89 -90.891)" fill="#d1d1d6" fill-rule="evenodd"/>
      <path id="Trazado_726551" data-name="Trazado 726551" d="M171.165,206.9a2.786,2.786,0,0,1,3.94-3.94l6.9,6.9L196,195.727a2.778,2.778,0,0,1,3.94,3.918c-5.319,5.372-10.615,10.785-15.96,16.13a2.786,2.786,0,0,1-3.94,0Z" transform="translate(-133.54 -153.74)" fill="#1448d3" fill-rule="evenodd"/>
    </g>
  </g>
</svg>
