<svg xmlns="http://www.w3.org/2000/svg" width="154" height="129" viewBox="0 0 154 129">
  <g id="_8" data-name="8" transform="translate(-236 -2817)">
    <rect id="Rectángulo_340443" data-name="Rectángulo 340443" width="154" height="129" rx="10" transform="translate(236 2817)" fill="#fff"/>
    <g id="distancia" transform="translate(259.003 2768.469)">
      <circle id="Elipse_4638" data-name="Elipse 4638" cx="6.858" cy="6.858" r="6.858" transform="translate(13.481 136.037)" fill="#efeaea"/>
      <circle id="Elipse_4639" data-name="Elipse 4639" cx="6.858" cy="6.858" r="6.858" transform="translate(80.59 135.847)" fill="#efeaea"/>
      <path id="Trazado_726705" data-name="Trazado 726705" d="M17.94,126.752a3.711,3.711,0,0,0,2.58,1.19h.04a3.708,3.708,0,0,0,2.58-1.19l.053-.054c8.371-8.8,23.953-25.175,15.4-41.438l-.009-.017A20.683,20.683,0,0,0,20.575,74.531H20.5A20.688,20.688,0,0,0,2.482,85.259c-8.548,16.265,7.034,32.64,15.4,41.438Z" transform="translate(0)" fill="#285680"/>
      <path id="Trazado_726706" data-name="Trazado 726706" d="M66.166,130.345A11.386,11.386,0,1,0,54.781,141.73a11.386,11.386,0,0,0,11.385-11.385Z" transform="translate(-34.24 -35.053)" fill="#efeaea"/>
      <path id="Trazado_726707" data-name="Trazado 726707" d="M335.24,126.752a3.711,3.711,0,0,0,2.58,1.19h.04a3.708,3.708,0,0,0,2.58-1.19l.053-.054c8.371-8.8,23.953-25.173,15.4-41.438l-.009-.017a20.683,20.683,0,0,0-18.014-10.712h-.07a20.689,20.689,0,0,0-18.023,10.728c-8.548,16.265,7.034,32.64,15.4,41.438Z" transform="translate(-250.343)" fill="#e03e36"/>
      <path id="Trazado_726708" data-name="Trazado 726708" d="M383.461,130.345a11.386,11.386,0,1,0-11.385,11.385,11.386,11.386,0,0,0,11.385-11.385Z" transform="translate(-284.58 -35.053)" fill="#efeaea"/>
      <path id="Trazado_726709" data-name="Trazado 726709" d="M135.884,358.735a7.969,7.969,0,0,0-10.417,4.3q-.151.364-.265.736H73.963a8.548,8.548,0,0,0-.31-.892,8.42,8.42,0,1,0-.006,6.443,8.59,8.59,0,0,0,.317-.907H125.2q.111.364.258.721a7.97,7.97,0,1,0,10.423-10.4Zm-66.527,8.808a3.776,3.776,0,1,1,0-2.891A3.776,3.776,0,0,1,69.357,367.543Zm64.739,1.626a3.327,3.327,0,1,1,1.8-4.345A3.327,3.327,0,0,1,134.1,369.169Z" transform="translate(-45.33 -223.395)" fill="#cb8252"/>
    </g>
  </g>
</svg>
