<svg xmlns="http://www.w3.org/2000/svg" width="63" height="63" viewBox="0 0 63 63">
  <g id="_9" data-name="9" transform="translate(3106 10794)">
    <circle id="Elipse_4844" data-name="Elipse 4844" cx="31.5" cy="31.5" r="31.5" transform="translate(-3106 -10794)" fill="#ff6e33"/>
    <path id="Trazado_727148" data-name="Trazado 727148" d="M21.441-21.361a6.729,6.729,0,0,1-1.051,3.744,7.655,7.655,0,0,1-2.893,2.6,8.424,8.424,0,0,1,3.3,2.793,7.207,7.207,0,0,1,1.221,4.194,7.628,7.628,0,0,1-2.693,6.166A11.182,11.182,0,0,1,11.912.4,11.386,11.386,0,0,1,4.424-1.872,7.575,7.575,0,0,1,1.682-8.028a7.3,7.3,0,0,1,1.2-4.144,8.168,8.168,0,0,1,3.4-2.843,7.7,7.7,0,0,1-2.923-2.6A6.682,6.682,0,0,1,2.3-21.361a7.479,7.479,0,0,1,2.583-6.006,10.381,10.381,0,0,1,6.967-2.2,10.445,10.445,0,0,1,7.007,2.2A7.479,7.479,0,0,1,21.441-21.361ZM15.255-8.568a3.848,3.848,0,0,0-.931-2.773,3.242,3.242,0,0,0-2.452-.971,3.274,3.274,0,0,0-2.462.971,3.823,3.823,0,0,0-.941,2.773,3.856,3.856,0,0,0,.951,2.753A3.263,3.263,0,0,0,11.912-4.8a3.136,3.136,0,0,0,2.422-1A3.926,3.926,0,0,0,15.255-8.568Zm-3.4-15.8a2.493,2.493,0,0,0-2.072.891A3.866,3.866,0,0,0,9.069-21a4.1,4.1,0,0,0,.721,2.522,2.487,2.487,0,0,0,2.122.961,2.385,2.385,0,0,0,2.072-.961A4.227,4.227,0,0,0,14.674-21a3.875,3.875,0,0,0-.711-2.462A2.527,2.527,0,0,0,11.852-24.364Z" transform="translate(-3086 -10748)" fill="#fff"/>
  </g>
</svg>
