<svg xmlns="http://www.w3.org/2000/svg" xmlns:xlink="http://www.w3.org/1999/xlink" width="200" height="200" viewBox="0 0 200 200">
  <defs>
    <filter id="Trazado_113938" x="0" y="0" width="200" height="200" filterUnits="userSpaceOnUse">
      <feOffset input="SourceAlpha"/>
      <feGaussianBlur stdDeviation="20" result="blur"/>
      <feFlood flood-color="#402d27" flood-opacity="0.192"/>
      <feComposite operator="in" in2="blur"/>
      <feComposite in="SourceGraphic"/>
    </filter>
  </defs>
  <g id="a1" transform="translate(-847.333 -86)">
    <g id="Grupo_958434" data-name="Grupo 958434" transform="translate(-43 -28)">
      <g transform="matrix(1, 0, 0, 1, 890.33, 114)" filter="url(#Trazado_113938)">
        <path id="Trazado_113938-2" data-name="Trazado 113938" d="M40,0A40,40,0,1,1,10.363,13.136,40,40,0,0,1,40,0Z" transform="translate(60 60)" fill="#ea526f"/>
      </g>
    </g>
    <g id="tela" transform="translate(923.717 162.391)">
      <path id="Trazado_727114" data-name="Trazado 727114" d="M7.735,33.393,7.7,33.367a1.95,1.95,0,0,1,0-3.13l.1-.074-.1-.074a1.95,1.95,0,0,1,0-3.129l.1-.074-.1-.074a1.95,1.95,0,0,1,0-3.13l.1-.074-.1-.074a1.95,1.95,0,0,1,0-3.13l.1-.074-.1-.074a1.95,1.95,0,0,1,0-3.129l.1-.074-.1-.074a1.95,1.95,0,0,1,0-3.13l.1-.074L7.7,13.7a1.95,1.95,0,0,1,0-3.13l.1-.074-.1-.074a1.954,1.954,0,1,1,2.734-2.735l.074.1.074-.1a1.95,1.95,0,0,1,3.129,0l.074.1.074-.1a1.95,1.95,0,0,1,3.129,0l.074.1.074-.1a1.95,1.95,0,0,1,3.129,0l.074.1.074-.1a1.95,1.95,0,0,1,3.129,0l.074.1.074-.1a1.95,1.95,0,0,1,3.129,0l.074.1.074-.1a1.95,1.95,0,0,1,3.129,0l.074.1.074-.1a1.95,1.95,0,0,1,3.129,0l.025.033a2.062,2.062,0,0,0-.624-.761,2.042,2.042,0,0,0,0-3.277A2.046,2.046,0,1,0,29.911.823a2.043,2.043,0,0,0-3.277,0,2.043,2.043,0,0,0-3.277,0,2.043,2.043,0,0,0-3.277,0,2.043,2.043,0,0,0-3.277,0,2.043,2.043,0,0,0-3.277,0,2.043,2.043,0,0,0-3.277,0,2.042,2.042,0,0,0-3.277,0,2.043,2.043,0,0,0-3.277,0A2.046,2.046,0,1,0,.831,3.687a2.043,2.043,0,0,0,0,3.277,2.043,2.043,0,0,0,0,3.277,2.043,2.043,0,0,0,0,3.277,2.043,2.043,0,0,0,0,3.277,2.043,2.043,0,0,0,0,3.277,2.043,2.043,0,0,0,0,3.277,2.043,2.043,0,0,0,0,3.277,2.043,2.043,0,0,0,0,3.277,2.046,2.046,0,1,0,2.864,2.864,2.043,2.043,0,0,0,3.277,0,2.064,2.064,0,0,0,.763.625Z" transform="translate(0 0)" fill="#fed402"/>
      <path id="Trazado_727115" data-name="Trazado 727115" d="M2.056,0A2.046,2.046,0,0,0,.831,3.687a2.043,2.043,0,0,0,0,3.277,2.043,2.043,0,0,0,0,3.277,2.043,2.043,0,0,0,0,3.277,2.043,2.043,0,0,0,0,3.277,2.043,2.043,0,0,0,0,3.277,2.043,2.043,0,0,0,0,3.277,2.043,2.043,0,0,0,0,3.277,2.043,2.043,0,0,0,0,3.277,2.046,2.046,0,1,0,2.864,2.864c.036.048.074.093.114.138V.685c-.04.044-.078.09-.114.138A2.043,2.043,0,0,0,2.056,0Z" transform="translate(0 0)" fill="#fac600"/>
      <path id="Trazado_727116" data-name="Trazado 727116" d="M81.618,107.272l-.034-.026a1.95,1.95,0,0,1,0-3.13l.1-.074-.1-.074a1.95,1.95,0,0,1,0-3.13l.1-.074-.1-.074a1.95,1.95,0,0,1,0-3.129l.1-.074-.1-.074a1.95,1.95,0,0,1,0-3.13l.1-.074-.1-.074a1.95,1.95,0,0,1,0-3.13l.1-.074-.1-.074a1.95,1.95,0,0,1,0-3.129l.1-.074-.1-.074a1.95,1.95,0,0,1,0-3.13l.1-.074-.1-.074a1.954,1.954,0,1,1,2.735-2.735l.074.1.074-.1a1.95,1.95,0,0,1,3.129,0l.074.1.074-.1a1.95,1.95,0,0,1,3.129,0l.074.1.074-.1a1.95,1.95,0,0,1,3.129,0l.074.1.074-.1a1.95,1.95,0,0,1,3.129,0l.074.1.074-.1a1.95,1.95,0,0,1,3.129,0l.074.1.074-.1a1.95,1.95,0,0,1,3.129,0l.074.1.074-.1a1.95,1.95,0,0,1,3.129,0l.025.033a2.062,2.062,0,0,0-.624-.761,2.043,2.043,0,0,0,0-3.277A2.046,2.046,0,1,0,103.8,74.7a2.043,2.043,0,0,0-3.277,0,2.043,2.043,0,0,0-3.277,0,2.043,2.043,0,0,0-3.277,0,2.043,2.043,0,0,0-3.277,0,2.043,2.043,0,0,0-3.277,0,2.043,2.043,0,0,0-3.277,0,2.042,2.042,0,0,0-3.277,0,2.043,2.043,0,0,0-3.277,0,2.046,2.046,0,1,0-2.863,2.864,2.043,2.043,0,0,0,0,3.277,2.043,2.043,0,0,0,0,3.277,2.043,2.043,0,0,0,0,3.277,2.043,2.043,0,0,0,0,3.277,2.043,2.043,0,0,0,0,3.277,2.043,2.043,0,0,0,0,3.277,2.043,2.043,0,0,0,0,3.277,2.043,2.043,0,0,0,0,3.277,2.046,2.046,0,1,0,2.863,2.864,2.043,2.043,0,0,0,3.277,0,2.066,2.066,0,0,0,.763.624Z" transform="translate(-67.07 -67.066)" fill="#fe76a8"/>
      <path id="Trazado_727117" data-name="Trazado 727117" d="M75.942,73.885a2.046,2.046,0,0,0-1.225,3.687,2.043,2.043,0,0,0,0,3.277,2.043,2.043,0,0,0,0,3.277,2.043,2.043,0,0,0,0,3.277,2.043,2.043,0,0,0,0,3.277,2.043,2.043,0,0,0,0,3.277,2.043,2.043,0,0,0,0,3.277,2.043,2.043,0,0,0,0,3.277,2.043,2.043,0,0,0,0,3.277,2.046,2.046,0,1,0,2.863,2.864c.036.048.074.093.114.138V74.57c-.04.044-.078.09-.114.138A2.043,2.043,0,0,0,75.942,73.885Z" transform="translate(-67.072 -67.071)" fill="#fe5694"/>
      <path id="Trazado_727118" data-name="Trazado 727118" d="M181.362,153.094a2.043,2.043,0,0,0-.823-1.639,2.046,2.046,0,1,0-2.864-2.864,2.043,2.043,0,0,0-3.277,0,2.043,2.043,0,0,0-3.277,0,2.043,2.043,0,0,0-3.277,0,2.043,2.043,0,0,0-3.277,0,2.043,2.043,0,0,0-3.277,0,2.043,2.043,0,0,0-3.277,0,2.043,2.043,0,0,0-3.277,0,2.042,2.042,0,0,0-3.277,0,2.046,2.046,0,1,0-2.864,2.864,2.043,2.043,0,0,0,0,3.277,2.043,2.043,0,0,0,0,3.277,2.043,2.043,0,0,0,0,3.277,2.043,2.043,0,0,0,0,3.277,2.043,2.043,0,0,0,0,3.277,2.043,2.043,0,0,0,0,3.277,2.043,2.043,0,0,0,0,3.277,2.043,2.043,0,0,0,0,3.277,2.046,2.046,0,1,0,2.864,2.864,2.043,2.043,0,0,0,3.277,0,2.043,2.043,0,0,0,3.277,0,2.043,2.043,0,0,0,3.277,0,2.043,2.043,0,0,0,3.277,0,2.043,2.043,0,0,0,3.277,0,2.043,2.043,0,0,0,3.277,0,2.043,2.043,0,0,0,3.277,0,2.043,2.043,0,0,0,3.277,0,2.046,2.046,0,1,0,2.864-2.864,2.043,2.043,0,0,0,0-3.277,2.043,2.043,0,0,0,0-3.277,2.043,2.043,0,0,0,0-3.277,2.043,2.043,0,0,0,0-3.277,2.043,2.043,0,0,0,0-3.277,2.043,2.043,0,0,0,0-3.277,2.043,2.043,0,0,0,0-3.277A2.043,2.043,0,0,0,181.362,153.094Z" transform="translate(-134.137 -134.141)" fill="#01d0fb"/>
      <g id="Grupo_960439" data-name="Grupo 960439" transform="translate(9.719 10.177)">
        <circle id="Elipse_4849" data-name="Elipse 4849" cx="0.692" cy="0.692" r="0.692" transform="translate(26.268)" fill="#fff"/>
        <circle id="Elipse_4850" data-name="Elipse 4850" cx="0.692" cy="0.692" r="0.692" transform="translate(22.579)" fill="#fff"/>
        <circle id="Elipse_4851" data-name="Elipse 4851" cx="0.692" cy="0.692" r="0.692" transform="translate(18.89)" fill="#fff"/>
        <circle id="Elipse_4852" data-name="Elipse 4852" cx="0.692" cy="0.692" r="0.692" transform="translate(15.201)" fill="#fff"/>
        <circle id="Elipse_4853" data-name="Elipse 4853" cx="0.692" cy="0.692" r="0.692" transform="translate(11.512)" fill="#fff"/>
        <circle id="Elipse_4854" data-name="Elipse 4854" cx="0.692" cy="0.692" r="0.692" transform="translate(7.823)" fill="#fff"/>
        <circle id="Elipse_4855" data-name="Elipse 4855" cx="0.692" cy="0.692" r="0.692" transform="translate(4.134)" fill="#fff"/>
        <circle id="Elipse_4856" data-name="Elipse 4856" cx="0.692" cy="0.692" r="0.692" fill="#fff"/>
        <circle id="Elipse_4857" data-name="Elipse 4857" cx="0.692" cy="0.692" r="0.692" transform="translate(0 3.505)" fill="#fff"/>
        <circle id="Elipse_4858" data-name="Elipse 4858" cx="0.692" cy="0.692" r="0.692" transform="translate(0 7.009)" fill="#fff"/>
        <circle id="Elipse_4859" data-name="Elipse 4859" cx="0.692" cy="0.692" r="0.692" transform="translate(0 10.514)" fill="#fff"/>
        <circle id="Elipse_4860" data-name="Elipse 4860" cx="0.692" cy="0.692" r="0.692" transform="translate(0 14.018)" fill="#fff"/>
        <circle id="Elipse_4861" data-name="Elipse 4861" cx="0.692" cy="0.692" r="0.692" transform="translate(0 17.523)" fill="#fff"/>
        <circle id="Elipse_4862" data-name="Elipse 4862" cx="0.692" cy="0.692" r="0.692" transform="translate(0 21.027)" fill="#fff"/>
        <circle id="Elipse_4863" data-name="Elipse 4863" cx="0.692" cy="0.692" r="0.692" transform="translate(0 24.532)" fill="#fff"/>
      </g>
      <path id="Trazado_727119" data-name="Trazado 727119" d="M395.027,183.338V150.2a.7.7,0,0,1-1.383.019v33.1a.7.7,0,0,1,1.383.019Z" transform="translate(-357.333 -136.343)" fill="#0290cf"/>
      <path id="Trazado_727120" data-name="Trazado 727120" d="M430.623,183.313V150.164a.7.7,0,0,1-1.383.025v33.1a.7.7,0,0,1,1.383.025Z" transform="translate(-389.647 -136.315)" fill="#0290cf"/>
      <path id="Trazado_727121" data-name="Trazado 727121" d="M359.43,183.365V150.228a.7.7,0,0,1-1.383.013v33.111a.7.7,0,0,1,1.383.013Z" transform="translate(-325.019 -136.373)" fill="#0290cf"/>
      <path id="Trazado_727122" data-name="Trazado 727122" d="M466.221,183.288V150.133a.7.7,0,0,1-1.383.032v33.092a.7.7,0,0,1,1.383.032Z" transform="translate(-421.962 -136.287)" fill="#0290cf"/>
      <path id="Trazado_727123" data-name="Trazado 727123" d="M252.64,150.271a2.065,2.065,0,0,0-.686.587,2.065,2.065,0,0,0-.7-.593V183.4a2.063,2.063,0,0,0,.7-.593,2.064,2.064,0,0,0,.686.587Z" transform="translate(-228.078 -136.407)" fill="#0290cf"/>
      <path id="Trazado_727124" data-name="Trazado 727124" d="M217.042,150.242a2.066,2.066,0,0,0-.68.583,2.065,2.065,0,0,0-.7-.6v33.137a2.063,2.063,0,0,0,.7-.6,2.063,2.063,0,0,0,.68.583Z" transform="translate(-195.763 -136.374)" fill="#0290cf"/>
      <path id="Trazado_727125" data-name="Trazado 727125" d="M181.445,150.215a2.065,2.065,0,0,0-.674.58,2.064,2.064,0,0,0-.709-.6v33.143a2.064,2.064,0,0,0,.709-.6,2.065,2.065,0,0,0,.674.58Z" transform="translate(-163.449 -136.344)" fill="#0290cf"/>
      <path id="Trazado_727126" data-name="Trazado 727126" d="M323.832,183.395V150.264a2.064,2.064,0,0,0-.7.593,2.066,2.066,0,0,0-.686-.587v33.118a2.065,2.065,0,0,0,.686-.586A2.064,2.064,0,0,0,323.832,183.395Z" transform="translate(-292.704 -136.406)" fill="#0290cf"/>
      <path id="Trazado_727127" data-name="Trazado 727127" d="M288.236,183.422V150.3a2.065,2.065,0,0,0-.692.59,2.064,2.064,0,0,0-.692-.59v33.124a2.064,2.064,0,0,0,.692-.59A2.065,2.065,0,0,0,288.236,183.422Z" transform="translate(-260.391 -136.437)" fill="#0290cf"/>
    </g>
  </g>
</svg>
