<svg xmlns="http://www.w3.org/2000/svg" xmlns:xlink="http://www.w3.org/1999/xlink" width="1240" height="190" viewBox="0 0 1240 190">
  <defs>
    <clipPath id="clip-path">
      <rect id="Rectángulo_340509" data-name="Rectángulo 340509" width="268" height="190" transform="translate(1152 1288)" fill="#ffeee6"/>
    </clipPath>
    <clipPath id="clip-path-2">
      <path id="Trazado_727082" data-name="Trazado 727082" d="M56.189,56.192a95.6,95.6,0,1,0,67.605-28,95.608,95.608,0,0,0-67.605,28" transform="translate(-28.187 -28.187)" fill="#1448d3"/>
    </clipPath>
  </defs>
  <g id="bg-tema6" transform="translate(-180 -1298)">
    <rect id="Rectángulo_340495" data-name="Rectángulo 340495" width="1240" height="190" transform="translate(180 1298)" fill="#ffeee6"/>
    <g id="Enmascarar_grupo_927234" data-name="Enmascarar grupo 927234" transform="translate(0 10)" opacity="0.2" clip-path="url(#clip-path)">
      <path id="Trazado_727080" data-name="Trazado 727080" d="M165,0A165,165,0,1,1,0,165,165,165,0,0,1,165,0Z" transform="translate(1241 1288)" fill="#0ce6ea"/>
      <g id="Grupo_960404" data-name="Grupo 960404" transform="translate(1279.033 1313.041)">
        <g id="Grupo_960403" data-name="Grupo 960403" transform="translate(28.187 28.187)" clip-path="url(#clip-path-2)">
          <rect id="Rectángulo_340496" data-name="Rectángulo 340496" width="245.229" height="1.354" transform="translate(72.794 246.198) rotate(-45)" fill="#1448d3"/>
          <rect id="Rectángulo_340497" data-name="Rectángulo 340497" width="245.229" height="1.354" transform="translate(62.89 236.295) rotate(-45)" fill="#1448d3"/>
          <rect id="Rectángulo_340498" data-name="Rectángulo 340498" width="245.229" height="1.354" transform="translate(52.989 226.394) rotate(-45)" fill="#1448d3"/>
          <rect id="Rectángulo_340499" data-name="Rectángulo 340499" width="245.229" height="1.354" transform="translate(43.086 216.49) rotate(-45)" fill="#1448d3"/>
          <rect id="Rectángulo_340500" data-name="Rectángulo 340500" width="245.229" height="1.354" transform="translate(33.184 206.589) rotate(-45)" fill="#1448d3"/>
          <path id="Trazado_727081" data-name="Trazado 727081" d="M214.279,40.876l-173.4,173.4-.957-.959,173.4-173.4Z" transform="translate(-16.637 -16.637)" fill="#1448d3"/>
          <rect id="Rectángulo_340501" data-name="Rectángulo 340501" width="245.229" height="1.354" transform="translate(13.378 186.782) rotate(-45)" fill="#1448d3"/>
          <rect id="Rectángulo_340502" data-name="Rectángulo 340502" width="245.229" height="1.354" transform="translate(3.476 176.881) rotate(-45)" fill="#1448d3"/>
          <rect id="Rectángulo_340503" data-name="Rectángulo 340503" width="245.229" height="1.354" transform="translate(-6.427 166.978) rotate(-45)" fill="#1448d3"/>
          <rect id="Rectángulo_340504" data-name="Rectángulo 340504" width="245.229" height="1.354" transform="translate(-16.331 157.074) rotate(-45)" fill="#1448d3"/>
          <rect id="Rectángulo_340505" data-name="Rectángulo 340505" width="245.229" height="1.354" transform="translate(-26.232 147.173) rotate(-45)" fill="#1448d3"/>
          <rect id="Rectángulo_340506" data-name="Rectángulo 340506" width="245.229" height="1.354" transform="translate(-36.135 137.27) rotate(-45)" fill="#1448d3"/>
          <rect id="Rectángulo_340507" data-name="Rectángulo 340507" width="245.229" height="1.354" transform="translate(-46.037 127.368) rotate(-45)" fill="#1448d3"/>
          <rect id="Rectángulo_340508" data-name="Rectángulo 340508" width="245.229" height="1.354" transform="translate(-55.94 117.465) rotate(-45)" fill="#1448d3"/>
        </g>
      </g>
    </g>
  </g>
</svg>
