<svg xmlns="http://www.w3.org/2000/svg" xmlns:xlink="http://www.w3.org/1999/xlink" width="112.711" height="112.711" viewBox="0 0 112.711 112.711">
  <defs>
    <clipPath id="clip-path">
      <path id="path1206" d="M0-682.665H112.711v112.711H0Z" transform="translate(0 682.665)"/>
    </clipPath>
  </defs>
  <g id="flecha_v" transform="translate(-569.954) rotate(90)">
    <g id="g1202" transform="translate(0 -682.665)">
      <g id="g1204" clip-path="url(#clip-path)">
        <g id="g1210" transform="translate(1.651 21.827)">
          <path id="path1212" d="M-346.1-349.207a9.537,9.537,0,0,1-9.537-9.537v-2.629H-404.6a9.94,9.94,0,0,1-9.94-9.94v-24.845a9.941,9.941,0,0,1,9.94-9.941h48.965v-2.631a9.547,9.547,0,0,1,9.538-9.535,9.564,9.564,0,0,1,5.927,2.073l31.438,24.994a9.483,9.483,0,0,1,3.6,7.461,9.483,9.483,0,0,1-3.6,7.462L-340.17-351.28a9.563,9.563,0,0,1-5.927,2.073Z" transform="translate(414.54 418.264)" fill="#f5f5f5"/>
        </g>
        <g id="g1214" transform="translate(10.091 30.267)">
          <path id="path1216" d="M-465.814-127.6l-31.439-24.994a1.093,1.093,0,0,0-1.773.855v9.978a1.093,1.093,0,0,1-1.093,1.093H-554.9a3.035,3.035,0,0,0-3.034,3.034v21.777a3.034,3.034,0,0,0,3.034,3.034h54.778a1.093,1.093,0,0,1,1.093,1.093v9.978a1.093,1.093,0,0,0,1.773.855l31.439-24.994a1.093,1.093,0,0,0,0-1.711" transform="translate(557.931 152.834)" fill="#0ce6ea"/>
        </g>
        <g id="g1218" transform="translate(66.779 21.827)">
          <path id="path1220" d="M-205.711-136.871l-31.439-24.994a9.563,9.563,0,0,0-5.927-2.073,9.495,9.495,0,0,0-3.312.594,9.548,9.548,0,0,1,2.634,1.479l31.439,24.994a9.483,9.483,0,0,1,3.6,7.461,9.483,9.483,0,0,1-3.6,7.462l-31.439,24.995a9.554,9.554,0,0,1-2.637,1.48,9.518,9.518,0,0,0,3.314.593h0a9.563,9.563,0,0,0,5.927-2.073l31.439-24.995a9.483,9.483,0,0,0,3.6-7.462,9.483,9.483,0,0,0-3.6-7.461" transform="translate(246.391 163.938)" fill="#eee6ee"/>
        </g>
        <g id="g1222" transform="translate(68.996 30.267)">
          <path id="path1224" d="M-167.943-127.6l-31.439-24.994a1.093,1.093,0,0,0-1.773.855v2.986l26.607,21.153a1.093,1.093,0,0,1,0,1.711l-26.607,21.153v2.986a1.093,1.093,0,0,0,1.773.855l31.439-24.994a1.093,1.093,0,0,0,0-1.711" transform="translate(201.154 152.834)" fill="#9feff0"/>
        </g>
        <g id="g1226" transform="translate(1.651 21.827)">
          <path id="path1228" d="M-189.856-287.687h-27.6a9.94,9.94,0,0,1-9.94-9.94v-24.845a9.94,9.94,0,0,1,9.94-9.94H-168.5v-2.631a9.547,9.547,0,0,1,9.538-9.534,9.562,9.562,0,0,1,5.927,2.073l31.439,24.994a9.483,9.483,0,0,1,3.6,7.461,9.484,9.484,0,0,1-3.6,7.462l-31.439,24.995a9.564,9.564,0,0,1-5.927,2.073h0a9.537,9.537,0,0,1-9.537-9.537v-2.629h-14.756" transform="translate(227.401 344.578)" fill="none" stroke="#000" stroke-linecap="round" stroke-linejoin="round" stroke-miterlimit="10" stroke-width="3"/>
        </g>
        <g id="g1230" transform="translate(10.091 30.267)">
          <path id="path1232" d="M-72.868-61.52H-84.244a3.034,3.034,0,0,0-3.034,3.034v21.777a3.034,3.034,0,0,0,3.034,3.034h54.778a1.093,1.093,0,0,1,1.093,1.093V-22.6a1.093,1.093,0,0,0,1.773.855L4.838-46.742a1.093,1.093,0,0,0,0-1.711L-26.6-73.447a1.093,1.093,0,0,0-1.773.855v9.978a1.093,1.093,0,0,1-1.093,1.093h-36.8" transform="translate(87.278 73.686)" fill="none" stroke="#000" stroke-linecap="round" stroke-linejoin="round" stroke-miterlimit="10" stroke-width="3"/>
        </g>
      </g>
    </g>
  </g>
</svg>
