<svg xmlns="http://www.w3.org/2000/svg" width="59" height="59" viewBox="0 0 59 59">
  <g id="i4" transform="translate(-1224 -3871)">
    <circle id="Elipse_4592" data-name="Elipse 4592" cx="29.5" cy="29.5" r="29.5" transform="translate(1224 3871)" fill="#1448d3"/>
    <g id="maquina-de-coser-overlock" transform="translate(1220.689 3882)">
      <path id="Trazado_726406" data-name="Trazado 726406" d="M49.659,17.686a1.492,1.492,0,0,0,.4-1.02V13.781a.53.53,0,0,0-1.061,0v2.885a.439.439,0,0,1-.438.438l-3.5-.014a.438.438,0,0,1-.329-.424V10a.438.438,0,0,1,.438-.438h3.394A.438.438,0,0,1,49,10v1.147a.53.53,0,0,0,1.061,0V10A1.5,1.5,0,0,0,48.6,8.5V7.129a.743.743,0,0,0-.743-.743h-.471v-1.7a1.615,1.615,0,0,0,1.082-1.522,5.287,5.287,0,0,0-.928-2.1h2.036a.53.53,0,0,0,0-1.061H19.783a.53.53,0,0,0,0,1.061h2.039a5.287,5.287,0,0,0-.928,2.1,1.615,1.615,0,0,0,1.082,1.522v1.7H21.49a.743.743,0,0,0-.743.743V8.5A1.5,1.5,0,0,0,19.324,10v6.668a1.5,1.5,0,0,0,1.5,1.5h1.138v3.969A1.239,1.239,0,0,0,23.2,23.372h1.527v1.44a.53.53,0,1,0,1.061,0v-1.44h4.688v2.285H17.124a.814.814,0,0,0-.813.813v2.753a.814.814,0,0,0,.813.813H21.96V34.93A1.239,1.239,0,0,0,23.2,36.168H36.177a.53.53,0,0,0,0-1.061H23.2a.177.177,0,0,1-.177-.177V30.037h6.859a1.657,1.657,0,0,0,1.655-1.655V23.054a.743.743,0,0,0-.743-.743H23.2a.177.177,0,0,1-.177-.177V15.758a.177.177,0,0,1,.177-.177H42.472a.177.177,0,0,1,.177.177V34.931a.177.177,0,0,1-.177.177H38.643a.53.53,0,1,0,0,1.061h3.829A1.239,1.239,0,0,0,43.71,34.93V20.824l4.6.02a1.868,1.868,0,0,0,1.354-3.157Zm-19.185,10.7a.594.594,0,0,1-.594.594H17.372V26.718h13.1Zm1-19.882V7.129a.743.743,0,0,0-.743-.743h-.471v-1.7a1.615,1.615,0,0,0,1.082-1.522,5.287,5.287,0,0,0-.928-2.1h3.773v13.46H32.935V10A1.5,1.5,0,0,0,31.47,8.5ZM29.726,1.976a4.135,4.135,0,0,1,.551,1.19.551.551,0,0,1-1.1,0A4.144,4.144,0,0,1,29.726,1.976Zm.683,5.471V8.5H29.043V7.447Zm4.836-6.387H38.95a5.287,5.287,0,0,0-.928,2.1A1.615,1.615,0,0,0,39.1,4.688v1.7h-.458a.743.743,0,0,0-.743.743V8.5A1.5,1.5,0,0,0,36.451,10v4.523H35.244V1.061ZM40.33,8.5H38.964V7.447H40.33Zm-.7-4.782a.552.552,0,0,1-.551-.551,4.14,4.14,0,0,1,.551-1.19,4.134,4.134,0,0,1,.551,1.19A.552.552,0,0,1,39.634,3.717ZM37.512,10a.438.438,0,0,1,.438-.438h3.394a.438.438,0,0,1,.438.438v4.523h-4.27ZM47.536,8.5H46.17V7.447h1.366Zm-.683-4.782a.552.552,0,0,1-.551-.551,4.14,4.14,0,0,1,.551-1.19,4.135,4.135,0,0,1,.551,1.19A.552.552,0,0,1,46.853,3.717Zm-.531.971v1.7h-.471a.743.743,0,0,0-.743.743V8.5A1.5,1.5,0,0,0,43.67,10v5.455a1.242,1.242,0,0,0-.827-.875V10a1.5,1.5,0,0,0-1.452-1.5V7.129a.743.743,0,0,0-.743-.743h-.483v-1.7a1.615,1.615,0,0,0,1.082-1.522,5.287,5.287,0,0,0-.928-2.1h5.85a5.287,5.287,0,0,0-.928,2.1,1.615,1.615,0,0,0,1.082,1.522ZM22.507,1.976a4.135,4.135,0,0,1,.551,1.19.551.551,0,0,1-1.1,0A4.14,4.14,0,0,1,22.507,1.976Zm.53,2.712a1.615,1.615,0,0,0,1.082-1.522,5.287,5.287,0,0,0-.928-2.1h5.85a5.287,5.287,0,0,0-.928,2.1A1.615,1.615,0,0,0,29.2,4.688v1.7h-.471a.743.743,0,0,0-.743.743V8.5A1.5,1.5,0,0,0,26.542,10v2.631a.53.53,0,1,0,1.061,0V10a.438.438,0,0,1,.438-.438h3.394a.438.438,0,0,1,.438.438v4.523H25.716V10a1.5,1.5,0,0,0-1.481-1.5V7.129a.743.743,0,0,0-.743-.743h-.455v-1.7Zm.136,2.76V8.5H21.808V7.447ZM21.96,15.758V17.1H20.823a.438.438,0,0,1-.438-.438V10a.438.438,0,0,1,.438-.438h3.394a.438.438,0,0,1,.438.438v4.523H23.2A1.239,1.239,0,0,0,21.96,15.758Zm26.347,4.024-4.6-.02V18.145l4.6.02a.809.809,0,0,1,0,1.617Z" fill="#fff"/>
      <path id="Trazado_726407" data-name="Trazado 726407" d="M177.089,245.661v2.08a.53.53,0,1,0,1.061,0v-2.08a.53.53,0,0,0-1.061,0Z" transform="translate(-149.42 -227.815)" fill="#fff"/>
      <path id="Trazado_726408" data-name="Trazado 726408" d="M220.775,245.661v2.08a.53.53,0,1,0,1.061,0v-2.08a.53.53,0,0,0-1.061,0Z" transform="translate(-190.02 -227.815)" fill="#fff"/>
      <path id="Trazado_726409" data-name="Trazado 726409" d="M264.66,245.661v2.08a.53.53,0,1,0,1.061,0v-2.08a.53.53,0,0,0-1.061,0Z" transform="translate(-230.805 -227.815)" fill="#fff"/>
      <path id="Trazado_726410" data-name="Trazado 726410" d="M308.877,245.131a.53.53,0,0,0-.53.53v2.08a.53.53,0,1,0,1.061,0v-2.08A.53.53,0,0,0,308.877,245.131Z" transform="translate(-271.406 -227.815)" fill="#fff"/>
    </g>
  </g>
</svg>
