<svg xmlns="http://www.w3.org/2000/svg" width="61.642" height="86.492" viewBox="0 0 61.642 86.492">
  <g id="num2" transform="translate(10 0.006)">
    <path id="Trazado_103021" data-name="Trazado 103021" d="M2439.867-2019.054v-11.63l10.692-9.6c18.071-16.052,26.856-25.277,27.113-34.882,0-6.7-4.074-12.007-13.62-12.007-7.128,0-13.365,3.539-17.693,6.824l-5.473-13.774c6.237-4.676,15.91-8.468,27.112-8.468,18.71,0,29.021,10.87,29.021,25.783,0,13.776-10.055,24.772-22.02,35.389l-7.637,6.32v.251h31.185v15.8Z" transform="translate(-2448.383 2104.051)" fill="#ff6e33" opacity="0.2" style="isolation: isolate"/>
    <path id="Trazado_103023" data-name="Trazado 103023" d="M2498.548-2017.576h-58.68a1.48,1.48,0,0,1-1.485-1.474v-11.629a1.473,1.473,0,0,1,.488-1.094l10.692-9.6c18.222-16.183,26.388-24.905,26.625-33.828,0-6.754-4.311-10.5-12.136-10.5-5.442,0-11.092,2.2-16.791,6.526a1.49,1.49,0,0,1-1.3.251,1.475,1.475,0,0,1-.982-.879l-5.474-13.777a1.467,1.467,0,0,1,.487-1.717c7.429-5.57,17.637-8.765,28.006-8.765,18.531,0,30.506,10.7,30.506,27.256,0,14.51-10.822,26.112-22.517,36.487l-4.833,4h27.393a1.474,1.474,0,0,1,1.478,1.47,1.475,1.475,0,0,1-1.471,1.478h-31.192a1.479,1.479,0,0,1-1.485-1.473h0v-.251a1.466,1.466,0,0,1,.535-1.133l7.636-6.32c12.884-11.43,21.487-21.648,21.487-34.255,0-14.994-10.553-24.309-27.537-24.309-9.319,0-18.471,2.727-25.309,7.513l4.345,10.94c5.707-3.97,11.424-5.982,17.018-5.982,9.454,0,15.1,5.04,15.1,13.482-.267,10.05-8.732,19.218-27.609,35.98l-10.2,9.16v9.5h57.2a1.475,1.475,0,0,1,1.44,1.509,1.475,1.475,0,0,1-1.432,1.44h-.008Z" transform="translate(-2448.383 2104.051)" fill="#ff6e33"/>
  </g>
</svg>
