<svg xmlns="http://www.w3.org/2000/svg" width="61.077" height="88.026" viewBox="0 0 61.077 88.026">
  <g id="num3" transform="translate(19 0)">
    <path id="Trazado_103013" data-name="Trazado 103013" d="M2798.237-2037.84c3.419,1.772,11.267,5.064,19.116,5.064,10,0,15.064-4.811,15.064-11.014,0-8.1-8.1-11.773-16.584-11.773h-7.844v-13.8h7.469c6.457-.127,14.686-2.533,14.686-9.5,0-4.938-4.051-8.609-12.153-8.609-6.71,0-13.8,2.912-17.217,4.938l-3.923-13.925c4.936-3.164,14.811-6.2,25.445-6.2,17.6,0,27.343,9.241,27.343,20.508,0,8.735-4.937,15.571-15.063,19.115v.254c9.874,1.771,17.85,9.241,17.85,20,0,14.558-12.786,25.191-33.674,25.191-10.633,0-19.621-2.785-24.432-5.824Z" transform="translate(-2811.837 2104.134)" fill="#ea526f" opacity="0.2" style="isolation: isolate"/>
    <path id="Trazado_103015" data-name="Trazado 103015" d="M2818.746-2016.108c-11.529,0-20.588-3.126-25.221-6.052a1.478,1.478,0,0,1-.636-1.636l3.923-14.432a1.475,1.475,0,0,1,1.81-1.038,1.455,1.455,0,0,1,.3.117c1.578.818,9.879,4.9,18.436,4.9,8.381,0,13.589-3.655,13.589-9.537,0-7.6-8.139-10.3-15.108-10.3h-7.845a1.477,1.477,0,0,1-1.477-1.477h0v-13.8a1.475,1.475,0,0,1,1.475-1.477h7.472c1.325-.026,13.208-.476,13.208-8.018,0-4.465-3.992-7.132-10.677-7.132-6.708,0-13.7,3.1-16.464,4.731a1.478,1.478,0,0,1-2.022-.517,1.511,1.511,0,0,1-.151-.354l-3.922-13.925a1.476,1.476,0,0,1,.624-1.643c5-3.2,15.049-6.436,26.242-6.436,19.908,0,28.821,11.042,28.821,21.985,0,8.373-4.335,14.982-12.3,18.94,9.176,3.137,15.094,10.95,15.094,20.43a25.1,25.1,0,0,1-.554,5.268,1.477,1.477,0,0,1-1.8,1.063,1.477,1.477,0,0,1-1.087-1.689,22.011,22.011,0,0,0,.487-4.642c0-10.751-8.354-17.062-16.634-18.547a1.479,1.479,0,0,1-1.215-1.453v-.254a1.476,1.476,0,0,1,.991-1.393c9.209-3.221,14.076-9.351,14.076-17.721,0-11.384-10.4-19.031-25.867-19.031-9.857,0-18.918,2.708-23.717,5.411l3.117,11.06c3.721-1.878,10.037-4.234,16.3-4.234,10.049,0,13.629,5.21,13.629,10.085,0,7.865-8.69,10.825-16.132,10.972h-6.022v10.845h6.372c8.99,0,18.06,4.1,18.06,13.248,0,7.588-6.493,12.49-16.541,12.49-7.527,0-14.806-2.89-18.158-4.434l-3.162,11.627c4.386,2.439,12.568,5.044,22.709,5.044a1.477,1.477,0,0,1,1.438,1.515,1.479,1.479,0,0,1-1.438,1.438Z" transform="translate(-2811.837 2104.134)" fill="#ea526f"/>
  </g>
</svg>
